%TF.GenerationSoftware,KiCad,Pcbnew,10.0.6*%
%TF.CreationDate,2026-09-19T16:27:35+00:00*%
%TF.ProjectId,eswitch,65737769-7463-4682-9e6b-696361645f70,rev?*%
%TF.SameCoordinates,Original*%
%TF.FileFunction,Paste,Bot*%
%TF.FilePolarity,Positive*%
%FSLAX46Y46*%
G04 Gerber Fmt 4.6, Leading zero omitted, Abs format (unit mm)*
G04 Created by KiCad (PCBNEW 10.0.6) date 2026-09-19 16:27:35*
%MOMM*%
%LPD*%
G01*
G04 APERTURE LIST*
G04 Aperture macros list*
%AMRoundRect*
0 Rectangle with rounded corners*
0 $1 Rounding radius*
0 $2 $3 $4 $5 $6 $7 $8 $9 X,Y pos of 4 corners*
0 Add a 4 corners polygon primitive as box body*
4,1,4,$2,$3,$4,$5,$6,$7,$8,$9,$2,$3,0*
0 Add four circle primitives for the rounded corners*
1,1,$1+$1,$2,$3*
1,1,$1+$1,$4,$5*
1,1,$1+$1,$6,$7*
1,1,$1+$1,$8,$9*
0 Add four rect primitives between the rounded corners*
20,1,$1+$1,$2,$3,$4,$5,0*
20,1,$1+$1,$4,$5,$6,$7,0*
20,1,$1+$1,$6,$7,$8,$9,0*
20,1,$1+$1,$8,$9,$2,$3,0*%
G04 Aperture macros list end*
%ADD10RoundRect,0.225000X-0.250000X0.225000X-0.250000X-0.225000X0.250000X-0.225000X0.250000X0.225000X0*%
%ADD11RoundRect,0.250000X-0.475000X0.250000X-0.475000X-0.250000X0.475000X-0.250000X0.475000X0.250000X0*%
%ADD12RoundRect,0.225000X-0.225000X-0.250000X0.225000X-0.250000X0.225000X0.250000X-0.225000X0.250000X0*%
%ADD13RoundRect,0.200000X-0.275000X0.200000X-0.275000X-0.200000X0.275000X-0.200000X0.275000X0.200000X0*%
%ADD14RoundRect,0.150000X0.150000X0.355000X-0.150000X0.355000X-0.150000X-0.355000X0.150000X-0.355000X0*%
%ADD15RoundRect,0.062500X0.375000X0.062500X-0.375000X0.062500X-0.375000X-0.062500X0.375000X-0.062500X0*%
%ADD16RoundRect,0.250000X0.250000X0.475000X-0.250000X0.475000X-0.250000X-0.475000X0.250000X-0.475000X0*%
%ADD17R,2.650000X1.850000*%
%ADD18R,1.310000X0.450000*%
%ADD19RoundRect,0.150000X0.425000X-0.150000X0.425000X0.150000X-0.425000X0.150000X-0.425000X-0.150000X0*%
%ADD20RoundRect,0.075000X0.500000X-0.075000X0.500000X0.075000X-0.500000X0.075000X-0.500000X-0.075000X0*%
%ADD21O,1.800000X1.000000*%
%ADD22O,2.100000X1.000000*%
%ADD23RoundRect,0.218750X0.256250X-0.218750X0.256250X0.218750X-0.256250X0.218750X-0.256250X-0.218750X0*%
%ADD24RoundRect,0.200000X0.200000X0.275000X-0.200000X0.275000X-0.200000X-0.275000X0.200000X-0.275000X0*%
%ADD25RoundRect,0.250000X-1.100000X0.325000X-1.100000X-0.325000X1.100000X-0.325000X1.100000X0.325000X0*%
%ADD26RoundRect,0.100000X0.100000X-0.637500X0.100000X0.637500X-0.100000X0.637500X-0.100000X-0.637500X0*%
%ADD27RoundRect,0.225000X0.225000X0.250000X-0.225000X0.250000X-0.225000X-0.250000X0.225000X-0.250000X0*%
%ADD28RoundRect,0.200000X-0.200000X-0.275000X0.200000X-0.275000X0.200000X0.275000X-0.200000X0.275000X0*%
%ADD29R,0.900000X0.900000*%
%ADD30RoundRect,0.162500X-0.437500X-0.162500X0.437500X-0.162500X0.437500X0.162500X-0.437500X0.162500X0*%
%ADD31RoundRect,0.175000X-0.325000X-0.175000X0.325000X-0.175000X0.325000X0.175000X-0.325000X0.175000X0*%
%ADD32RoundRect,0.250000X1.000000X-1.400000X1.000000X1.400000X-1.000000X1.400000X-1.000000X-1.400000X0*%
%ADD33RoundRect,0.250000X-0.450000X0.262500X-0.450000X-0.262500X0.450000X-0.262500X0.450000X0.262500X0*%
%ADD34RoundRect,0.150000X0.587500X0.150000X-0.587500X0.150000X-0.587500X-0.150000X0.587500X-0.150000X0*%
%ADD35RoundRect,0.250000X1.000000X0.650000X-1.000000X0.650000X-1.000000X-0.650000X1.000000X-0.650000X0*%
%ADD36RoundRect,0.218750X0.218750X0.256250X-0.218750X0.256250X-0.218750X-0.256250X0.218750X-0.256250X0*%
%ADD37RoundRect,0.300000X0.400000X0.300000X-0.400000X0.300000X-0.400000X-0.300000X0.400000X-0.300000X0*%
%ADD38RoundRect,0.287500X0.287500X0.737500X-0.287500X0.737500X-0.287500X-0.737500X0.287500X-0.737500X0*%
%ADD39RoundRect,0.300000X0.325000X0.300000X-0.325000X0.300000X-0.325000X-0.300000X0.325000X-0.300000X0*%
%ADD40RoundRect,0.175000X0.450000X0.175000X-0.450000X0.175000X-0.450000X-0.175000X0.450000X-0.175000X0*%
%ADD41RoundRect,0.175000X0.175000X0.875000X-0.175000X0.875000X-0.175000X-0.875000X0.175000X-0.875000X0*%
%ADD42RoundRect,0.025000X0.387500X0.100000X-0.387500X0.100000X-0.387500X-0.100000X0.387500X-0.100000X0*%
%ADD43RoundRect,0.050000X0.200000X0.262500X-0.200000X0.262500X-0.200000X-0.262500X0.200000X-0.262500X0*%
%ADD44RoundRect,0.025000X0.100000X0.450000X-0.100000X0.450000X-0.100000X-0.450000X0.100000X-0.450000X0*%
%ADD45RoundRect,0.025000X0.400000X0.100000X-0.400000X0.100000X-0.400000X-0.100000X0.400000X-0.100000X0*%
%ADD46RoundRect,0.025000X0.100000X0.325000X-0.100000X0.325000X-0.100000X-0.325000X0.100000X-0.325000X0*%
%ADD47RoundRect,0.074000X0.551000X0.296000X-0.551000X0.296000X-0.551000X-0.296000X0.551000X-0.296000X0*%
%ADD48RoundRect,0.100000X0.700000X0.400000X-0.700000X0.400000X-0.700000X-0.400000X0.700000X-0.400000X0*%
%ADD49RoundRect,0.250000X2.375000X-2.025000X2.375000X2.025000X-2.375000X2.025000X-2.375000X-2.025000X0*%
%ADD50RoundRect,0.250000X0.300000X-2.050000X0.300000X2.050000X-0.300000X2.050000X-0.300000X-2.050000X0*%
%ADD51RoundRect,0.150000X-0.150000X-0.355000X0.150000X-0.355000X0.150000X0.355000X-0.150000X0.355000X0*%
%ADD52RoundRect,0.062500X-0.375000X-0.062500X0.375000X-0.062500X0.375000X0.062500X-0.375000X0.062500X0*%
%ADD53RoundRect,0.150000X0.512500X0.150000X-0.512500X0.150000X-0.512500X-0.150000X0.512500X-0.150000X0*%
%ADD54RoundRect,0.250000X0.375000X0.625000X-0.375000X0.625000X-0.375000X-0.625000X0.375000X-0.625000X0*%
%ADD55R,1.500000X0.900000*%
%ADD56R,0.900000X1.500000*%
%ADD57R,2.550000X5.600000*%
%ADD58R,2.550000X0.900000*%
%ADD59RoundRect,0.250000X0.325000X1.100000X-0.325000X1.100000X-0.325000X-1.100000X0.325000X-1.100000X0*%
G04 APERTURE END LIST*
D10*
%TO.C,C3*%
X39000000Y-38225000D03*
X39000000Y-39775000D03*
%TD*%
D11*
%TO.C,C301*%
X155100000Y-33650000D03*
X155100000Y-35550000D03*
%TD*%
D12*
%TO.C,C10*%
X22625000Y-4600000D03*
X24175000Y-4600000D03*
%TD*%
D13*
%TO.C,R406*%
X176540000Y-45175000D03*
X176540000Y-46825000D03*
%TD*%
D14*
%TO.C,U13*%
X25375000Y-55625000D03*
X25375000Y-54375000D03*
X24625000Y-55625000D03*
X24625000Y-54375000D03*
D15*
X26437500Y-53750000D03*
X26437500Y-54250000D03*
X26437500Y-54750000D03*
X26437500Y-55250000D03*
X26437500Y-55750000D03*
X26437500Y-56250000D03*
X23562500Y-56250000D03*
X23562500Y-55750000D03*
X23562500Y-55250000D03*
X23562500Y-54750000D03*
X23562500Y-54250000D03*
X23562500Y-53750000D03*
%TD*%
D16*
%TO.C,C704*%
X220710000Y-39000000D03*
X218810000Y-39000000D03*
%TD*%
D13*
%TO.C,R701*%
X218260000Y-42175000D03*
X218260000Y-43825000D03*
%TD*%
D17*
%TO.C,U6*%
X206820000Y-33925000D03*
X206820000Y-36075000D03*
D18*
X203970000Y-36950000D03*
X203970000Y-36300000D03*
X203970000Y-35650000D03*
X203975000Y-35000000D03*
X203970000Y-34350000D03*
X203970000Y-33700000D03*
X203970000Y-33050000D03*
X209670000Y-33050000D03*
X209670000Y-33700000D03*
X209670000Y-34350000D03*
X209670000Y-35000000D03*
X209670000Y-35650000D03*
X209670000Y-36300000D03*
X209670000Y-36950000D03*
%TD*%
D19*
%TO.C,J4*%
X8680000Y-54700000D03*
X8680000Y-53900000D03*
D20*
X8680000Y-52750000D03*
X8680000Y-51750000D03*
X8680000Y-51250000D03*
X8680000Y-50250000D03*
D19*
X8680000Y-49100000D03*
X8680000Y-48300000D03*
X8680000Y-48300000D03*
X8680000Y-49100000D03*
D20*
X8680000Y-49750000D03*
X8680000Y-50750000D03*
X8680000Y-52250000D03*
X8680000Y-53250000D03*
D19*
X8680000Y-53900000D03*
X8680000Y-54700000D03*
D21*
X3925000Y-55820000D03*
D22*
X8105000Y-55820000D03*
D21*
X3925000Y-47180000D03*
D22*
X8105000Y-47180000D03*
%TD*%
D23*
%TO.C,D502*%
X196880000Y-24187500D03*
X196880000Y-22612500D03*
%TD*%
%TO.C,D802*%
X242600000Y-24187500D03*
X242600000Y-22612500D03*
%TD*%
D13*
%TO.C,R306*%
X161300000Y-45175000D03*
X161300000Y-46825000D03*
%TD*%
D17*
%TO.C,U8*%
X237300000Y-33925000D03*
X237300000Y-36075000D03*
D18*
X234450000Y-36950000D03*
X234450000Y-36300000D03*
X234450000Y-35650000D03*
X234455000Y-35000000D03*
X234450000Y-34350000D03*
X234450000Y-33700000D03*
X234450000Y-33050000D03*
X240150000Y-33050000D03*
X240150000Y-33700000D03*
X240150000Y-34350000D03*
X240150000Y-35000000D03*
X240150000Y-35650000D03*
X240150000Y-36300000D03*
X240150000Y-36950000D03*
%TD*%
D24*
%TO.C,R708*%
X220285000Y-55000000D03*
X218635000Y-55000000D03*
%TD*%
D25*
%TO.C,C1*%
X27500000Y-40925000D03*
X27500000Y-43875000D03*
%TD*%
D16*
%TO.C,C804*%
X235950000Y-39000000D03*
X234050000Y-39000000D03*
%TD*%
D10*
%TO.C,C503*%
X185380000Y-48425000D03*
X185380000Y-49975000D03*
%TD*%
D26*
%TO.C,U14*%
X86450000Y-37362500D03*
X85800000Y-37362500D03*
X85150000Y-37362500D03*
X84500000Y-37362500D03*
X83850000Y-37362500D03*
X83200000Y-37362500D03*
X82550000Y-37362500D03*
X82550000Y-31637500D03*
X83200000Y-31637500D03*
X83850000Y-31637500D03*
X84500000Y-31637500D03*
X85150000Y-31637500D03*
X85800000Y-31637500D03*
X86450000Y-31637500D03*
%TD*%
D24*
%TO.C,R5*%
X9825000Y-30000000D03*
X8175000Y-30000000D03*
%TD*%
%TO.C,R11*%
X24625000Y-18450000D03*
X22975000Y-18450000D03*
%TD*%
D27*
%TO.C,C11*%
X12775000Y-30000000D03*
X11225000Y-30000000D03*
%TD*%
D13*
%TO.C,R805*%
X231100000Y-45175000D03*
X231100000Y-46825000D03*
%TD*%
%TO.C,R804*%
X231100000Y-41975000D03*
X231100000Y-43625000D03*
%TD*%
%TO.C,R17*%
X89000000Y-41175000D03*
X89000000Y-42825000D03*
%TD*%
D28*
%TO.C,R8*%
X11075000Y-48250000D03*
X12725000Y-48250000D03*
%TD*%
D25*
%TO.C,C2*%
X36500000Y-40925000D03*
X36500000Y-43875000D03*
%TD*%
D13*
%TO.C,R602*%
X203020000Y-45375000D03*
X203020000Y-47025000D03*
%TD*%
D11*
%TO.C,C501*%
X185580000Y-33650000D03*
X185580000Y-35550000D03*
%TD*%
D13*
%TO.C,R604*%
X200620000Y-41975000D03*
X200620000Y-43625000D03*
%TD*%
D11*
%TO.C,C802*%
X237500000Y-41550000D03*
X237500000Y-43450000D03*
%TD*%
D13*
%TO.C,R407*%
X181640000Y-18175000D03*
X181640000Y-19825000D03*
%TD*%
D28*
%TO.C,R1*%
X34975000Y-38000000D03*
X36625000Y-38000000D03*
%TD*%
D29*
%TO.C,Q2*%
X57000000Y-21275000D03*
X57000000Y-22425000D03*
X57000000Y-23575000D03*
X57000000Y-24725000D03*
X58225000Y-21275000D03*
X58225000Y-22425000D03*
X58225000Y-23575000D03*
X58225000Y-24725000D03*
X59425000Y-21275000D03*
X59425000Y-22425000D03*
X59425000Y-23575000D03*
X59425000Y-24725000D03*
D30*
X54975000Y-24905000D03*
X54975000Y-23635000D03*
X54975000Y-22365000D03*
X54975000Y-21095000D03*
D31*
X60725000Y-21005000D03*
X60725000Y-22335000D03*
X60725000Y-23665000D03*
X60725000Y-24995000D03*
%TD*%
D24*
%TO.C,R6*%
X15825000Y-30000000D03*
X14175000Y-30000000D03*
%TD*%
D13*
%TO.C,R13*%
X84000000Y-45675000D03*
X84000000Y-47325000D03*
%TD*%
D32*
%TO.C,D3*%
X46400000Y-31000000D03*
X39600000Y-31000000D03*
%TD*%
D13*
%TO.C,R302*%
X157300000Y-45375000D03*
X157300000Y-47025000D03*
%TD*%
%TO.C,R706*%
X222260000Y-45175000D03*
X222260000Y-46825000D03*
%TD*%
%TO.C,R401*%
X172540000Y-42175000D03*
X172540000Y-43825000D03*
%TD*%
D24*
%TO.C,R19*%
X101325000Y-20000000D03*
X99675000Y-20000000D03*
%TD*%
D13*
%TO.C,R707*%
X227360000Y-18175000D03*
X227360000Y-19825000D03*
%TD*%
%TO.C,R104*%
X124420000Y-41975000D03*
X124420000Y-43625000D03*
%TD*%
%TO.C,R501*%
X187780000Y-42175000D03*
X187780000Y-43825000D03*
%TD*%
D11*
%TO.C,C402*%
X176540000Y-41550000D03*
X176540000Y-43450000D03*
%TD*%
D13*
%TO.C,R101*%
X126820000Y-42175000D03*
X126820000Y-43825000D03*
%TD*%
D17*
%TO.C,U3*%
X161100000Y-33925000D03*
X161100000Y-36075000D03*
D18*
X158250000Y-36950000D03*
X158250000Y-36300000D03*
X158250000Y-35650000D03*
X158255000Y-35000000D03*
X158250000Y-34350000D03*
X158250000Y-33700000D03*
X158250000Y-33050000D03*
X163950000Y-33050000D03*
X163950000Y-33700000D03*
X163950000Y-34350000D03*
X163950000Y-35000000D03*
X163950000Y-35650000D03*
X163950000Y-36300000D03*
X163950000Y-36950000D03*
%TD*%
D24*
%TO.C,R308*%
X159325000Y-55000000D03*
X157675000Y-55000000D03*
%TD*%
D17*
%TO.C,U4*%
X176340000Y-33925000D03*
X176340000Y-36075000D03*
D18*
X173490000Y-36950000D03*
X173490000Y-36300000D03*
X173490000Y-35650000D03*
X173495000Y-35000000D03*
X173490000Y-34350000D03*
X173490000Y-33700000D03*
X173490000Y-33050000D03*
X179190000Y-33050000D03*
X179190000Y-33700000D03*
X179190000Y-34350000D03*
X179190000Y-35000000D03*
X179190000Y-35650000D03*
X179190000Y-36300000D03*
X179190000Y-36950000D03*
%TD*%
D13*
%TO.C,R506*%
X191780000Y-45175000D03*
X191780000Y-46825000D03*
%TD*%
D11*
%TO.C,C19*%
X103000000Y-28550000D03*
X103000000Y-30450000D03*
%TD*%
D33*
%TO.C,R503*%
X185380000Y-38687500D03*
X185380000Y-40512500D03*
%TD*%
D34*
%TO.C,D501*%
X189917500Y-50550000D03*
X189917500Y-52450000D03*
X188042500Y-51500000D03*
%TD*%
D10*
%TO.C,C103*%
X124420000Y-48425000D03*
X124420000Y-49975000D03*
%TD*%
D35*
%TO.C,D1*%
X77000000Y-42500000D03*
X73000000Y-42500000D03*
%TD*%
D13*
%TO.C,R801*%
X233500000Y-42175000D03*
X233500000Y-43825000D03*
%TD*%
D34*
%TO.C,D401*%
X174677500Y-50550000D03*
X174677500Y-52450000D03*
X172802500Y-51500000D03*
%TD*%
D33*
%TO.C,R403*%
X170140000Y-38687500D03*
X170140000Y-40512500D03*
%TD*%
D23*
%TO.C,D102*%
X135920000Y-24187500D03*
X135920000Y-22612500D03*
%TD*%
D36*
%TO.C,D5*%
X5787500Y-25000000D03*
X4212500Y-25000000D03*
%TD*%
D25*
%TO.C,C13*%
X42000000Y-47325000D03*
X42000000Y-50275000D03*
%TD*%
D28*
%TO.C,R15*%
X92175000Y-41500000D03*
X93825000Y-41500000D03*
%TD*%
D11*
%TO.C,C16*%
X67700000Y-33550000D03*
X67700000Y-35450000D03*
%TD*%
D13*
%TO.C,R504*%
X185380000Y-41975000D03*
X185380000Y-43625000D03*
%TD*%
D37*
%TO.C,Q4*%
X97820000Y-20000000D03*
X97820000Y-22000000D03*
X97820000Y-24000000D03*
X97820000Y-26000000D03*
D38*
X94550000Y-25250000D03*
X94550000Y-23000000D03*
X94550000Y-20750000D03*
X93200000Y-25250000D03*
X93200000Y-23000000D03*
X93200000Y-20750000D03*
X91850000Y-25250000D03*
X91850000Y-23000000D03*
X91850000Y-20750000D03*
D39*
X90450000Y-26550000D03*
D40*
X90450000Y-23000000D03*
D39*
X90450000Y-19450000D03*
D41*
X90175000Y-24700000D03*
X90175000Y-21300000D03*
%TD*%
D11*
%TO.C,C701*%
X216060000Y-33650000D03*
X216060000Y-35550000D03*
%TD*%
D13*
%TO.C,R607*%
X212120000Y-18175000D03*
X212120000Y-19825000D03*
%TD*%
D11*
%TO.C,C102*%
X130820000Y-41550000D03*
X130820000Y-43450000D03*
%TD*%
D42*
%TO.C,U9*%
X33787500Y-40575000D03*
D43*
X33625000Y-40437500D03*
D44*
X33500000Y-40275000D03*
D45*
X33775000Y-41225000D03*
X33775000Y-42025000D03*
X33775000Y-42675000D03*
X33775000Y-43475000D03*
X33775000Y-44125000D03*
X33775000Y-44775000D03*
D42*
X33787500Y-45425000D03*
D43*
X33625000Y-45562500D03*
D44*
X33500000Y-45725000D03*
D46*
X33000000Y-45850000D03*
X32500000Y-45850000D03*
X32000000Y-45850000D03*
X31500000Y-45850000D03*
X31000000Y-45850000D03*
D44*
X30500000Y-45725000D03*
D43*
X30375000Y-45562500D03*
D42*
X30212500Y-45425000D03*
D45*
X30225000Y-44775000D03*
X30225000Y-44125000D03*
X30225000Y-43475000D03*
X30225000Y-42675000D03*
X30225000Y-42025000D03*
X30225000Y-41225000D03*
D44*
X30500000Y-40275000D03*
D43*
X30375000Y-40437500D03*
D42*
X30212500Y-40575000D03*
D46*
X31000000Y-40150000D03*
X31500000Y-40150000D03*
X32000000Y-40150000D03*
X32500000Y-40150000D03*
X33000000Y-40150000D03*
D47*
X32000000Y-41075000D03*
D48*
X32000000Y-42400000D03*
X32000000Y-43600000D03*
D47*
X32000000Y-44925000D03*
%TD*%
D34*
%TO.C,D301*%
X159437500Y-50550000D03*
X159437500Y-52450000D03*
X157562500Y-51500000D03*
%TD*%
D24*
%TO.C,R10*%
X24625000Y-20050000D03*
X22975000Y-20050000D03*
%TD*%
D11*
%TO.C,C201*%
X139860000Y-33650000D03*
X139860000Y-35550000D03*
%TD*%
D25*
%TO.C,C12*%
X37000000Y-47325000D03*
X37000000Y-50275000D03*
%TD*%
D49*
%TO.C,D7*%
X110225000Y-40925000D03*
X115775000Y-40925000D03*
X110225000Y-36075000D03*
X115775000Y-36075000D03*
D50*
X115540000Y-47650000D03*
X110460000Y-47650000D03*
%TD*%
D13*
%TO.C,R107*%
X135920000Y-18175000D03*
X135920000Y-19825000D03*
%TD*%
%TO.C,R704*%
X215860000Y-41975000D03*
X215860000Y-43625000D03*
%TD*%
%TO.C,R305*%
X154900000Y-45175000D03*
X154900000Y-46825000D03*
%TD*%
D16*
%TO.C,C18*%
X82950000Y-40000000D03*
X81050000Y-40000000D03*
%TD*%
D33*
%TO.C,R203*%
X139660000Y-38687500D03*
X139660000Y-40512500D03*
%TD*%
D24*
%TO.C,R14*%
X93825000Y-38500000D03*
X92175000Y-38500000D03*
%TD*%
D33*
%TO.C,R103*%
X124420000Y-38687500D03*
X124420000Y-40512500D03*
%TD*%
D10*
%TO.C,C303*%
X154900000Y-48425000D03*
X154900000Y-49975000D03*
%TD*%
D33*
%TO.C,R803*%
X231100000Y-38687500D03*
X231100000Y-40512500D03*
%TD*%
D51*
%TO.C,U12*%
X63125000Y-31175000D03*
X63125000Y-32425000D03*
X63875000Y-31175000D03*
X63875000Y-32425000D03*
D52*
X62062500Y-33050000D03*
X62062500Y-32550000D03*
X62062500Y-32050000D03*
X62062500Y-31550000D03*
X62062500Y-31050000D03*
X62062500Y-30550000D03*
X64937500Y-30550000D03*
X64937500Y-31050000D03*
X64937500Y-31550000D03*
X64937500Y-32050000D03*
X64937500Y-32550000D03*
X64937500Y-33050000D03*
%TD*%
D17*
%TO.C,U5*%
X191580000Y-33925000D03*
X191580000Y-36075000D03*
D18*
X188730000Y-36950000D03*
X188730000Y-36300000D03*
X188730000Y-35650000D03*
X188735000Y-35000000D03*
X188730000Y-34350000D03*
X188730000Y-33700000D03*
X188730000Y-33050000D03*
X194430000Y-33050000D03*
X194430000Y-33700000D03*
X194430000Y-34350000D03*
X194430000Y-35000000D03*
X194430000Y-35650000D03*
X194430000Y-36300000D03*
X194430000Y-36950000D03*
%TD*%
D13*
%TO.C,R307*%
X166400000Y-18175000D03*
X166400000Y-19825000D03*
%TD*%
D33*
%TO.C,R303*%
X154900000Y-38687500D03*
X154900000Y-40512500D03*
%TD*%
D16*
%TO.C,C604*%
X205470000Y-39000000D03*
X203570000Y-39000000D03*
%TD*%
D25*
%TO.C,C8*%
X32000000Y-47325000D03*
X32000000Y-50275000D03*
%TD*%
D23*
%TO.C,D702*%
X227360000Y-24187500D03*
X227360000Y-22612500D03*
%TD*%
D13*
%TO.C,R404*%
X170140000Y-41975000D03*
X170140000Y-43625000D03*
%TD*%
D23*
%TO.C,D302*%
X166400000Y-24187500D03*
X166400000Y-22612500D03*
%TD*%
D24*
%TO.C,R9*%
X9325000Y-25000000D03*
X7675000Y-25000000D03*
%TD*%
D11*
%TO.C,C15*%
X50700000Y-29050000D03*
X50700000Y-30950000D03*
%TD*%
D16*
%TO.C,C304*%
X159750000Y-39000000D03*
X157850000Y-39000000D03*
%TD*%
D13*
%TO.C,R705*%
X215860000Y-45175000D03*
X215860000Y-46825000D03*
%TD*%
%TO.C,R402*%
X172540000Y-45375000D03*
X172540000Y-47025000D03*
%TD*%
%TO.C,R807*%
X242600000Y-18175000D03*
X242600000Y-19825000D03*
%TD*%
D24*
%TO.C,R408*%
X174565000Y-55000000D03*
X172915000Y-55000000D03*
%TD*%
D13*
%TO.C,R806*%
X237500000Y-45175000D03*
X237500000Y-46825000D03*
%TD*%
%TO.C,R105*%
X124420000Y-45175000D03*
X124420000Y-46825000D03*
%TD*%
%TO.C,R204*%
X139660000Y-41975000D03*
X139660000Y-43625000D03*
%TD*%
D16*
%TO.C,C404*%
X174990000Y-39000000D03*
X173090000Y-39000000D03*
%TD*%
D32*
%TO.C,D6*%
X114400000Y-28500000D03*
X107600000Y-28500000D03*
%TD*%
D11*
%TO.C,C601*%
X200820000Y-33650000D03*
X200820000Y-35550000D03*
%TD*%
D13*
%TO.C,R201*%
X142060000Y-42175000D03*
X142060000Y-43825000D03*
%TD*%
D25*
%TO.C,C22*%
X20000000Y-53525000D03*
X20000000Y-56475000D03*
%TD*%
D17*
%TO.C,U7*%
X222060000Y-33925000D03*
X222060000Y-36075000D03*
D18*
X219210000Y-36950000D03*
X219210000Y-36300000D03*
X219210000Y-35650000D03*
X219215000Y-35000000D03*
X219210000Y-34350000D03*
X219210000Y-33700000D03*
X219210000Y-33050000D03*
X224910000Y-33050000D03*
X224910000Y-33700000D03*
X224910000Y-34350000D03*
X224910000Y-35000000D03*
X224910000Y-35650000D03*
X224910000Y-36300000D03*
X224910000Y-36950000D03*
%TD*%
D11*
%TO.C,C702*%
X222260000Y-41550000D03*
X222260000Y-43450000D03*
%TD*%
D53*
%TO.C,U11*%
X14137500Y-50550000D03*
X14137500Y-51500000D03*
X14137500Y-52450000D03*
X11862500Y-52450000D03*
X11862500Y-51500000D03*
X11862500Y-50550000D03*
%TD*%
D13*
%TO.C,R405*%
X170140000Y-45175000D03*
X170140000Y-46825000D03*
%TD*%
%TO.C,R207*%
X151160000Y-18175000D03*
X151160000Y-19825000D03*
%TD*%
%TO.C,R202*%
X142060000Y-45375000D03*
X142060000Y-47025000D03*
%TD*%
D34*
%TO.C,D801*%
X235637500Y-50550000D03*
X235637500Y-52450000D03*
X233762500Y-51500000D03*
%TD*%
D13*
%TO.C,R502*%
X187780000Y-45375000D03*
X187780000Y-47025000D03*
%TD*%
D23*
%TO.C,D602*%
X212120000Y-24187500D03*
X212120000Y-22612500D03*
%TD*%
D33*
%TO.C,R703*%
X215860000Y-38687500D03*
X215860000Y-40512500D03*
%TD*%
D11*
%TO.C,C101*%
X124620000Y-33650000D03*
X124620000Y-35550000D03*
%TD*%
D10*
%TO.C,C703*%
X215860000Y-48425000D03*
X215860000Y-49975000D03*
%TD*%
D28*
%TO.C,R7*%
X11075000Y-54750000D03*
X12725000Y-54750000D03*
%TD*%
D37*
%TO.C,Q3*%
X97820000Y-7000000D03*
X97820000Y-9000000D03*
X97820000Y-11000000D03*
X97820000Y-13000000D03*
D38*
X94550000Y-12250000D03*
X94550000Y-10000000D03*
X94550000Y-7750000D03*
X93200000Y-12250000D03*
X93200000Y-10000000D03*
X93200000Y-7750000D03*
X91850000Y-12250000D03*
X91850000Y-10000000D03*
X91850000Y-7750000D03*
D39*
X90450000Y-13550000D03*
D40*
X90450000Y-10000000D03*
D39*
X90450000Y-6450000D03*
D41*
X90175000Y-11700000D03*
X90175000Y-8300000D03*
%TD*%
D10*
%TO.C,C203*%
X139660000Y-48425000D03*
X139660000Y-49975000D03*
%TD*%
D54*
%TO.C,F9*%
X101400000Y-47000000D03*
X98600000Y-47000000D03*
%TD*%
D13*
%TO.C,R301*%
X157300000Y-42175000D03*
X157300000Y-43825000D03*
%TD*%
D11*
%TO.C,C21*%
X30000000Y-54050000D03*
X30000000Y-55950000D03*
%TD*%
D16*
%TO.C,C504*%
X190230000Y-39000000D03*
X188330000Y-39000000D03*
%TD*%
D11*
%TO.C,C9*%
X24000000Y-11750000D03*
X24000000Y-13650000D03*
%TD*%
D13*
%TO.C,R605*%
X200620000Y-45175000D03*
X200620000Y-46825000D03*
%TD*%
D34*
%TO.C,D701*%
X220397500Y-50550000D03*
X220397500Y-52450000D03*
X218522500Y-51500000D03*
%TD*%
%TO.C,D601*%
X205157500Y-50550000D03*
X205157500Y-52450000D03*
X203282500Y-51500000D03*
%TD*%
D17*
%TO.C,U2*%
X145860000Y-33925000D03*
X145860000Y-36075000D03*
D18*
X143010000Y-36950000D03*
X143010000Y-36300000D03*
X143010000Y-35650000D03*
X143015000Y-35000000D03*
X143010000Y-34350000D03*
X143010000Y-33700000D03*
X143010000Y-33050000D03*
X148710000Y-33050000D03*
X148710000Y-33700000D03*
X148710000Y-34350000D03*
X148710000Y-35000000D03*
X148710000Y-35650000D03*
X148710000Y-36300000D03*
X148710000Y-36950000D03*
%TD*%
D11*
%TO.C,C302*%
X161300000Y-41550000D03*
X161300000Y-43450000D03*
%TD*%
D34*
%TO.C,D201*%
X144197500Y-50550000D03*
X144197500Y-52450000D03*
X142322500Y-51500000D03*
%TD*%
D27*
%TO.C,C14*%
X30575000Y-37300000D03*
X29025000Y-37300000D03*
%TD*%
D10*
%TO.C,C403*%
X170140000Y-48425000D03*
X170140000Y-49975000D03*
%TD*%
D24*
%TO.C,R16*%
X101325000Y-7000000D03*
X99675000Y-7000000D03*
%TD*%
D23*
%TO.C,D202*%
X151160000Y-24187500D03*
X151160000Y-22612500D03*
%TD*%
D13*
%TO.C,R802*%
X233500000Y-45375000D03*
X233500000Y-47025000D03*
%TD*%
%TO.C,R601*%
X203020000Y-42175000D03*
X203020000Y-43825000D03*
%TD*%
D29*
%TO.C,U10*%
X14900000Y-12460000D03*
X14900000Y-11060000D03*
X14900000Y-9660000D03*
X13500000Y-12460000D03*
X13500000Y-11060000D03*
X13500000Y-9660000D03*
X12100000Y-12460000D03*
X12100000Y-11060000D03*
X12100000Y-9660000D03*
D55*
X20750000Y-3340000D03*
X20750000Y-4610000D03*
X20750000Y-5880000D03*
X20750000Y-7150000D03*
X20750000Y-8420000D03*
X20750000Y-9690000D03*
X20750000Y-10960000D03*
X20750000Y-12230000D03*
X20750000Y-13500000D03*
X20750000Y-14770000D03*
X20750000Y-16040000D03*
X20750000Y-17310000D03*
X20750000Y-18580000D03*
X20750000Y-19850000D03*
D56*
X18985000Y-21100000D03*
X17715000Y-21100000D03*
X16445000Y-21100000D03*
X15175000Y-21100000D03*
X13905000Y-21100000D03*
X12635000Y-21100000D03*
X11365000Y-21100000D03*
X10095000Y-21100000D03*
X8825000Y-21100000D03*
X7555000Y-21100000D03*
X6285000Y-21100000D03*
X5015000Y-21100000D03*
D55*
X3250000Y-19850000D03*
X3250000Y-18580000D03*
X3250000Y-17310000D03*
X3250000Y-16040000D03*
X3250000Y-14770000D03*
X3250000Y-13500000D03*
X3250000Y-12230000D03*
X3250000Y-10960000D03*
X3250000Y-9690000D03*
X3250000Y-8420000D03*
X3250000Y-7150000D03*
X3250000Y-5880000D03*
X3250000Y-4610000D03*
X3250000Y-3340000D03*
%TD*%
D11*
%TO.C,C401*%
X170340000Y-33650000D03*
X170340000Y-35550000D03*
%TD*%
D24*
%TO.C,R208*%
X144085000Y-55000000D03*
X142435000Y-55000000D03*
%TD*%
%TO.C,R608*%
X205045000Y-55000000D03*
X203395000Y-55000000D03*
%TD*%
D34*
%TO.C,D101*%
X128957500Y-50550000D03*
X128957500Y-52450000D03*
X127082500Y-51500000D03*
%TD*%
D16*
%TO.C,C204*%
X144510000Y-39000000D03*
X142610000Y-39000000D03*
%TD*%
D13*
%TO.C,R304*%
X154900000Y-41975000D03*
X154900000Y-43625000D03*
%TD*%
D17*
%TO.C,U1*%
X130620000Y-33925000D03*
X130620000Y-36075000D03*
D18*
X127770000Y-36950000D03*
X127770000Y-36300000D03*
X127770000Y-35650000D03*
X127775000Y-35000000D03*
X127770000Y-34350000D03*
X127770000Y-33700000D03*
X127770000Y-33050000D03*
X133470000Y-33050000D03*
X133470000Y-33700000D03*
X133470000Y-34350000D03*
X133470000Y-35000000D03*
X133470000Y-35650000D03*
X133470000Y-36300000D03*
X133470000Y-36950000D03*
%TD*%
D16*
%TO.C,C104*%
X129270000Y-39000000D03*
X127370000Y-39000000D03*
%TD*%
D24*
%TO.C,R108*%
X128845000Y-55000000D03*
X127195000Y-55000000D03*
%TD*%
D13*
%TO.C,R206*%
X146060000Y-45175000D03*
X146060000Y-46825000D03*
%TD*%
%TO.C,R18*%
X89000000Y-44375000D03*
X89000000Y-46025000D03*
%TD*%
D33*
%TO.C,R603*%
X200620000Y-38687500D03*
X200620000Y-40512500D03*
%TD*%
D13*
%TO.C,R505*%
X185380000Y-45175000D03*
X185380000Y-46825000D03*
%TD*%
D29*
%TO.C,Q5*%
X24200000Y-59275000D03*
X24200000Y-60425000D03*
X24200000Y-61575000D03*
X24200000Y-62725000D03*
X25425000Y-59275000D03*
X25425000Y-60425000D03*
X25425000Y-61575000D03*
X25425000Y-62725000D03*
X26625000Y-59275000D03*
X26625000Y-60425000D03*
X26625000Y-61575000D03*
X26625000Y-62725000D03*
D30*
X22175000Y-62905000D03*
X22175000Y-61635000D03*
X22175000Y-60365000D03*
X22175000Y-59095000D03*
D31*
X27925000Y-59005000D03*
X27925000Y-60335000D03*
X27925000Y-61665000D03*
X27925000Y-62995000D03*
%TD*%
D11*
%TO.C,C20*%
X17000000Y-57050000D03*
X17000000Y-58950000D03*
%TD*%
%TO.C,C202*%
X146060000Y-41550000D03*
X146060000Y-43450000D03*
%TD*%
D13*
%TO.C,R606*%
X207020000Y-45175000D03*
X207020000Y-46825000D03*
%TD*%
D11*
%TO.C,C801*%
X231300000Y-33650000D03*
X231300000Y-35550000D03*
%TD*%
D13*
%TO.C,R12*%
X84000000Y-42175000D03*
X84000000Y-43825000D03*
%TD*%
D10*
%TO.C,C603*%
X200620000Y-48425000D03*
X200620000Y-49975000D03*
%TD*%
D13*
%TO.C,R702*%
X218260000Y-45375000D03*
X218260000Y-47025000D03*
%TD*%
D11*
%TO.C,C602*%
X207020000Y-41550000D03*
X207020000Y-43450000D03*
%TD*%
D29*
%TO.C,Q1*%
X57000000Y-8275000D03*
X57000000Y-9425000D03*
X57000000Y-10575000D03*
X57000000Y-11725000D03*
X58225000Y-8275000D03*
X58225000Y-9425000D03*
X58225000Y-10575000D03*
X58225000Y-11725000D03*
X59425000Y-8275000D03*
X59425000Y-9425000D03*
X59425000Y-10575000D03*
X59425000Y-11725000D03*
D30*
X54975000Y-11905000D03*
X54975000Y-10635000D03*
X54975000Y-9365000D03*
X54975000Y-8095000D03*
D31*
X60725000Y-8005000D03*
X60725000Y-9335000D03*
X60725000Y-10665000D03*
X60725000Y-11995000D03*
%TD*%
D13*
%TO.C,R507*%
X196880000Y-18175000D03*
X196880000Y-19825000D03*
%TD*%
%TO.C,R102*%
X126820000Y-45375000D03*
X126820000Y-47025000D03*
%TD*%
D11*
%TO.C,C502*%
X191780000Y-41550000D03*
X191780000Y-43450000D03*
%TD*%
D13*
%TO.C,R205*%
X139660000Y-45175000D03*
X139660000Y-46825000D03*
%TD*%
D23*
%TO.C,D402*%
X181640000Y-24187500D03*
X181640000Y-22612500D03*
%TD*%
D24*
%TO.C,R508*%
X189805000Y-55000000D03*
X188155000Y-55000000D03*
%TD*%
D25*
%TO.C,C7*%
X27000000Y-47325000D03*
X27000000Y-50275000D03*
%TD*%
D10*
%TO.C,C803*%
X231100000Y-48425000D03*
X231100000Y-49975000D03*
%TD*%
D57*
%TO.C,R20*%
X69975000Y-16450000D03*
X78025000Y-16450000D03*
D58*
X69975000Y-20500000D03*
X78025000Y-20500000D03*
%TD*%
D59*
%TO.C,C17*%
X64975000Y-37000000D03*
X62025000Y-37000000D03*
%TD*%
D24*
%TO.C,R808*%
X235525000Y-55000000D03*
X233875000Y-55000000D03*
%TD*%
D13*
%TO.C,R106*%
X130820000Y-45175000D03*
X130820000Y-46825000D03*
%TD*%
M02*
