M48
; DRILL file KiCad 10.0.6 date 2026-09-19T16:27:35
; FORMAT={-:-/ absolute / metric / decimal}
; #@! TF.CreationDate,2026-09-19T16:27:35+00:00
; #@! TF.GenerationSoftware,Kicad,Pcbnew,10.0.6
; #@! TF.FileFunction,Plated,1,4,PTH
FMAT,2
METRIC
; #@! TA.AperFunction,Plated,PTH,ViaDrill
T1C0.300
; #@! TA.AperFunction,Plated,PTH,ComponentDrill
T2C0.300
; #@! TA.AperFunction,Plated,PTH,ViaDrill
T3C0.350
; #@! TA.AperFunction,Plated,PTH,ViaDrill
T4C0.400
; #@! TA.AperFunction,Plated,PTH,ViaDrill
T5C0.450
; #@! TA.AperFunction,Plated,PTH,ComponentDrill
T6C0.600
; #@! TA.AperFunction,Plated,PTH,ComponentDrill
T7C1.000
; #@! TA.AperFunction,Plated,PTH,ComponentDrill
T8C1.600
; #@! TA.AperFunction,Plated,PTH,ComponentDrill
T9C1.700
; #@! TA.AperFunction,Plated,PTH,ComponentDrill
T10C1.850
%
G90
G05
T1
X6.6Y-22.0
X10.0Y-54.1
X10.6Y-22.3
X12.95Y-51.5
X15.1Y-51.25
X17.0Y-60.3
X19.4Y-25.8
X20.5Y-59.095
X21.8Y-56.475
X22.8Y-56.9
X22.9Y-53.15
X22.9Y-55.0
X23.4Y-25.8
X23.6Y-27.5
X24.1Y-23.9
X24.3Y-27.0
X26.5Y-52.9
X26.95Y-56.5
X27.0Y-50.8
X27.5Y-40.1
X27.5Y-43.375
X27.5Y-44.375
X27.5Y-54.1
X27.6Y-21.1
X27.7Y-56.2
X28.7Y-37.3
X29.5Y-39.2
X30.0Y-53.1
X30.9Y-43.25
X31.3Y-55.95
X32.0Y-38.5
X32.0Y-46.85
X32.0Y-50.8
X33.0Y-39.2
X33.1Y-37.5
X33.1Y-43.25
X36.5Y-40.1
X36.5Y-43.375
X36.5Y-44.375
X37.0Y-50.8
X37.5Y-38.0
X42.0Y-46.85
X42.0Y-50.8
X43.0Y-29.3
X43.0Y-34.1
X43.8Y-31.2
X46.8Y-36.0
X49.5Y-31.2
X50.7Y-33.0
X58.8Y-35.6
X59.6Y-31.05
X60.5Y-29.95
X60.6Y-31.8
X60.8Y-32.55
X61.2Y-37.0
X62.3Y-29.9
X62.3Y-34.9
X63.2Y-36.6
X65.05Y-34.1
X65.1Y-29.7
X66.1Y-31.8
X67.7Y-32.8
X68.0Y-26.0
X69.0Y-35.45
X69.3Y-30.6
X69.975Y-23.0
X70.9Y-42.1
X70.9Y-44.6
X70.9Y-46.0
X72.0Y-41.0
X75.2Y-36.1
X78.025Y-23.0
X80.0Y-39.2
X81.05Y-41.3
X81.5Y-37.362
X81.8Y-49.9
X83.8Y-29.4
X84.0Y-41.0
X85.15Y-30.2
X85.3Y-47.325
X85.8Y-28.5
X86.45Y-29.5
X89.0Y-47.3
X89.5Y-50.2
X93.6Y-42.9
X95.0Y-38.5
X95.0Y-41.5
X97.0Y-47.0
X100.0Y-31.0
X103.0Y-31.8
X104.3Y-32.7
X104.5Y-36.8
X104.5Y-43.6
X119.3Y-43.6
X120.0Y-40.6
X120.8Y-39.9
X121.0Y-32.7
X122.3Y-42.5
X122.4Y-44.5
X122.7Y-45.3
X123.0Y-51.0
X123.1Y-32.0
X123.1Y-36.4
X123.1Y-40.6
X125.5Y-47.0
X125.75Y-41.5
X126.0Y-55.7
X129.0Y-45.4
X129.75Y-49.0
X129.97Y-31.85
X129.97Y-38.2
X130.2Y-39.9
X131.27Y-31.85
X131.27Y-38.2
X131.7Y-64.4
X132.2Y-63.7
X138.24Y-37.498
X138.24Y-52.45
X139.7Y-38.7
X139.7Y-42.0
X139.7Y-46.8
X142.0Y-36.3
X142.0Y-38.4
X142.1Y-45.4
X142.4Y-55.0
X142.7Y-41.3
X143.75Y-42.0
X144.6Y-46.0
X144.8Y-41.3
X145.21Y-31.85
X145.21Y-38.2
X146.51Y-31.85
X146.51Y-38.2
X147.4Y-46.0
X147.5Y-39.9
X153.6Y-34.5
X153.6Y-53.4
X153.7Y-32.0
X153.8Y-33.4
X154.9Y-38.7
X155.25Y-36.5
X155.6Y-55.4
X157.0Y-38.7
X157.1Y-36.4
X157.8Y-39.0
X158.3Y-42.1
X159.4Y-45.4
X159.4Y-56.2
X160.45Y-31.85
X160.45Y-38.2
X160.7Y-39.9
X161.75Y-31.85
X161.75Y-38.2
X162.7Y-50.7
X162.7Y-52.1
X168.8Y-35.9
X168.8Y-45.2
X168.8Y-46.9
X170.1Y-38.7
X170.9Y-47.6
X172.1Y-38.4
X172.25Y-49.5
X172.3Y-36.2
X172.5Y-42.2
X173.9Y-48.2
X174.5Y-47.6
X174.6Y-55.0
X175.5Y-54.5
X175.6Y-49.8
X175.69Y-31.85
X175.69Y-38.2
X176.0Y-52.1
X176.3Y-52.9
X176.5Y-50.5
X176.9Y-53.5
X176.99Y-31.85
X176.99Y-38.2
X177.4Y-46.0
X177.5Y-54.1
X177.9Y-47.9
X183.8Y-44.5
X184.1Y-35.8
X184.1Y-41.3
X184.2Y-42.2
X185.4Y-46.7
X187.1Y-46.2
X187.7Y-35.7
X187.8Y-42.2
X187.8Y-43.2
X187.8Y-45.4
X188.2Y-54.7
X188.3Y-39.0
X188.7Y-44.4
X189.3Y-46.1
X189.6Y-41.3
X189.9Y-44.0
X190.2Y-41.9
X190.5Y-46.8
X190.93Y-31.85
X190.93Y-38.2
X191.2Y-39.8
X192.23Y-31.85
X192.23Y-38.2
X192.7Y-47.4
X192.7Y-52.1
X199.2Y-33.557
X199.3Y-35.9
X199.3Y-43.5
X200.75Y-49.75
X201.7Y-50.1
X201.9Y-38.4
X202.0Y-41.7
X202.3Y-45.7
X202.4Y-35.6
X202.6Y-39.9
X202.9Y-34.9
X202.9Y-36.3
X203.0Y-46.3
X203.3Y-50.7
X203.4Y-54.3
X206.17Y-31.85
X206.17Y-38.2
X206.2Y-42.5
X206.4Y-52.1
X206.5Y-50.4
X207.47Y-31.85
X207.47Y-38.2
X214.3Y-35.6
X214.3Y-43.2
X214.3Y-62.5
X214.44Y-32.88
X215.9Y-42.0
X217.7Y-34.3
X218.1Y-40.6
X218.2Y-35.0
X218.3Y-45.4
X219.1Y-44.5
X220.3Y-49.4
X220.3Y-55.0
X221.41Y-31.85
X221.41Y-38.2
X221.7Y-50.7
X222.5Y-52.1
X222.71Y-31.85
X222.71Y-38.2
X229.6Y-46.8
X229.68Y-32.817
X231.1Y-38.7
X233.4Y-38.4
X233.9Y-52.4
X234.6Y-37.7
X234.6Y-44.5
X235.3Y-40.2
X235.5Y-47.6
X235.5Y-55.0
X236.65Y-31.85
X236.65Y-38.2
X237.95Y-31.85
X237.95Y-38.2
T2
X12.1Y-10.36
X12.1Y-11.76
X12.8Y-9.66
X12.8Y-11.06
X12.8Y-12.46
X13.5Y-10.36
X13.5Y-11.76
X14.2Y-9.66
X14.2Y-11.06
X14.2Y-12.46
X14.9Y-10.36
X14.9Y-11.76
T3
X1.398Y-8.433
X4.562Y-5.88
X4.574Y-7.428
X4.574Y-15.048
X4.579Y-4.61
X5.182Y-35.036
X6.55Y-10.965
X7.474Y-31.204
X8.47Y-19.782
X9.713Y-19.775
X10.285Y-24.57
X12.675Y-22.581
X12.759Y-28.601
X13.571Y-39.923
X14.384Y-23.819
X15.449Y-19.599
X16.513Y-19.777
X18.985Y-22.441
X19.433Y-5.965
X22.078Y-7.595
X22.774Y-29.882
X22.884Y-42.35
X26.512Y-42.4
X27.77Y-37.16
X28.5Y-22.941
X28.686Y-30.221
X88.601Y-50.852
X122.263Y-41.483
X122.397Y-34.505
X122.614Y-47.027
X122.857Y-49.772
X138.296Y-59.589
X154.885Y-58.698
X168.837Y-59.532
X169.84Y-60.18
X200.437Y-62.963
X202.15Y-63.597
X229.996Y-61.758
X230.346Y-58.688
T4
X19.5Y-61.0
X30.0Y-59.0
X39.0Y-28.7
X39.0Y-33.3
X40.2Y-28.7
X40.2Y-33.3
X53.2Y-9.7
X53.2Y-10.9
X53.2Y-12.1
X53.2Y-22.7
X53.2Y-23.9
X53.2Y-25.1
X54.2Y-9.7
X54.2Y-10.9
X54.2Y-12.1
X54.2Y-22.7
X54.2Y-23.9
X54.2Y-25.1
X60.0Y-6.8
X60.0Y-13.2
X60.0Y-19.8
X60.0Y-26.2
X61.2Y-6.8
X61.2Y-13.2
X61.2Y-19.8
X61.2Y-26.2
X62.4Y-6.8
X62.4Y-13.2
X62.4Y-19.8
X62.4Y-26.2
X66.8Y-13.9
X66.8Y-15.1
X66.8Y-16.3
X66.8Y-17.5
X66.8Y-18.7
X68.0Y-13.9
X68.0Y-15.1
X68.0Y-16.3
X68.0Y-17.5
X68.0Y-18.7
X80.0Y-13.9
X80.0Y-15.1
X80.0Y-16.3
X80.0Y-17.5
X80.0Y-18.7
X81.2Y-13.9
X81.2Y-15.1
X81.2Y-16.3
X81.2Y-17.5
X81.2Y-18.7
X89.0Y-4.9
X89.0Y-15.1
X89.0Y-17.9
X89.0Y-28.1
X90.2Y-4.9
X90.2Y-15.1
X90.2Y-17.9
X90.2Y-28.1
X91.4Y-4.9
X91.4Y-15.1
X91.4Y-17.9
X91.4Y-28.1
X92.6Y-4.9
X92.6Y-15.1
X92.6Y-17.9
X92.6Y-28.1
X93.8Y-4.9
X93.8Y-15.1
X93.8Y-17.9
X93.8Y-28.1
X99.5Y-9.5
X99.5Y-11.0
X99.5Y-12.5
X99.5Y-14.0
X99.5Y-22.5
X99.5Y-24.0
X99.5Y-25.5
X99.5Y-27.0
X100.7Y-9.5
X100.7Y-11.0
X100.7Y-12.5
X100.7Y-14.0
X100.7Y-22.5
X100.7Y-24.0
X100.7Y-25.5
X100.7Y-27.0
X101.9Y-9.5
X101.9Y-11.0
X101.9Y-12.5
X101.9Y-14.0
X101.9Y-22.5
X101.9Y-24.0
X101.9Y-25.5
X101.9Y-27.0
X107.0Y-26.2
X107.0Y-30.8
X108.2Y-26.2
X108.2Y-30.8
X109.16Y-46.45
X109.16Y-47.65
X109.16Y-48.85
X111.76Y-46.45
X111.76Y-47.65
X111.76Y-48.85
X114.24Y-46.45
X114.24Y-47.65
X114.24Y-48.85
X116.84Y-46.45
X116.84Y-47.65
X116.84Y-48.85
X125.42Y-30.0
X136.52Y-34.0
X136.52Y-38.0
X136.52Y-42.0
X136.52Y-46.0
X136.52Y-50.0
X136.52Y-54.0
X136.52Y-58.0
X136.52Y-62.0
X136.52Y-66.0
X140.66Y-30.0
X151.76Y-34.0
X151.76Y-38.0
X151.76Y-42.0
X151.76Y-46.0
X151.76Y-50.0
X151.76Y-54.0
X151.76Y-58.0
X151.76Y-62.0
X151.76Y-66.0
X155.9Y-30.0
X167.0Y-34.0
X167.0Y-38.0
X167.0Y-42.0
X167.0Y-46.0
X167.0Y-50.0
X167.0Y-54.0
X167.0Y-58.0
X167.0Y-62.0
X167.0Y-66.0
X171.14Y-30.0
X182.24Y-34.0
X182.24Y-38.0
X182.24Y-42.0
X182.24Y-46.0
X182.24Y-50.0
X182.24Y-54.0
X182.24Y-58.0
X182.24Y-62.0
X182.24Y-66.0
X186.38Y-30.0
X197.48Y-34.0
X197.48Y-38.0
X197.48Y-42.0
X197.48Y-46.0
X197.48Y-50.0
X197.48Y-54.0
X197.48Y-58.0
X197.48Y-62.0
X197.48Y-66.0
X201.62Y-30.0
X212.72Y-34.0
X212.72Y-38.0
X212.72Y-42.0
X212.72Y-46.0
X212.72Y-50.0
X212.72Y-54.0
X212.72Y-58.0
X212.72Y-62.0
X212.72Y-66.0
X216.86Y-30.0
X227.96Y-34.0
X227.96Y-38.0
X227.96Y-42.0
X227.96Y-46.0
X227.96Y-50.0
X227.96Y-54.0
X227.96Y-58.0
X227.96Y-62.0
X227.96Y-66.0
X230.9Y-10.0
X230.9Y-14.0
X230.9Y-18.0
X230.9Y-22.0
X230.9Y-26.0
X230.9Y-30.0
X232.1Y-10.0
X232.1Y-14.0
X232.1Y-18.0
X232.1Y-22.0
X232.1Y-26.0
X232.1Y-30.0
X243.2Y-34.0
X243.2Y-38.0
X243.2Y-42.0
X243.2Y-46.0
X243.2Y-50.0
X243.2Y-54.0
X243.2Y-58.0
X243.2Y-62.0
X243.2Y-66.0
T5
X10.508Y-28.703
X13.57Y-27.795
X16.883Y-30.0
X22.884Y-38.243
X24.807Y-8.839
X28.48Y-13.236
X79.5Y-42.5
X83.752Y-55.378
X85.815Y-55.186
X87.971Y-52.306
X122.864Y-52.45
X160.165Y-58.722
X177.147Y-58.656
X189.861Y-58.673
X191.789Y-58.889
X207.241Y-59.55
X222.033Y-60.073
X236.477Y-58.707
X246.1Y-34.0
X246.1Y-38.0
X246.1Y-42.0
X246.1Y-46.0
X246.1Y-50.0
X246.1Y-54.0
X246.1Y-58.0
X246.1Y-62.0
X246.1Y-66.0
T7
X33.5Y-64.0
X33.5Y-66.54
X33.5Y-69.08
X33.5Y-71.62
T8
X126.81Y-69.8
X134.43Y-69.8
X142.05Y-69.8
X149.67Y-69.8
X157.29Y-69.8
X164.91Y-69.8
X172.53Y-69.8
X180.15Y-69.8
X187.77Y-69.8
X195.39Y-69.8
X203.01Y-69.8
X210.63Y-69.8
X218.25Y-69.8
X225.87Y-69.8
X233.49Y-69.8
X241.11Y-69.8
T9
X128.92Y-6.13
X128.92Y-19.6
X128.92Y-28.87
X132.32Y-6.13
X132.32Y-19.6
X132.32Y-28.87
X144.16Y-6.13
X144.16Y-19.6
X144.16Y-28.87
X147.56Y-6.13
X147.56Y-19.6
X147.56Y-28.87
X159.4Y-6.13
X159.4Y-19.6
X159.4Y-28.87
X162.8Y-6.13
X162.8Y-19.6
X162.8Y-28.87
X174.64Y-6.13
X174.64Y-19.6
X174.64Y-28.87
X178.04Y-6.13
X178.04Y-19.6
X178.04Y-28.87
X189.88Y-6.13
X189.88Y-19.6
X189.88Y-28.87
X193.28Y-6.13
X193.28Y-19.6
X193.28Y-28.87
X205.12Y-6.13
X205.12Y-19.6
X205.12Y-28.87
X208.52Y-6.13
X208.52Y-19.6
X208.52Y-28.87
X220.36Y-6.13
X220.36Y-19.6
X220.36Y-28.87
X223.76Y-6.13
X223.76Y-19.6
X223.76Y-28.87
X235.6Y-6.13
X235.6Y-19.6
X235.6Y-28.87
X239.0Y-6.13
X239.0Y-19.6
X239.0Y-28.87
T10
X38.565Y-12.865
X38.565Y-17.3
X38.565Y-21.735
X43.0Y-12.865
X43.0Y-17.3
X43.0Y-21.735
X46.565Y-47.565
X46.565Y-52.0
X46.565Y-56.435
X47.435Y-12.865
X47.435Y-17.3
X47.435Y-21.735
X51.0Y-47.565
X51.0Y-52.0
X51.0Y-56.435
X55.435Y-47.565
X55.435Y-52.0
X55.435Y-56.435
T6
X3.525Y-47.18G85X4.325Y-47.18
G05
X3.525Y-55.82G85X4.325Y-55.82
G05
X7.555Y-47.18G85X8.655Y-47.18
G05
X7.555Y-55.82G85X8.655Y-55.82
G05
M30
