%TF.GenerationSoftware,KiCad,Pcbnew,10.0.6*%
%TF.CreationDate,2026-09-19T16:47:34+00:00*%
%TF.ProjectId,eswitch,65737769-7463-4682-9e6b-696361645f70,rev?*%
%TF.SameCoordinates,Original*%
%TF.FileFunction,Legend,Top*%
%TF.FilePolarity,Positive*%
%FSLAX46Y46*%
G04 Gerber Fmt 4.6, Leading zero omitted, Abs format (unit mm)*
G04 Created by KiCad (PCBNEW 10.0.6) date 2026-09-19 16:47:34*
%MOMM*%
%LPD*%
G01*
G04 APERTURE LIST*
%ADD10C,0.150000*%
%ADD11C,0.250000*%
%ADD12C,0.120000*%
G04 APERTURE END LIST*
D10*
X11338095Y-25562295D02*
X11071428Y-25181342D01*
X10880952Y-25562295D02*
X10880952Y-24762295D01*
X10880952Y-24762295D02*
X11185714Y-24762295D01*
X11185714Y-24762295D02*
X11261904Y-24800390D01*
X11261904Y-24800390D02*
X11299999Y-24838485D01*
X11299999Y-24838485D02*
X11338095Y-24914676D01*
X11338095Y-24914676D02*
X11338095Y-25028961D01*
X11338095Y-25028961D02*
X11299999Y-25105152D01*
X11299999Y-25105152D02*
X11261904Y-25143247D01*
X11261904Y-25143247D02*
X11185714Y-25181342D01*
X11185714Y-25181342D02*
X10880952Y-25181342D01*
X11680952Y-25143247D02*
X11947618Y-25143247D01*
X12061904Y-25562295D02*
X11680952Y-25562295D01*
X11680952Y-25562295D02*
X11680952Y-24762295D01*
X11680952Y-24762295D02*
X12061904Y-24762295D01*
X12366666Y-25524200D02*
X12480952Y-25562295D01*
X12480952Y-25562295D02*
X12671428Y-25562295D01*
X12671428Y-25562295D02*
X12747619Y-25524200D01*
X12747619Y-25524200D02*
X12785714Y-25486104D01*
X12785714Y-25486104D02*
X12823809Y-25409914D01*
X12823809Y-25409914D02*
X12823809Y-25333723D01*
X12823809Y-25333723D02*
X12785714Y-25257533D01*
X12785714Y-25257533D02*
X12747619Y-25219438D01*
X12747619Y-25219438D02*
X12671428Y-25181342D01*
X12671428Y-25181342D02*
X12519047Y-25143247D01*
X12519047Y-25143247D02*
X12442857Y-25105152D01*
X12442857Y-25105152D02*
X12404762Y-25067057D01*
X12404762Y-25067057D02*
X12366666Y-24990866D01*
X12366666Y-24990866D02*
X12366666Y-24914676D01*
X12366666Y-24914676D02*
X12404762Y-24838485D01*
X12404762Y-24838485D02*
X12442857Y-24800390D01*
X12442857Y-24800390D02*
X12519047Y-24762295D01*
X12519047Y-24762295D02*
X12709524Y-24762295D01*
X12709524Y-24762295D02*
X12823809Y-24800390D01*
X13166667Y-25143247D02*
X13433333Y-25143247D01*
X13547619Y-25562295D02*
X13166667Y-25562295D01*
X13166667Y-25562295D02*
X13166667Y-24762295D01*
X13166667Y-24762295D02*
X13547619Y-24762295D01*
X13776191Y-24762295D02*
X14233334Y-24762295D01*
X14004762Y-25562295D02*
X14004762Y-24762295D01*
X54066665Y-63828961D02*
X54066665Y-64362295D01*
X53876189Y-63524200D02*
X53685712Y-64095628D01*
X53685712Y-64095628D02*
X54180951Y-64095628D01*
X54638094Y-63562295D02*
X54714284Y-63562295D01*
X54714284Y-63562295D02*
X54790475Y-63600390D01*
X54790475Y-63600390D02*
X54828570Y-63638485D01*
X54828570Y-63638485D02*
X54866665Y-63714676D01*
X54866665Y-63714676D02*
X54904760Y-63867057D01*
X54904760Y-63867057D02*
X54904760Y-64057533D01*
X54904760Y-64057533D02*
X54866665Y-64209914D01*
X54866665Y-64209914D02*
X54828570Y-64286104D01*
X54828570Y-64286104D02*
X54790475Y-64324200D01*
X54790475Y-64324200D02*
X54714284Y-64362295D01*
X54714284Y-64362295D02*
X54638094Y-64362295D01*
X54638094Y-64362295D02*
X54561903Y-64324200D01*
X54561903Y-64324200D02*
X54523808Y-64286104D01*
X54523808Y-64286104D02*
X54485713Y-64209914D01*
X54485713Y-64209914D02*
X54447617Y-64057533D01*
X54447617Y-64057533D02*
X54447617Y-63867057D01*
X54447617Y-63867057D02*
X54485713Y-63714676D01*
X54485713Y-63714676D02*
X54523808Y-63638485D01*
X54523808Y-63638485D02*
X54561903Y-63600390D01*
X54561903Y-63600390D02*
X54638094Y-63562295D01*
X55209522Y-64133723D02*
X55590475Y-64133723D01*
X55133332Y-64362295D02*
X55399999Y-63562295D01*
X55399999Y-63562295D02*
X55666665Y-64362295D01*
X56428570Y-63562295D02*
X56885713Y-63562295D01*
X56657141Y-64362295D02*
X56657141Y-63562295D01*
X57304761Y-63562295D02*
X57457142Y-63562295D01*
X57457142Y-63562295D02*
X57533332Y-63600390D01*
X57533332Y-63600390D02*
X57609523Y-63676580D01*
X57609523Y-63676580D02*
X57647618Y-63828961D01*
X57647618Y-63828961D02*
X57647618Y-64095628D01*
X57647618Y-64095628D02*
X57609523Y-64248009D01*
X57609523Y-64248009D02*
X57533332Y-64324200D01*
X57533332Y-64324200D02*
X57457142Y-64362295D01*
X57457142Y-64362295D02*
X57304761Y-64362295D01*
X57304761Y-64362295D02*
X57228570Y-64324200D01*
X57228570Y-64324200D02*
X57152380Y-64248009D01*
X57152380Y-64248009D02*
X57114284Y-64095628D01*
X57114284Y-64095628D02*
X57114284Y-63828961D01*
X57114284Y-63828961D02*
X57152380Y-63676580D01*
X57152380Y-63676580D02*
X57228570Y-63600390D01*
X57228570Y-63600390D02*
X57304761Y-63562295D01*
X57876189Y-63562295D02*
X58333332Y-63562295D01*
X58104760Y-64362295D02*
X58104760Y-63562295D01*
X58561903Y-64133723D02*
X58942856Y-64133723D01*
X58485713Y-64362295D02*
X58752380Y-63562295D01*
X58752380Y-63562295D02*
X59019046Y-64362295D01*
X59666665Y-64362295D02*
X59285713Y-64362295D01*
X59285713Y-64362295D02*
X59285713Y-63562295D01*
X60428570Y-63562295D02*
X60885713Y-63562295D01*
X60657141Y-64362295D02*
X60657141Y-63562295D01*
X61114284Y-64133723D02*
X61495237Y-64133723D01*
X61038094Y-64362295D02*
X61304761Y-63562295D01*
X61304761Y-63562295D02*
X61571427Y-64362295D01*
X62295237Y-64362295D02*
X62028570Y-63981342D01*
X61838094Y-64362295D02*
X61838094Y-63562295D01*
X61838094Y-63562295D02*
X62142856Y-63562295D01*
X62142856Y-63562295D02*
X62219046Y-63600390D01*
X62219046Y-63600390D02*
X62257141Y-63638485D01*
X62257141Y-63638485D02*
X62295237Y-63714676D01*
X62295237Y-63714676D02*
X62295237Y-63828961D01*
X62295237Y-63828961D02*
X62257141Y-63905152D01*
X62257141Y-63905152D02*
X62219046Y-63943247D01*
X62219046Y-63943247D02*
X62142856Y-63981342D01*
X62142856Y-63981342D02*
X61838094Y-63981342D01*
X63057141Y-63600390D02*
X62980951Y-63562295D01*
X62980951Y-63562295D02*
X62866665Y-63562295D01*
X62866665Y-63562295D02*
X62752379Y-63600390D01*
X62752379Y-63600390D02*
X62676189Y-63676580D01*
X62676189Y-63676580D02*
X62638094Y-63752771D01*
X62638094Y-63752771D02*
X62599998Y-63905152D01*
X62599998Y-63905152D02*
X62599998Y-64019438D01*
X62599998Y-64019438D02*
X62638094Y-64171819D01*
X62638094Y-64171819D02*
X62676189Y-64248009D01*
X62676189Y-64248009D02*
X62752379Y-64324200D01*
X62752379Y-64324200D02*
X62866665Y-64362295D01*
X62866665Y-64362295D02*
X62942856Y-64362295D01*
X62942856Y-64362295D02*
X63057141Y-64324200D01*
X63057141Y-64324200D02*
X63095237Y-64286104D01*
X63095237Y-64286104D02*
X63095237Y-64019438D01*
X63095237Y-64019438D02*
X62942856Y-64019438D01*
X63438094Y-63943247D02*
X63704760Y-63943247D01*
X63819046Y-64362295D02*
X63438094Y-64362295D01*
X63438094Y-64362295D02*
X63438094Y-63562295D01*
X63438094Y-63562295D02*
X63819046Y-63562295D01*
X64047618Y-63562295D02*
X64504761Y-63562295D01*
X64276189Y-64362295D02*
X64276189Y-63562295D01*
X65952380Y-63524200D02*
X65266666Y-64552771D01*
X66790475Y-64324200D02*
X66904761Y-64362295D01*
X66904761Y-64362295D02*
X67095237Y-64362295D01*
X67095237Y-64362295D02*
X67171428Y-64324200D01*
X67171428Y-64324200D02*
X67209523Y-64286104D01*
X67209523Y-64286104D02*
X67247618Y-64209914D01*
X67247618Y-64209914D02*
X67247618Y-64133723D01*
X67247618Y-64133723D02*
X67209523Y-64057533D01*
X67209523Y-64057533D02*
X67171428Y-64019438D01*
X67171428Y-64019438D02*
X67095237Y-63981342D01*
X67095237Y-63981342D02*
X66942856Y-63943247D01*
X66942856Y-63943247D02*
X66866666Y-63905152D01*
X66866666Y-63905152D02*
X66828571Y-63867057D01*
X66828571Y-63867057D02*
X66790475Y-63790866D01*
X66790475Y-63790866D02*
X66790475Y-63714676D01*
X66790475Y-63714676D02*
X66828571Y-63638485D01*
X66828571Y-63638485D02*
X66866666Y-63600390D01*
X66866666Y-63600390D02*
X66942856Y-63562295D01*
X66942856Y-63562295D02*
X67133333Y-63562295D01*
X67133333Y-63562295D02*
X67247618Y-63600390D01*
X67590476Y-63943247D02*
X67857142Y-63943247D01*
X67971428Y-64362295D02*
X67590476Y-64362295D01*
X67590476Y-64362295D02*
X67590476Y-63562295D01*
X67590476Y-63562295D02*
X67971428Y-63562295D01*
X68314286Y-63943247D02*
X68580952Y-63943247D01*
X68695238Y-64362295D02*
X68314286Y-64362295D01*
X68314286Y-64362295D02*
X68314286Y-63562295D01*
X68314286Y-63562295D02*
X68695238Y-63562295D01*
X69533334Y-63562295D02*
X69990477Y-63562295D01*
X69761905Y-64362295D02*
X69761905Y-63562295D01*
X70257144Y-63943247D02*
X70523810Y-63943247D01*
X70638096Y-64362295D02*
X70257144Y-64362295D01*
X70257144Y-64362295D02*
X70257144Y-63562295D01*
X70257144Y-63562295D02*
X70638096Y-63562295D01*
X70942858Y-64324200D02*
X71057144Y-64362295D01*
X71057144Y-64362295D02*
X71247620Y-64362295D01*
X71247620Y-64362295D02*
X71323811Y-64324200D01*
X71323811Y-64324200D02*
X71361906Y-64286104D01*
X71361906Y-64286104D02*
X71400001Y-64209914D01*
X71400001Y-64209914D02*
X71400001Y-64133723D01*
X71400001Y-64133723D02*
X71361906Y-64057533D01*
X71361906Y-64057533D02*
X71323811Y-64019438D01*
X71323811Y-64019438D02*
X71247620Y-63981342D01*
X71247620Y-63981342D02*
X71095239Y-63943247D01*
X71095239Y-63943247D02*
X71019049Y-63905152D01*
X71019049Y-63905152D02*
X70980954Y-63867057D01*
X70980954Y-63867057D02*
X70942858Y-63790866D01*
X70942858Y-63790866D02*
X70942858Y-63714676D01*
X70942858Y-63714676D02*
X70980954Y-63638485D01*
X70980954Y-63638485D02*
X71019049Y-63600390D01*
X71019049Y-63600390D02*
X71095239Y-63562295D01*
X71095239Y-63562295D02*
X71285716Y-63562295D01*
X71285716Y-63562295D02*
X71400001Y-63600390D01*
X71628573Y-63562295D02*
X72085716Y-63562295D01*
X71857144Y-64362295D02*
X71857144Y-63562295D01*
X73342859Y-64362295D02*
X72961907Y-64362295D01*
X72961907Y-64362295D02*
X72961907Y-63562295D01*
X73609526Y-64362295D02*
X73609526Y-63562295D01*
X73990478Y-64362295D02*
X73990478Y-63562295D01*
X73990478Y-63562295D02*
X74257144Y-64133723D01*
X74257144Y-64133723D02*
X74523811Y-63562295D01*
X74523811Y-63562295D02*
X74523811Y-64362295D01*
X74904764Y-64362295D02*
X74904764Y-63562295D01*
X75171430Y-63562295D02*
X75628573Y-63562295D01*
X75400001Y-64362295D02*
X75400001Y-63562295D01*
X75857144Y-64324200D02*
X75971430Y-64362295D01*
X75971430Y-64362295D02*
X76161906Y-64362295D01*
X76161906Y-64362295D02*
X76238097Y-64324200D01*
X76238097Y-64324200D02*
X76276192Y-64286104D01*
X76276192Y-64286104D02*
X76314287Y-64209914D01*
X76314287Y-64209914D02*
X76314287Y-64133723D01*
X76314287Y-64133723D02*
X76276192Y-64057533D01*
X76276192Y-64057533D02*
X76238097Y-64019438D01*
X76238097Y-64019438D02*
X76161906Y-63981342D01*
X76161906Y-63981342D02*
X76009525Y-63943247D01*
X76009525Y-63943247D02*
X75933335Y-63905152D01*
X75933335Y-63905152D02*
X75895240Y-63867057D01*
X75895240Y-63867057D02*
X75857144Y-63790866D01*
X75857144Y-63790866D02*
X75857144Y-63714676D01*
X75857144Y-63714676D02*
X75895240Y-63638485D01*
X75895240Y-63638485D02*
X75933335Y-63600390D01*
X75933335Y-63600390D02*
X76009525Y-63562295D01*
X76009525Y-63562295D02*
X76200002Y-63562295D01*
X76200002Y-63562295D02*
X76314287Y-63600390D01*
X57799998Y-71638485D02*
X57838094Y-71600390D01*
X57838094Y-71600390D02*
X57914284Y-71562295D01*
X57914284Y-71562295D02*
X58104760Y-71562295D01*
X58104760Y-71562295D02*
X58180951Y-71600390D01*
X58180951Y-71600390D02*
X58219046Y-71638485D01*
X58219046Y-71638485D02*
X58257141Y-71714676D01*
X58257141Y-71714676D02*
X58257141Y-71790866D01*
X58257141Y-71790866D02*
X58219046Y-71905152D01*
X58219046Y-71905152D02*
X57761903Y-72362295D01*
X57761903Y-72362295D02*
X58257141Y-72362295D01*
X58714284Y-72362295D02*
X58638094Y-72324200D01*
X58638094Y-72324200D02*
X58599999Y-72286104D01*
X58599999Y-72286104D02*
X58561903Y-72209914D01*
X58561903Y-72209914D02*
X58561903Y-71981342D01*
X58561903Y-71981342D02*
X58599999Y-71905152D01*
X58599999Y-71905152D02*
X58638094Y-71867057D01*
X58638094Y-71867057D02*
X58714284Y-71828961D01*
X58714284Y-71828961D02*
X58828570Y-71828961D01*
X58828570Y-71828961D02*
X58904761Y-71867057D01*
X58904761Y-71867057D02*
X58942856Y-71905152D01*
X58942856Y-71905152D02*
X58980951Y-71981342D01*
X58980951Y-71981342D02*
X58980951Y-72209914D01*
X58980951Y-72209914D02*
X58942856Y-72286104D01*
X58942856Y-72286104D02*
X58904761Y-72324200D01*
X58904761Y-72324200D02*
X58828570Y-72362295D01*
X58828570Y-72362295D02*
X58714284Y-72362295D01*
X59247618Y-71828961D02*
X59666666Y-71828961D01*
X59666666Y-71828961D02*
X59247618Y-72362295D01*
X59247618Y-72362295D02*
X59666666Y-72362295D01*
X61152380Y-71524200D02*
X60466666Y-72552771D01*
X61990475Y-71638485D02*
X62028571Y-71600390D01*
X62028571Y-71600390D02*
X62104761Y-71562295D01*
X62104761Y-71562295D02*
X62295237Y-71562295D01*
X62295237Y-71562295D02*
X62371428Y-71600390D01*
X62371428Y-71600390D02*
X62409523Y-71638485D01*
X62409523Y-71638485D02*
X62447618Y-71714676D01*
X62447618Y-71714676D02*
X62447618Y-71790866D01*
X62447618Y-71790866D02*
X62409523Y-71905152D01*
X62409523Y-71905152D02*
X61952380Y-72362295D01*
X61952380Y-72362295D02*
X62447618Y-72362295D01*
X62904761Y-72362295D02*
X62828571Y-72324200D01*
X62828571Y-72324200D02*
X62790476Y-72286104D01*
X62790476Y-72286104D02*
X62752380Y-72209914D01*
X62752380Y-72209914D02*
X62752380Y-71981342D01*
X62752380Y-71981342D02*
X62790476Y-71905152D01*
X62790476Y-71905152D02*
X62828571Y-71867057D01*
X62828571Y-71867057D02*
X62904761Y-71828961D01*
X62904761Y-71828961D02*
X63019047Y-71828961D01*
X63019047Y-71828961D02*
X63095238Y-71867057D01*
X63095238Y-71867057D02*
X63133333Y-71905152D01*
X63133333Y-71905152D02*
X63171428Y-71981342D01*
X63171428Y-71981342D02*
X63171428Y-72209914D01*
X63171428Y-72209914D02*
X63133333Y-72286104D01*
X63133333Y-72286104D02*
X63095238Y-72324200D01*
X63095238Y-72324200D02*
X63019047Y-72362295D01*
X63019047Y-72362295D02*
X62904761Y-72362295D01*
X63438095Y-71828961D02*
X63857143Y-71828961D01*
X63857143Y-71828961D02*
X63438095Y-72362295D01*
X63438095Y-72362295D02*
X63857143Y-72362295D01*
X65342857Y-71524200D02*
X64657143Y-72552771D01*
X66180952Y-71638485D02*
X66219048Y-71600390D01*
X66219048Y-71600390D02*
X66295238Y-71562295D01*
X66295238Y-71562295D02*
X66485714Y-71562295D01*
X66485714Y-71562295D02*
X66561905Y-71600390D01*
X66561905Y-71600390D02*
X66600000Y-71638485D01*
X66600000Y-71638485D02*
X66638095Y-71714676D01*
X66638095Y-71714676D02*
X66638095Y-71790866D01*
X66638095Y-71790866D02*
X66600000Y-71905152D01*
X66600000Y-71905152D02*
X66142857Y-72362295D01*
X66142857Y-72362295D02*
X66638095Y-72362295D01*
X67095238Y-72362295D02*
X67019048Y-72324200D01*
X67019048Y-72324200D02*
X66980953Y-72286104D01*
X66980953Y-72286104D02*
X66942857Y-72209914D01*
X66942857Y-72209914D02*
X66942857Y-71981342D01*
X66942857Y-71981342D02*
X66980953Y-71905152D01*
X66980953Y-71905152D02*
X67019048Y-71867057D01*
X67019048Y-71867057D02*
X67095238Y-71828961D01*
X67095238Y-71828961D02*
X67209524Y-71828961D01*
X67209524Y-71828961D02*
X67285715Y-71867057D01*
X67285715Y-71867057D02*
X67323810Y-71905152D01*
X67323810Y-71905152D02*
X67361905Y-71981342D01*
X67361905Y-71981342D02*
X67361905Y-72209914D01*
X67361905Y-72209914D02*
X67323810Y-72286104D01*
X67323810Y-72286104D02*
X67285715Y-72324200D01*
X67285715Y-72324200D02*
X67209524Y-72362295D01*
X67209524Y-72362295D02*
X67095238Y-72362295D01*
X67628572Y-71828961D02*
X68047620Y-71828961D01*
X68047620Y-71828961D02*
X67628572Y-72362295D01*
X67628572Y-72362295D02*
X68047620Y-72362295D01*
X69533334Y-71524200D02*
X68847620Y-72552771D01*
X70371429Y-71638485D02*
X70409525Y-71600390D01*
X70409525Y-71600390D02*
X70485715Y-71562295D01*
X70485715Y-71562295D02*
X70676191Y-71562295D01*
X70676191Y-71562295D02*
X70752382Y-71600390D01*
X70752382Y-71600390D02*
X70790477Y-71638485D01*
X70790477Y-71638485D02*
X70828572Y-71714676D01*
X70828572Y-71714676D02*
X70828572Y-71790866D01*
X70828572Y-71790866D02*
X70790477Y-71905152D01*
X70790477Y-71905152D02*
X70333334Y-72362295D01*
X70333334Y-72362295D02*
X70828572Y-72362295D01*
X71285715Y-72362295D02*
X71209525Y-72324200D01*
X71209525Y-72324200D02*
X71171430Y-72286104D01*
X71171430Y-72286104D02*
X71133334Y-72209914D01*
X71133334Y-72209914D02*
X71133334Y-71981342D01*
X71133334Y-71981342D02*
X71171430Y-71905152D01*
X71171430Y-71905152D02*
X71209525Y-71867057D01*
X71209525Y-71867057D02*
X71285715Y-71828961D01*
X71285715Y-71828961D02*
X71400001Y-71828961D01*
X71400001Y-71828961D02*
X71476192Y-71867057D01*
X71476192Y-71867057D02*
X71514287Y-71905152D01*
X71514287Y-71905152D02*
X71552382Y-71981342D01*
X71552382Y-71981342D02*
X71552382Y-72209914D01*
X71552382Y-72209914D02*
X71514287Y-72286104D01*
X71514287Y-72286104D02*
X71476192Y-72324200D01*
X71476192Y-72324200D02*
X71400001Y-72362295D01*
X71400001Y-72362295D02*
X71285715Y-72362295D01*
X71819049Y-71828961D02*
X72238097Y-71828961D01*
X72238097Y-71828961D02*
X71819049Y-72362295D01*
X71819049Y-72362295D02*
X72238097Y-72362295D01*
X30100390Y-67790476D02*
X30062295Y-67866666D01*
X30062295Y-67866666D02*
X30062295Y-67980952D01*
X30062295Y-67980952D02*
X30100390Y-68095238D01*
X30100390Y-68095238D02*
X30176580Y-68171428D01*
X30176580Y-68171428D02*
X30252771Y-68209523D01*
X30252771Y-68209523D02*
X30405152Y-68247619D01*
X30405152Y-68247619D02*
X30519438Y-68247619D01*
X30519438Y-68247619D02*
X30671819Y-68209523D01*
X30671819Y-68209523D02*
X30748009Y-68171428D01*
X30748009Y-68171428D02*
X30824200Y-68095238D01*
X30824200Y-68095238D02*
X30862295Y-67980952D01*
X30862295Y-67980952D02*
X30862295Y-67904761D01*
X30862295Y-67904761D02*
X30824200Y-67790476D01*
X30824200Y-67790476D02*
X30786104Y-67752380D01*
X30786104Y-67752380D02*
X30519438Y-67752380D01*
X30519438Y-67752380D02*
X30519438Y-67904761D01*
X30062295Y-66876190D02*
X30062295Y-66380952D01*
X30062295Y-66380952D02*
X30367057Y-66647618D01*
X30367057Y-66647618D02*
X30367057Y-66533333D01*
X30367057Y-66533333D02*
X30405152Y-66457142D01*
X30405152Y-66457142D02*
X30443247Y-66419047D01*
X30443247Y-66419047D02*
X30519438Y-66380952D01*
X30519438Y-66380952D02*
X30709914Y-66380952D01*
X30709914Y-66380952D02*
X30786104Y-66419047D01*
X30786104Y-66419047D02*
X30824200Y-66457142D01*
X30824200Y-66457142D02*
X30862295Y-66533333D01*
X30862295Y-66533333D02*
X30862295Y-66761904D01*
X30862295Y-66761904D02*
X30824200Y-66838095D01*
X30824200Y-66838095D02*
X30786104Y-66876190D01*
X30062295Y-65542856D02*
X30062295Y-65085713D01*
X30862295Y-65314285D02*
X30062295Y-65314285D01*
X30862295Y-63752379D02*
X30481342Y-64019046D01*
X30862295Y-64209522D02*
X30062295Y-64209522D01*
X30062295Y-64209522D02*
X30062295Y-63904760D01*
X30062295Y-63904760D02*
X30100390Y-63828570D01*
X30100390Y-63828570D02*
X30138485Y-63790475D01*
X30138485Y-63790475D02*
X30214676Y-63752379D01*
X30214676Y-63752379D02*
X30328961Y-63752379D01*
X30328961Y-63752379D02*
X30405152Y-63790475D01*
X30405152Y-63790475D02*
X30443247Y-63828570D01*
X30443247Y-63828570D02*
X30481342Y-63904760D01*
X30481342Y-63904760D02*
X30481342Y-64209522D01*
X11278571Y-42937128D02*
X11407143Y-42979985D01*
X11407143Y-42979985D02*
X11450000Y-43022842D01*
X11450000Y-43022842D02*
X11492857Y-43108557D01*
X11492857Y-43108557D02*
X11492857Y-43237128D01*
X11492857Y-43237128D02*
X11450000Y-43322842D01*
X11450000Y-43322842D02*
X11407143Y-43365700D01*
X11407143Y-43365700D02*
X11321428Y-43408557D01*
X11321428Y-43408557D02*
X10978571Y-43408557D01*
X10978571Y-43408557D02*
X10978571Y-42508557D01*
X10978571Y-42508557D02*
X11278571Y-42508557D01*
X11278571Y-42508557D02*
X11364286Y-42551414D01*
X11364286Y-42551414D02*
X11407143Y-42594271D01*
X11407143Y-42594271D02*
X11450000Y-42679985D01*
X11450000Y-42679985D02*
X11450000Y-42765700D01*
X11450000Y-42765700D02*
X11407143Y-42851414D01*
X11407143Y-42851414D02*
X11364286Y-42894271D01*
X11364286Y-42894271D02*
X11278571Y-42937128D01*
X11278571Y-42937128D02*
X10978571Y-42937128D01*
X12050000Y-42508557D02*
X12221428Y-42508557D01*
X12221428Y-42508557D02*
X12307143Y-42551414D01*
X12307143Y-42551414D02*
X12392857Y-42637128D01*
X12392857Y-42637128D02*
X12435714Y-42808557D01*
X12435714Y-42808557D02*
X12435714Y-43108557D01*
X12435714Y-43108557D02*
X12392857Y-43279985D01*
X12392857Y-43279985D02*
X12307143Y-43365700D01*
X12307143Y-43365700D02*
X12221428Y-43408557D01*
X12221428Y-43408557D02*
X12050000Y-43408557D01*
X12050000Y-43408557D02*
X11964286Y-43365700D01*
X11964286Y-43365700D02*
X11878571Y-43279985D01*
X11878571Y-43279985D02*
X11835714Y-43108557D01*
X11835714Y-43108557D02*
X11835714Y-42808557D01*
X11835714Y-42808557D02*
X11878571Y-42637128D01*
X11878571Y-42637128D02*
X11964286Y-42551414D01*
X11964286Y-42551414D02*
X12050000Y-42508557D01*
X12992857Y-42508557D02*
X13164285Y-42508557D01*
X13164285Y-42508557D02*
X13250000Y-42551414D01*
X13250000Y-42551414D02*
X13335714Y-42637128D01*
X13335714Y-42637128D02*
X13378571Y-42808557D01*
X13378571Y-42808557D02*
X13378571Y-43108557D01*
X13378571Y-43108557D02*
X13335714Y-43279985D01*
X13335714Y-43279985D02*
X13250000Y-43365700D01*
X13250000Y-43365700D02*
X13164285Y-43408557D01*
X13164285Y-43408557D02*
X12992857Y-43408557D01*
X12992857Y-43408557D02*
X12907143Y-43365700D01*
X12907143Y-43365700D02*
X12821428Y-43279985D01*
X12821428Y-43279985D02*
X12778571Y-43108557D01*
X12778571Y-43108557D02*
X12778571Y-42808557D01*
X12778571Y-42808557D02*
X12821428Y-42637128D01*
X12821428Y-42637128D02*
X12907143Y-42551414D01*
X12907143Y-42551414D02*
X12992857Y-42508557D01*
X13635714Y-42508557D02*
X14150000Y-42508557D01*
X13892857Y-43408557D02*
X13892857Y-42508557D01*
X136142842Y-15314285D02*
X136185700Y-15357142D01*
X136185700Y-15357142D02*
X136228557Y-15485714D01*
X136228557Y-15485714D02*
X136228557Y-15571428D01*
X136228557Y-15571428D02*
X136185700Y-15699999D01*
X136185700Y-15699999D02*
X136099985Y-15785714D01*
X136099985Y-15785714D02*
X136014271Y-15828571D01*
X136014271Y-15828571D02*
X135842842Y-15871428D01*
X135842842Y-15871428D02*
X135714271Y-15871428D01*
X135714271Y-15871428D02*
X135542842Y-15828571D01*
X135542842Y-15828571D02*
X135457128Y-15785714D01*
X135457128Y-15785714D02*
X135371414Y-15699999D01*
X135371414Y-15699999D02*
X135328557Y-15571428D01*
X135328557Y-15571428D02*
X135328557Y-15485714D01*
X135328557Y-15485714D02*
X135371414Y-15357142D01*
X135371414Y-15357142D02*
X135414271Y-15314285D01*
X136228557Y-14928571D02*
X135328557Y-14928571D01*
X135757128Y-14928571D02*
X135757128Y-14414285D01*
X136228557Y-14414285D02*
X135328557Y-14414285D01*
X136228557Y-13514285D02*
X136228557Y-14028571D01*
X136228557Y-13771428D02*
X135328557Y-13771428D01*
X135328557Y-13771428D02*
X135457128Y-13857142D01*
X135457128Y-13857142D02*
X135542842Y-13942857D01*
X135542842Y-13942857D02*
X135585700Y-14028571D01*
X136228557Y-12442857D02*
X135328557Y-12442857D01*
X135328557Y-12442857D02*
X135971414Y-12142857D01*
X135971414Y-12142857D02*
X135328557Y-11842857D01*
X135328557Y-11842857D02*
X136228557Y-11842857D01*
X135971414Y-11457143D02*
X135971414Y-11028572D01*
X136228557Y-11542857D02*
X135328557Y-11242857D01*
X135328557Y-11242857D02*
X136228557Y-10942857D01*
X135328557Y-10728571D02*
X136228557Y-10128571D01*
X135328557Y-10128571D02*
X136228557Y-10728571D01*
X135757128Y-8800000D02*
X135757128Y-9100000D01*
X136228557Y-9100000D02*
X135328557Y-9100000D01*
X135328557Y-9100000D02*
X135328557Y-8671428D01*
X135328557Y-8328571D02*
X136057128Y-8328571D01*
X136057128Y-8328571D02*
X136142842Y-8285714D01*
X136142842Y-8285714D02*
X136185700Y-8242857D01*
X136185700Y-8242857D02*
X136228557Y-8157142D01*
X136228557Y-8157142D02*
X136228557Y-7985714D01*
X136228557Y-7985714D02*
X136185700Y-7899999D01*
X136185700Y-7899999D02*
X136142842Y-7857142D01*
X136142842Y-7857142D02*
X136057128Y-7814285D01*
X136057128Y-7814285D02*
X135328557Y-7814285D01*
X136185700Y-7428571D02*
X136228557Y-7300000D01*
X136228557Y-7300000D02*
X136228557Y-7085714D01*
X136228557Y-7085714D02*
X136185700Y-7000000D01*
X136185700Y-7000000D02*
X136142842Y-6957142D01*
X136142842Y-6957142D02*
X136057128Y-6914285D01*
X136057128Y-6914285D02*
X135971414Y-6914285D01*
X135971414Y-6914285D02*
X135885700Y-6957142D01*
X135885700Y-6957142D02*
X135842842Y-7000000D01*
X135842842Y-7000000D02*
X135799985Y-7085714D01*
X135799985Y-7085714D02*
X135757128Y-7257142D01*
X135757128Y-7257142D02*
X135714271Y-7342857D01*
X135714271Y-7342857D02*
X135671414Y-7385714D01*
X135671414Y-7385714D02*
X135585700Y-7428571D01*
X135585700Y-7428571D02*
X135499985Y-7428571D01*
X135499985Y-7428571D02*
X135414271Y-7385714D01*
X135414271Y-7385714D02*
X135371414Y-7342857D01*
X135371414Y-7342857D02*
X135328557Y-7257142D01*
X135328557Y-7257142D02*
X135328557Y-7042857D01*
X135328557Y-7042857D02*
X135371414Y-6914285D01*
X135757128Y-6528571D02*
X135757128Y-6228571D01*
X136228557Y-6099999D02*
X136228557Y-6528571D01*
X136228557Y-6528571D02*
X135328557Y-6528571D01*
X135328557Y-6528571D02*
X135328557Y-6099999D01*
X136228557Y-4557142D02*
X136228557Y-5071428D01*
X136228557Y-4814285D02*
X135328557Y-4814285D01*
X135328557Y-4814285D02*
X135457128Y-4899999D01*
X135457128Y-4899999D02*
X135542842Y-4985714D01*
X135542842Y-4985714D02*
X135585700Y-5071428D01*
X135328557Y-3999999D02*
X135328557Y-3914285D01*
X135328557Y-3914285D02*
X135371414Y-3828571D01*
X135371414Y-3828571D02*
X135414271Y-3785714D01*
X135414271Y-3785714D02*
X135499985Y-3742856D01*
X135499985Y-3742856D02*
X135671414Y-3699999D01*
X135671414Y-3699999D02*
X135885700Y-3699999D01*
X135885700Y-3699999D02*
X136057128Y-3742856D01*
X136057128Y-3742856D02*
X136142842Y-3785714D01*
X136142842Y-3785714D02*
X136185700Y-3828571D01*
X136185700Y-3828571D02*
X136228557Y-3914285D01*
X136228557Y-3914285D02*
X136228557Y-3999999D01*
X136228557Y-3999999D02*
X136185700Y-4085714D01*
X136185700Y-4085714D02*
X136142842Y-4128571D01*
X136142842Y-4128571D02*
X136057128Y-4171428D01*
X136057128Y-4171428D02*
X135885700Y-4214285D01*
X135885700Y-4214285D02*
X135671414Y-4214285D01*
X135671414Y-4214285D02*
X135499985Y-4171428D01*
X135499985Y-4171428D02*
X135414271Y-4128571D01*
X135414271Y-4128571D02*
X135371414Y-4085714D01*
X135371414Y-4085714D02*
X135328557Y-3999999D01*
X135971414Y-3357142D02*
X135971414Y-2928571D01*
X136228557Y-3442856D02*
X135328557Y-3142856D01*
X135328557Y-3142856D02*
X136228557Y-2842856D01*
X151382842Y-15314285D02*
X151425700Y-15357142D01*
X151425700Y-15357142D02*
X151468557Y-15485714D01*
X151468557Y-15485714D02*
X151468557Y-15571428D01*
X151468557Y-15571428D02*
X151425700Y-15699999D01*
X151425700Y-15699999D02*
X151339985Y-15785714D01*
X151339985Y-15785714D02*
X151254271Y-15828571D01*
X151254271Y-15828571D02*
X151082842Y-15871428D01*
X151082842Y-15871428D02*
X150954271Y-15871428D01*
X150954271Y-15871428D02*
X150782842Y-15828571D01*
X150782842Y-15828571D02*
X150697128Y-15785714D01*
X150697128Y-15785714D02*
X150611414Y-15699999D01*
X150611414Y-15699999D02*
X150568557Y-15571428D01*
X150568557Y-15571428D02*
X150568557Y-15485714D01*
X150568557Y-15485714D02*
X150611414Y-15357142D01*
X150611414Y-15357142D02*
X150654271Y-15314285D01*
X151468557Y-14928571D02*
X150568557Y-14928571D01*
X150997128Y-14928571D02*
X150997128Y-14414285D01*
X151468557Y-14414285D02*
X150568557Y-14414285D01*
X150654271Y-14028571D02*
X150611414Y-13985714D01*
X150611414Y-13985714D02*
X150568557Y-13900000D01*
X150568557Y-13900000D02*
X150568557Y-13685714D01*
X150568557Y-13685714D02*
X150611414Y-13600000D01*
X150611414Y-13600000D02*
X150654271Y-13557142D01*
X150654271Y-13557142D02*
X150739985Y-13514285D01*
X150739985Y-13514285D02*
X150825700Y-13514285D01*
X150825700Y-13514285D02*
X150954271Y-13557142D01*
X150954271Y-13557142D02*
X151468557Y-14071428D01*
X151468557Y-14071428D02*
X151468557Y-13514285D01*
X151468557Y-12442857D02*
X150568557Y-12442857D01*
X150568557Y-12442857D02*
X151211414Y-12142857D01*
X151211414Y-12142857D02*
X150568557Y-11842857D01*
X150568557Y-11842857D02*
X151468557Y-11842857D01*
X151211414Y-11457143D02*
X151211414Y-11028572D01*
X151468557Y-11542857D02*
X150568557Y-11242857D01*
X150568557Y-11242857D02*
X151468557Y-10942857D01*
X150568557Y-10728571D02*
X151468557Y-10128571D01*
X150568557Y-10128571D02*
X151468557Y-10728571D01*
X150997128Y-8800000D02*
X150997128Y-9100000D01*
X151468557Y-9100000D02*
X150568557Y-9100000D01*
X150568557Y-9100000D02*
X150568557Y-8671428D01*
X150568557Y-8328571D02*
X151297128Y-8328571D01*
X151297128Y-8328571D02*
X151382842Y-8285714D01*
X151382842Y-8285714D02*
X151425700Y-8242857D01*
X151425700Y-8242857D02*
X151468557Y-8157142D01*
X151468557Y-8157142D02*
X151468557Y-7985714D01*
X151468557Y-7985714D02*
X151425700Y-7899999D01*
X151425700Y-7899999D02*
X151382842Y-7857142D01*
X151382842Y-7857142D02*
X151297128Y-7814285D01*
X151297128Y-7814285D02*
X150568557Y-7814285D01*
X151425700Y-7428571D02*
X151468557Y-7300000D01*
X151468557Y-7300000D02*
X151468557Y-7085714D01*
X151468557Y-7085714D02*
X151425700Y-7000000D01*
X151425700Y-7000000D02*
X151382842Y-6957142D01*
X151382842Y-6957142D02*
X151297128Y-6914285D01*
X151297128Y-6914285D02*
X151211414Y-6914285D01*
X151211414Y-6914285D02*
X151125700Y-6957142D01*
X151125700Y-6957142D02*
X151082842Y-7000000D01*
X151082842Y-7000000D02*
X151039985Y-7085714D01*
X151039985Y-7085714D02*
X150997128Y-7257142D01*
X150997128Y-7257142D02*
X150954271Y-7342857D01*
X150954271Y-7342857D02*
X150911414Y-7385714D01*
X150911414Y-7385714D02*
X150825700Y-7428571D01*
X150825700Y-7428571D02*
X150739985Y-7428571D01*
X150739985Y-7428571D02*
X150654271Y-7385714D01*
X150654271Y-7385714D02*
X150611414Y-7342857D01*
X150611414Y-7342857D02*
X150568557Y-7257142D01*
X150568557Y-7257142D02*
X150568557Y-7042857D01*
X150568557Y-7042857D02*
X150611414Y-6914285D01*
X150997128Y-6528571D02*
X150997128Y-6228571D01*
X151468557Y-6099999D02*
X151468557Y-6528571D01*
X151468557Y-6528571D02*
X150568557Y-6528571D01*
X150568557Y-6528571D02*
X150568557Y-6099999D01*
X151468557Y-4557142D02*
X151468557Y-5071428D01*
X151468557Y-4814285D02*
X150568557Y-4814285D01*
X150568557Y-4814285D02*
X150697128Y-4899999D01*
X150697128Y-4899999D02*
X150782842Y-4985714D01*
X150782842Y-4985714D02*
X150825700Y-5071428D01*
X150568557Y-3999999D02*
X150568557Y-3914285D01*
X150568557Y-3914285D02*
X150611414Y-3828571D01*
X150611414Y-3828571D02*
X150654271Y-3785714D01*
X150654271Y-3785714D02*
X150739985Y-3742856D01*
X150739985Y-3742856D02*
X150911414Y-3699999D01*
X150911414Y-3699999D02*
X151125700Y-3699999D01*
X151125700Y-3699999D02*
X151297128Y-3742856D01*
X151297128Y-3742856D02*
X151382842Y-3785714D01*
X151382842Y-3785714D02*
X151425700Y-3828571D01*
X151425700Y-3828571D02*
X151468557Y-3914285D01*
X151468557Y-3914285D02*
X151468557Y-3999999D01*
X151468557Y-3999999D02*
X151425700Y-4085714D01*
X151425700Y-4085714D02*
X151382842Y-4128571D01*
X151382842Y-4128571D02*
X151297128Y-4171428D01*
X151297128Y-4171428D02*
X151125700Y-4214285D01*
X151125700Y-4214285D02*
X150911414Y-4214285D01*
X150911414Y-4214285D02*
X150739985Y-4171428D01*
X150739985Y-4171428D02*
X150654271Y-4128571D01*
X150654271Y-4128571D02*
X150611414Y-4085714D01*
X150611414Y-4085714D02*
X150568557Y-3999999D01*
X151211414Y-3357142D02*
X151211414Y-2928571D01*
X151468557Y-3442856D02*
X150568557Y-3142856D01*
X150568557Y-3142856D02*
X151468557Y-2842856D01*
X166622841Y-14885714D02*
X166665699Y-14928571D01*
X166665699Y-14928571D02*
X166708556Y-15057143D01*
X166708556Y-15057143D02*
X166708556Y-15142857D01*
X166708556Y-15142857D02*
X166665699Y-15271428D01*
X166665699Y-15271428D02*
X166579984Y-15357143D01*
X166579984Y-15357143D02*
X166494270Y-15400000D01*
X166494270Y-15400000D02*
X166322841Y-15442857D01*
X166322841Y-15442857D02*
X166194270Y-15442857D01*
X166194270Y-15442857D02*
X166022841Y-15400000D01*
X166022841Y-15400000D02*
X165937127Y-15357143D01*
X165937127Y-15357143D02*
X165851413Y-15271428D01*
X165851413Y-15271428D02*
X165808556Y-15142857D01*
X165808556Y-15142857D02*
X165808556Y-15057143D01*
X165808556Y-15057143D02*
X165851413Y-14928571D01*
X165851413Y-14928571D02*
X165894270Y-14885714D01*
X166708556Y-14500000D02*
X165808556Y-14500000D01*
X166237127Y-14500000D02*
X166237127Y-13985714D01*
X166708556Y-13985714D02*
X165808556Y-13985714D01*
X165808556Y-13642857D02*
X165808556Y-13085714D01*
X165808556Y-13085714D02*
X166151413Y-13385714D01*
X166151413Y-13385714D02*
X166151413Y-13257143D01*
X166151413Y-13257143D02*
X166194270Y-13171429D01*
X166194270Y-13171429D02*
X166237127Y-13128571D01*
X166237127Y-13128571D02*
X166322841Y-13085714D01*
X166322841Y-13085714D02*
X166537127Y-13085714D01*
X166537127Y-13085714D02*
X166622841Y-13128571D01*
X166622841Y-13128571D02*
X166665699Y-13171429D01*
X166665699Y-13171429D02*
X166708556Y-13257143D01*
X166708556Y-13257143D02*
X166708556Y-13514286D01*
X166708556Y-13514286D02*
X166665699Y-13600000D01*
X166665699Y-13600000D02*
X166622841Y-13642857D01*
X166708556Y-12014286D02*
X165808556Y-12014286D01*
X165808556Y-12014286D02*
X166451413Y-11714286D01*
X166451413Y-11714286D02*
X165808556Y-11414286D01*
X165808556Y-11414286D02*
X166708556Y-11414286D01*
X166451413Y-11028572D02*
X166451413Y-10600001D01*
X166708556Y-11114286D02*
X165808556Y-10814286D01*
X165808556Y-10814286D02*
X166708556Y-10514286D01*
X165808556Y-10300000D02*
X166708556Y-9700000D01*
X165808556Y-9700000D02*
X166708556Y-10300000D01*
X166237127Y-8371429D02*
X166237127Y-8671429D01*
X166708556Y-8671429D02*
X165808556Y-8671429D01*
X165808556Y-8671429D02*
X165808556Y-8242857D01*
X165808556Y-7900000D02*
X166537127Y-7900000D01*
X166537127Y-7900000D02*
X166622841Y-7857143D01*
X166622841Y-7857143D02*
X166665699Y-7814286D01*
X166665699Y-7814286D02*
X166708556Y-7728571D01*
X166708556Y-7728571D02*
X166708556Y-7557143D01*
X166708556Y-7557143D02*
X166665699Y-7471428D01*
X166665699Y-7471428D02*
X166622841Y-7428571D01*
X166622841Y-7428571D02*
X166537127Y-7385714D01*
X166537127Y-7385714D02*
X165808556Y-7385714D01*
X166665699Y-7000000D02*
X166708556Y-6871429D01*
X166708556Y-6871429D02*
X166708556Y-6657143D01*
X166708556Y-6657143D02*
X166665699Y-6571429D01*
X166665699Y-6571429D02*
X166622841Y-6528571D01*
X166622841Y-6528571D02*
X166537127Y-6485714D01*
X166537127Y-6485714D02*
X166451413Y-6485714D01*
X166451413Y-6485714D02*
X166365699Y-6528571D01*
X166365699Y-6528571D02*
X166322841Y-6571429D01*
X166322841Y-6571429D02*
X166279984Y-6657143D01*
X166279984Y-6657143D02*
X166237127Y-6828571D01*
X166237127Y-6828571D02*
X166194270Y-6914286D01*
X166194270Y-6914286D02*
X166151413Y-6957143D01*
X166151413Y-6957143D02*
X166065699Y-7000000D01*
X166065699Y-7000000D02*
X165979984Y-7000000D01*
X165979984Y-7000000D02*
X165894270Y-6957143D01*
X165894270Y-6957143D02*
X165851413Y-6914286D01*
X165851413Y-6914286D02*
X165808556Y-6828571D01*
X165808556Y-6828571D02*
X165808556Y-6614286D01*
X165808556Y-6614286D02*
X165851413Y-6485714D01*
X166237127Y-6100000D02*
X166237127Y-5800000D01*
X166708556Y-5671428D02*
X166708556Y-6100000D01*
X166708556Y-6100000D02*
X165808556Y-6100000D01*
X165808556Y-6100000D02*
X165808556Y-5671428D01*
X165808556Y-4171428D02*
X165808556Y-4600000D01*
X165808556Y-4600000D02*
X166237127Y-4642857D01*
X166237127Y-4642857D02*
X166194270Y-4600000D01*
X166194270Y-4600000D02*
X166151413Y-4514286D01*
X166151413Y-4514286D02*
X166151413Y-4300000D01*
X166151413Y-4300000D02*
X166194270Y-4214286D01*
X166194270Y-4214286D02*
X166237127Y-4171428D01*
X166237127Y-4171428D02*
X166322841Y-4128571D01*
X166322841Y-4128571D02*
X166537127Y-4128571D01*
X166537127Y-4128571D02*
X166622841Y-4171428D01*
X166622841Y-4171428D02*
X166665699Y-4214286D01*
X166665699Y-4214286D02*
X166708556Y-4300000D01*
X166708556Y-4300000D02*
X166708556Y-4514286D01*
X166708556Y-4514286D02*
X166665699Y-4600000D01*
X166665699Y-4600000D02*
X166622841Y-4642857D01*
X166451413Y-3785714D02*
X166451413Y-3357143D01*
X166708556Y-3871428D02*
X165808556Y-3571428D01*
X165808556Y-3571428D02*
X166708556Y-3271428D01*
X181862842Y-14885714D02*
X181905700Y-14928571D01*
X181905700Y-14928571D02*
X181948557Y-15057143D01*
X181948557Y-15057143D02*
X181948557Y-15142857D01*
X181948557Y-15142857D02*
X181905700Y-15271428D01*
X181905700Y-15271428D02*
X181819985Y-15357143D01*
X181819985Y-15357143D02*
X181734271Y-15400000D01*
X181734271Y-15400000D02*
X181562842Y-15442857D01*
X181562842Y-15442857D02*
X181434271Y-15442857D01*
X181434271Y-15442857D02*
X181262842Y-15400000D01*
X181262842Y-15400000D02*
X181177128Y-15357143D01*
X181177128Y-15357143D02*
X181091414Y-15271428D01*
X181091414Y-15271428D02*
X181048557Y-15142857D01*
X181048557Y-15142857D02*
X181048557Y-15057143D01*
X181048557Y-15057143D02*
X181091414Y-14928571D01*
X181091414Y-14928571D02*
X181134271Y-14885714D01*
X181948557Y-14500000D02*
X181048557Y-14500000D01*
X181477128Y-14500000D02*
X181477128Y-13985714D01*
X181948557Y-13985714D02*
X181048557Y-13985714D01*
X181348557Y-13171429D02*
X181948557Y-13171429D01*
X181005700Y-13385714D02*
X181648557Y-13600000D01*
X181648557Y-13600000D02*
X181648557Y-13042857D01*
X181948557Y-12014286D02*
X181048557Y-12014286D01*
X181048557Y-12014286D02*
X181691414Y-11714286D01*
X181691414Y-11714286D02*
X181048557Y-11414286D01*
X181048557Y-11414286D02*
X181948557Y-11414286D01*
X181691414Y-11028572D02*
X181691414Y-10600001D01*
X181948557Y-11114286D02*
X181048557Y-10814286D01*
X181048557Y-10814286D02*
X181948557Y-10514286D01*
X181048557Y-10300000D02*
X181948557Y-9700000D01*
X181048557Y-9700000D02*
X181948557Y-10300000D01*
X181477128Y-8371429D02*
X181477128Y-8671429D01*
X181948557Y-8671429D02*
X181048557Y-8671429D01*
X181048557Y-8671429D02*
X181048557Y-8242857D01*
X181048557Y-7900000D02*
X181777128Y-7900000D01*
X181777128Y-7900000D02*
X181862842Y-7857143D01*
X181862842Y-7857143D02*
X181905700Y-7814286D01*
X181905700Y-7814286D02*
X181948557Y-7728571D01*
X181948557Y-7728571D02*
X181948557Y-7557143D01*
X181948557Y-7557143D02*
X181905700Y-7471428D01*
X181905700Y-7471428D02*
X181862842Y-7428571D01*
X181862842Y-7428571D02*
X181777128Y-7385714D01*
X181777128Y-7385714D02*
X181048557Y-7385714D01*
X181905700Y-7000000D02*
X181948557Y-6871429D01*
X181948557Y-6871429D02*
X181948557Y-6657143D01*
X181948557Y-6657143D02*
X181905700Y-6571429D01*
X181905700Y-6571429D02*
X181862842Y-6528571D01*
X181862842Y-6528571D02*
X181777128Y-6485714D01*
X181777128Y-6485714D02*
X181691414Y-6485714D01*
X181691414Y-6485714D02*
X181605700Y-6528571D01*
X181605700Y-6528571D02*
X181562842Y-6571429D01*
X181562842Y-6571429D02*
X181519985Y-6657143D01*
X181519985Y-6657143D02*
X181477128Y-6828571D01*
X181477128Y-6828571D02*
X181434271Y-6914286D01*
X181434271Y-6914286D02*
X181391414Y-6957143D01*
X181391414Y-6957143D02*
X181305700Y-7000000D01*
X181305700Y-7000000D02*
X181219985Y-7000000D01*
X181219985Y-7000000D02*
X181134271Y-6957143D01*
X181134271Y-6957143D02*
X181091414Y-6914286D01*
X181091414Y-6914286D02*
X181048557Y-6828571D01*
X181048557Y-6828571D02*
X181048557Y-6614286D01*
X181048557Y-6614286D02*
X181091414Y-6485714D01*
X181477128Y-6100000D02*
X181477128Y-5800000D01*
X181948557Y-5671428D02*
X181948557Y-6100000D01*
X181948557Y-6100000D02*
X181048557Y-6100000D01*
X181048557Y-6100000D02*
X181048557Y-5671428D01*
X181048557Y-4171428D02*
X181048557Y-4600000D01*
X181048557Y-4600000D02*
X181477128Y-4642857D01*
X181477128Y-4642857D02*
X181434271Y-4600000D01*
X181434271Y-4600000D02*
X181391414Y-4514286D01*
X181391414Y-4514286D02*
X181391414Y-4300000D01*
X181391414Y-4300000D02*
X181434271Y-4214286D01*
X181434271Y-4214286D02*
X181477128Y-4171428D01*
X181477128Y-4171428D02*
X181562842Y-4128571D01*
X181562842Y-4128571D02*
X181777128Y-4128571D01*
X181777128Y-4128571D02*
X181862842Y-4171428D01*
X181862842Y-4171428D02*
X181905700Y-4214286D01*
X181905700Y-4214286D02*
X181948557Y-4300000D01*
X181948557Y-4300000D02*
X181948557Y-4514286D01*
X181948557Y-4514286D02*
X181905700Y-4600000D01*
X181905700Y-4600000D02*
X181862842Y-4642857D01*
X181691414Y-3785714D02*
X181691414Y-3357143D01*
X181948557Y-3871428D02*
X181048557Y-3571428D01*
X181048557Y-3571428D02*
X181948557Y-3271428D01*
X197102842Y-14885714D02*
X197145700Y-14928571D01*
X197145700Y-14928571D02*
X197188557Y-15057143D01*
X197188557Y-15057143D02*
X197188557Y-15142857D01*
X197188557Y-15142857D02*
X197145700Y-15271428D01*
X197145700Y-15271428D02*
X197059985Y-15357143D01*
X197059985Y-15357143D02*
X196974271Y-15400000D01*
X196974271Y-15400000D02*
X196802842Y-15442857D01*
X196802842Y-15442857D02*
X196674271Y-15442857D01*
X196674271Y-15442857D02*
X196502842Y-15400000D01*
X196502842Y-15400000D02*
X196417128Y-15357143D01*
X196417128Y-15357143D02*
X196331414Y-15271428D01*
X196331414Y-15271428D02*
X196288557Y-15142857D01*
X196288557Y-15142857D02*
X196288557Y-15057143D01*
X196288557Y-15057143D02*
X196331414Y-14928571D01*
X196331414Y-14928571D02*
X196374271Y-14885714D01*
X197188557Y-14500000D02*
X196288557Y-14500000D01*
X196717128Y-14500000D02*
X196717128Y-13985714D01*
X197188557Y-13985714D02*
X196288557Y-13985714D01*
X196288557Y-13128571D02*
X196288557Y-13557143D01*
X196288557Y-13557143D02*
X196717128Y-13600000D01*
X196717128Y-13600000D02*
X196674271Y-13557143D01*
X196674271Y-13557143D02*
X196631414Y-13471429D01*
X196631414Y-13471429D02*
X196631414Y-13257143D01*
X196631414Y-13257143D02*
X196674271Y-13171429D01*
X196674271Y-13171429D02*
X196717128Y-13128571D01*
X196717128Y-13128571D02*
X196802842Y-13085714D01*
X196802842Y-13085714D02*
X197017128Y-13085714D01*
X197017128Y-13085714D02*
X197102842Y-13128571D01*
X197102842Y-13128571D02*
X197145700Y-13171429D01*
X197145700Y-13171429D02*
X197188557Y-13257143D01*
X197188557Y-13257143D02*
X197188557Y-13471429D01*
X197188557Y-13471429D02*
X197145700Y-13557143D01*
X197145700Y-13557143D02*
X197102842Y-13600000D01*
X197188557Y-12014286D02*
X196288557Y-12014286D01*
X196288557Y-12014286D02*
X196931414Y-11714286D01*
X196931414Y-11714286D02*
X196288557Y-11414286D01*
X196288557Y-11414286D02*
X197188557Y-11414286D01*
X196931414Y-11028572D02*
X196931414Y-10600001D01*
X197188557Y-11114286D02*
X196288557Y-10814286D01*
X196288557Y-10814286D02*
X197188557Y-10514286D01*
X196288557Y-10300000D02*
X197188557Y-9700000D01*
X196288557Y-9700000D02*
X197188557Y-10300000D01*
X196717128Y-8371429D02*
X196717128Y-8671429D01*
X197188557Y-8671429D02*
X196288557Y-8671429D01*
X196288557Y-8671429D02*
X196288557Y-8242857D01*
X196288557Y-7900000D02*
X197017128Y-7900000D01*
X197017128Y-7900000D02*
X197102842Y-7857143D01*
X197102842Y-7857143D02*
X197145700Y-7814286D01*
X197145700Y-7814286D02*
X197188557Y-7728571D01*
X197188557Y-7728571D02*
X197188557Y-7557143D01*
X197188557Y-7557143D02*
X197145700Y-7471428D01*
X197145700Y-7471428D02*
X197102842Y-7428571D01*
X197102842Y-7428571D02*
X197017128Y-7385714D01*
X197017128Y-7385714D02*
X196288557Y-7385714D01*
X197145700Y-7000000D02*
X197188557Y-6871429D01*
X197188557Y-6871429D02*
X197188557Y-6657143D01*
X197188557Y-6657143D02*
X197145700Y-6571429D01*
X197145700Y-6571429D02*
X197102842Y-6528571D01*
X197102842Y-6528571D02*
X197017128Y-6485714D01*
X197017128Y-6485714D02*
X196931414Y-6485714D01*
X196931414Y-6485714D02*
X196845700Y-6528571D01*
X196845700Y-6528571D02*
X196802842Y-6571429D01*
X196802842Y-6571429D02*
X196759985Y-6657143D01*
X196759985Y-6657143D02*
X196717128Y-6828571D01*
X196717128Y-6828571D02*
X196674271Y-6914286D01*
X196674271Y-6914286D02*
X196631414Y-6957143D01*
X196631414Y-6957143D02*
X196545700Y-7000000D01*
X196545700Y-7000000D02*
X196459985Y-7000000D01*
X196459985Y-7000000D02*
X196374271Y-6957143D01*
X196374271Y-6957143D02*
X196331414Y-6914286D01*
X196331414Y-6914286D02*
X196288557Y-6828571D01*
X196288557Y-6828571D02*
X196288557Y-6614286D01*
X196288557Y-6614286D02*
X196331414Y-6485714D01*
X196717128Y-6100000D02*
X196717128Y-5800000D01*
X197188557Y-5671428D02*
X197188557Y-6100000D01*
X197188557Y-6100000D02*
X196288557Y-6100000D01*
X196288557Y-6100000D02*
X196288557Y-5671428D01*
X196288557Y-4171428D02*
X196288557Y-4600000D01*
X196288557Y-4600000D02*
X196717128Y-4642857D01*
X196717128Y-4642857D02*
X196674271Y-4600000D01*
X196674271Y-4600000D02*
X196631414Y-4514286D01*
X196631414Y-4514286D02*
X196631414Y-4300000D01*
X196631414Y-4300000D02*
X196674271Y-4214286D01*
X196674271Y-4214286D02*
X196717128Y-4171428D01*
X196717128Y-4171428D02*
X196802842Y-4128571D01*
X196802842Y-4128571D02*
X197017128Y-4128571D01*
X197017128Y-4128571D02*
X197102842Y-4171428D01*
X197102842Y-4171428D02*
X197145700Y-4214286D01*
X197145700Y-4214286D02*
X197188557Y-4300000D01*
X197188557Y-4300000D02*
X197188557Y-4514286D01*
X197188557Y-4514286D02*
X197145700Y-4600000D01*
X197145700Y-4600000D02*
X197102842Y-4642857D01*
X196931414Y-3785714D02*
X196931414Y-3357143D01*
X197188557Y-3871428D02*
X196288557Y-3571428D01*
X196288557Y-3571428D02*
X197188557Y-3271428D01*
X212342841Y-14885714D02*
X212385699Y-14928571D01*
X212385699Y-14928571D02*
X212428556Y-15057143D01*
X212428556Y-15057143D02*
X212428556Y-15142857D01*
X212428556Y-15142857D02*
X212385699Y-15271428D01*
X212385699Y-15271428D02*
X212299984Y-15357143D01*
X212299984Y-15357143D02*
X212214270Y-15400000D01*
X212214270Y-15400000D02*
X212042841Y-15442857D01*
X212042841Y-15442857D02*
X211914270Y-15442857D01*
X211914270Y-15442857D02*
X211742841Y-15400000D01*
X211742841Y-15400000D02*
X211657127Y-15357143D01*
X211657127Y-15357143D02*
X211571413Y-15271428D01*
X211571413Y-15271428D02*
X211528556Y-15142857D01*
X211528556Y-15142857D02*
X211528556Y-15057143D01*
X211528556Y-15057143D02*
X211571413Y-14928571D01*
X211571413Y-14928571D02*
X211614270Y-14885714D01*
X212428556Y-14500000D02*
X211528556Y-14500000D01*
X211957127Y-14500000D02*
X211957127Y-13985714D01*
X212428556Y-13985714D02*
X211528556Y-13985714D01*
X211528556Y-13171429D02*
X211528556Y-13342857D01*
X211528556Y-13342857D02*
X211571413Y-13428571D01*
X211571413Y-13428571D02*
X211614270Y-13471429D01*
X211614270Y-13471429D02*
X211742841Y-13557143D01*
X211742841Y-13557143D02*
X211914270Y-13600000D01*
X211914270Y-13600000D02*
X212257127Y-13600000D01*
X212257127Y-13600000D02*
X212342841Y-13557143D01*
X212342841Y-13557143D02*
X212385699Y-13514286D01*
X212385699Y-13514286D02*
X212428556Y-13428571D01*
X212428556Y-13428571D02*
X212428556Y-13257143D01*
X212428556Y-13257143D02*
X212385699Y-13171429D01*
X212385699Y-13171429D02*
X212342841Y-13128571D01*
X212342841Y-13128571D02*
X212257127Y-13085714D01*
X212257127Y-13085714D02*
X212042841Y-13085714D01*
X212042841Y-13085714D02*
X211957127Y-13128571D01*
X211957127Y-13128571D02*
X211914270Y-13171429D01*
X211914270Y-13171429D02*
X211871413Y-13257143D01*
X211871413Y-13257143D02*
X211871413Y-13428571D01*
X211871413Y-13428571D02*
X211914270Y-13514286D01*
X211914270Y-13514286D02*
X211957127Y-13557143D01*
X211957127Y-13557143D02*
X212042841Y-13600000D01*
X212428556Y-12014286D02*
X211528556Y-12014286D01*
X211528556Y-12014286D02*
X212171413Y-11714286D01*
X212171413Y-11714286D02*
X211528556Y-11414286D01*
X211528556Y-11414286D02*
X212428556Y-11414286D01*
X212171413Y-11028572D02*
X212171413Y-10600001D01*
X212428556Y-11114286D02*
X211528556Y-10814286D01*
X211528556Y-10814286D02*
X212428556Y-10514286D01*
X211528556Y-10300000D02*
X212428556Y-9700000D01*
X211528556Y-9700000D02*
X212428556Y-10300000D01*
X211957127Y-8371429D02*
X211957127Y-8671429D01*
X212428556Y-8671429D02*
X211528556Y-8671429D01*
X211528556Y-8671429D02*
X211528556Y-8242857D01*
X211528556Y-7900000D02*
X212257127Y-7900000D01*
X212257127Y-7900000D02*
X212342841Y-7857143D01*
X212342841Y-7857143D02*
X212385699Y-7814286D01*
X212385699Y-7814286D02*
X212428556Y-7728571D01*
X212428556Y-7728571D02*
X212428556Y-7557143D01*
X212428556Y-7557143D02*
X212385699Y-7471428D01*
X212385699Y-7471428D02*
X212342841Y-7428571D01*
X212342841Y-7428571D02*
X212257127Y-7385714D01*
X212257127Y-7385714D02*
X211528556Y-7385714D01*
X212385699Y-7000000D02*
X212428556Y-6871429D01*
X212428556Y-6871429D02*
X212428556Y-6657143D01*
X212428556Y-6657143D02*
X212385699Y-6571429D01*
X212385699Y-6571429D02*
X212342841Y-6528571D01*
X212342841Y-6528571D02*
X212257127Y-6485714D01*
X212257127Y-6485714D02*
X212171413Y-6485714D01*
X212171413Y-6485714D02*
X212085699Y-6528571D01*
X212085699Y-6528571D02*
X212042841Y-6571429D01*
X212042841Y-6571429D02*
X211999984Y-6657143D01*
X211999984Y-6657143D02*
X211957127Y-6828571D01*
X211957127Y-6828571D02*
X211914270Y-6914286D01*
X211914270Y-6914286D02*
X211871413Y-6957143D01*
X211871413Y-6957143D02*
X211785699Y-7000000D01*
X211785699Y-7000000D02*
X211699984Y-7000000D01*
X211699984Y-7000000D02*
X211614270Y-6957143D01*
X211614270Y-6957143D02*
X211571413Y-6914286D01*
X211571413Y-6914286D02*
X211528556Y-6828571D01*
X211528556Y-6828571D02*
X211528556Y-6614286D01*
X211528556Y-6614286D02*
X211571413Y-6485714D01*
X211957127Y-6100000D02*
X211957127Y-5800000D01*
X212428556Y-5671428D02*
X212428556Y-6100000D01*
X212428556Y-6100000D02*
X211528556Y-6100000D01*
X211528556Y-6100000D02*
X211528556Y-5671428D01*
X211528556Y-4171428D02*
X211528556Y-4600000D01*
X211528556Y-4600000D02*
X211957127Y-4642857D01*
X211957127Y-4642857D02*
X211914270Y-4600000D01*
X211914270Y-4600000D02*
X211871413Y-4514286D01*
X211871413Y-4514286D02*
X211871413Y-4300000D01*
X211871413Y-4300000D02*
X211914270Y-4214286D01*
X211914270Y-4214286D02*
X211957127Y-4171428D01*
X211957127Y-4171428D02*
X212042841Y-4128571D01*
X212042841Y-4128571D02*
X212257127Y-4128571D01*
X212257127Y-4128571D02*
X212342841Y-4171428D01*
X212342841Y-4171428D02*
X212385699Y-4214286D01*
X212385699Y-4214286D02*
X212428556Y-4300000D01*
X212428556Y-4300000D02*
X212428556Y-4514286D01*
X212428556Y-4514286D02*
X212385699Y-4600000D01*
X212385699Y-4600000D02*
X212342841Y-4642857D01*
X212171413Y-3785714D02*
X212171413Y-3357143D01*
X212428556Y-3871428D02*
X211528556Y-3571428D01*
X211528556Y-3571428D02*
X212428556Y-3271428D01*
X227582842Y-14885714D02*
X227625700Y-14928571D01*
X227625700Y-14928571D02*
X227668557Y-15057143D01*
X227668557Y-15057143D02*
X227668557Y-15142857D01*
X227668557Y-15142857D02*
X227625700Y-15271428D01*
X227625700Y-15271428D02*
X227539985Y-15357143D01*
X227539985Y-15357143D02*
X227454271Y-15400000D01*
X227454271Y-15400000D02*
X227282842Y-15442857D01*
X227282842Y-15442857D02*
X227154271Y-15442857D01*
X227154271Y-15442857D02*
X226982842Y-15400000D01*
X226982842Y-15400000D02*
X226897128Y-15357143D01*
X226897128Y-15357143D02*
X226811414Y-15271428D01*
X226811414Y-15271428D02*
X226768557Y-15142857D01*
X226768557Y-15142857D02*
X226768557Y-15057143D01*
X226768557Y-15057143D02*
X226811414Y-14928571D01*
X226811414Y-14928571D02*
X226854271Y-14885714D01*
X227668557Y-14500000D02*
X226768557Y-14500000D01*
X227197128Y-14500000D02*
X227197128Y-13985714D01*
X227668557Y-13985714D02*
X226768557Y-13985714D01*
X226768557Y-13642857D02*
X226768557Y-13042857D01*
X226768557Y-13042857D02*
X227668557Y-13428571D01*
X227668557Y-12014286D02*
X226768557Y-12014286D01*
X226768557Y-12014286D02*
X227411414Y-11714286D01*
X227411414Y-11714286D02*
X226768557Y-11414286D01*
X226768557Y-11414286D02*
X227668557Y-11414286D01*
X227411414Y-11028572D02*
X227411414Y-10600001D01*
X227668557Y-11114286D02*
X226768557Y-10814286D01*
X226768557Y-10814286D02*
X227668557Y-10514286D01*
X226768557Y-10300000D02*
X227668557Y-9700000D01*
X226768557Y-9700000D02*
X227668557Y-10300000D01*
X227197128Y-8371429D02*
X227197128Y-8671429D01*
X227668557Y-8671429D02*
X226768557Y-8671429D01*
X226768557Y-8671429D02*
X226768557Y-8242857D01*
X226768557Y-7900000D02*
X227497128Y-7900000D01*
X227497128Y-7900000D02*
X227582842Y-7857143D01*
X227582842Y-7857143D02*
X227625700Y-7814286D01*
X227625700Y-7814286D02*
X227668557Y-7728571D01*
X227668557Y-7728571D02*
X227668557Y-7557143D01*
X227668557Y-7557143D02*
X227625700Y-7471428D01*
X227625700Y-7471428D02*
X227582842Y-7428571D01*
X227582842Y-7428571D02*
X227497128Y-7385714D01*
X227497128Y-7385714D02*
X226768557Y-7385714D01*
X227625700Y-7000000D02*
X227668557Y-6871429D01*
X227668557Y-6871429D02*
X227668557Y-6657143D01*
X227668557Y-6657143D02*
X227625700Y-6571429D01*
X227625700Y-6571429D02*
X227582842Y-6528571D01*
X227582842Y-6528571D02*
X227497128Y-6485714D01*
X227497128Y-6485714D02*
X227411414Y-6485714D01*
X227411414Y-6485714D02*
X227325700Y-6528571D01*
X227325700Y-6528571D02*
X227282842Y-6571429D01*
X227282842Y-6571429D02*
X227239985Y-6657143D01*
X227239985Y-6657143D02*
X227197128Y-6828571D01*
X227197128Y-6828571D02*
X227154271Y-6914286D01*
X227154271Y-6914286D02*
X227111414Y-6957143D01*
X227111414Y-6957143D02*
X227025700Y-7000000D01*
X227025700Y-7000000D02*
X226939985Y-7000000D01*
X226939985Y-7000000D02*
X226854271Y-6957143D01*
X226854271Y-6957143D02*
X226811414Y-6914286D01*
X226811414Y-6914286D02*
X226768557Y-6828571D01*
X226768557Y-6828571D02*
X226768557Y-6614286D01*
X226768557Y-6614286D02*
X226811414Y-6485714D01*
X227197128Y-6100000D02*
X227197128Y-5800000D01*
X227668557Y-5671428D02*
X227668557Y-6100000D01*
X227668557Y-6100000D02*
X226768557Y-6100000D01*
X226768557Y-6100000D02*
X226768557Y-5671428D01*
X226768557Y-4171428D02*
X226768557Y-4600000D01*
X226768557Y-4600000D02*
X227197128Y-4642857D01*
X227197128Y-4642857D02*
X227154271Y-4600000D01*
X227154271Y-4600000D02*
X227111414Y-4514286D01*
X227111414Y-4514286D02*
X227111414Y-4300000D01*
X227111414Y-4300000D02*
X227154271Y-4214286D01*
X227154271Y-4214286D02*
X227197128Y-4171428D01*
X227197128Y-4171428D02*
X227282842Y-4128571D01*
X227282842Y-4128571D02*
X227497128Y-4128571D01*
X227497128Y-4128571D02*
X227582842Y-4171428D01*
X227582842Y-4171428D02*
X227625700Y-4214286D01*
X227625700Y-4214286D02*
X227668557Y-4300000D01*
X227668557Y-4300000D02*
X227668557Y-4514286D01*
X227668557Y-4514286D02*
X227625700Y-4600000D01*
X227625700Y-4600000D02*
X227582842Y-4642857D01*
X227411414Y-3785714D02*
X227411414Y-3357143D01*
X227668557Y-3871428D02*
X226768557Y-3571428D01*
X226768557Y-3571428D02*
X227668557Y-3271428D01*
X242822842Y-15314285D02*
X242865700Y-15357142D01*
X242865700Y-15357142D02*
X242908557Y-15485714D01*
X242908557Y-15485714D02*
X242908557Y-15571428D01*
X242908557Y-15571428D02*
X242865700Y-15699999D01*
X242865700Y-15699999D02*
X242779985Y-15785714D01*
X242779985Y-15785714D02*
X242694271Y-15828571D01*
X242694271Y-15828571D02*
X242522842Y-15871428D01*
X242522842Y-15871428D02*
X242394271Y-15871428D01*
X242394271Y-15871428D02*
X242222842Y-15828571D01*
X242222842Y-15828571D02*
X242137128Y-15785714D01*
X242137128Y-15785714D02*
X242051414Y-15699999D01*
X242051414Y-15699999D02*
X242008557Y-15571428D01*
X242008557Y-15571428D02*
X242008557Y-15485714D01*
X242008557Y-15485714D02*
X242051414Y-15357142D01*
X242051414Y-15357142D02*
X242094271Y-15314285D01*
X242908557Y-14928571D02*
X242008557Y-14928571D01*
X242437128Y-14928571D02*
X242437128Y-14414285D01*
X242908557Y-14414285D02*
X242008557Y-14414285D01*
X242394271Y-13857142D02*
X242351414Y-13942857D01*
X242351414Y-13942857D02*
X242308557Y-13985714D01*
X242308557Y-13985714D02*
X242222842Y-14028571D01*
X242222842Y-14028571D02*
X242179985Y-14028571D01*
X242179985Y-14028571D02*
X242094271Y-13985714D01*
X242094271Y-13985714D02*
X242051414Y-13942857D01*
X242051414Y-13942857D02*
X242008557Y-13857142D01*
X242008557Y-13857142D02*
X242008557Y-13685714D01*
X242008557Y-13685714D02*
X242051414Y-13600000D01*
X242051414Y-13600000D02*
X242094271Y-13557142D01*
X242094271Y-13557142D02*
X242179985Y-13514285D01*
X242179985Y-13514285D02*
X242222842Y-13514285D01*
X242222842Y-13514285D02*
X242308557Y-13557142D01*
X242308557Y-13557142D02*
X242351414Y-13600000D01*
X242351414Y-13600000D02*
X242394271Y-13685714D01*
X242394271Y-13685714D02*
X242394271Y-13857142D01*
X242394271Y-13857142D02*
X242437128Y-13942857D01*
X242437128Y-13942857D02*
X242479985Y-13985714D01*
X242479985Y-13985714D02*
X242565700Y-14028571D01*
X242565700Y-14028571D02*
X242737128Y-14028571D01*
X242737128Y-14028571D02*
X242822842Y-13985714D01*
X242822842Y-13985714D02*
X242865700Y-13942857D01*
X242865700Y-13942857D02*
X242908557Y-13857142D01*
X242908557Y-13857142D02*
X242908557Y-13685714D01*
X242908557Y-13685714D02*
X242865700Y-13600000D01*
X242865700Y-13600000D02*
X242822842Y-13557142D01*
X242822842Y-13557142D02*
X242737128Y-13514285D01*
X242737128Y-13514285D02*
X242565700Y-13514285D01*
X242565700Y-13514285D02*
X242479985Y-13557142D01*
X242479985Y-13557142D02*
X242437128Y-13600000D01*
X242437128Y-13600000D02*
X242394271Y-13685714D01*
X242908557Y-12442857D02*
X242008557Y-12442857D01*
X242008557Y-12442857D02*
X242651414Y-12142857D01*
X242651414Y-12142857D02*
X242008557Y-11842857D01*
X242008557Y-11842857D02*
X242908557Y-11842857D01*
X242651414Y-11457143D02*
X242651414Y-11028572D01*
X242908557Y-11542857D02*
X242008557Y-11242857D01*
X242008557Y-11242857D02*
X242908557Y-10942857D01*
X242008557Y-10728571D02*
X242908557Y-10128571D01*
X242008557Y-10128571D02*
X242908557Y-10728571D01*
X242437128Y-8800000D02*
X242437128Y-9100000D01*
X242908557Y-9100000D02*
X242008557Y-9100000D01*
X242008557Y-9100000D02*
X242008557Y-8671428D01*
X242008557Y-8328571D02*
X242737128Y-8328571D01*
X242737128Y-8328571D02*
X242822842Y-8285714D01*
X242822842Y-8285714D02*
X242865700Y-8242857D01*
X242865700Y-8242857D02*
X242908557Y-8157142D01*
X242908557Y-8157142D02*
X242908557Y-7985714D01*
X242908557Y-7985714D02*
X242865700Y-7899999D01*
X242865700Y-7899999D02*
X242822842Y-7857142D01*
X242822842Y-7857142D02*
X242737128Y-7814285D01*
X242737128Y-7814285D02*
X242008557Y-7814285D01*
X242865700Y-7428571D02*
X242908557Y-7300000D01*
X242908557Y-7300000D02*
X242908557Y-7085714D01*
X242908557Y-7085714D02*
X242865700Y-7000000D01*
X242865700Y-7000000D02*
X242822842Y-6957142D01*
X242822842Y-6957142D02*
X242737128Y-6914285D01*
X242737128Y-6914285D02*
X242651414Y-6914285D01*
X242651414Y-6914285D02*
X242565700Y-6957142D01*
X242565700Y-6957142D02*
X242522842Y-7000000D01*
X242522842Y-7000000D02*
X242479985Y-7085714D01*
X242479985Y-7085714D02*
X242437128Y-7257142D01*
X242437128Y-7257142D02*
X242394271Y-7342857D01*
X242394271Y-7342857D02*
X242351414Y-7385714D01*
X242351414Y-7385714D02*
X242265700Y-7428571D01*
X242265700Y-7428571D02*
X242179985Y-7428571D01*
X242179985Y-7428571D02*
X242094271Y-7385714D01*
X242094271Y-7385714D02*
X242051414Y-7342857D01*
X242051414Y-7342857D02*
X242008557Y-7257142D01*
X242008557Y-7257142D02*
X242008557Y-7042857D01*
X242008557Y-7042857D02*
X242051414Y-6914285D01*
X242437128Y-6528571D02*
X242437128Y-6228571D01*
X242908557Y-6099999D02*
X242908557Y-6528571D01*
X242908557Y-6528571D02*
X242008557Y-6528571D01*
X242008557Y-6528571D02*
X242008557Y-6099999D01*
X242094271Y-5071428D02*
X242051414Y-5028571D01*
X242051414Y-5028571D02*
X242008557Y-4942857D01*
X242008557Y-4942857D02*
X242008557Y-4728571D01*
X242008557Y-4728571D02*
X242051414Y-4642857D01*
X242051414Y-4642857D02*
X242094271Y-4599999D01*
X242094271Y-4599999D02*
X242179985Y-4557142D01*
X242179985Y-4557142D02*
X242265700Y-4557142D01*
X242265700Y-4557142D02*
X242394271Y-4599999D01*
X242394271Y-4599999D02*
X242908557Y-5114285D01*
X242908557Y-5114285D02*
X242908557Y-4557142D01*
X242008557Y-3999999D02*
X242008557Y-3914285D01*
X242008557Y-3914285D02*
X242051414Y-3828571D01*
X242051414Y-3828571D02*
X242094271Y-3785714D01*
X242094271Y-3785714D02*
X242179985Y-3742856D01*
X242179985Y-3742856D02*
X242351414Y-3699999D01*
X242351414Y-3699999D02*
X242565700Y-3699999D01*
X242565700Y-3699999D02*
X242737128Y-3742856D01*
X242737128Y-3742856D02*
X242822842Y-3785714D01*
X242822842Y-3785714D02*
X242865700Y-3828571D01*
X242865700Y-3828571D02*
X242908557Y-3914285D01*
X242908557Y-3914285D02*
X242908557Y-3999999D01*
X242908557Y-3999999D02*
X242865700Y-4085714D01*
X242865700Y-4085714D02*
X242822842Y-4128571D01*
X242822842Y-4128571D02*
X242737128Y-4171428D01*
X242737128Y-4171428D02*
X242565700Y-4214285D01*
X242565700Y-4214285D02*
X242351414Y-4214285D01*
X242351414Y-4214285D02*
X242179985Y-4171428D01*
X242179985Y-4171428D02*
X242094271Y-4128571D01*
X242094271Y-4128571D02*
X242051414Y-4085714D01*
X242051414Y-4085714D02*
X242008557Y-3999999D01*
X242651414Y-3357142D02*
X242651414Y-2928571D01*
X242908557Y-3442856D02*
X242008557Y-3142856D01*
X242008557Y-3142856D02*
X242908557Y-2842856D01*
X37690476Y-7631009D02*
X37833333Y-7678628D01*
X37833333Y-7678628D02*
X37880952Y-7726247D01*
X37880952Y-7726247D02*
X37928571Y-7821485D01*
X37928571Y-7821485D02*
X37928571Y-7964342D01*
X37928571Y-7964342D02*
X37880952Y-8059580D01*
X37880952Y-8059580D02*
X37833333Y-8107200D01*
X37833333Y-8107200D02*
X37738095Y-8154819D01*
X37738095Y-8154819D02*
X37357143Y-8154819D01*
X37357143Y-8154819D02*
X37357143Y-7154819D01*
X37357143Y-7154819D02*
X37690476Y-7154819D01*
X37690476Y-7154819D02*
X37785714Y-7202438D01*
X37785714Y-7202438D02*
X37833333Y-7250057D01*
X37833333Y-7250057D02*
X37880952Y-7345295D01*
X37880952Y-7345295D02*
X37880952Y-7440533D01*
X37880952Y-7440533D02*
X37833333Y-7535771D01*
X37833333Y-7535771D02*
X37785714Y-7583390D01*
X37785714Y-7583390D02*
X37690476Y-7631009D01*
X37690476Y-7631009D02*
X37357143Y-7631009D01*
X38309524Y-7869104D02*
X38785714Y-7869104D01*
X38214286Y-8154819D02*
X38547619Y-7154819D01*
X38547619Y-7154819D02*
X38880952Y-8154819D01*
X39071429Y-7154819D02*
X39642857Y-7154819D01*
X39357143Y-8154819D02*
X39357143Y-7154819D01*
X39833334Y-7154819D02*
X40404762Y-7154819D01*
X40119048Y-8154819D02*
X40119048Y-7154819D01*
X40738096Y-7773866D02*
X41500001Y-7773866D01*
X41119048Y-8154819D02*
X41119048Y-7392914D01*
X42785715Y-8154819D02*
X42976191Y-8154819D01*
X42976191Y-8154819D02*
X43071429Y-8107200D01*
X43071429Y-8107200D02*
X43119048Y-8059580D01*
X43119048Y-8059580D02*
X43214286Y-7916723D01*
X43214286Y-7916723D02*
X43261905Y-7726247D01*
X43261905Y-7726247D02*
X43261905Y-7345295D01*
X43261905Y-7345295D02*
X43214286Y-7250057D01*
X43214286Y-7250057D02*
X43166667Y-7202438D01*
X43166667Y-7202438D02*
X43071429Y-7154819D01*
X43071429Y-7154819D02*
X42880953Y-7154819D01*
X42880953Y-7154819D02*
X42785715Y-7202438D01*
X42785715Y-7202438D02*
X42738096Y-7250057D01*
X42738096Y-7250057D02*
X42690477Y-7345295D01*
X42690477Y-7345295D02*
X42690477Y-7583390D01*
X42690477Y-7583390D02*
X42738096Y-7678628D01*
X42738096Y-7678628D02*
X42785715Y-7726247D01*
X42785715Y-7726247D02*
X42880953Y-7773866D01*
X42880953Y-7773866D02*
X43071429Y-7773866D01*
X43071429Y-7773866D02*
X43166667Y-7726247D01*
X43166667Y-7726247D02*
X43214286Y-7678628D01*
X43214286Y-7678628D02*
X43261905Y-7583390D01*
X43690477Y-8059580D02*
X43738096Y-8107200D01*
X43738096Y-8107200D02*
X43690477Y-8154819D01*
X43690477Y-8154819D02*
X43642858Y-8107200D01*
X43642858Y-8107200D02*
X43690477Y-8059580D01*
X43690477Y-8059580D02*
X43690477Y-8154819D01*
X44642857Y-7154819D02*
X44166667Y-7154819D01*
X44166667Y-7154819D02*
X44119048Y-7631009D01*
X44119048Y-7631009D02*
X44166667Y-7583390D01*
X44166667Y-7583390D02*
X44261905Y-7535771D01*
X44261905Y-7535771D02*
X44500000Y-7535771D01*
X44500000Y-7535771D02*
X44595238Y-7583390D01*
X44595238Y-7583390D02*
X44642857Y-7631009D01*
X44642857Y-7631009D02*
X44690476Y-7726247D01*
X44690476Y-7726247D02*
X44690476Y-7964342D01*
X44690476Y-7964342D02*
X44642857Y-8059580D01*
X44642857Y-8059580D02*
X44595238Y-8107200D01*
X44595238Y-8107200D02*
X44500000Y-8154819D01*
X44500000Y-8154819D02*
X44261905Y-8154819D01*
X44261905Y-8154819D02*
X44166667Y-8107200D01*
X44166667Y-8107200D02*
X44119048Y-8059580D01*
X45119048Y-7773866D02*
X45880953Y-7773866D01*
X46880952Y-8154819D02*
X46309524Y-8154819D01*
X46595238Y-8154819D02*
X46595238Y-7154819D01*
X46595238Y-7154819D02*
X46500000Y-7297676D01*
X46500000Y-7297676D02*
X46404762Y-7392914D01*
X46404762Y-7392914D02*
X46309524Y-7440533D01*
X47738095Y-7154819D02*
X47547619Y-7154819D01*
X47547619Y-7154819D02*
X47452381Y-7202438D01*
X47452381Y-7202438D02*
X47404762Y-7250057D01*
X47404762Y-7250057D02*
X47309524Y-7392914D01*
X47309524Y-7392914D02*
X47261905Y-7583390D01*
X47261905Y-7583390D02*
X47261905Y-7964342D01*
X47261905Y-7964342D02*
X47309524Y-8059580D01*
X47309524Y-8059580D02*
X47357143Y-8107200D01*
X47357143Y-8107200D02*
X47452381Y-8154819D01*
X47452381Y-8154819D02*
X47642857Y-8154819D01*
X47642857Y-8154819D02*
X47738095Y-8107200D01*
X47738095Y-8107200D02*
X47785714Y-8059580D01*
X47785714Y-8059580D02*
X47833333Y-7964342D01*
X47833333Y-7964342D02*
X47833333Y-7726247D01*
X47833333Y-7726247D02*
X47785714Y-7631009D01*
X47785714Y-7631009D02*
X47738095Y-7583390D01*
X47738095Y-7583390D02*
X47642857Y-7535771D01*
X47642857Y-7535771D02*
X47452381Y-7535771D01*
X47452381Y-7535771D02*
X47357143Y-7583390D01*
X47357143Y-7583390D02*
X47309524Y-7631009D01*
X47309524Y-7631009D02*
X47261905Y-7726247D01*
X48119048Y-7154819D02*
X48452381Y-8154819D01*
X48452381Y-8154819D02*
X48785714Y-7154819D01*
X94047618Y-56931009D02*
X93714285Y-56931009D01*
X93714285Y-57454819D02*
X93714285Y-56454819D01*
X93714285Y-56454819D02*
X94190475Y-56454819D01*
X94523809Y-57169104D02*
X94999999Y-57169104D01*
X94428571Y-57454819D02*
X94761904Y-56454819D01*
X94761904Y-56454819D02*
X95095237Y-57454819D01*
X95428571Y-56454819D02*
X95428571Y-57264342D01*
X95428571Y-57264342D02*
X95476190Y-57359580D01*
X95476190Y-57359580D02*
X95523809Y-57407200D01*
X95523809Y-57407200D02*
X95619047Y-57454819D01*
X95619047Y-57454819D02*
X95809523Y-57454819D01*
X95809523Y-57454819D02*
X95904761Y-57407200D01*
X95904761Y-57407200D02*
X95952380Y-57359580D01*
X95952380Y-57359580D02*
X95999999Y-57264342D01*
X95999999Y-57264342D02*
X95999999Y-56454819D01*
X96952380Y-57454819D02*
X96476190Y-57454819D01*
X96476190Y-57454819D02*
X96476190Y-56454819D01*
X97142857Y-56454819D02*
X97714285Y-56454819D01*
X97428571Y-57454819D02*
X97428571Y-56454819D01*
X98047619Y-57359580D02*
X98095238Y-57407200D01*
X98095238Y-57407200D02*
X98047619Y-57454819D01*
X98047619Y-57454819D02*
X98000000Y-57407200D01*
X98000000Y-57407200D02*
X98047619Y-57359580D01*
X98047619Y-57359580D02*
X98047619Y-57454819D01*
X98047619Y-56835771D02*
X98095238Y-56883390D01*
X98095238Y-56883390D02*
X98047619Y-56931009D01*
X98047619Y-56931009D02*
X98000000Y-56883390D01*
X98000000Y-56883390D02*
X98047619Y-56835771D01*
X98047619Y-56835771D02*
X98047619Y-56931009D01*
X99857142Y-57359580D02*
X99809523Y-57407200D01*
X99809523Y-57407200D02*
X99666666Y-57454819D01*
X99666666Y-57454819D02*
X99571428Y-57454819D01*
X99571428Y-57454819D02*
X99428571Y-57407200D01*
X99428571Y-57407200D02*
X99333333Y-57311961D01*
X99333333Y-57311961D02*
X99285714Y-57216723D01*
X99285714Y-57216723D02*
X99238095Y-57026247D01*
X99238095Y-57026247D02*
X99238095Y-56883390D01*
X99238095Y-56883390D02*
X99285714Y-56692914D01*
X99285714Y-56692914D02*
X99333333Y-56597676D01*
X99333333Y-56597676D02*
X99428571Y-56502438D01*
X99428571Y-56502438D02*
X99571428Y-56454819D01*
X99571428Y-56454819D02*
X99666666Y-56454819D01*
X99666666Y-56454819D02*
X99809523Y-56502438D01*
X99809523Y-56502438D02*
X99857142Y-56550057D01*
X100476190Y-56978628D02*
X100476190Y-57454819D01*
X100142857Y-56454819D02*
X100476190Y-56978628D01*
X100476190Y-56978628D02*
X100809523Y-56454819D01*
X101714285Y-57359580D02*
X101666666Y-57407200D01*
X101666666Y-57407200D02*
X101523809Y-57454819D01*
X101523809Y-57454819D02*
X101428571Y-57454819D01*
X101428571Y-57454819D02*
X101285714Y-57407200D01*
X101285714Y-57407200D02*
X101190476Y-57311961D01*
X101190476Y-57311961D02*
X101142857Y-57216723D01*
X101142857Y-57216723D02*
X101095238Y-57026247D01*
X101095238Y-57026247D02*
X101095238Y-56883390D01*
X101095238Y-56883390D02*
X101142857Y-56692914D01*
X101142857Y-56692914D02*
X101190476Y-56597676D01*
X101190476Y-56597676D02*
X101285714Y-56502438D01*
X101285714Y-56502438D02*
X101428571Y-56454819D01*
X101428571Y-56454819D02*
X101523809Y-56454819D01*
X101523809Y-56454819D02*
X101666666Y-56502438D01*
X101666666Y-56502438D02*
X101714285Y-56550057D01*
X102619047Y-57454819D02*
X102142857Y-57454819D01*
X102142857Y-57454819D02*
X102142857Y-56454819D01*
X102952381Y-56931009D02*
X103285714Y-56931009D01*
X103428571Y-57454819D02*
X102952381Y-57454819D01*
X102952381Y-57454819D02*
X102952381Y-56454819D01*
X102952381Y-56454819D02*
X103428571Y-56454819D01*
X104952381Y-56931009D02*
X105095238Y-56978628D01*
X105095238Y-56978628D02*
X105142857Y-57026247D01*
X105142857Y-57026247D02*
X105190476Y-57121485D01*
X105190476Y-57121485D02*
X105190476Y-57264342D01*
X105190476Y-57264342D02*
X105142857Y-57359580D01*
X105142857Y-57359580D02*
X105095238Y-57407200D01*
X105095238Y-57407200D02*
X105000000Y-57454819D01*
X105000000Y-57454819D02*
X104619048Y-57454819D01*
X104619048Y-57454819D02*
X104619048Y-56454819D01*
X104619048Y-56454819D02*
X104952381Y-56454819D01*
X104952381Y-56454819D02*
X105047619Y-56502438D01*
X105047619Y-56502438D02*
X105095238Y-56550057D01*
X105095238Y-56550057D02*
X105142857Y-56645295D01*
X105142857Y-56645295D02*
X105142857Y-56740533D01*
X105142857Y-56740533D02*
X105095238Y-56835771D01*
X105095238Y-56835771D02*
X105047619Y-56883390D01*
X105047619Y-56883390D02*
X104952381Y-56931009D01*
X104952381Y-56931009D02*
X104619048Y-56931009D01*
X105571429Y-57169104D02*
X106047619Y-57169104D01*
X105476191Y-57454819D02*
X105809524Y-56454819D01*
X105809524Y-56454819D02*
X106142857Y-57454819D01*
X106333334Y-56454819D02*
X106904762Y-56454819D01*
X106619048Y-57454819D02*
X106619048Y-56454819D01*
X107095239Y-56454819D02*
X107666667Y-56454819D01*
X107380953Y-57454819D02*
X107380953Y-56454819D01*
X108000001Y-56931009D02*
X108333334Y-56931009D01*
X108476191Y-57454819D02*
X108000001Y-57454819D01*
X108000001Y-57454819D02*
X108000001Y-56454819D01*
X108000001Y-56454819D02*
X108476191Y-56454819D01*
X109476191Y-57454819D02*
X109142858Y-56978628D01*
X108904763Y-57454819D02*
X108904763Y-56454819D01*
X108904763Y-56454819D02*
X109285715Y-56454819D01*
X109285715Y-56454819D02*
X109380953Y-56502438D01*
X109380953Y-56502438D02*
X109428572Y-56550057D01*
X109428572Y-56550057D02*
X109476191Y-56645295D01*
X109476191Y-56645295D02*
X109476191Y-56788152D01*
X109476191Y-56788152D02*
X109428572Y-56883390D01*
X109428572Y-56883390D02*
X109380953Y-56931009D01*
X109380953Y-56931009D02*
X109285715Y-56978628D01*
X109285715Y-56978628D02*
X108904763Y-56978628D01*
X110095239Y-56978628D02*
X110095239Y-57454819D01*
X109761906Y-56454819D02*
X110095239Y-56978628D01*
X110095239Y-56978628D02*
X110428572Y-56454819D01*
X51078571Y-60401080D02*
X51078571Y-61291557D01*
X51078571Y-61291557D02*
X51130952Y-61396319D01*
X51130952Y-61396319D02*
X51183333Y-61448700D01*
X51183333Y-61448700D02*
X51288095Y-61501080D01*
X51288095Y-61501080D02*
X51497619Y-61501080D01*
X51497619Y-61501080D02*
X51602381Y-61448700D01*
X51602381Y-61448700D02*
X51654762Y-61396319D01*
X51654762Y-61396319D02*
X51707143Y-61291557D01*
X51707143Y-61291557D02*
X51707143Y-60401080D01*
X52230952Y-61501080D02*
X52230952Y-60401080D01*
X52230952Y-60401080D02*
X52650000Y-60401080D01*
X52650000Y-60401080D02*
X52754762Y-60453461D01*
X52754762Y-60453461D02*
X52807143Y-60505842D01*
X52807143Y-60505842D02*
X52859524Y-60610604D01*
X52859524Y-60610604D02*
X52859524Y-60767747D01*
X52859524Y-60767747D02*
X52807143Y-60872509D01*
X52807143Y-60872509D02*
X52754762Y-60924890D01*
X52754762Y-60924890D02*
X52650000Y-60977271D01*
X52650000Y-60977271D02*
X52230952Y-60977271D01*
X53278571Y-61448700D02*
X53435714Y-61501080D01*
X53435714Y-61501080D02*
X53697619Y-61501080D01*
X53697619Y-61501080D02*
X53802381Y-61448700D01*
X53802381Y-61448700D02*
X53854762Y-61396319D01*
X53854762Y-61396319D02*
X53907143Y-61291557D01*
X53907143Y-61291557D02*
X53907143Y-61186795D01*
X53907143Y-61186795D02*
X53854762Y-61082033D01*
X53854762Y-61082033D02*
X53802381Y-61029652D01*
X53802381Y-61029652D02*
X53697619Y-60977271D01*
X53697619Y-60977271D02*
X53488095Y-60924890D01*
X53488095Y-60924890D02*
X53383333Y-60872509D01*
X53383333Y-60872509D02*
X53330952Y-60820128D01*
X53330952Y-60820128D02*
X53278571Y-60715366D01*
X53278571Y-60715366D02*
X53278571Y-60610604D01*
X53278571Y-60610604D02*
X53330952Y-60505842D01*
X53330952Y-60505842D02*
X53383333Y-60453461D01*
X53383333Y-60453461D02*
X53488095Y-60401080D01*
X53488095Y-60401080D02*
X53750000Y-60401080D01*
X53750000Y-60401080D02*
X53907143Y-60453461D01*
X54221428Y-60401080D02*
X54850000Y-60401080D01*
X54535714Y-61501080D02*
X54535714Y-60401080D01*
X55845238Y-61501080D02*
X55478571Y-60977271D01*
X55216666Y-61501080D02*
X55216666Y-60401080D01*
X55216666Y-60401080D02*
X55635714Y-60401080D01*
X55635714Y-60401080D02*
X55740476Y-60453461D01*
X55740476Y-60453461D02*
X55792857Y-60505842D01*
X55792857Y-60505842D02*
X55845238Y-60610604D01*
X55845238Y-60610604D02*
X55845238Y-60767747D01*
X55845238Y-60767747D02*
X55792857Y-60872509D01*
X55792857Y-60872509D02*
X55740476Y-60924890D01*
X55740476Y-60924890D02*
X55635714Y-60977271D01*
X55635714Y-60977271D02*
X55216666Y-60977271D01*
X56316666Y-60924890D02*
X56683333Y-60924890D01*
X56840476Y-61501080D02*
X56316666Y-61501080D01*
X56316666Y-61501080D02*
X56316666Y-60401080D01*
X56316666Y-60401080D02*
X56840476Y-60401080D01*
X57259523Y-61186795D02*
X57783333Y-61186795D01*
X57154761Y-61501080D02*
X57521428Y-60401080D01*
X57521428Y-60401080D02*
X57888095Y-61501080D01*
X58254761Y-61501080D02*
X58254761Y-60401080D01*
X58254761Y-60401080D02*
X58621428Y-61186795D01*
X58621428Y-61186795D02*
X58988095Y-60401080D01*
X58988095Y-60401080D02*
X58988095Y-61501080D01*
X60716666Y-60924890D02*
X60349999Y-60924890D01*
X60349999Y-61501080D02*
X60349999Y-60401080D01*
X60349999Y-60401080D02*
X60873809Y-60401080D01*
X61292856Y-60401080D02*
X61292856Y-61291557D01*
X61292856Y-61291557D02*
X61345237Y-61396319D01*
X61345237Y-61396319D02*
X61397618Y-61448700D01*
X61397618Y-61448700D02*
X61502380Y-61501080D01*
X61502380Y-61501080D02*
X61711904Y-61501080D01*
X61711904Y-61501080D02*
X61816666Y-61448700D01*
X61816666Y-61448700D02*
X61869047Y-61396319D01*
X61869047Y-61396319D02*
X61921428Y-61291557D01*
X61921428Y-61291557D02*
X61921428Y-60401080D01*
X62392856Y-61448700D02*
X62549999Y-61501080D01*
X62549999Y-61501080D02*
X62811904Y-61501080D01*
X62811904Y-61501080D02*
X62916666Y-61448700D01*
X62916666Y-61448700D02*
X62969047Y-61396319D01*
X62969047Y-61396319D02*
X63021428Y-61291557D01*
X63021428Y-61291557D02*
X63021428Y-61186795D01*
X63021428Y-61186795D02*
X62969047Y-61082033D01*
X62969047Y-61082033D02*
X62916666Y-61029652D01*
X62916666Y-61029652D02*
X62811904Y-60977271D01*
X62811904Y-60977271D02*
X62602380Y-60924890D01*
X62602380Y-60924890D02*
X62497618Y-60872509D01*
X62497618Y-60872509D02*
X62445237Y-60820128D01*
X62445237Y-60820128D02*
X62392856Y-60715366D01*
X62392856Y-60715366D02*
X62392856Y-60610604D01*
X62392856Y-60610604D02*
X62445237Y-60505842D01*
X62445237Y-60505842D02*
X62497618Y-60453461D01*
X62497618Y-60453461D02*
X62602380Y-60401080D01*
X62602380Y-60401080D02*
X62864285Y-60401080D01*
X62864285Y-60401080D02*
X63021428Y-60453461D01*
X63492856Y-60924890D02*
X63859523Y-60924890D01*
X64016666Y-61501080D02*
X63492856Y-61501080D01*
X63492856Y-61501080D02*
X63492856Y-60401080D01*
X63492856Y-60401080D02*
X64016666Y-60401080D01*
X65954761Y-61501080D02*
X65588094Y-60977271D01*
X65326189Y-61501080D02*
X65326189Y-60401080D01*
X65326189Y-60401080D02*
X65745237Y-60401080D01*
X65745237Y-60401080D02*
X65849999Y-60453461D01*
X65849999Y-60453461D02*
X65902380Y-60505842D01*
X65902380Y-60505842D02*
X65954761Y-60610604D01*
X65954761Y-60610604D02*
X65954761Y-60767747D01*
X65954761Y-60767747D02*
X65902380Y-60872509D01*
X65902380Y-60872509D02*
X65849999Y-60924890D01*
X65849999Y-60924890D02*
X65745237Y-60977271D01*
X65745237Y-60977271D02*
X65326189Y-60977271D01*
X66426189Y-60924890D02*
X66792856Y-60924890D01*
X66949999Y-61501080D02*
X66426189Y-61501080D01*
X66426189Y-61501080D02*
X66426189Y-60401080D01*
X66426189Y-60401080D02*
X66949999Y-60401080D01*
X68154761Y-61605842D02*
X68049999Y-61553461D01*
X68049999Y-61553461D02*
X67945237Y-61448700D01*
X67945237Y-61448700D02*
X67788094Y-61291557D01*
X67788094Y-61291557D02*
X67683332Y-61239176D01*
X67683332Y-61239176D02*
X67578570Y-61239176D01*
X67630951Y-61501080D02*
X67526189Y-61448700D01*
X67526189Y-61448700D02*
X67421427Y-61343938D01*
X67421427Y-61343938D02*
X67369046Y-61134414D01*
X67369046Y-61134414D02*
X67369046Y-60767747D01*
X67369046Y-60767747D02*
X67421427Y-60558223D01*
X67421427Y-60558223D02*
X67526189Y-60453461D01*
X67526189Y-60453461D02*
X67630951Y-60401080D01*
X67630951Y-60401080D02*
X67840475Y-60401080D01*
X67840475Y-60401080D02*
X67945237Y-60453461D01*
X67945237Y-60453461D02*
X68049999Y-60558223D01*
X68049999Y-60558223D02*
X68102380Y-60767747D01*
X68102380Y-60767747D02*
X68102380Y-61134414D01*
X68102380Y-61134414D02*
X68049999Y-61343938D01*
X68049999Y-61343938D02*
X67945237Y-61448700D01*
X67945237Y-61448700D02*
X67840475Y-61501080D01*
X67840475Y-61501080D02*
X67630951Y-61501080D01*
X68573808Y-60401080D02*
X68573808Y-61291557D01*
X68573808Y-61291557D02*
X68626189Y-61396319D01*
X68626189Y-61396319D02*
X68678570Y-61448700D01*
X68678570Y-61448700D02*
X68783332Y-61501080D01*
X68783332Y-61501080D02*
X68992856Y-61501080D01*
X68992856Y-61501080D02*
X69097618Y-61448700D01*
X69097618Y-61448700D02*
X69149999Y-61396319D01*
X69149999Y-61396319D02*
X69202380Y-61291557D01*
X69202380Y-61291557D02*
X69202380Y-60401080D01*
X69726189Y-61501080D02*
X69726189Y-60401080D01*
X70878571Y-61501080D02*
X70511904Y-60977271D01*
X70249999Y-61501080D02*
X70249999Y-60401080D01*
X70249999Y-60401080D02*
X70669047Y-60401080D01*
X70669047Y-60401080D02*
X70773809Y-60453461D01*
X70773809Y-60453461D02*
X70826190Y-60505842D01*
X70826190Y-60505842D02*
X70878571Y-60610604D01*
X70878571Y-60610604D02*
X70878571Y-60767747D01*
X70878571Y-60767747D02*
X70826190Y-60872509D01*
X70826190Y-60872509D02*
X70773809Y-60924890D01*
X70773809Y-60924890D02*
X70669047Y-60977271D01*
X70669047Y-60977271D02*
X70249999Y-60977271D01*
X71349999Y-60924890D02*
X71716666Y-60924890D01*
X71873809Y-61501080D02*
X71349999Y-61501080D01*
X71349999Y-61501080D02*
X71349999Y-60401080D01*
X71349999Y-60401080D02*
X71873809Y-60401080D01*
X72345237Y-61501080D02*
X72345237Y-60401080D01*
X72345237Y-60401080D02*
X72607142Y-60401080D01*
X72607142Y-60401080D02*
X72764285Y-60453461D01*
X72764285Y-60453461D02*
X72869047Y-60558223D01*
X72869047Y-60558223D02*
X72921428Y-60662985D01*
X72921428Y-60662985D02*
X72973809Y-60872509D01*
X72973809Y-60872509D02*
X72973809Y-61029652D01*
X72973809Y-61029652D02*
X72921428Y-61239176D01*
X72921428Y-61239176D02*
X72869047Y-61343938D01*
X72869047Y-61343938D02*
X72764285Y-61448700D01*
X72764285Y-61448700D02*
X72607142Y-61501080D01*
X72607142Y-61501080D02*
X72345237Y-61501080D01*
X48714285Y-41904485D02*
X48600000Y-41847342D01*
X48600000Y-41847342D02*
X48428571Y-41847342D01*
X48428571Y-41847342D02*
X48257142Y-41904485D01*
X48257142Y-41904485D02*
X48142857Y-42018771D01*
X48142857Y-42018771D02*
X48085714Y-42133057D01*
X48085714Y-42133057D02*
X48028571Y-42361628D01*
X48028571Y-42361628D02*
X48028571Y-42533057D01*
X48028571Y-42533057D02*
X48085714Y-42761628D01*
X48085714Y-42761628D02*
X48142857Y-42875914D01*
X48142857Y-42875914D02*
X48257142Y-42990200D01*
X48257142Y-42990200D02*
X48428571Y-43047342D01*
X48428571Y-43047342D02*
X48542857Y-43047342D01*
X48542857Y-43047342D02*
X48714285Y-42990200D01*
X48714285Y-42990200D02*
X48771428Y-42933057D01*
X48771428Y-42933057D02*
X48771428Y-42533057D01*
X48771428Y-42533057D02*
X48542857Y-42533057D01*
X49285714Y-43047342D02*
X49285714Y-41847342D01*
X49285714Y-41847342D02*
X49971428Y-43047342D01*
X49971428Y-43047342D02*
X49971428Y-41847342D01*
X50542857Y-43047342D02*
X50542857Y-41847342D01*
X50542857Y-41847342D02*
X50828571Y-41847342D01*
X50828571Y-41847342D02*
X51000000Y-41904485D01*
X51000000Y-41904485D02*
X51114285Y-42018771D01*
X51114285Y-42018771D02*
X51171428Y-42133057D01*
X51171428Y-42133057D02*
X51228571Y-42361628D01*
X51228571Y-42361628D02*
X51228571Y-42533057D01*
X51228571Y-42533057D02*
X51171428Y-42761628D01*
X51171428Y-42761628D02*
X51114285Y-42875914D01*
X51114285Y-42875914D02*
X51000000Y-42990200D01*
X51000000Y-42990200D02*
X50828571Y-43047342D01*
X50828571Y-43047342D02*
X50542857Y-43047342D01*
X52657143Y-43047342D02*
X52657143Y-41847342D01*
X53228572Y-43047342D02*
X53228572Y-41847342D01*
X53228572Y-41847342D02*
X53914286Y-43047342D01*
X53914286Y-43047342D02*
X53914286Y-41847342D01*
X59571429Y-69490200D02*
X59457143Y-69547342D01*
X59457143Y-69547342D02*
X59228572Y-69547342D01*
X59228572Y-69547342D02*
X59114286Y-69490200D01*
X59114286Y-69490200D02*
X59057143Y-69375914D01*
X59057143Y-69375914D02*
X59057143Y-68918771D01*
X59057143Y-68918771D02*
X59114286Y-68804485D01*
X59114286Y-68804485D02*
X59228572Y-68747342D01*
X59228572Y-68747342D02*
X59457143Y-68747342D01*
X59457143Y-68747342D02*
X59571429Y-68804485D01*
X59571429Y-68804485D02*
X59628572Y-68918771D01*
X59628572Y-68918771D02*
X59628572Y-69033057D01*
X59628572Y-69033057D02*
X59057143Y-69147342D01*
X60085714Y-69490200D02*
X60200000Y-69547342D01*
X60200000Y-69547342D02*
X60428571Y-69547342D01*
X60428571Y-69547342D02*
X60542857Y-69490200D01*
X60542857Y-69490200D02*
X60600000Y-69375914D01*
X60600000Y-69375914D02*
X60600000Y-69318771D01*
X60600000Y-69318771D02*
X60542857Y-69204485D01*
X60542857Y-69204485D02*
X60428571Y-69147342D01*
X60428571Y-69147342D02*
X60257143Y-69147342D01*
X60257143Y-69147342D02*
X60142857Y-69090200D01*
X60142857Y-69090200D02*
X60085714Y-68975914D01*
X60085714Y-68975914D02*
X60085714Y-68918771D01*
X60085714Y-68918771D02*
X60142857Y-68804485D01*
X60142857Y-68804485D02*
X60257143Y-68747342D01*
X60257143Y-68747342D02*
X60428571Y-68747342D01*
X60428571Y-68747342D02*
X60542857Y-68804485D01*
X61000000Y-68747342D02*
X61228572Y-69547342D01*
X61228572Y-69547342D02*
X61457143Y-68975914D01*
X61457143Y-68975914D02*
X61685714Y-69547342D01*
X61685714Y-69547342D02*
X61914286Y-68747342D01*
X62371429Y-69547342D02*
X62371429Y-68747342D01*
X62371429Y-68347342D02*
X62314286Y-68404485D01*
X62314286Y-68404485D02*
X62371429Y-68461628D01*
X62371429Y-68461628D02*
X62428572Y-68404485D01*
X62428572Y-68404485D02*
X62371429Y-68347342D01*
X62371429Y-68347342D02*
X62371429Y-68461628D01*
X62771429Y-68747342D02*
X63228572Y-68747342D01*
X62942858Y-68347342D02*
X62942858Y-69375914D01*
X62942858Y-69375914D02*
X63000001Y-69490200D01*
X63000001Y-69490200D02*
X63114286Y-69547342D01*
X63114286Y-69547342D02*
X63228572Y-69547342D01*
X64142858Y-69490200D02*
X64028572Y-69547342D01*
X64028572Y-69547342D02*
X63800000Y-69547342D01*
X63800000Y-69547342D02*
X63685715Y-69490200D01*
X63685715Y-69490200D02*
X63628572Y-69433057D01*
X63628572Y-69433057D02*
X63571429Y-69318771D01*
X63571429Y-69318771D02*
X63571429Y-68975914D01*
X63571429Y-68975914D02*
X63628572Y-68861628D01*
X63628572Y-68861628D02*
X63685715Y-68804485D01*
X63685715Y-68804485D02*
X63800000Y-68747342D01*
X63800000Y-68747342D02*
X64028572Y-68747342D01*
X64028572Y-68747342D02*
X64142858Y-68804485D01*
X64657143Y-69547342D02*
X64657143Y-68347342D01*
X65171429Y-69547342D02*
X65171429Y-68918771D01*
X65171429Y-68918771D02*
X65114286Y-68804485D01*
X65114286Y-68804485D02*
X65000000Y-68747342D01*
X65000000Y-68747342D02*
X64828571Y-68747342D01*
X64828571Y-68747342D02*
X64714286Y-68804485D01*
X64714286Y-68804485D02*
X64657143Y-68861628D01*
X66657143Y-69547342D02*
X66657143Y-68747342D01*
X66657143Y-68975914D02*
X66714286Y-68861628D01*
X66714286Y-68861628D02*
X66771429Y-68804485D01*
X66771429Y-68804485D02*
X66885714Y-68747342D01*
X66885714Y-68747342D02*
X67000000Y-68747342D01*
X67857143Y-69490200D02*
X67742857Y-69547342D01*
X67742857Y-69547342D02*
X67514286Y-69547342D01*
X67514286Y-69547342D02*
X67400000Y-69490200D01*
X67400000Y-69490200D02*
X67342857Y-69375914D01*
X67342857Y-69375914D02*
X67342857Y-68918771D01*
X67342857Y-68918771D02*
X67400000Y-68804485D01*
X67400000Y-68804485D02*
X67514286Y-68747342D01*
X67514286Y-68747342D02*
X67742857Y-68747342D01*
X67742857Y-68747342D02*
X67857143Y-68804485D01*
X67857143Y-68804485D02*
X67914286Y-68918771D01*
X67914286Y-68918771D02*
X67914286Y-69033057D01*
X67914286Y-69033057D02*
X67342857Y-69147342D01*
X68314285Y-68747342D02*
X68599999Y-69547342D01*
X68599999Y-69547342D02*
X68885714Y-68747342D01*
X70657143Y-68918771D02*
X70828571Y-68975914D01*
X70828571Y-68975914D02*
X70885714Y-69033057D01*
X70885714Y-69033057D02*
X70942857Y-69147342D01*
X70942857Y-69147342D02*
X70942857Y-69318771D01*
X70942857Y-69318771D02*
X70885714Y-69433057D01*
X70885714Y-69433057D02*
X70828571Y-69490200D01*
X70828571Y-69490200D02*
X70714286Y-69547342D01*
X70714286Y-69547342D02*
X70257143Y-69547342D01*
X70257143Y-69547342D02*
X70257143Y-68347342D01*
X70257143Y-68347342D02*
X70657143Y-68347342D01*
X70657143Y-68347342D02*
X70771429Y-68404485D01*
X70771429Y-68404485D02*
X70828571Y-68461628D01*
X70828571Y-68461628D02*
X70885714Y-68575914D01*
X70885714Y-68575914D02*
X70885714Y-68690200D01*
X70885714Y-68690200D02*
X70828571Y-68804485D01*
X70828571Y-68804485D02*
X70771429Y-68861628D01*
X70771429Y-68861628D02*
X70657143Y-68918771D01*
X70657143Y-68918771D02*
X70257143Y-68918771D01*
X129791428Y-61933057D02*
X129734285Y-61990200D01*
X129734285Y-61990200D02*
X129562857Y-62047342D01*
X129562857Y-62047342D02*
X129448571Y-62047342D01*
X129448571Y-62047342D02*
X129277142Y-61990200D01*
X129277142Y-61990200D02*
X129162857Y-61875914D01*
X129162857Y-61875914D02*
X129105714Y-61761628D01*
X129105714Y-61761628D02*
X129048571Y-61533057D01*
X129048571Y-61533057D02*
X129048571Y-61361628D01*
X129048571Y-61361628D02*
X129105714Y-61133057D01*
X129105714Y-61133057D02*
X129162857Y-61018771D01*
X129162857Y-61018771D02*
X129277142Y-60904485D01*
X129277142Y-60904485D02*
X129448571Y-60847342D01*
X129448571Y-60847342D02*
X129562857Y-60847342D01*
X129562857Y-60847342D02*
X129734285Y-60904485D01*
X129734285Y-60904485D02*
X129791428Y-60961628D01*
X130305714Y-62047342D02*
X130305714Y-60847342D01*
X130305714Y-61418771D02*
X130991428Y-61418771D01*
X130991428Y-62047342D02*
X130991428Y-60847342D01*
X132191428Y-62047342D02*
X131505714Y-62047342D01*
X131848571Y-62047342D02*
X131848571Y-60847342D01*
X131848571Y-60847342D02*
X131734285Y-61018771D01*
X131734285Y-61018771D02*
X131620000Y-61133057D01*
X131620000Y-61133057D02*
X131505714Y-61190200D01*
X145031428Y-61933057D02*
X144974285Y-61990200D01*
X144974285Y-61990200D02*
X144802857Y-62047342D01*
X144802857Y-62047342D02*
X144688571Y-62047342D01*
X144688571Y-62047342D02*
X144517142Y-61990200D01*
X144517142Y-61990200D02*
X144402857Y-61875914D01*
X144402857Y-61875914D02*
X144345714Y-61761628D01*
X144345714Y-61761628D02*
X144288571Y-61533057D01*
X144288571Y-61533057D02*
X144288571Y-61361628D01*
X144288571Y-61361628D02*
X144345714Y-61133057D01*
X144345714Y-61133057D02*
X144402857Y-61018771D01*
X144402857Y-61018771D02*
X144517142Y-60904485D01*
X144517142Y-60904485D02*
X144688571Y-60847342D01*
X144688571Y-60847342D02*
X144802857Y-60847342D01*
X144802857Y-60847342D02*
X144974285Y-60904485D01*
X144974285Y-60904485D02*
X145031428Y-60961628D01*
X145545714Y-62047342D02*
X145545714Y-60847342D01*
X145545714Y-61418771D02*
X146231428Y-61418771D01*
X146231428Y-62047342D02*
X146231428Y-60847342D01*
X146745714Y-60961628D02*
X146802857Y-60904485D01*
X146802857Y-60904485D02*
X146917143Y-60847342D01*
X146917143Y-60847342D02*
X147202857Y-60847342D01*
X147202857Y-60847342D02*
X147317143Y-60904485D01*
X147317143Y-60904485D02*
X147374285Y-60961628D01*
X147374285Y-60961628D02*
X147431428Y-61075914D01*
X147431428Y-61075914D02*
X147431428Y-61190200D01*
X147431428Y-61190200D02*
X147374285Y-61361628D01*
X147374285Y-61361628D02*
X146688571Y-62047342D01*
X146688571Y-62047342D02*
X147431428Y-62047342D01*
X160271428Y-61933057D02*
X160214285Y-61990200D01*
X160214285Y-61990200D02*
X160042857Y-62047342D01*
X160042857Y-62047342D02*
X159928571Y-62047342D01*
X159928571Y-62047342D02*
X159757142Y-61990200D01*
X159757142Y-61990200D02*
X159642857Y-61875914D01*
X159642857Y-61875914D02*
X159585714Y-61761628D01*
X159585714Y-61761628D02*
X159528571Y-61533057D01*
X159528571Y-61533057D02*
X159528571Y-61361628D01*
X159528571Y-61361628D02*
X159585714Y-61133057D01*
X159585714Y-61133057D02*
X159642857Y-61018771D01*
X159642857Y-61018771D02*
X159757142Y-60904485D01*
X159757142Y-60904485D02*
X159928571Y-60847342D01*
X159928571Y-60847342D02*
X160042857Y-60847342D01*
X160042857Y-60847342D02*
X160214285Y-60904485D01*
X160214285Y-60904485D02*
X160271428Y-60961628D01*
X160785714Y-62047342D02*
X160785714Y-60847342D01*
X160785714Y-61418771D02*
X161471428Y-61418771D01*
X161471428Y-62047342D02*
X161471428Y-60847342D01*
X161928571Y-60847342D02*
X162671428Y-60847342D01*
X162671428Y-60847342D02*
X162271428Y-61304485D01*
X162271428Y-61304485D02*
X162442857Y-61304485D01*
X162442857Y-61304485D02*
X162557143Y-61361628D01*
X162557143Y-61361628D02*
X162614285Y-61418771D01*
X162614285Y-61418771D02*
X162671428Y-61533057D01*
X162671428Y-61533057D02*
X162671428Y-61818771D01*
X162671428Y-61818771D02*
X162614285Y-61933057D01*
X162614285Y-61933057D02*
X162557143Y-61990200D01*
X162557143Y-61990200D02*
X162442857Y-62047342D01*
X162442857Y-62047342D02*
X162100000Y-62047342D01*
X162100000Y-62047342D02*
X161985714Y-61990200D01*
X161985714Y-61990200D02*
X161928571Y-61933057D01*
X175511428Y-61933057D02*
X175454285Y-61990200D01*
X175454285Y-61990200D02*
X175282857Y-62047342D01*
X175282857Y-62047342D02*
X175168571Y-62047342D01*
X175168571Y-62047342D02*
X174997142Y-61990200D01*
X174997142Y-61990200D02*
X174882857Y-61875914D01*
X174882857Y-61875914D02*
X174825714Y-61761628D01*
X174825714Y-61761628D02*
X174768571Y-61533057D01*
X174768571Y-61533057D02*
X174768571Y-61361628D01*
X174768571Y-61361628D02*
X174825714Y-61133057D01*
X174825714Y-61133057D02*
X174882857Y-61018771D01*
X174882857Y-61018771D02*
X174997142Y-60904485D01*
X174997142Y-60904485D02*
X175168571Y-60847342D01*
X175168571Y-60847342D02*
X175282857Y-60847342D01*
X175282857Y-60847342D02*
X175454285Y-60904485D01*
X175454285Y-60904485D02*
X175511428Y-60961628D01*
X176025714Y-62047342D02*
X176025714Y-60847342D01*
X176025714Y-61418771D02*
X176711428Y-61418771D01*
X176711428Y-62047342D02*
X176711428Y-60847342D01*
X177797143Y-61247342D02*
X177797143Y-62047342D01*
X177511428Y-60790200D02*
X177225714Y-61647342D01*
X177225714Y-61647342D02*
X177968571Y-61647342D01*
X190751428Y-61933057D02*
X190694285Y-61990200D01*
X190694285Y-61990200D02*
X190522857Y-62047342D01*
X190522857Y-62047342D02*
X190408571Y-62047342D01*
X190408571Y-62047342D02*
X190237142Y-61990200D01*
X190237142Y-61990200D02*
X190122857Y-61875914D01*
X190122857Y-61875914D02*
X190065714Y-61761628D01*
X190065714Y-61761628D02*
X190008571Y-61533057D01*
X190008571Y-61533057D02*
X190008571Y-61361628D01*
X190008571Y-61361628D02*
X190065714Y-61133057D01*
X190065714Y-61133057D02*
X190122857Y-61018771D01*
X190122857Y-61018771D02*
X190237142Y-60904485D01*
X190237142Y-60904485D02*
X190408571Y-60847342D01*
X190408571Y-60847342D02*
X190522857Y-60847342D01*
X190522857Y-60847342D02*
X190694285Y-60904485D01*
X190694285Y-60904485D02*
X190751428Y-60961628D01*
X191265714Y-62047342D02*
X191265714Y-60847342D01*
X191265714Y-61418771D02*
X191951428Y-61418771D01*
X191951428Y-62047342D02*
X191951428Y-60847342D01*
X193094285Y-60847342D02*
X192522857Y-60847342D01*
X192522857Y-60847342D02*
X192465714Y-61418771D01*
X192465714Y-61418771D02*
X192522857Y-61361628D01*
X192522857Y-61361628D02*
X192637143Y-61304485D01*
X192637143Y-61304485D02*
X192922857Y-61304485D01*
X192922857Y-61304485D02*
X193037143Y-61361628D01*
X193037143Y-61361628D02*
X193094285Y-61418771D01*
X193094285Y-61418771D02*
X193151428Y-61533057D01*
X193151428Y-61533057D02*
X193151428Y-61818771D01*
X193151428Y-61818771D02*
X193094285Y-61933057D01*
X193094285Y-61933057D02*
X193037143Y-61990200D01*
X193037143Y-61990200D02*
X192922857Y-62047342D01*
X192922857Y-62047342D02*
X192637143Y-62047342D01*
X192637143Y-62047342D02*
X192522857Y-61990200D01*
X192522857Y-61990200D02*
X192465714Y-61933057D01*
X205991428Y-61933057D02*
X205934285Y-61990200D01*
X205934285Y-61990200D02*
X205762857Y-62047342D01*
X205762857Y-62047342D02*
X205648571Y-62047342D01*
X205648571Y-62047342D02*
X205477142Y-61990200D01*
X205477142Y-61990200D02*
X205362857Y-61875914D01*
X205362857Y-61875914D02*
X205305714Y-61761628D01*
X205305714Y-61761628D02*
X205248571Y-61533057D01*
X205248571Y-61533057D02*
X205248571Y-61361628D01*
X205248571Y-61361628D02*
X205305714Y-61133057D01*
X205305714Y-61133057D02*
X205362857Y-61018771D01*
X205362857Y-61018771D02*
X205477142Y-60904485D01*
X205477142Y-60904485D02*
X205648571Y-60847342D01*
X205648571Y-60847342D02*
X205762857Y-60847342D01*
X205762857Y-60847342D02*
X205934285Y-60904485D01*
X205934285Y-60904485D02*
X205991428Y-60961628D01*
X206505714Y-62047342D02*
X206505714Y-60847342D01*
X206505714Y-61418771D02*
X207191428Y-61418771D01*
X207191428Y-62047342D02*
X207191428Y-60847342D01*
X208277143Y-60847342D02*
X208048571Y-60847342D01*
X208048571Y-60847342D02*
X207934285Y-60904485D01*
X207934285Y-60904485D02*
X207877143Y-60961628D01*
X207877143Y-60961628D02*
X207762857Y-61133057D01*
X207762857Y-61133057D02*
X207705714Y-61361628D01*
X207705714Y-61361628D02*
X207705714Y-61818771D01*
X207705714Y-61818771D02*
X207762857Y-61933057D01*
X207762857Y-61933057D02*
X207820000Y-61990200D01*
X207820000Y-61990200D02*
X207934285Y-62047342D01*
X207934285Y-62047342D02*
X208162857Y-62047342D01*
X208162857Y-62047342D02*
X208277143Y-61990200D01*
X208277143Y-61990200D02*
X208334285Y-61933057D01*
X208334285Y-61933057D02*
X208391428Y-61818771D01*
X208391428Y-61818771D02*
X208391428Y-61533057D01*
X208391428Y-61533057D02*
X208334285Y-61418771D01*
X208334285Y-61418771D02*
X208277143Y-61361628D01*
X208277143Y-61361628D02*
X208162857Y-61304485D01*
X208162857Y-61304485D02*
X207934285Y-61304485D01*
X207934285Y-61304485D02*
X207820000Y-61361628D01*
X207820000Y-61361628D02*
X207762857Y-61418771D01*
X207762857Y-61418771D02*
X207705714Y-61533057D01*
X221231428Y-61933057D02*
X221174285Y-61990200D01*
X221174285Y-61990200D02*
X221002857Y-62047342D01*
X221002857Y-62047342D02*
X220888571Y-62047342D01*
X220888571Y-62047342D02*
X220717142Y-61990200D01*
X220717142Y-61990200D02*
X220602857Y-61875914D01*
X220602857Y-61875914D02*
X220545714Y-61761628D01*
X220545714Y-61761628D02*
X220488571Y-61533057D01*
X220488571Y-61533057D02*
X220488571Y-61361628D01*
X220488571Y-61361628D02*
X220545714Y-61133057D01*
X220545714Y-61133057D02*
X220602857Y-61018771D01*
X220602857Y-61018771D02*
X220717142Y-60904485D01*
X220717142Y-60904485D02*
X220888571Y-60847342D01*
X220888571Y-60847342D02*
X221002857Y-60847342D01*
X221002857Y-60847342D02*
X221174285Y-60904485D01*
X221174285Y-60904485D02*
X221231428Y-60961628D01*
X221745714Y-62047342D02*
X221745714Y-60847342D01*
X221745714Y-61418771D02*
X222431428Y-61418771D01*
X222431428Y-62047342D02*
X222431428Y-60847342D01*
X222888571Y-60847342D02*
X223688571Y-60847342D01*
X223688571Y-60847342D02*
X223174285Y-62047342D01*
X236471428Y-61933057D02*
X236414285Y-61990200D01*
X236414285Y-61990200D02*
X236242857Y-62047342D01*
X236242857Y-62047342D02*
X236128571Y-62047342D01*
X236128571Y-62047342D02*
X235957142Y-61990200D01*
X235957142Y-61990200D02*
X235842857Y-61875914D01*
X235842857Y-61875914D02*
X235785714Y-61761628D01*
X235785714Y-61761628D02*
X235728571Y-61533057D01*
X235728571Y-61533057D02*
X235728571Y-61361628D01*
X235728571Y-61361628D02*
X235785714Y-61133057D01*
X235785714Y-61133057D02*
X235842857Y-61018771D01*
X235842857Y-61018771D02*
X235957142Y-60904485D01*
X235957142Y-60904485D02*
X236128571Y-60847342D01*
X236128571Y-60847342D02*
X236242857Y-60847342D01*
X236242857Y-60847342D02*
X236414285Y-60904485D01*
X236414285Y-60904485D02*
X236471428Y-60961628D01*
X236985714Y-62047342D02*
X236985714Y-60847342D01*
X236985714Y-61418771D02*
X237671428Y-61418771D01*
X237671428Y-62047342D02*
X237671428Y-60847342D01*
X238414285Y-61361628D02*
X238300000Y-61304485D01*
X238300000Y-61304485D02*
X238242857Y-61247342D01*
X238242857Y-61247342D02*
X238185714Y-61133057D01*
X238185714Y-61133057D02*
X238185714Y-61075914D01*
X238185714Y-61075914D02*
X238242857Y-60961628D01*
X238242857Y-60961628D02*
X238300000Y-60904485D01*
X238300000Y-60904485D02*
X238414285Y-60847342D01*
X238414285Y-60847342D02*
X238642857Y-60847342D01*
X238642857Y-60847342D02*
X238757143Y-60904485D01*
X238757143Y-60904485D02*
X238814285Y-60961628D01*
X238814285Y-60961628D02*
X238871428Y-61075914D01*
X238871428Y-61075914D02*
X238871428Y-61133057D01*
X238871428Y-61133057D02*
X238814285Y-61247342D01*
X238814285Y-61247342D02*
X238757143Y-61304485D01*
X238757143Y-61304485D02*
X238642857Y-61361628D01*
X238642857Y-61361628D02*
X238414285Y-61361628D01*
X238414285Y-61361628D02*
X238300000Y-61418771D01*
X238300000Y-61418771D02*
X238242857Y-61475914D01*
X238242857Y-61475914D02*
X238185714Y-61590200D01*
X238185714Y-61590200D02*
X238185714Y-61818771D01*
X238185714Y-61818771D02*
X238242857Y-61933057D01*
X238242857Y-61933057D02*
X238300000Y-61990200D01*
X238300000Y-61990200D02*
X238414285Y-62047342D01*
X238414285Y-62047342D02*
X238642857Y-62047342D01*
X238642857Y-62047342D02*
X238757143Y-61990200D01*
X238757143Y-61990200D02*
X238814285Y-61933057D01*
X238814285Y-61933057D02*
X238871428Y-61818771D01*
X238871428Y-61818771D02*
X238871428Y-61590200D01*
X238871428Y-61590200D02*
X238814285Y-61475914D01*
X238814285Y-61475914D02*
X238757143Y-61418771D01*
X238757143Y-61418771D02*
X238642857Y-61361628D01*
D11*
X126352857Y-63585000D02*
X127267143Y-63585000D01*
X133972857Y-63585000D02*
X134887143Y-63585000D01*
X134430000Y-64042142D02*
X134430000Y-63127857D01*
X141592857Y-63585000D02*
X142507143Y-63585000D01*
X149212857Y-63585000D02*
X150127143Y-63585000D01*
X149670000Y-64042142D02*
X149670000Y-63127857D01*
X156832856Y-63585000D02*
X157747142Y-63585000D01*
X164452857Y-63585000D02*
X165367143Y-63585000D01*
X164910000Y-64042142D02*
X164910000Y-63127857D01*
X172072857Y-63585000D02*
X172987143Y-63585000D01*
X179692857Y-63585000D02*
X180607143Y-63585000D01*
X180150000Y-64042142D02*
X180150000Y-63127857D01*
X187312857Y-63585000D02*
X188227143Y-63585000D01*
X194932857Y-63585000D02*
X195847143Y-63585000D01*
X195390000Y-64042142D02*
X195390000Y-63127857D01*
X202552857Y-63585000D02*
X203467143Y-63585000D01*
X210172857Y-63585000D02*
X211087143Y-63585000D01*
X210630000Y-64042142D02*
X210630000Y-63127857D01*
X217792857Y-63585000D02*
X218707143Y-63585000D01*
X225412857Y-63585000D02*
X226327143Y-63585000D01*
X225870000Y-64042142D02*
X225870000Y-63127857D01*
X233032857Y-63585000D02*
X233947143Y-63585000D01*
X240652857Y-63585000D02*
X241567143Y-63585000D01*
X241110000Y-64042142D02*
X241110000Y-63127857D01*
D10*
X11166667Y-34857200D02*
X11309524Y-34904819D01*
X11309524Y-34904819D02*
X11547619Y-34904819D01*
X11547619Y-34904819D02*
X11642857Y-34857200D01*
X11642857Y-34857200D02*
X11690476Y-34809580D01*
X11690476Y-34809580D02*
X11738095Y-34714342D01*
X11738095Y-34714342D02*
X11738095Y-34619104D01*
X11738095Y-34619104D02*
X11690476Y-34523866D01*
X11690476Y-34523866D02*
X11642857Y-34476247D01*
X11642857Y-34476247D02*
X11547619Y-34428628D01*
X11547619Y-34428628D02*
X11357143Y-34381009D01*
X11357143Y-34381009D02*
X11261905Y-34333390D01*
X11261905Y-34333390D02*
X11214286Y-34285771D01*
X11214286Y-34285771D02*
X11166667Y-34190533D01*
X11166667Y-34190533D02*
X11166667Y-34095295D01*
X11166667Y-34095295D02*
X11214286Y-34000057D01*
X11214286Y-34000057D02*
X11261905Y-33952438D01*
X11261905Y-33952438D02*
X11357143Y-33904819D01*
X11357143Y-33904819D02*
X11595238Y-33904819D01*
X11595238Y-33904819D02*
X11738095Y-33952438D01*
X12071429Y-33904819D02*
X12309524Y-34904819D01*
X12309524Y-34904819D02*
X12500000Y-34190533D01*
X12500000Y-34190533D02*
X12690476Y-34904819D01*
X12690476Y-34904819D02*
X12928572Y-33904819D01*
X13261905Y-34000057D02*
X13309524Y-33952438D01*
X13309524Y-33952438D02*
X13404762Y-33904819D01*
X13404762Y-33904819D02*
X13642857Y-33904819D01*
X13642857Y-33904819D02*
X13738095Y-33952438D01*
X13738095Y-33952438D02*
X13785714Y-34000057D01*
X13785714Y-34000057D02*
X13833333Y-34095295D01*
X13833333Y-34095295D02*
X13833333Y-34190533D01*
X13833333Y-34190533D02*
X13785714Y-34333390D01*
X13785714Y-34333390D02*
X13214286Y-34904819D01*
X13214286Y-34904819D02*
X13833333Y-34904819D01*
D12*
X171892974Y-14364999D02*
X171892974Y-13936428D01*
X172150117Y-14450713D02*
X171250117Y-14150713D01*
X171250117Y-14150713D02*
X172150117Y-13850713D01*
X171250117Y-13550713D02*
X171978688Y-13550713D01*
X171978688Y-13550713D02*
X172064402Y-13507856D01*
X172064402Y-13507856D02*
X172107260Y-13464999D01*
X172107260Y-13464999D02*
X172150117Y-13379284D01*
X172150117Y-13379284D02*
X172150117Y-13207856D01*
X172150117Y-13207856D02*
X172107260Y-13122141D01*
X172107260Y-13122141D02*
X172064402Y-13079284D01*
X172064402Y-13079284D02*
X171978688Y-13036427D01*
X171978688Y-13036427D02*
X171250117Y-13036427D01*
X171250117Y-12736427D02*
X171250117Y-12222142D01*
X172150117Y-12479284D02*
X171250117Y-12479284D01*
X171250117Y-11750713D02*
X171250117Y-11579285D01*
X171250117Y-11579285D02*
X171292974Y-11493570D01*
X171292974Y-11493570D02*
X171378688Y-11407856D01*
X171378688Y-11407856D02*
X171550117Y-11364999D01*
X171550117Y-11364999D02*
X171850117Y-11364999D01*
X171850117Y-11364999D02*
X172021545Y-11407856D01*
X172021545Y-11407856D02*
X172107260Y-11493570D01*
X172107260Y-11493570D02*
X172150117Y-11579285D01*
X172150117Y-11579285D02*
X172150117Y-11750713D01*
X172150117Y-11750713D02*
X172107260Y-11836428D01*
X172107260Y-11836428D02*
X172021545Y-11922142D01*
X172021545Y-11922142D02*
X171850117Y-11964999D01*
X171850117Y-11964999D02*
X171550117Y-11964999D01*
X171550117Y-11964999D02*
X171378688Y-11922142D01*
X171378688Y-11922142D02*
X171292974Y-11836428D01*
X171292974Y-11836428D02*
X171250117Y-11750713D01*
X180878688Y-24149286D02*
X180921545Y-24020714D01*
X180921545Y-24020714D02*
X180964402Y-23977857D01*
X180964402Y-23977857D02*
X181050117Y-23935000D01*
X181050117Y-23935000D02*
X181178688Y-23935000D01*
X181178688Y-23935000D02*
X181264402Y-23977857D01*
X181264402Y-23977857D02*
X181307260Y-24020714D01*
X181307260Y-24020714D02*
X181350117Y-24106429D01*
X181350117Y-24106429D02*
X181350117Y-24449286D01*
X181350117Y-24449286D02*
X180450117Y-24449286D01*
X180450117Y-24449286D02*
X180450117Y-24149286D01*
X180450117Y-24149286D02*
X180492974Y-24063572D01*
X180492974Y-24063572D02*
X180535831Y-24020714D01*
X180535831Y-24020714D02*
X180621545Y-23977857D01*
X180621545Y-23977857D02*
X180707260Y-23977857D01*
X180707260Y-23977857D02*
X180792974Y-24020714D01*
X180792974Y-24020714D02*
X180835831Y-24063572D01*
X180835831Y-24063572D02*
X180878688Y-24149286D01*
X180878688Y-24149286D02*
X180878688Y-24449286D01*
X180921545Y-23377857D02*
X181350117Y-23377857D01*
X180450117Y-23677857D02*
X180921545Y-23377857D01*
X180921545Y-23377857D02*
X180450117Y-23077857D01*
X181350117Y-22777857D02*
X180450117Y-22777857D01*
X180450117Y-22777857D02*
X180450117Y-22435000D01*
X180450117Y-22435000D02*
X180492974Y-22349285D01*
X180492974Y-22349285D02*
X180535831Y-22306428D01*
X180535831Y-22306428D02*
X180621545Y-22263571D01*
X180621545Y-22263571D02*
X180750117Y-22263571D01*
X180750117Y-22263571D02*
X180835831Y-22306428D01*
X180835831Y-22306428D02*
X180878688Y-22349285D01*
X180878688Y-22349285D02*
X180921545Y-22435000D01*
X180921545Y-22435000D02*
X180921545Y-22777857D01*
X181092974Y-21920714D02*
X181092974Y-21492143D01*
X181350117Y-22006428D02*
X180450117Y-21706428D01*
X180450117Y-21706428D02*
X181350117Y-21406428D01*
X181307260Y-21149285D02*
X181350117Y-21020714D01*
X181350117Y-21020714D02*
X181350117Y-20806428D01*
X181350117Y-20806428D02*
X181307260Y-20720714D01*
X181307260Y-20720714D02*
X181264402Y-20677856D01*
X181264402Y-20677856D02*
X181178688Y-20634999D01*
X181178688Y-20634999D02*
X181092974Y-20634999D01*
X181092974Y-20634999D02*
X181007260Y-20677856D01*
X181007260Y-20677856D02*
X180964402Y-20720714D01*
X180964402Y-20720714D02*
X180921545Y-20806428D01*
X180921545Y-20806428D02*
X180878688Y-20977856D01*
X180878688Y-20977856D02*
X180835831Y-21063571D01*
X180835831Y-21063571D02*
X180792974Y-21106428D01*
X180792974Y-21106428D02*
X180707260Y-21149285D01*
X180707260Y-21149285D02*
X180621545Y-21149285D01*
X180621545Y-21149285D02*
X180535831Y-21106428D01*
X180535831Y-21106428D02*
X180492974Y-21063571D01*
X180492974Y-21063571D02*
X180450117Y-20977856D01*
X180450117Y-20977856D02*
X180450117Y-20763571D01*
X180450117Y-20763571D02*
X180492974Y-20634999D01*
X181307260Y-20292142D02*
X181350117Y-20163571D01*
X181350117Y-20163571D02*
X181350117Y-19949285D01*
X181350117Y-19949285D02*
X181307260Y-19863571D01*
X181307260Y-19863571D02*
X181264402Y-19820713D01*
X181264402Y-19820713D02*
X181178688Y-19777856D01*
X181178688Y-19777856D02*
X181092974Y-19777856D01*
X181092974Y-19777856D02*
X181007260Y-19820713D01*
X181007260Y-19820713D02*
X180964402Y-19863571D01*
X180964402Y-19863571D02*
X180921545Y-19949285D01*
X180921545Y-19949285D02*
X180878688Y-20120713D01*
X180878688Y-20120713D02*
X180835831Y-20206428D01*
X180835831Y-20206428D02*
X180792974Y-20249285D01*
X180792974Y-20249285D02*
X180707260Y-20292142D01*
X180707260Y-20292142D02*
X180621545Y-20292142D01*
X180621545Y-20292142D02*
X180535831Y-20249285D01*
X180535831Y-20249285D02*
X180492974Y-20206428D01*
X180492974Y-20206428D02*
X180450117Y-20120713D01*
X180450117Y-20120713D02*
X180450117Y-19906428D01*
X180450117Y-19906428D02*
X180492974Y-19777856D01*
X217612974Y-14364999D02*
X217612974Y-13936428D01*
X217870117Y-14450713D02*
X216970117Y-14150713D01*
X216970117Y-14150713D02*
X217870117Y-13850713D01*
X216970117Y-13550713D02*
X217698688Y-13550713D01*
X217698688Y-13550713D02*
X217784402Y-13507856D01*
X217784402Y-13507856D02*
X217827260Y-13464999D01*
X217827260Y-13464999D02*
X217870117Y-13379284D01*
X217870117Y-13379284D02*
X217870117Y-13207856D01*
X217870117Y-13207856D02*
X217827260Y-13122141D01*
X217827260Y-13122141D02*
X217784402Y-13079284D01*
X217784402Y-13079284D02*
X217698688Y-13036427D01*
X217698688Y-13036427D02*
X216970117Y-13036427D01*
X216970117Y-12736427D02*
X216970117Y-12222142D01*
X217870117Y-12479284D02*
X216970117Y-12479284D01*
X216970117Y-11750713D02*
X216970117Y-11579285D01*
X216970117Y-11579285D02*
X217012974Y-11493570D01*
X217012974Y-11493570D02*
X217098688Y-11407856D01*
X217098688Y-11407856D02*
X217270117Y-11364999D01*
X217270117Y-11364999D02*
X217570117Y-11364999D01*
X217570117Y-11364999D02*
X217741545Y-11407856D01*
X217741545Y-11407856D02*
X217827260Y-11493570D01*
X217827260Y-11493570D02*
X217870117Y-11579285D01*
X217870117Y-11579285D02*
X217870117Y-11750713D01*
X217870117Y-11750713D02*
X217827260Y-11836428D01*
X217827260Y-11836428D02*
X217741545Y-11922142D01*
X217741545Y-11922142D02*
X217570117Y-11964999D01*
X217570117Y-11964999D02*
X217270117Y-11964999D01*
X217270117Y-11964999D02*
X217098688Y-11922142D01*
X217098688Y-11922142D02*
X217012974Y-11836428D01*
X217012974Y-11836428D02*
X216970117Y-11750713D01*
X226598688Y-24149286D02*
X226641545Y-24020714D01*
X226641545Y-24020714D02*
X226684402Y-23977857D01*
X226684402Y-23977857D02*
X226770117Y-23935000D01*
X226770117Y-23935000D02*
X226898688Y-23935000D01*
X226898688Y-23935000D02*
X226984402Y-23977857D01*
X226984402Y-23977857D02*
X227027260Y-24020714D01*
X227027260Y-24020714D02*
X227070117Y-24106429D01*
X227070117Y-24106429D02*
X227070117Y-24449286D01*
X227070117Y-24449286D02*
X226170117Y-24449286D01*
X226170117Y-24449286D02*
X226170117Y-24149286D01*
X226170117Y-24149286D02*
X226212974Y-24063572D01*
X226212974Y-24063572D02*
X226255831Y-24020714D01*
X226255831Y-24020714D02*
X226341545Y-23977857D01*
X226341545Y-23977857D02*
X226427260Y-23977857D01*
X226427260Y-23977857D02*
X226512974Y-24020714D01*
X226512974Y-24020714D02*
X226555831Y-24063572D01*
X226555831Y-24063572D02*
X226598688Y-24149286D01*
X226598688Y-24149286D02*
X226598688Y-24449286D01*
X226641545Y-23377857D02*
X227070117Y-23377857D01*
X226170117Y-23677857D02*
X226641545Y-23377857D01*
X226641545Y-23377857D02*
X226170117Y-23077857D01*
X227070117Y-22777857D02*
X226170117Y-22777857D01*
X226170117Y-22777857D02*
X226170117Y-22435000D01*
X226170117Y-22435000D02*
X226212974Y-22349285D01*
X226212974Y-22349285D02*
X226255831Y-22306428D01*
X226255831Y-22306428D02*
X226341545Y-22263571D01*
X226341545Y-22263571D02*
X226470117Y-22263571D01*
X226470117Y-22263571D02*
X226555831Y-22306428D01*
X226555831Y-22306428D02*
X226598688Y-22349285D01*
X226598688Y-22349285D02*
X226641545Y-22435000D01*
X226641545Y-22435000D02*
X226641545Y-22777857D01*
X226812974Y-21920714D02*
X226812974Y-21492143D01*
X227070117Y-22006428D02*
X226170117Y-21706428D01*
X226170117Y-21706428D02*
X227070117Y-21406428D01*
X227027260Y-21149285D02*
X227070117Y-21020714D01*
X227070117Y-21020714D02*
X227070117Y-20806428D01*
X227070117Y-20806428D02*
X227027260Y-20720714D01*
X227027260Y-20720714D02*
X226984402Y-20677856D01*
X226984402Y-20677856D02*
X226898688Y-20634999D01*
X226898688Y-20634999D02*
X226812974Y-20634999D01*
X226812974Y-20634999D02*
X226727260Y-20677856D01*
X226727260Y-20677856D02*
X226684402Y-20720714D01*
X226684402Y-20720714D02*
X226641545Y-20806428D01*
X226641545Y-20806428D02*
X226598688Y-20977856D01*
X226598688Y-20977856D02*
X226555831Y-21063571D01*
X226555831Y-21063571D02*
X226512974Y-21106428D01*
X226512974Y-21106428D02*
X226427260Y-21149285D01*
X226427260Y-21149285D02*
X226341545Y-21149285D01*
X226341545Y-21149285D02*
X226255831Y-21106428D01*
X226255831Y-21106428D02*
X226212974Y-21063571D01*
X226212974Y-21063571D02*
X226170117Y-20977856D01*
X226170117Y-20977856D02*
X226170117Y-20763571D01*
X226170117Y-20763571D02*
X226212974Y-20634999D01*
X227027260Y-20292142D02*
X227070117Y-20163571D01*
X227070117Y-20163571D02*
X227070117Y-19949285D01*
X227070117Y-19949285D02*
X227027260Y-19863571D01*
X227027260Y-19863571D02*
X226984402Y-19820713D01*
X226984402Y-19820713D02*
X226898688Y-19777856D01*
X226898688Y-19777856D02*
X226812974Y-19777856D01*
X226812974Y-19777856D02*
X226727260Y-19820713D01*
X226727260Y-19820713D02*
X226684402Y-19863571D01*
X226684402Y-19863571D02*
X226641545Y-19949285D01*
X226641545Y-19949285D02*
X226598688Y-20120713D01*
X226598688Y-20120713D02*
X226555831Y-20206428D01*
X226555831Y-20206428D02*
X226512974Y-20249285D01*
X226512974Y-20249285D02*
X226427260Y-20292142D01*
X226427260Y-20292142D02*
X226341545Y-20292142D01*
X226341545Y-20292142D02*
X226255831Y-20249285D01*
X226255831Y-20249285D02*
X226212974Y-20206428D01*
X226212974Y-20206428D02*
X226170117Y-20120713D01*
X226170117Y-20120713D02*
X226170117Y-19906428D01*
X226170117Y-19906428D02*
X226212974Y-19777856D01*
X156652974Y-14364999D02*
X156652974Y-13936428D01*
X156910117Y-14450713D02*
X156010117Y-14150713D01*
X156010117Y-14150713D02*
X156910117Y-13850713D01*
X156010117Y-13550713D02*
X156738688Y-13550713D01*
X156738688Y-13550713D02*
X156824402Y-13507856D01*
X156824402Y-13507856D02*
X156867260Y-13464999D01*
X156867260Y-13464999D02*
X156910117Y-13379284D01*
X156910117Y-13379284D02*
X156910117Y-13207856D01*
X156910117Y-13207856D02*
X156867260Y-13122141D01*
X156867260Y-13122141D02*
X156824402Y-13079284D01*
X156824402Y-13079284D02*
X156738688Y-13036427D01*
X156738688Y-13036427D02*
X156010117Y-13036427D01*
X156010117Y-12736427D02*
X156010117Y-12222142D01*
X156910117Y-12479284D02*
X156010117Y-12479284D01*
X156010117Y-11750713D02*
X156010117Y-11579285D01*
X156010117Y-11579285D02*
X156052974Y-11493570D01*
X156052974Y-11493570D02*
X156138688Y-11407856D01*
X156138688Y-11407856D02*
X156310117Y-11364999D01*
X156310117Y-11364999D02*
X156610117Y-11364999D01*
X156610117Y-11364999D02*
X156781545Y-11407856D01*
X156781545Y-11407856D02*
X156867260Y-11493570D01*
X156867260Y-11493570D02*
X156910117Y-11579285D01*
X156910117Y-11579285D02*
X156910117Y-11750713D01*
X156910117Y-11750713D02*
X156867260Y-11836428D01*
X156867260Y-11836428D02*
X156781545Y-11922142D01*
X156781545Y-11922142D02*
X156610117Y-11964999D01*
X156610117Y-11964999D02*
X156310117Y-11964999D01*
X156310117Y-11964999D02*
X156138688Y-11922142D01*
X156138688Y-11922142D02*
X156052974Y-11836428D01*
X156052974Y-11836428D02*
X156010117Y-11750713D01*
X165638688Y-24149286D02*
X165681545Y-24020714D01*
X165681545Y-24020714D02*
X165724402Y-23977857D01*
X165724402Y-23977857D02*
X165810117Y-23935000D01*
X165810117Y-23935000D02*
X165938688Y-23935000D01*
X165938688Y-23935000D02*
X166024402Y-23977857D01*
X166024402Y-23977857D02*
X166067260Y-24020714D01*
X166067260Y-24020714D02*
X166110117Y-24106429D01*
X166110117Y-24106429D02*
X166110117Y-24449286D01*
X166110117Y-24449286D02*
X165210117Y-24449286D01*
X165210117Y-24449286D02*
X165210117Y-24149286D01*
X165210117Y-24149286D02*
X165252974Y-24063572D01*
X165252974Y-24063572D02*
X165295831Y-24020714D01*
X165295831Y-24020714D02*
X165381545Y-23977857D01*
X165381545Y-23977857D02*
X165467260Y-23977857D01*
X165467260Y-23977857D02*
X165552974Y-24020714D01*
X165552974Y-24020714D02*
X165595831Y-24063572D01*
X165595831Y-24063572D02*
X165638688Y-24149286D01*
X165638688Y-24149286D02*
X165638688Y-24449286D01*
X165681545Y-23377857D02*
X166110117Y-23377857D01*
X165210117Y-23677857D02*
X165681545Y-23377857D01*
X165681545Y-23377857D02*
X165210117Y-23077857D01*
X166110117Y-22777857D02*
X165210117Y-22777857D01*
X165210117Y-22777857D02*
X165210117Y-22435000D01*
X165210117Y-22435000D02*
X165252974Y-22349285D01*
X165252974Y-22349285D02*
X165295831Y-22306428D01*
X165295831Y-22306428D02*
X165381545Y-22263571D01*
X165381545Y-22263571D02*
X165510117Y-22263571D01*
X165510117Y-22263571D02*
X165595831Y-22306428D01*
X165595831Y-22306428D02*
X165638688Y-22349285D01*
X165638688Y-22349285D02*
X165681545Y-22435000D01*
X165681545Y-22435000D02*
X165681545Y-22777857D01*
X165852974Y-21920714D02*
X165852974Y-21492143D01*
X166110117Y-22006428D02*
X165210117Y-21706428D01*
X165210117Y-21706428D02*
X166110117Y-21406428D01*
X166067260Y-21149285D02*
X166110117Y-21020714D01*
X166110117Y-21020714D02*
X166110117Y-20806428D01*
X166110117Y-20806428D02*
X166067260Y-20720714D01*
X166067260Y-20720714D02*
X166024402Y-20677856D01*
X166024402Y-20677856D02*
X165938688Y-20634999D01*
X165938688Y-20634999D02*
X165852974Y-20634999D01*
X165852974Y-20634999D02*
X165767260Y-20677856D01*
X165767260Y-20677856D02*
X165724402Y-20720714D01*
X165724402Y-20720714D02*
X165681545Y-20806428D01*
X165681545Y-20806428D02*
X165638688Y-20977856D01*
X165638688Y-20977856D02*
X165595831Y-21063571D01*
X165595831Y-21063571D02*
X165552974Y-21106428D01*
X165552974Y-21106428D02*
X165467260Y-21149285D01*
X165467260Y-21149285D02*
X165381545Y-21149285D01*
X165381545Y-21149285D02*
X165295831Y-21106428D01*
X165295831Y-21106428D02*
X165252974Y-21063571D01*
X165252974Y-21063571D02*
X165210117Y-20977856D01*
X165210117Y-20977856D02*
X165210117Y-20763571D01*
X165210117Y-20763571D02*
X165252974Y-20634999D01*
X166067260Y-20292142D02*
X166110117Y-20163571D01*
X166110117Y-20163571D02*
X166110117Y-19949285D01*
X166110117Y-19949285D02*
X166067260Y-19863571D01*
X166067260Y-19863571D02*
X166024402Y-19820713D01*
X166024402Y-19820713D02*
X165938688Y-19777856D01*
X165938688Y-19777856D02*
X165852974Y-19777856D01*
X165852974Y-19777856D02*
X165767260Y-19820713D01*
X165767260Y-19820713D02*
X165724402Y-19863571D01*
X165724402Y-19863571D02*
X165681545Y-19949285D01*
X165681545Y-19949285D02*
X165638688Y-20120713D01*
X165638688Y-20120713D02*
X165595831Y-20206428D01*
X165595831Y-20206428D02*
X165552974Y-20249285D01*
X165552974Y-20249285D02*
X165467260Y-20292142D01*
X165467260Y-20292142D02*
X165381545Y-20292142D01*
X165381545Y-20292142D02*
X165295831Y-20249285D01*
X165295831Y-20249285D02*
X165252974Y-20206428D01*
X165252974Y-20206428D02*
X165210117Y-20120713D01*
X165210117Y-20120713D02*
X165210117Y-19906428D01*
X165210117Y-19906428D02*
X165252974Y-19777856D01*
D10*
X84238095Y-48304819D02*
X84238095Y-47304819D01*
X84238095Y-47781009D02*
X84809523Y-47781009D01*
X84809523Y-48304819D02*
X84809523Y-47304819D01*
X85809523Y-48304819D02*
X85238095Y-48304819D01*
X85523809Y-48304819D02*
X85523809Y-47304819D01*
X85523809Y-47304819D02*
X85428571Y-47447676D01*
X85428571Y-47447676D02*
X85333333Y-47542914D01*
X85333333Y-47542914D02*
X85238095Y-47590533D01*
D12*
X187132974Y-14364999D02*
X187132974Y-13936428D01*
X187390117Y-14450713D02*
X186490117Y-14150713D01*
X186490117Y-14150713D02*
X187390117Y-13850713D01*
X186490117Y-13550713D02*
X187218688Y-13550713D01*
X187218688Y-13550713D02*
X187304402Y-13507856D01*
X187304402Y-13507856D02*
X187347260Y-13464999D01*
X187347260Y-13464999D02*
X187390117Y-13379284D01*
X187390117Y-13379284D02*
X187390117Y-13207856D01*
X187390117Y-13207856D02*
X187347260Y-13122141D01*
X187347260Y-13122141D02*
X187304402Y-13079284D01*
X187304402Y-13079284D02*
X187218688Y-13036427D01*
X187218688Y-13036427D02*
X186490117Y-13036427D01*
X186490117Y-12736427D02*
X186490117Y-12222142D01*
X187390117Y-12479284D02*
X186490117Y-12479284D01*
X186490117Y-11750713D02*
X186490117Y-11579285D01*
X186490117Y-11579285D02*
X186532974Y-11493570D01*
X186532974Y-11493570D02*
X186618688Y-11407856D01*
X186618688Y-11407856D02*
X186790117Y-11364999D01*
X186790117Y-11364999D02*
X187090117Y-11364999D01*
X187090117Y-11364999D02*
X187261545Y-11407856D01*
X187261545Y-11407856D02*
X187347260Y-11493570D01*
X187347260Y-11493570D02*
X187390117Y-11579285D01*
X187390117Y-11579285D02*
X187390117Y-11750713D01*
X187390117Y-11750713D02*
X187347260Y-11836428D01*
X187347260Y-11836428D02*
X187261545Y-11922142D01*
X187261545Y-11922142D02*
X187090117Y-11964999D01*
X187090117Y-11964999D02*
X186790117Y-11964999D01*
X186790117Y-11964999D02*
X186618688Y-11922142D01*
X186618688Y-11922142D02*
X186532974Y-11836428D01*
X186532974Y-11836428D02*
X186490117Y-11750713D01*
X196118688Y-24149286D02*
X196161545Y-24020714D01*
X196161545Y-24020714D02*
X196204402Y-23977857D01*
X196204402Y-23977857D02*
X196290117Y-23935000D01*
X196290117Y-23935000D02*
X196418688Y-23935000D01*
X196418688Y-23935000D02*
X196504402Y-23977857D01*
X196504402Y-23977857D02*
X196547260Y-24020714D01*
X196547260Y-24020714D02*
X196590117Y-24106429D01*
X196590117Y-24106429D02*
X196590117Y-24449286D01*
X196590117Y-24449286D02*
X195690117Y-24449286D01*
X195690117Y-24449286D02*
X195690117Y-24149286D01*
X195690117Y-24149286D02*
X195732974Y-24063572D01*
X195732974Y-24063572D02*
X195775831Y-24020714D01*
X195775831Y-24020714D02*
X195861545Y-23977857D01*
X195861545Y-23977857D02*
X195947260Y-23977857D01*
X195947260Y-23977857D02*
X196032974Y-24020714D01*
X196032974Y-24020714D02*
X196075831Y-24063572D01*
X196075831Y-24063572D02*
X196118688Y-24149286D01*
X196118688Y-24149286D02*
X196118688Y-24449286D01*
X196161545Y-23377857D02*
X196590117Y-23377857D01*
X195690117Y-23677857D02*
X196161545Y-23377857D01*
X196161545Y-23377857D02*
X195690117Y-23077857D01*
X196590117Y-22777857D02*
X195690117Y-22777857D01*
X195690117Y-22777857D02*
X195690117Y-22435000D01*
X195690117Y-22435000D02*
X195732974Y-22349285D01*
X195732974Y-22349285D02*
X195775831Y-22306428D01*
X195775831Y-22306428D02*
X195861545Y-22263571D01*
X195861545Y-22263571D02*
X195990117Y-22263571D01*
X195990117Y-22263571D02*
X196075831Y-22306428D01*
X196075831Y-22306428D02*
X196118688Y-22349285D01*
X196118688Y-22349285D02*
X196161545Y-22435000D01*
X196161545Y-22435000D02*
X196161545Y-22777857D01*
X196332974Y-21920714D02*
X196332974Y-21492143D01*
X196590117Y-22006428D02*
X195690117Y-21706428D01*
X195690117Y-21706428D02*
X196590117Y-21406428D01*
X196547260Y-21149285D02*
X196590117Y-21020714D01*
X196590117Y-21020714D02*
X196590117Y-20806428D01*
X196590117Y-20806428D02*
X196547260Y-20720714D01*
X196547260Y-20720714D02*
X196504402Y-20677856D01*
X196504402Y-20677856D02*
X196418688Y-20634999D01*
X196418688Y-20634999D02*
X196332974Y-20634999D01*
X196332974Y-20634999D02*
X196247260Y-20677856D01*
X196247260Y-20677856D02*
X196204402Y-20720714D01*
X196204402Y-20720714D02*
X196161545Y-20806428D01*
X196161545Y-20806428D02*
X196118688Y-20977856D01*
X196118688Y-20977856D02*
X196075831Y-21063571D01*
X196075831Y-21063571D02*
X196032974Y-21106428D01*
X196032974Y-21106428D02*
X195947260Y-21149285D01*
X195947260Y-21149285D02*
X195861545Y-21149285D01*
X195861545Y-21149285D02*
X195775831Y-21106428D01*
X195775831Y-21106428D02*
X195732974Y-21063571D01*
X195732974Y-21063571D02*
X195690117Y-20977856D01*
X195690117Y-20977856D02*
X195690117Y-20763571D01*
X195690117Y-20763571D02*
X195732974Y-20634999D01*
X196547260Y-20292142D02*
X196590117Y-20163571D01*
X196590117Y-20163571D02*
X196590117Y-19949285D01*
X196590117Y-19949285D02*
X196547260Y-19863571D01*
X196547260Y-19863571D02*
X196504402Y-19820713D01*
X196504402Y-19820713D02*
X196418688Y-19777856D01*
X196418688Y-19777856D02*
X196332974Y-19777856D01*
X196332974Y-19777856D02*
X196247260Y-19820713D01*
X196247260Y-19820713D02*
X196204402Y-19863571D01*
X196204402Y-19863571D02*
X196161545Y-19949285D01*
X196161545Y-19949285D02*
X196118688Y-20120713D01*
X196118688Y-20120713D02*
X196075831Y-20206428D01*
X196075831Y-20206428D02*
X196032974Y-20249285D01*
X196032974Y-20249285D02*
X195947260Y-20292142D01*
X195947260Y-20292142D02*
X195861545Y-20292142D01*
X195861545Y-20292142D02*
X195775831Y-20249285D01*
X195775831Y-20249285D02*
X195732974Y-20206428D01*
X195732974Y-20206428D02*
X195690117Y-20120713D01*
X195690117Y-20120713D02*
X195690117Y-19906428D01*
X195690117Y-19906428D02*
X195732974Y-19777856D01*
D10*
X2238095Y-33804819D02*
X2238095Y-32804819D01*
X2238095Y-33281009D02*
X2809523Y-33281009D01*
X2809523Y-33804819D02*
X2809523Y-32804819D01*
X3238095Y-32900057D02*
X3285714Y-32852438D01*
X3285714Y-32852438D02*
X3380952Y-32804819D01*
X3380952Y-32804819D02*
X3619047Y-32804819D01*
X3619047Y-32804819D02*
X3714285Y-32852438D01*
X3714285Y-32852438D02*
X3761904Y-32900057D01*
X3761904Y-32900057D02*
X3809523Y-32995295D01*
X3809523Y-32995295D02*
X3809523Y-33090533D01*
X3809523Y-33090533D02*
X3761904Y-33233390D01*
X3761904Y-33233390D02*
X3190476Y-33804819D01*
X3190476Y-33804819D02*
X3809523Y-33804819D01*
D12*
X126172974Y-14364999D02*
X126172974Y-13936428D01*
X126430117Y-14450713D02*
X125530117Y-14150713D01*
X125530117Y-14150713D02*
X126430117Y-13850713D01*
X125530117Y-13550713D02*
X126258688Y-13550713D01*
X126258688Y-13550713D02*
X126344402Y-13507856D01*
X126344402Y-13507856D02*
X126387260Y-13464999D01*
X126387260Y-13464999D02*
X126430117Y-13379284D01*
X126430117Y-13379284D02*
X126430117Y-13207856D01*
X126430117Y-13207856D02*
X126387260Y-13122141D01*
X126387260Y-13122141D02*
X126344402Y-13079284D01*
X126344402Y-13079284D02*
X126258688Y-13036427D01*
X126258688Y-13036427D02*
X125530117Y-13036427D01*
X125530117Y-12736427D02*
X125530117Y-12222142D01*
X126430117Y-12479284D02*
X125530117Y-12479284D01*
X125530117Y-11750713D02*
X125530117Y-11579285D01*
X125530117Y-11579285D02*
X125572974Y-11493570D01*
X125572974Y-11493570D02*
X125658688Y-11407856D01*
X125658688Y-11407856D02*
X125830117Y-11364999D01*
X125830117Y-11364999D02*
X126130117Y-11364999D01*
X126130117Y-11364999D02*
X126301545Y-11407856D01*
X126301545Y-11407856D02*
X126387260Y-11493570D01*
X126387260Y-11493570D02*
X126430117Y-11579285D01*
X126430117Y-11579285D02*
X126430117Y-11750713D01*
X126430117Y-11750713D02*
X126387260Y-11836428D01*
X126387260Y-11836428D02*
X126301545Y-11922142D01*
X126301545Y-11922142D02*
X126130117Y-11964999D01*
X126130117Y-11964999D02*
X125830117Y-11964999D01*
X125830117Y-11964999D02*
X125658688Y-11922142D01*
X125658688Y-11922142D02*
X125572974Y-11836428D01*
X125572974Y-11836428D02*
X125530117Y-11750713D01*
X135158688Y-24149286D02*
X135201545Y-24020714D01*
X135201545Y-24020714D02*
X135244402Y-23977857D01*
X135244402Y-23977857D02*
X135330117Y-23935000D01*
X135330117Y-23935000D02*
X135458688Y-23935000D01*
X135458688Y-23935000D02*
X135544402Y-23977857D01*
X135544402Y-23977857D02*
X135587260Y-24020714D01*
X135587260Y-24020714D02*
X135630117Y-24106429D01*
X135630117Y-24106429D02*
X135630117Y-24449286D01*
X135630117Y-24449286D02*
X134730117Y-24449286D01*
X134730117Y-24449286D02*
X134730117Y-24149286D01*
X134730117Y-24149286D02*
X134772974Y-24063572D01*
X134772974Y-24063572D02*
X134815831Y-24020714D01*
X134815831Y-24020714D02*
X134901545Y-23977857D01*
X134901545Y-23977857D02*
X134987260Y-23977857D01*
X134987260Y-23977857D02*
X135072974Y-24020714D01*
X135072974Y-24020714D02*
X135115831Y-24063572D01*
X135115831Y-24063572D02*
X135158688Y-24149286D01*
X135158688Y-24149286D02*
X135158688Y-24449286D01*
X135201545Y-23377857D02*
X135630117Y-23377857D01*
X134730117Y-23677857D02*
X135201545Y-23377857D01*
X135201545Y-23377857D02*
X134730117Y-23077857D01*
X135630117Y-22777857D02*
X134730117Y-22777857D01*
X134730117Y-22777857D02*
X134730117Y-22435000D01*
X134730117Y-22435000D02*
X134772974Y-22349285D01*
X134772974Y-22349285D02*
X134815831Y-22306428D01*
X134815831Y-22306428D02*
X134901545Y-22263571D01*
X134901545Y-22263571D02*
X135030117Y-22263571D01*
X135030117Y-22263571D02*
X135115831Y-22306428D01*
X135115831Y-22306428D02*
X135158688Y-22349285D01*
X135158688Y-22349285D02*
X135201545Y-22435000D01*
X135201545Y-22435000D02*
X135201545Y-22777857D01*
X135372974Y-21920714D02*
X135372974Y-21492143D01*
X135630117Y-22006428D02*
X134730117Y-21706428D01*
X134730117Y-21706428D02*
X135630117Y-21406428D01*
X135587260Y-21149285D02*
X135630117Y-21020714D01*
X135630117Y-21020714D02*
X135630117Y-20806428D01*
X135630117Y-20806428D02*
X135587260Y-20720714D01*
X135587260Y-20720714D02*
X135544402Y-20677856D01*
X135544402Y-20677856D02*
X135458688Y-20634999D01*
X135458688Y-20634999D02*
X135372974Y-20634999D01*
X135372974Y-20634999D02*
X135287260Y-20677856D01*
X135287260Y-20677856D02*
X135244402Y-20720714D01*
X135244402Y-20720714D02*
X135201545Y-20806428D01*
X135201545Y-20806428D02*
X135158688Y-20977856D01*
X135158688Y-20977856D02*
X135115831Y-21063571D01*
X135115831Y-21063571D02*
X135072974Y-21106428D01*
X135072974Y-21106428D02*
X134987260Y-21149285D01*
X134987260Y-21149285D02*
X134901545Y-21149285D01*
X134901545Y-21149285D02*
X134815831Y-21106428D01*
X134815831Y-21106428D02*
X134772974Y-21063571D01*
X134772974Y-21063571D02*
X134730117Y-20977856D01*
X134730117Y-20977856D02*
X134730117Y-20763571D01*
X134730117Y-20763571D02*
X134772974Y-20634999D01*
X135587260Y-20292142D02*
X135630117Y-20163571D01*
X135630117Y-20163571D02*
X135630117Y-19949285D01*
X135630117Y-19949285D02*
X135587260Y-19863571D01*
X135587260Y-19863571D02*
X135544402Y-19820713D01*
X135544402Y-19820713D02*
X135458688Y-19777856D01*
X135458688Y-19777856D02*
X135372974Y-19777856D01*
X135372974Y-19777856D02*
X135287260Y-19820713D01*
X135287260Y-19820713D02*
X135244402Y-19863571D01*
X135244402Y-19863571D02*
X135201545Y-19949285D01*
X135201545Y-19949285D02*
X135158688Y-20120713D01*
X135158688Y-20120713D02*
X135115831Y-20206428D01*
X135115831Y-20206428D02*
X135072974Y-20249285D01*
X135072974Y-20249285D02*
X134987260Y-20292142D01*
X134987260Y-20292142D02*
X134901545Y-20292142D01*
X134901545Y-20292142D02*
X134815831Y-20249285D01*
X134815831Y-20249285D02*
X134772974Y-20206428D01*
X134772974Y-20206428D02*
X134730117Y-20120713D01*
X134730117Y-20120713D02*
X134730117Y-19906428D01*
X134730117Y-19906428D02*
X134772974Y-19777856D01*
X141412974Y-14364999D02*
X141412974Y-13936428D01*
X141670117Y-14450713D02*
X140770117Y-14150713D01*
X140770117Y-14150713D02*
X141670117Y-13850713D01*
X140770117Y-13550713D02*
X141498688Y-13550713D01*
X141498688Y-13550713D02*
X141584402Y-13507856D01*
X141584402Y-13507856D02*
X141627260Y-13464999D01*
X141627260Y-13464999D02*
X141670117Y-13379284D01*
X141670117Y-13379284D02*
X141670117Y-13207856D01*
X141670117Y-13207856D02*
X141627260Y-13122141D01*
X141627260Y-13122141D02*
X141584402Y-13079284D01*
X141584402Y-13079284D02*
X141498688Y-13036427D01*
X141498688Y-13036427D02*
X140770117Y-13036427D01*
X140770117Y-12736427D02*
X140770117Y-12222142D01*
X141670117Y-12479284D02*
X140770117Y-12479284D01*
X140770117Y-11750713D02*
X140770117Y-11579285D01*
X140770117Y-11579285D02*
X140812974Y-11493570D01*
X140812974Y-11493570D02*
X140898688Y-11407856D01*
X140898688Y-11407856D02*
X141070117Y-11364999D01*
X141070117Y-11364999D02*
X141370117Y-11364999D01*
X141370117Y-11364999D02*
X141541545Y-11407856D01*
X141541545Y-11407856D02*
X141627260Y-11493570D01*
X141627260Y-11493570D02*
X141670117Y-11579285D01*
X141670117Y-11579285D02*
X141670117Y-11750713D01*
X141670117Y-11750713D02*
X141627260Y-11836428D01*
X141627260Y-11836428D02*
X141541545Y-11922142D01*
X141541545Y-11922142D02*
X141370117Y-11964999D01*
X141370117Y-11964999D02*
X141070117Y-11964999D01*
X141070117Y-11964999D02*
X140898688Y-11922142D01*
X140898688Y-11922142D02*
X140812974Y-11836428D01*
X140812974Y-11836428D02*
X140770117Y-11750713D01*
X150398688Y-24149286D02*
X150441545Y-24020714D01*
X150441545Y-24020714D02*
X150484402Y-23977857D01*
X150484402Y-23977857D02*
X150570117Y-23935000D01*
X150570117Y-23935000D02*
X150698688Y-23935000D01*
X150698688Y-23935000D02*
X150784402Y-23977857D01*
X150784402Y-23977857D02*
X150827260Y-24020714D01*
X150827260Y-24020714D02*
X150870117Y-24106429D01*
X150870117Y-24106429D02*
X150870117Y-24449286D01*
X150870117Y-24449286D02*
X149970117Y-24449286D01*
X149970117Y-24449286D02*
X149970117Y-24149286D01*
X149970117Y-24149286D02*
X150012974Y-24063572D01*
X150012974Y-24063572D02*
X150055831Y-24020714D01*
X150055831Y-24020714D02*
X150141545Y-23977857D01*
X150141545Y-23977857D02*
X150227260Y-23977857D01*
X150227260Y-23977857D02*
X150312974Y-24020714D01*
X150312974Y-24020714D02*
X150355831Y-24063572D01*
X150355831Y-24063572D02*
X150398688Y-24149286D01*
X150398688Y-24149286D02*
X150398688Y-24449286D01*
X150441545Y-23377857D02*
X150870117Y-23377857D01*
X149970117Y-23677857D02*
X150441545Y-23377857D01*
X150441545Y-23377857D02*
X149970117Y-23077857D01*
X150870117Y-22777857D02*
X149970117Y-22777857D01*
X149970117Y-22777857D02*
X149970117Y-22435000D01*
X149970117Y-22435000D02*
X150012974Y-22349285D01*
X150012974Y-22349285D02*
X150055831Y-22306428D01*
X150055831Y-22306428D02*
X150141545Y-22263571D01*
X150141545Y-22263571D02*
X150270117Y-22263571D01*
X150270117Y-22263571D02*
X150355831Y-22306428D01*
X150355831Y-22306428D02*
X150398688Y-22349285D01*
X150398688Y-22349285D02*
X150441545Y-22435000D01*
X150441545Y-22435000D02*
X150441545Y-22777857D01*
X150612974Y-21920714D02*
X150612974Y-21492143D01*
X150870117Y-22006428D02*
X149970117Y-21706428D01*
X149970117Y-21706428D02*
X150870117Y-21406428D01*
X150827260Y-21149285D02*
X150870117Y-21020714D01*
X150870117Y-21020714D02*
X150870117Y-20806428D01*
X150870117Y-20806428D02*
X150827260Y-20720714D01*
X150827260Y-20720714D02*
X150784402Y-20677856D01*
X150784402Y-20677856D02*
X150698688Y-20634999D01*
X150698688Y-20634999D02*
X150612974Y-20634999D01*
X150612974Y-20634999D02*
X150527260Y-20677856D01*
X150527260Y-20677856D02*
X150484402Y-20720714D01*
X150484402Y-20720714D02*
X150441545Y-20806428D01*
X150441545Y-20806428D02*
X150398688Y-20977856D01*
X150398688Y-20977856D02*
X150355831Y-21063571D01*
X150355831Y-21063571D02*
X150312974Y-21106428D01*
X150312974Y-21106428D02*
X150227260Y-21149285D01*
X150227260Y-21149285D02*
X150141545Y-21149285D01*
X150141545Y-21149285D02*
X150055831Y-21106428D01*
X150055831Y-21106428D02*
X150012974Y-21063571D01*
X150012974Y-21063571D02*
X149970117Y-20977856D01*
X149970117Y-20977856D02*
X149970117Y-20763571D01*
X149970117Y-20763571D02*
X150012974Y-20634999D01*
X150827260Y-20292142D02*
X150870117Y-20163571D01*
X150870117Y-20163571D02*
X150870117Y-19949285D01*
X150870117Y-19949285D02*
X150827260Y-19863571D01*
X150827260Y-19863571D02*
X150784402Y-19820713D01*
X150784402Y-19820713D02*
X150698688Y-19777856D01*
X150698688Y-19777856D02*
X150612974Y-19777856D01*
X150612974Y-19777856D02*
X150527260Y-19820713D01*
X150527260Y-19820713D02*
X150484402Y-19863571D01*
X150484402Y-19863571D02*
X150441545Y-19949285D01*
X150441545Y-19949285D02*
X150398688Y-20120713D01*
X150398688Y-20120713D02*
X150355831Y-20206428D01*
X150355831Y-20206428D02*
X150312974Y-20249285D01*
X150312974Y-20249285D02*
X150227260Y-20292142D01*
X150227260Y-20292142D02*
X150141545Y-20292142D01*
X150141545Y-20292142D02*
X150055831Y-20249285D01*
X150055831Y-20249285D02*
X150012974Y-20206428D01*
X150012974Y-20206428D02*
X149970117Y-20120713D01*
X149970117Y-20120713D02*
X149970117Y-19906428D01*
X149970117Y-19906428D02*
X150012974Y-19777856D01*
D10*
X249238095Y495180D02*
X249238095Y1495180D01*
X249238095Y1018990D02*
X249809523Y1018990D01*
X249809523Y495180D02*
X249809523Y1495180D01*
X250190476Y1495180D02*
X250809523Y1495180D01*
X250809523Y1495180D02*
X250476190Y1114228D01*
X250476190Y1114228D02*
X250619047Y1114228D01*
X250619047Y1114228D02*
X250714285Y1066609D01*
X250714285Y1066609D02*
X250761904Y1018990D01*
X250761904Y1018990D02*
X250809523Y923752D01*
X250809523Y923752D02*
X250809523Y685657D01*
X250809523Y685657D02*
X250761904Y590419D01*
X250761904Y590419D02*
X250714285Y542800D01*
X250714285Y542800D02*
X250619047Y495180D01*
X250619047Y495180D02*
X250333333Y495180D01*
X250333333Y495180D02*
X250238095Y542800D01*
X250238095Y542800D02*
X250190476Y590419D01*
D12*
X202372974Y-14364999D02*
X202372974Y-13936428D01*
X202630117Y-14450713D02*
X201730117Y-14150713D01*
X201730117Y-14150713D02*
X202630117Y-13850713D01*
X201730117Y-13550713D02*
X202458688Y-13550713D01*
X202458688Y-13550713D02*
X202544402Y-13507856D01*
X202544402Y-13507856D02*
X202587260Y-13464999D01*
X202587260Y-13464999D02*
X202630117Y-13379284D01*
X202630117Y-13379284D02*
X202630117Y-13207856D01*
X202630117Y-13207856D02*
X202587260Y-13122141D01*
X202587260Y-13122141D02*
X202544402Y-13079284D01*
X202544402Y-13079284D02*
X202458688Y-13036427D01*
X202458688Y-13036427D02*
X201730117Y-13036427D01*
X201730117Y-12736427D02*
X201730117Y-12222142D01*
X202630117Y-12479284D02*
X201730117Y-12479284D01*
X201730117Y-11750713D02*
X201730117Y-11579285D01*
X201730117Y-11579285D02*
X201772974Y-11493570D01*
X201772974Y-11493570D02*
X201858688Y-11407856D01*
X201858688Y-11407856D02*
X202030117Y-11364999D01*
X202030117Y-11364999D02*
X202330117Y-11364999D01*
X202330117Y-11364999D02*
X202501545Y-11407856D01*
X202501545Y-11407856D02*
X202587260Y-11493570D01*
X202587260Y-11493570D02*
X202630117Y-11579285D01*
X202630117Y-11579285D02*
X202630117Y-11750713D01*
X202630117Y-11750713D02*
X202587260Y-11836428D01*
X202587260Y-11836428D02*
X202501545Y-11922142D01*
X202501545Y-11922142D02*
X202330117Y-11964999D01*
X202330117Y-11964999D02*
X202030117Y-11964999D01*
X202030117Y-11964999D02*
X201858688Y-11922142D01*
X201858688Y-11922142D02*
X201772974Y-11836428D01*
X201772974Y-11836428D02*
X201730117Y-11750713D01*
X211358688Y-24149286D02*
X211401545Y-24020714D01*
X211401545Y-24020714D02*
X211444402Y-23977857D01*
X211444402Y-23977857D02*
X211530117Y-23935000D01*
X211530117Y-23935000D02*
X211658688Y-23935000D01*
X211658688Y-23935000D02*
X211744402Y-23977857D01*
X211744402Y-23977857D02*
X211787260Y-24020714D01*
X211787260Y-24020714D02*
X211830117Y-24106429D01*
X211830117Y-24106429D02*
X211830117Y-24449286D01*
X211830117Y-24449286D02*
X210930117Y-24449286D01*
X210930117Y-24449286D02*
X210930117Y-24149286D01*
X210930117Y-24149286D02*
X210972974Y-24063572D01*
X210972974Y-24063572D02*
X211015831Y-24020714D01*
X211015831Y-24020714D02*
X211101545Y-23977857D01*
X211101545Y-23977857D02*
X211187260Y-23977857D01*
X211187260Y-23977857D02*
X211272974Y-24020714D01*
X211272974Y-24020714D02*
X211315831Y-24063572D01*
X211315831Y-24063572D02*
X211358688Y-24149286D01*
X211358688Y-24149286D02*
X211358688Y-24449286D01*
X211401545Y-23377857D02*
X211830117Y-23377857D01*
X210930117Y-23677857D02*
X211401545Y-23377857D01*
X211401545Y-23377857D02*
X210930117Y-23077857D01*
X211830117Y-22777857D02*
X210930117Y-22777857D01*
X210930117Y-22777857D02*
X210930117Y-22435000D01*
X210930117Y-22435000D02*
X210972974Y-22349285D01*
X210972974Y-22349285D02*
X211015831Y-22306428D01*
X211015831Y-22306428D02*
X211101545Y-22263571D01*
X211101545Y-22263571D02*
X211230117Y-22263571D01*
X211230117Y-22263571D02*
X211315831Y-22306428D01*
X211315831Y-22306428D02*
X211358688Y-22349285D01*
X211358688Y-22349285D02*
X211401545Y-22435000D01*
X211401545Y-22435000D02*
X211401545Y-22777857D01*
X211572974Y-21920714D02*
X211572974Y-21492143D01*
X211830117Y-22006428D02*
X210930117Y-21706428D01*
X210930117Y-21706428D02*
X211830117Y-21406428D01*
X211787260Y-21149285D02*
X211830117Y-21020714D01*
X211830117Y-21020714D02*
X211830117Y-20806428D01*
X211830117Y-20806428D02*
X211787260Y-20720714D01*
X211787260Y-20720714D02*
X211744402Y-20677856D01*
X211744402Y-20677856D02*
X211658688Y-20634999D01*
X211658688Y-20634999D02*
X211572974Y-20634999D01*
X211572974Y-20634999D02*
X211487260Y-20677856D01*
X211487260Y-20677856D02*
X211444402Y-20720714D01*
X211444402Y-20720714D02*
X211401545Y-20806428D01*
X211401545Y-20806428D02*
X211358688Y-20977856D01*
X211358688Y-20977856D02*
X211315831Y-21063571D01*
X211315831Y-21063571D02*
X211272974Y-21106428D01*
X211272974Y-21106428D02*
X211187260Y-21149285D01*
X211187260Y-21149285D02*
X211101545Y-21149285D01*
X211101545Y-21149285D02*
X211015831Y-21106428D01*
X211015831Y-21106428D02*
X210972974Y-21063571D01*
X210972974Y-21063571D02*
X210930117Y-20977856D01*
X210930117Y-20977856D02*
X210930117Y-20763571D01*
X210930117Y-20763571D02*
X210972974Y-20634999D01*
X211787260Y-20292142D02*
X211830117Y-20163571D01*
X211830117Y-20163571D02*
X211830117Y-19949285D01*
X211830117Y-19949285D02*
X211787260Y-19863571D01*
X211787260Y-19863571D02*
X211744402Y-19820713D01*
X211744402Y-19820713D02*
X211658688Y-19777856D01*
X211658688Y-19777856D02*
X211572974Y-19777856D01*
X211572974Y-19777856D02*
X211487260Y-19820713D01*
X211487260Y-19820713D02*
X211444402Y-19863571D01*
X211444402Y-19863571D02*
X211401545Y-19949285D01*
X211401545Y-19949285D02*
X211358688Y-20120713D01*
X211358688Y-20120713D02*
X211315831Y-20206428D01*
X211315831Y-20206428D02*
X211272974Y-20249285D01*
X211272974Y-20249285D02*
X211187260Y-20292142D01*
X211187260Y-20292142D02*
X211101545Y-20292142D01*
X211101545Y-20292142D02*
X211015831Y-20249285D01*
X211015831Y-20249285D02*
X210972974Y-20206428D01*
X210972974Y-20206428D02*
X210930117Y-20120713D01*
X210930117Y-20120713D02*
X210930117Y-19906428D01*
X210930117Y-19906428D02*
X210972974Y-19777856D01*
D10*
X33166666Y-61074819D02*
X33166666Y-61789104D01*
X33166666Y-61789104D02*
X33119047Y-61931961D01*
X33119047Y-61931961D02*
X33023809Y-62027200D01*
X33023809Y-62027200D02*
X32880952Y-62074819D01*
X32880952Y-62074819D02*
X32785714Y-62074819D01*
X34119047Y-61074819D02*
X33642857Y-61074819D01*
X33642857Y-61074819D02*
X33595238Y-61551009D01*
X33595238Y-61551009D02*
X33642857Y-61503390D01*
X33642857Y-61503390D02*
X33738095Y-61455771D01*
X33738095Y-61455771D02*
X33976190Y-61455771D01*
X33976190Y-61455771D02*
X34071428Y-61503390D01*
X34071428Y-61503390D02*
X34119047Y-61551009D01*
X34119047Y-61551009D02*
X34166666Y-61646247D01*
X34166666Y-61646247D02*
X34166666Y-61884342D01*
X34166666Y-61884342D02*
X34119047Y-61979580D01*
X34119047Y-61979580D02*
X34071428Y-62027200D01*
X34071428Y-62027200D02*
X33976190Y-62074819D01*
X33976190Y-62074819D02*
X33738095Y-62074819D01*
X33738095Y-62074819D02*
X33642857Y-62027200D01*
X33642857Y-62027200D02*
X33595238Y-61979580D01*
X249238095Y-67804819D02*
X249238095Y-66804819D01*
X249238095Y-67281009D02*
X249809523Y-67281009D01*
X249809523Y-67804819D02*
X249809523Y-66804819D01*
X250714285Y-67138152D02*
X250714285Y-67804819D01*
X250476190Y-66757200D02*
X250238095Y-67471485D01*
X250238095Y-67471485D02*
X250857142Y-67471485D01*
D12*
X232852974Y-14364999D02*
X232852974Y-13936428D01*
X233110117Y-14450713D02*
X232210117Y-14150713D01*
X232210117Y-14150713D02*
X233110117Y-13850713D01*
X232210117Y-13550713D02*
X232938688Y-13550713D01*
X232938688Y-13550713D02*
X233024402Y-13507856D01*
X233024402Y-13507856D02*
X233067260Y-13464999D01*
X233067260Y-13464999D02*
X233110117Y-13379284D01*
X233110117Y-13379284D02*
X233110117Y-13207856D01*
X233110117Y-13207856D02*
X233067260Y-13122141D01*
X233067260Y-13122141D02*
X233024402Y-13079284D01*
X233024402Y-13079284D02*
X232938688Y-13036427D01*
X232938688Y-13036427D02*
X232210117Y-13036427D01*
X232210117Y-12736427D02*
X232210117Y-12222142D01*
X233110117Y-12479284D02*
X232210117Y-12479284D01*
X232210117Y-11750713D02*
X232210117Y-11579285D01*
X232210117Y-11579285D02*
X232252974Y-11493570D01*
X232252974Y-11493570D02*
X232338688Y-11407856D01*
X232338688Y-11407856D02*
X232510117Y-11364999D01*
X232510117Y-11364999D02*
X232810117Y-11364999D01*
X232810117Y-11364999D02*
X232981545Y-11407856D01*
X232981545Y-11407856D02*
X233067260Y-11493570D01*
X233067260Y-11493570D02*
X233110117Y-11579285D01*
X233110117Y-11579285D02*
X233110117Y-11750713D01*
X233110117Y-11750713D02*
X233067260Y-11836428D01*
X233067260Y-11836428D02*
X232981545Y-11922142D01*
X232981545Y-11922142D02*
X232810117Y-11964999D01*
X232810117Y-11964999D02*
X232510117Y-11964999D01*
X232510117Y-11964999D02*
X232338688Y-11922142D01*
X232338688Y-11922142D02*
X232252974Y-11836428D01*
X232252974Y-11836428D02*
X232210117Y-11750713D01*
X241838688Y-24149286D02*
X241881545Y-24020714D01*
X241881545Y-24020714D02*
X241924402Y-23977857D01*
X241924402Y-23977857D02*
X242010117Y-23935000D01*
X242010117Y-23935000D02*
X242138688Y-23935000D01*
X242138688Y-23935000D02*
X242224402Y-23977857D01*
X242224402Y-23977857D02*
X242267260Y-24020714D01*
X242267260Y-24020714D02*
X242310117Y-24106429D01*
X242310117Y-24106429D02*
X242310117Y-24449286D01*
X242310117Y-24449286D02*
X241410117Y-24449286D01*
X241410117Y-24449286D02*
X241410117Y-24149286D01*
X241410117Y-24149286D02*
X241452974Y-24063572D01*
X241452974Y-24063572D02*
X241495831Y-24020714D01*
X241495831Y-24020714D02*
X241581545Y-23977857D01*
X241581545Y-23977857D02*
X241667260Y-23977857D01*
X241667260Y-23977857D02*
X241752974Y-24020714D01*
X241752974Y-24020714D02*
X241795831Y-24063572D01*
X241795831Y-24063572D02*
X241838688Y-24149286D01*
X241838688Y-24149286D02*
X241838688Y-24449286D01*
X241881545Y-23377857D02*
X242310117Y-23377857D01*
X241410117Y-23677857D02*
X241881545Y-23377857D01*
X241881545Y-23377857D02*
X241410117Y-23077857D01*
X242310117Y-22777857D02*
X241410117Y-22777857D01*
X241410117Y-22777857D02*
X241410117Y-22435000D01*
X241410117Y-22435000D02*
X241452974Y-22349285D01*
X241452974Y-22349285D02*
X241495831Y-22306428D01*
X241495831Y-22306428D02*
X241581545Y-22263571D01*
X241581545Y-22263571D02*
X241710117Y-22263571D01*
X241710117Y-22263571D02*
X241795831Y-22306428D01*
X241795831Y-22306428D02*
X241838688Y-22349285D01*
X241838688Y-22349285D02*
X241881545Y-22435000D01*
X241881545Y-22435000D02*
X241881545Y-22777857D01*
X242052974Y-21920714D02*
X242052974Y-21492143D01*
X242310117Y-22006428D02*
X241410117Y-21706428D01*
X241410117Y-21706428D02*
X242310117Y-21406428D01*
X242267260Y-21149285D02*
X242310117Y-21020714D01*
X242310117Y-21020714D02*
X242310117Y-20806428D01*
X242310117Y-20806428D02*
X242267260Y-20720714D01*
X242267260Y-20720714D02*
X242224402Y-20677856D01*
X242224402Y-20677856D02*
X242138688Y-20634999D01*
X242138688Y-20634999D02*
X242052974Y-20634999D01*
X242052974Y-20634999D02*
X241967260Y-20677856D01*
X241967260Y-20677856D02*
X241924402Y-20720714D01*
X241924402Y-20720714D02*
X241881545Y-20806428D01*
X241881545Y-20806428D02*
X241838688Y-20977856D01*
X241838688Y-20977856D02*
X241795831Y-21063571D01*
X241795831Y-21063571D02*
X241752974Y-21106428D01*
X241752974Y-21106428D02*
X241667260Y-21149285D01*
X241667260Y-21149285D02*
X241581545Y-21149285D01*
X241581545Y-21149285D02*
X241495831Y-21106428D01*
X241495831Y-21106428D02*
X241452974Y-21063571D01*
X241452974Y-21063571D02*
X241410117Y-20977856D01*
X241410117Y-20977856D02*
X241410117Y-20763571D01*
X241410117Y-20763571D02*
X241452974Y-20634999D01*
X242267260Y-20292142D02*
X242310117Y-20163571D01*
X242310117Y-20163571D02*
X242310117Y-19949285D01*
X242310117Y-19949285D02*
X242267260Y-19863571D01*
X242267260Y-19863571D02*
X242224402Y-19820713D01*
X242224402Y-19820713D02*
X242138688Y-19777856D01*
X242138688Y-19777856D02*
X242052974Y-19777856D01*
X242052974Y-19777856D02*
X241967260Y-19820713D01*
X241967260Y-19820713D02*
X241924402Y-19863571D01*
X241924402Y-19863571D02*
X241881545Y-19949285D01*
X241881545Y-19949285D02*
X241838688Y-20120713D01*
X241838688Y-20120713D02*
X241795831Y-20206428D01*
X241795831Y-20206428D02*
X241752974Y-20249285D01*
X241752974Y-20249285D02*
X241667260Y-20292142D01*
X241667260Y-20292142D02*
X241581545Y-20292142D01*
X241581545Y-20292142D02*
X241495831Y-20249285D01*
X241495831Y-20249285D02*
X241452974Y-20206428D01*
X241452974Y-20206428D02*
X241410117Y-20120713D01*
X241410117Y-20120713D02*
X241410117Y-19906428D01*
X241410117Y-19906428D02*
X241452974Y-19777856D01*
%TO.C,J9*%
X184110000Y-65000000D02*
X184110000Y-64500000D01*
X184110000Y-65000000D02*
X199050000Y-65000000D01*
%TO.C,SW2*%
X9270000Y-35270000D02*
X15730000Y-35270000D01*
X9270000Y-35300000D02*
X9270000Y-35270000D01*
X9270000Y-37200000D02*
X9270000Y-39800000D01*
X9270000Y-41730000D02*
X9270000Y-41700000D01*
X9270000Y-41730000D02*
X15730000Y-41730000D01*
X15730000Y-35270000D02*
X15730000Y-35300000D01*
X15730000Y-37200000D02*
X15730000Y-39800000D01*
X15730000Y-41730000D02*
X15730000Y-41700000D01*
%TO.C,J11*%
X214590000Y-65000000D02*
X214590000Y-64500000D01*
X214590000Y-65000000D02*
X229530000Y-65000000D01*
%TO.C,J1*%
X123150000Y-65000000D02*
X123150000Y-64500000D01*
X123150000Y-65000000D02*
X138090000Y-65000000D01*
%TO.C,F4*%
X172840000Y-3115000D02*
X174160000Y-3115000D01*
X174640000Y-3115000D02*
X175960000Y-3115000D01*
X176440000Y-3115000D02*
X177760000Y-3115000D01*
X178240000Y-3115000D02*
X179560000Y-3115000D01*
X179840000Y-3115000D02*
X179840000Y-4435000D01*
X179840000Y-4915000D02*
X179840000Y-6235000D01*
X179840000Y-6715000D02*
X179840000Y-8035000D01*
X179840000Y-8515000D02*
X179840000Y-9835000D01*
X179840000Y-10315000D02*
X179840000Y-11635000D01*
X179840000Y-12115000D02*
X179840000Y-13435000D01*
X179840000Y-13915000D02*
X179840000Y-15235000D01*
X179840000Y-15715000D02*
X179840000Y-17035000D01*
X179840000Y-17515000D02*
X179840000Y-18835000D01*
X179840000Y-19315000D02*
X179840000Y-20635000D01*
X179840000Y-21115000D02*
X179840000Y-22435000D01*
X179840000Y-22615000D02*
X178520000Y-22615000D01*
X178040000Y-22615000D02*
X176720000Y-22615000D01*
X176240000Y-22615000D02*
X174920000Y-22615000D01*
X174440000Y-22615000D02*
X173120000Y-22615000D01*
X172840000Y-22615000D02*
X172840000Y-21295000D01*
X172840000Y-20815000D02*
X172840000Y-19495000D01*
X172840000Y-19015000D02*
X172840000Y-17695000D01*
X172840000Y-17215000D02*
X172840000Y-15895000D01*
X172840000Y-15415000D02*
X172840000Y-14095000D01*
X172840000Y-13615000D02*
X172840000Y-12295000D01*
X172840000Y-11815000D02*
X172840000Y-10495000D01*
X172840000Y-10015000D02*
X172840000Y-8695000D01*
X172840000Y-8215000D02*
X172840000Y-6895000D01*
X172840000Y-6415000D02*
X172840000Y-5095000D01*
X172840000Y-4615000D02*
X172840000Y-3295000D01*
X172840000Y-12385000D02*
X172864000Y-12385000D01*
X173344000Y-12385000D02*
X173368000Y-12385000D01*
X173848000Y-12385000D02*
X173872000Y-12385000D01*
X174352000Y-12385000D02*
X174376000Y-12385000D01*
X174856000Y-12385000D02*
X174880000Y-12385000D01*
X175360000Y-12385000D02*
X175384000Y-12385000D01*
X175864000Y-12385000D02*
X175888000Y-12385000D01*
X176368000Y-12385000D02*
X176392000Y-12385000D01*
X176872000Y-12385000D02*
X176896000Y-12385000D01*
X177376000Y-12385000D02*
X177400000Y-12385000D01*
X177880000Y-12385000D02*
X177904000Y-12385000D01*
X178384000Y-12385000D02*
X178408000Y-12385000D01*
X178888000Y-12385000D02*
X178912000Y-12385000D01*
X179392000Y-12385000D02*
X179416000Y-12385000D01*
X179840000Y-12385000D02*
X179840000Y-12409000D01*
X179840000Y-12889000D02*
X179840000Y-12913000D01*
X179840000Y-13393000D02*
X179840000Y-13417000D01*
X179840000Y-13897000D02*
X179840000Y-13921000D01*
X179840000Y-14401000D02*
X179840000Y-14425000D01*
X179840000Y-14905000D02*
X179840000Y-14929000D01*
X179840000Y-15409000D02*
X179840000Y-15433000D01*
X179840000Y-15913000D02*
X179840000Y-15937000D01*
X179840000Y-16417000D02*
X179840000Y-16441000D01*
X179840000Y-16921000D02*
X179840000Y-16945000D01*
X179840000Y-17425000D02*
X179840000Y-17449000D01*
X179840000Y-17929000D02*
X179840000Y-17953000D01*
X179840000Y-18433000D02*
X179840000Y-18457000D01*
X179840000Y-18937000D02*
X179840000Y-18961000D01*
X179840000Y-19441000D02*
X179840000Y-19465000D01*
X179840000Y-19945000D02*
X179840000Y-19969000D01*
X179840000Y-20449000D02*
X179840000Y-20473000D01*
X179840000Y-20953000D02*
X179840000Y-20977000D01*
X179840000Y-21457000D02*
X179840000Y-21481000D01*
X179840000Y-21961000D02*
X179840000Y-21985000D01*
X179840000Y-22465000D02*
X179840000Y-22489000D01*
X179840000Y-22969000D02*
X179840000Y-22993000D01*
X179840000Y-23473000D02*
X179840000Y-23497000D01*
X179840000Y-23977000D02*
X179840000Y-24001000D01*
X179840000Y-24481000D02*
X179840000Y-24505000D01*
X179840000Y-24985000D02*
X179840000Y-25009000D01*
X179840000Y-25489000D02*
X179840000Y-25513000D01*
X179840000Y-25993000D02*
X179840000Y-26017000D01*
X179840000Y-26497000D02*
X179840000Y-26521000D01*
X179840000Y-27001000D02*
X179840000Y-27025000D01*
X179840000Y-27505000D02*
X179840000Y-27529000D01*
X179840000Y-28009000D02*
X179840000Y-28033000D01*
X179840000Y-28513000D02*
X179840000Y-28537000D01*
X179840000Y-29017000D02*
X179840000Y-29041000D01*
X179840000Y-29521000D02*
X179840000Y-29545000D01*
X179840000Y-30025000D02*
X179840000Y-30049000D01*
X179840000Y-30529000D02*
X179840000Y-30553000D01*
X179840000Y-31033000D02*
X179840000Y-31057000D01*
X179840000Y-31537000D02*
X179840000Y-31561000D01*
X179840000Y-31885000D02*
X179816000Y-31885000D01*
X179336000Y-31885000D02*
X179312000Y-31885000D01*
X178832000Y-31885000D02*
X178808000Y-31885000D01*
X178328000Y-31885000D02*
X178304000Y-31885000D01*
X177824000Y-31885000D02*
X177800000Y-31885000D01*
X177320000Y-31885000D02*
X177296000Y-31885000D01*
X176816000Y-31885000D02*
X176792000Y-31885000D01*
X176312000Y-31885000D02*
X176288000Y-31885000D01*
X175808000Y-31885000D02*
X175784000Y-31885000D01*
X175304000Y-31885000D02*
X175280000Y-31885000D01*
X174800000Y-31885000D02*
X174776000Y-31885000D01*
X174296000Y-31885000D02*
X174272000Y-31885000D01*
X173792000Y-31885000D02*
X173768000Y-31885000D01*
X173288000Y-31885000D02*
X173264000Y-31885000D01*
X172840000Y-31885000D02*
X172840000Y-31861000D01*
X172840000Y-31381000D02*
X172840000Y-31357000D01*
X172840000Y-30877000D02*
X172840000Y-30853000D01*
X172840000Y-30373000D02*
X172840000Y-30349000D01*
X172840000Y-29869000D02*
X172840000Y-29845000D01*
X172840000Y-29365000D02*
X172840000Y-29341000D01*
X172840000Y-28861000D02*
X172840000Y-28837000D01*
X172840000Y-28357000D02*
X172840000Y-28333000D01*
X172840000Y-27853000D02*
X172840000Y-27829000D01*
X172840000Y-27349000D02*
X172840000Y-27325000D01*
X172840000Y-26845000D02*
X172840000Y-26821000D01*
X172840000Y-26341000D02*
X172840000Y-26317000D01*
X172840000Y-25837000D02*
X172840000Y-25813000D01*
X172840000Y-25333000D02*
X172840000Y-25309000D01*
X172840000Y-24829000D02*
X172840000Y-24805000D01*
X172840000Y-24325000D02*
X172840000Y-24301000D01*
X172840000Y-23821000D02*
X172840000Y-23797000D01*
X172840000Y-23317000D02*
X172840000Y-23293000D01*
X172840000Y-22813000D02*
X172840000Y-22789000D01*
X172840000Y-22309000D02*
X172840000Y-22285000D01*
X172840000Y-21805000D02*
X172840000Y-21781000D01*
X172840000Y-21301000D02*
X172840000Y-21277000D01*
X172840000Y-20797000D02*
X172840000Y-20773000D01*
X172840000Y-20293000D02*
X172840000Y-20269000D01*
X172840000Y-19789000D02*
X172840000Y-19765000D01*
X172840000Y-19285000D02*
X172840000Y-19261000D01*
X172840000Y-18781000D02*
X172840000Y-18757000D01*
X172840000Y-18277000D02*
X172840000Y-18253000D01*
X172840000Y-17773000D02*
X172840000Y-17749000D01*
X172840000Y-17269000D02*
X172840000Y-17245000D01*
X172840000Y-16765000D02*
X172840000Y-16741000D01*
X172840000Y-16261000D02*
X172840000Y-16237000D01*
X172840000Y-15757000D02*
X172840000Y-15733000D01*
X172840000Y-15253000D02*
X172840000Y-15229000D01*
X172840000Y-14749000D02*
X172840000Y-14725000D01*
X172840000Y-14245000D02*
X172840000Y-14221000D01*
X172840000Y-13741000D02*
X172840000Y-13717000D01*
X172840000Y-13237000D02*
X172840000Y-13213000D01*
X172840000Y-12733000D02*
X172840000Y-12709000D01*
%TO.C,J12*%
X229830000Y-65000000D02*
X229830000Y-64500000D01*
X229830000Y-65000000D02*
X244770000Y-65000000D01*
%TO.C,F7*%
X218560000Y-3115000D02*
X219880000Y-3115000D01*
X220360000Y-3115000D02*
X221680000Y-3115000D01*
X222160000Y-3115000D02*
X223480000Y-3115000D01*
X223960000Y-3115000D02*
X225280000Y-3115000D01*
X225560000Y-3115000D02*
X225560000Y-4435000D01*
X225560000Y-4915000D02*
X225560000Y-6235000D01*
X225560000Y-6715000D02*
X225560000Y-8035000D01*
X225560000Y-8515000D02*
X225560000Y-9835000D01*
X225560000Y-10315000D02*
X225560000Y-11635000D01*
X225560000Y-12115000D02*
X225560000Y-13435000D01*
X225560000Y-13915000D02*
X225560000Y-15235000D01*
X225560000Y-15715000D02*
X225560000Y-17035000D01*
X225560000Y-17515000D02*
X225560000Y-18835000D01*
X225560000Y-19315000D02*
X225560000Y-20635000D01*
X225560000Y-21115000D02*
X225560000Y-22435000D01*
X225560000Y-22615000D02*
X224240000Y-22615000D01*
X223760000Y-22615000D02*
X222440000Y-22615000D01*
X221960000Y-22615000D02*
X220640000Y-22615000D01*
X220160000Y-22615000D02*
X218840000Y-22615000D01*
X218560000Y-22615000D02*
X218560000Y-21295000D01*
X218560000Y-20815000D02*
X218560000Y-19495000D01*
X218560000Y-19015000D02*
X218560000Y-17695000D01*
X218560000Y-17215000D02*
X218560000Y-15895000D01*
X218560000Y-15415000D02*
X218560000Y-14095000D01*
X218560000Y-13615000D02*
X218560000Y-12295000D01*
X218560000Y-11815000D02*
X218560000Y-10495000D01*
X218560000Y-10015000D02*
X218560000Y-8695000D01*
X218560000Y-8215000D02*
X218560000Y-6895000D01*
X218560000Y-6415000D02*
X218560000Y-5095000D01*
X218560000Y-4615000D02*
X218560000Y-3295000D01*
X218560000Y-12385000D02*
X218584000Y-12385000D01*
X219064000Y-12385000D02*
X219088000Y-12385000D01*
X219568000Y-12385000D02*
X219592000Y-12385000D01*
X220072000Y-12385000D02*
X220096000Y-12385000D01*
X220576000Y-12385000D02*
X220600000Y-12385000D01*
X221080000Y-12385000D02*
X221104000Y-12385000D01*
X221584000Y-12385000D02*
X221608000Y-12385000D01*
X222088000Y-12385000D02*
X222112000Y-12385000D01*
X222592000Y-12385000D02*
X222616000Y-12385000D01*
X223096000Y-12385000D02*
X223120000Y-12385000D01*
X223600000Y-12385000D02*
X223624000Y-12385000D01*
X224104000Y-12385000D02*
X224128000Y-12385000D01*
X224608000Y-12385000D02*
X224632000Y-12385000D01*
X225112000Y-12385000D02*
X225136000Y-12385000D01*
X225560000Y-12385000D02*
X225560000Y-12409000D01*
X225560000Y-12889000D02*
X225560000Y-12913000D01*
X225560000Y-13393000D02*
X225560000Y-13417000D01*
X225560000Y-13897000D02*
X225560000Y-13921000D01*
X225560000Y-14401000D02*
X225560000Y-14425000D01*
X225560000Y-14905000D02*
X225560000Y-14929000D01*
X225560000Y-15409000D02*
X225560000Y-15433000D01*
X225560000Y-15913000D02*
X225560000Y-15937000D01*
X225560000Y-16417000D02*
X225560000Y-16441000D01*
X225560000Y-16921000D02*
X225560000Y-16945000D01*
X225560000Y-17425000D02*
X225560000Y-17449000D01*
X225560000Y-17929000D02*
X225560000Y-17953000D01*
X225560000Y-18433000D02*
X225560000Y-18457000D01*
X225560000Y-18937000D02*
X225560000Y-18961000D01*
X225560000Y-19441000D02*
X225560000Y-19465000D01*
X225560000Y-19945000D02*
X225560000Y-19969000D01*
X225560000Y-20449000D02*
X225560000Y-20473000D01*
X225560000Y-20953000D02*
X225560000Y-20977000D01*
X225560000Y-21457000D02*
X225560000Y-21481000D01*
X225560000Y-21961000D02*
X225560000Y-21985000D01*
X225560000Y-22465000D02*
X225560000Y-22489000D01*
X225560000Y-22969000D02*
X225560000Y-22993000D01*
X225560000Y-23473000D02*
X225560000Y-23497000D01*
X225560000Y-23977000D02*
X225560000Y-24001000D01*
X225560000Y-24481000D02*
X225560000Y-24505000D01*
X225560000Y-24985000D02*
X225560000Y-25009000D01*
X225560000Y-25489000D02*
X225560000Y-25513000D01*
X225560000Y-25993000D02*
X225560000Y-26017000D01*
X225560000Y-26497000D02*
X225560000Y-26521000D01*
X225560000Y-27001000D02*
X225560000Y-27025000D01*
X225560000Y-27505000D02*
X225560000Y-27529000D01*
X225560000Y-28009000D02*
X225560000Y-28033000D01*
X225560000Y-28513000D02*
X225560000Y-28537000D01*
X225560000Y-29017000D02*
X225560000Y-29041000D01*
X225560000Y-29521000D02*
X225560000Y-29545000D01*
X225560000Y-30025000D02*
X225560000Y-30049000D01*
X225560000Y-30529000D02*
X225560000Y-30553000D01*
X225560000Y-31033000D02*
X225560000Y-31057000D01*
X225560000Y-31537000D02*
X225560000Y-31561000D01*
X225560000Y-31885000D02*
X225536000Y-31885000D01*
X225056000Y-31885000D02*
X225032000Y-31885000D01*
X224552000Y-31885000D02*
X224528000Y-31885000D01*
X224048000Y-31885000D02*
X224024000Y-31885000D01*
X223544000Y-31885000D02*
X223520000Y-31885000D01*
X223040000Y-31885000D02*
X223016000Y-31885000D01*
X222536000Y-31885000D02*
X222512000Y-31885000D01*
X222032000Y-31885000D02*
X222008000Y-31885000D01*
X221528000Y-31885000D02*
X221504000Y-31885000D01*
X221024000Y-31885000D02*
X221000000Y-31885000D01*
X220520000Y-31885000D02*
X220496000Y-31885000D01*
X220016000Y-31885000D02*
X219992000Y-31885000D01*
X219512000Y-31885000D02*
X219488000Y-31885000D01*
X219008000Y-31885000D02*
X218984000Y-31885000D01*
X218560000Y-31885000D02*
X218560000Y-31861000D01*
X218560000Y-31381000D02*
X218560000Y-31357000D01*
X218560000Y-30877000D02*
X218560000Y-30853000D01*
X218560000Y-30373000D02*
X218560000Y-30349000D01*
X218560000Y-29869000D02*
X218560000Y-29845000D01*
X218560000Y-29365000D02*
X218560000Y-29341000D01*
X218560000Y-28861000D02*
X218560000Y-28837000D01*
X218560000Y-28357000D02*
X218560000Y-28333000D01*
X218560000Y-27853000D02*
X218560000Y-27829000D01*
X218560000Y-27349000D02*
X218560000Y-27325000D01*
X218560000Y-26845000D02*
X218560000Y-26821000D01*
X218560000Y-26341000D02*
X218560000Y-26317000D01*
X218560000Y-25837000D02*
X218560000Y-25813000D01*
X218560000Y-25333000D02*
X218560000Y-25309000D01*
X218560000Y-24829000D02*
X218560000Y-24805000D01*
X218560000Y-24325000D02*
X218560000Y-24301000D01*
X218560000Y-23821000D02*
X218560000Y-23797000D01*
X218560000Y-23317000D02*
X218560000Y-23293000D01*
X218560000Y-22813000D02*
X218560000Y-22789000D01*
X218560000Y-22309000D02*
X218560000Y-22285000D01*
X218560000Y-21805000D02*
X218560000Y-21781000D01*
X218560000Y-21301000D02*
X218560000Y-21277000D01*
X218560000Y-20797000D02*
X218560000Y-20773000D01*
X218560000Y-20293000D02*
X218560000Y-20269000D01*
X218560000Y-19789000D02*
X218560000Y-19765000D01*
X218560000Y-19285000D02*
X218560000Y-19261000D01*
X218560000Y-18781000D02*
X218560000Y-18757000D01*
X218560000Y-18277000D02*
X218560000Y-18253000D01*
X218560000Y-17773000D02*
X218560000Y-17749000D01*
X218560000Y-17269000D02*
X218560000Y-17245000D01*
X218560000Y-16765000D02*
X218560000Y-16741000D01*
X218560000Y-16261000D02*
X218560000Y-16237000D01*
X218560000Y-15757000D02*
X218560000Y-15733000D01*
X218560000Y-15253000D02*
X218560000Y-15229000D01*
X218560000Y-14749000D02*
X218560000Y-14725000D01*
X218560000Y-14245000D02*
X218560000Y-14221000D01*
X218560000Y-13741000D02*
X218560000Y-13717000D01*
X218560000Y-13237000D02*
X218560000Y-13213000D01*
X218560000Y-12733000D02*
X218560000Y-12709000D01*
%TO.C,F3*%
X157600000Y-3115000D02*
X158920000Y-3115000D01*
X159400000Y-3115000D02*
X160720000Y-3115000D01*
X161200000Y-3115000D02*
X162520000Y-3115000D01*
X163000000Y-3115000D02*
X164320000Y-3115000D01*
X164600000Y-3115000D02*
X164600000Y-4435000D01*
X164600000Y-4915000D02*
X164600000Y-6235000D01*
X164600000Y-6715000D02*
X164600000Y-8035000D01*
X164600000Y-8515000D02*
X164600000Y-9835000D01*
X164600000Y-10315000D02*
X164600000Y-11635000D01*
X164600000Y-12115000D02*
X164600000Y-13435000D01*
X164600000Y-13915000D02*
X164600000Y-15235000D01*
X164600000Y-15715000D02*
X164600000Y-17035000D01*
X164600000Y-17515000D02*
X164600000Y-18835000D01*
X164600000Y-19315000D02*
X164600000Y-20635000D01*
X164600000Y-21115000D02*
X164600000Y-22435000D01*
X164600000Y-22615000D02*
X163280000Y-22615000D01*
X162800000Y-22615000D02*
X161480000Y-22615000D01*
X161000000Y-22615000D02*
X159680000Y-22615000D01*
X159200000Y-22615000D02*
X157880000Y-22615000D01*
X157600000Y-22615000D02*
X157600000Y-21295000D01*
X157600000Y-20815000D02*
X157600000Y-19495000D01*
X157600000Y-19015000D02*
X157600000Y-17695000D01*
X157600000Y-17215000D02*
X157600000Y-15895000D01*
X157600000Y-15415000D02*
X157600000Y-14095000D01*
X157600000Y-13615000D02*
X157600000Y-12295000D01*
X157600000Y-11815000D02*
X157600000Y-10495000D01*
X157600000Y-10015000D02*
X157600000Y-8695000D01*
X157600000Y-8215000D02*
X157600000Y-6895000D01*
X157600000Y-6415000D02*
X157600000Y-5095000D01*
X157600000Y-4615000D02*
X157600000Y-3295000D01*
X157600000Y-12385000D02*
X157624000Y-12385000D01*
X158104000Y-12385000D02*
X158128000Y-12385000D01*
X158608000Y-12385000D02*
X158632000Y-12385000D01*
X159112000Y-12385000D02*
X159136000Y-12385000D01*
X159616000Y-12385000D02*
X159640000Y-12385000D01*
X160120000Y-12385000D02*
X160144000Y-12385000D01*
X160624000Y-12385000D02*
X160648000Y-12385000D01*
X161128000Y-12385000D02*
X161152000Y-12385000D01*
X161632000Y-12385000D02*
X161656000Y-12385000D01*
X162136000Y-12385000D02*
X162160000Y-12385000D01*
X162640000Y-12385000D02*
X162664000Y-12385000D01*
X163144000Y-12385000D02*
X163168000Y-12385000D01*
X163648000Y-12385000D02*
X163672000Y-12385000D01*
X164152000Y-12385000D02*
X164176000Y-12385000D01*
X164600000Y-12385000D02*
X164600000Y-12409000D01*
X164600000Y-12889000D02*
X164600000Y-12913000D01*
X164600000Y-13393000D02*
X164600000Y-13417000D01*
X164600000Y-13897000D02*
X164600000Y-13921000D01*
X164600000Y-14401000D02*
X164600000Y-14425000D01*
X164600000Y-14905000D02*
X164600000Y-14929000D01*
X164600000Y-15409000D02*
X164600000Y-15433000D01*
X164600000Y-15913000D02*
X164600000Y-15937000D01*
X164600000Y-16417000D02*
X164600000Y-16441000D01*
X164600000Y-16921000D02*
X164600000Y-16945000D01*
X164600000Y-17425000D02*
X164600000Y-17449000D01*
X164600000Y-17929000D02*
X164600000Y-17953000D01*
X164600000Y-18433000D02*
X164600000Y-18457000D01*
X164600000Y-18937000D02*
X164600000Y-18961000D01*
X164600000Y-19441000D02*
X164600000Y-19465000D01*
X164600000Y-19945000D02*
X164600000Y-19969000D01*
X164600000Y-20449000D02*
X164600000Y-20473000D01*
X164600000Y-20953000D02*
X164600000Y-20977000D01*
X164600000Y-21457000D02*
X164600000Y-21481000D01*
X164600000Y-21961000D02*
X164600000Y-21985000D01*
X164600000Y-22465000D02*
X164600000Y-22489000D01*
X164600000Y-22969000D02*
X164600000Y-22993000D01*
X164600000Y-23473000D02*
X164600000Y-23497000D01*
X164600000Y-23977000D02*
X164600000Y-24001000D01*
X164600000Y-24481000D02*
X164600000Y-24505000D01*
X164600000Y-24985000D02*
X164600000Y-25009000D01*
X164600000Y-25489000D02*
X164600000Y-25513000D01*
X164600000Y-25993000D02*
X164600000Y-26017000D01*
X164600000Y-26497000D02*
X164600000Y-26521000D01*
X164600000Y-27001000D02*
X164600000Y-27025000D01*
X164600000Y-27505000D02*
X164600000Y-27529000D01*
X164600000Y-28009000D02*
X164600000Y-28033000D01*
X164600000Y-28513000D02*
X164600000Y-28537000D01*
X164600000Y-29017000D02*
X164600000Y-29041000D01*
X164600000Y-29521000D02*
X164600000Y-29545000D01*
X164600000Y-30025000D02*
X164600000Y-30049000D01*
X164600000Y-30529000D02*
X164600000Y-30553000D01*
X164600000Y-31033000D02*
X164600000Y-31057000D01*
X164600000Y-31537000D02*
X164600000Y-31561000D01*
X164600000Y-31885000D02*
X164576000Y-31885000D01*
X164096000Y-31885000D02*
X164072000Y-31885000D01*
X163592000Y-31885000D02*
X163568000Y-31885000D01*
X163088000Y-31885000D02*
X163064000Y-31885000D01*
X162584000Y-31885000D02*
X162560000Y-31885000D01*
X162080000Y-31885000D02*
X162056000Y-31885000D01*
X161576000Y-31885000D02*
X161552000Y-31885000D01*
X161072000Y-31885000D02*
X161048000Y-31885000D01*
X160568000Y-31885000D02*
X160544000Y-31885000D01*
X160064000Y-31885000D02*
X160040000Y-31885000D01*
X159560000Y-31885000D02*
X159536000Y-31885000D01*
X159056000Y-31885000D02*
X159032000Y-31885000D01*
X158552000Y-31885000D02*
X158528000Y-31885000D01*
X158048000Y-31885000D02*
X158024000Y-31885000D01*
X157600000Y-31885000D02*
X157600000Y-31861000D01*
X157600000Y-31381000D02*
X157600000Y-31357000D01*
X157600000Y-30877000D02*
X157600000Y-30853000D01*
X157600000Y-30373000D02*
X157600000Y-30349000D01*
X157600000Y-29869000D02*
X157600000Y-29845000D01*
X157600000Y-29365000D02*
X157600000Y-29341000D01*
X157600000Y-28861000D02*
X157600000Y-28837000D01*
X157600000Y-28357000D02*
X157600000Y-28333000D01*
X157600000Y-27853000D02*
X157600000Y-27829000D01*
X157600000Y-27349000D02*
X157600000Y-27325000D01*
X157600000Y-26845000D02*
X157600000Y-26821000D01*
X157600000Y-26341000D02*
X157600000Y-26317000D01*
X157600000Y-25837000D02*
X157600000Y-25813000D01*
X157600000Y-25333000D02*
X157600000Y-25309000D01*
X157600000Y-24829000D02*
X157600000Y-24805000D01*
X157600000Y-24325000D02*
X157600000Y-24301000D01*
X157600000Y-23821000D02*
X157600000Y-23797000D01*
X157600000Y-23317000D02*
X157600000Y-23293000D01*
X157600000Y-22813000D02*
X157600000Y-22789000D01*
X157600000Y-22309000D02*
X157600000Y-22285000D01*
X157600000Y-21805000D02*
X157600000Y-21781000D01*
X157600000Y-21301000D02*
X157600000Y-21277000D01*
X157600000Y-20797000D02*
X157600000Y-20773000D01*
X157600000Y-20293000D02*
X157600000Y-20269000D01*
X157600000Y-19789000D02*
X157600000Y-19765000D01*
X157600000Y-19285000D02*
X157600000Y-19261000D01*
X157600000Y-18781000D02*
X157600000Y-18757000D01*
X157600000Y-18277000D02*
X157600000Y-18253000D01*
X157600000Y-17773000D02*
X157600000Y-17749000D01*
X157600000Y-17269000D02*
X157600000Y-17245000D01*
X157600000Y-16765000D02*
X157600000Y-16741000D01*
X157600000Y-16261000D02*
X157600000Y-16237000D01*
X157600000Y-15757000D02*
X157600000Y-15733000D01*
X157600000Y-15253000D02*
X157600000Y-15229000D01*
X157600000Y-14749000D02*
X157600000Y-14725000D01*
X157600000Y-14245000D02*
X157600000Y-14221000D01*
X157600000Y-13741000D02*
X157600000Y-13717000D01*
X157600000Y-13237000D02*
X157600000Y-13213000D01*
X157600000Y-12733000D02*
X157600000Y-12709000D01*
%TO.C,J8*%
X168870000Y-65000000D02*
X168870000Y-64500000D01*
X168870000Y-65000000D02*
X183810000Y-65000000D01*
%TO.C,F5*%
X188080000Y-3115000D02*
X189400000Y-3115000D01*
X189880000Y-3115000D02*
X191200000Y-3115000D01*
X191680000Y-3115000D02*
X193000000Y-3115000D01*
X193480000Y-3115000D02*
X194800000Y-3115000D01*
X195080000Y-3115000D02*
X195080000Y-4435000D01*
X195080000Y-4915000D02*
X195080000Y-6235000D01*
X195080000Y-6715000D02*
X195080000Y-8035000D01*
X195080000Y-8515000D02*
X195080000Y-9835000D01*
X195080000Y-10315000D02*
X195080000Y-11635000D01*
X195080000Y-12115000D02*
X195080000Y-13435000D01*
X195080000Y-13915000D02*
X195080000Y-15235000D01*
X195080000Y-15715000D02*
X195080000Y-17035000D01*
X195080000Y-17515000D02*
X195080000Y-18835000D01*
X195080000Y-19315000D02*
X195080000Y-20635000D01*
X195080000Y-21115000D02*
X195080000Y-22435000D01*
X195080000Y-22615000D02*
X193760000Y-22615000D01*
X193280000Y-22615000D02*
X191960000Y-22615000D01*
X191480000Y-22615000D02*
X190160000Y-22615000D01*
X189680000Y-22615000D02*
X188360000Y-22615000D01*
X188080000Y-22615000D02*
X188080000Y-21295000D01*
X188080000Y-20815000D02*
X188080000Y-19495000D01*
X188080000Y-19015000D02*
X188080000Y-17695000D01*
X188080000Y-17215000D02*
X188080000Y-15895000D01*
X188080000Y-15415000D02*
X188080000Y-14095000D01*
X188080000Y-13615000D02*
X188080000Y-12295000D01*
X188080000Y-11815000D02*
X188080000Y-10495000D01*
X188080000Y-10015000D02*
X188080000Y-8695000D01*
X188080000Y-8215000D02*
X188080000Y-6895000D01*
X188080000Y-6415000D02*
X188080000Y-5095000D01*
X188080000Y-4615000D02*
X188080000Y-3295000D01*
X188080000Y-12385000D02*
X188104000Y-12385000D01*
X188584000Y-12385000D02*
X188608000Y-12385000D01*
X189088000Y-12385000D02*
X189112000Y-12385000D01*
X189592000Y-12385000D02*
X189616000Y-12385000D01*
X190096000Y-12385000D02*
X190120000Y-12385000D01*
X190600000Y-12385000D02*
X190624000Y-12385000D01*
X191104000Y-12385000D02*
X191128000Y-12385000D01*
X191608000Y-12385000D02*
X191632000Y-12385000D01*
X192112000Y-12385000D02*
X192136000Y-12385000D01*
X192616000Y-12385000D02*
X192640000Y-12385000D01*
X193120000Y-12385000D02*
X193144000Y-12385000D01*
X193624000Y-12385000D02*
X193648000Y-12385000D01*
X194128000Y-12385000D02*
X194152000Y-12385000D01*
X194632000Y-12385000D02*
X194656000Y-12385000D01*
X195080000Y-12385000D02*
X195080000Y-12409000D01*
X195080000Y-12889000D02*
X195080000Y-12913000D01*
X195080000Y-13393000D02*
X195080000Y-13417000D01*
X195080000Y-13897000D02*
X195080000Y-13921000D01*
X195080000Y-14401000D02*
X195080000Y-14425000D01*
X195080000Y-14905000D02*
X195080000Y-14929000D01*
X195080000Y-15409000D02*
X195080000Y-15433000D01*
X195080000Y-15913000D02*
X195080000Y-15937000D01*
X195080000Y-16417000D02*
X195080000Y-16441000D01*
X195080000Y-16921000D02*
X195080000Y-16945000D01*
X195080000Y-17425000D02*
X195080000Y-17449000D01*
X195080000Y-17929000D02*
X195080000Y-17953000D01*
X195080000Y-18433000D02*
X195080000Y-18457000D01*
X195080000Y-18937000D02*
X195080000Y-18961000D01*
X195080000Y-19441000D02*
X195080000Y-19465000D01*
X195080000Y-19945000D02*
X195080000Y-19969000D01*
X195080000Y-20449000D02*
X195080000Y-20473000D01*
X195080000Y-20953000D02*
X195080000Y-20977000D01*
X195080000Y-21457000D02*
X195080000Y-21481000D01*
X195080000Y-21961000D02*
X195080000Y-21985000D01*
X195080000Y-22465000D02*
X195080000Y-22489000D01*
X195080000Y-22969000D02*
X195080000Y-22993000D01*
X195080000Y-23473000D02*
X195080000Y-23497000D01*
X195080000Y-23977000D02*
X195080000Y-24001000D01*
X195080000Y-24481000D02*
X195080000Y-24505000D01*
X195080000Y-24985000D02*
X195080000Y-25009000D01*
X195080000Y-25489000D02*
X195080000Y-25513000D01*
X195080000Y-25993000D02*
X195080000Y-26017000D01*
X195080000Y-26497000D02*
X195080000Y-26521000D01*
X195080000Y-27001000D02*
X195080000Y-27025000D01*
X195080000Y-27505000D02*
X195080000Y-27529000D01*
X195080000Y-28009000D02*
X195080000Y-28033000D01*
X195080000Y-28513000D02*
X195080000Y-28537000D01*
X195080000Y-29017000D02*
X195080000Y-29041000D01*
X195080000Y-29521000D02*
X195080000Y-29545000D01*
X195080000Y-30025000D02*
X195080000Y-30049000D01*
X195080000Y-30529000D02*
X195080000Y-30553000D01*
X195080000Y-31033000D02*
X195080000Y-31057000D01*
X195080000Y-31537000D02*
X195080000Y-31561000D01*
X195080000Y-31885000D02*
X195056000Y-31885000D01*
X194576000Y-31885000D02*
X194552000Y-31885000D01*
X194072000Y-31885000D02*
X194048000Y-31885000D01*
X193568000Y-31885000D02*
X193544000Y-31885000D01*
X193064000Y-31885000D02*
X193040000Y-31885000D01*
X192560000Y-31885000D02*
X192536000Y-31885000D01*
X192056000Y-31885000D02*
X192032000Y-31885000D01*
X191552000Y-31885000D02*
X191528000Y-31885000D01*
X191048000Y-31885000D02*
X191024000Y-31885000D01*
X190544000Y-31885000D02*
X190520000Y-31885000D01*
X190040000Y-31885000D02*
X190016000Y-31885000D01*
X189536000Y-31885000D02*
X189512000Y-31885000D01*
X189032000Y-31885000D02*
X189008000Y-31885000D01*
X188528000Y-31885000D02*
X188504000Y-31885000D01*
X188080000Y-31885000D02*
X188080000Y-31861000D01*
X188080000Y-31381000D02*
X188080000Y-31357000D01*
X188080000Y-30877000D02*
X188080000Y-30853000D01*
X188080000Y-30373000D02*
X188080000Y-30349000D01*
X188080000Y-29869000D02*
X188080000Y-29845000D01*
X188080000Y-29365000D02*
X188080000Y-29341000D01*
X188080000Y-28861000D02*
X188080000Y-28837000D01*
X188080000Y-28357000D02*
X188080000Y-28333000D01*
X188080000Y-27853000D02*
X188080000Y-27829000D01*
X188080000Y-27349000D02*
X188080000Y-27325000D01*
X188080000Y-26845000D02*
X188080000Y-26821000D01*
X188080000Y-26341000D02*
X188080000Y-26317000D01*
X188080000Y-25837000D02*
X188080000Y-25813000D01*
X188080000Y-25333000D02*
X188080000Y-25309000D01*
X188080000Y-24829000D02*
X188080000Y-24805000D01*
X188080000Y-24325000D02*
X188080000Y-24301000D01*
X188080000Y-23821000D02*
X188080000Y-23797000D01*
X188080000Y-23317000D02*
X188080000Y-23293000D01*
X188080000Y-22813000D02*
X188080000Y-22789000D01*
X188080000Y-22309000D02*
X188080000Y-22285000D01*
X188080000Y-21805000D02*
X188080000Y-21781000D01*
X188080000Y-21301000D02*
X188080000Y-21277000D01*
X188080000Y-20797000D02*
X188080000Y-20773000D01*
X188080000Y-20293000D02*
X188080000Y-20269000D01*
X188080000Y-19789000D02*
X188080000Y-19765000D01*
X188080000Y-19285000D02*
X188080000Y-19261000D01*
X188080000Y-18781000D02*
X188080000Y-18757000D01*
X188080000Y-18277000D02*
X188080000Y-18253000D01*
X188080000Y-17773000D02*
X188080000Y-17749000D01*
X188080000Y-17269000D02*
X188080000Y-17245000D01*
X188080000Y-16765000D02*
X188080000Y-16741000D01*
X188080000Y-16261000D02*
X188080000Y-16237000D01*
X188080000Y-15757000D02*
X188080000Y-15733000D01*
X188080000Y-15253000D02*
X188080000Y-15229000D01*
X188080000Y-14749000D02*
X188080000Y-14725000D01*
X188080000Y-14245000D02*
X188080000Y-14221000D01*
X188080000Y-13741000D02*
X188080000Y-13717000D01*
X188080000Y-13237000D02*
X188080000Y-13213000D01*
X188080000Y-12733000D02*
X188080000Y-12709000D01*
%TO.C,F1*%
X127120000Y-3115000D02*
X128440000Y-3115000D01*
X128920000Y-3115000D02*
X130240000Y-3115000D01*
X130720000Y-3115000D02*
X132040000Y-3115000D01*
X132520000Y-3115000D02*
X133840000Y-3115000D01*
X134120000Y-3115000D02*
X134120000Y-4435000D01*
X134120000Y-4915000D02*
X134120000Y-6235000D01*
X134120000Y-6715000D02*
X134120000Y-8035000D01*
X134120000Y-8515000D02*
X134120000Y-9835000D01*
X134120000Y-10315000D02*
X134120000Y-11635000D01*
X134120000Y-12115000D02*
X134120000Y-13435000D01*
X134120000Y-13915000D02*
X134120000Y-15235000D01*
X134120000Y-15715000D02*
X134120000Y-17035000D01*
X134120000Y-17515000D02*
X134120000Y-18835000D01*
X134120000Y-19315000D02*
X134120000Y-20635000D01*
X134120000Y-21115000D02*
X134120000Y-22435000D01*
X134120000Y-22615000D02*
X132800000Y-22615000D01*
X132320000Y-22615000D02*
X131000000Y-22615000D01*
X130520000Y-22615000D02*
X129200000Y-22615000D01*
X128720000Y-22615000D02*
X127400000Y-22615000D01*
X127120000Y-22615000D02*
X127120000Y-21295000D01*
X127120000Y-20815000D02*
X127120000Y-19495000D01*
X127120000Y-19015000D02*
X127120000Y-17695000D01*
X127120000Y-17215000D02*
X127120000Y-15895000D01*
X127120000Y-15415000D02*
X127120000Y-14095000D01*
X127120000Y-13615000D02*
X127120000Y-12295000D01*
X127120000Y-11815000D02*
X127120000Y-10495000D01*
X127120000Y-10015000D02*
X127120000Y-8695000D01*
X127120000Y-8215000D02*
X127120000Y-6895000D01*
X127120000Y-6415000D02*
X127120000Y-5095000D01*
X127120000Y-4615000D02*
X127120000Y-3295000D01*
X127120000Y-12385000D02*
X127144000Y-12385000D01*
X127624000Y-12385000D02*
X127648000Y-12385000D01*
X128128000Y-12385000D02*
X128152000Y-12385000D01*
X128632000Y-12385000D02*
X128656000Y-12385000D01*
X129136000Y-12385000D02*
X129160000Y-12385000D01*
X129640000Y-12385000D02*
X129664000Y-12385000D01*
X130144000Y-12385000D02*
X130168000Y-12385000D01*
X130648000Y-12385000D02*
X130672000Y-12385000D01*
X131152000Y-12385000D02*
X131176000Y-12385000D01*
X131656000Y-12385000D02*
X131680000Y-12385000D01*
X132160000Y-12385000D02*
X132184000Y-12385000D01*
X132664000Y-12385000D02*
X132688000Y-12385000D01*
X133168000Y-12385000D02*
X133192000Y-12385000D01*
X133672000Y-12385000D02*
X133696000Y-12385000D01*
X134120000Y-12385000D02*
X134120000Y-12409000D01*
X134120000Y-12889000D02*
X134120000Y-12913000D01*
X134120000Y-13393000D02*
X134120000Y-13417000D01*
X134120000Y-13897000D02*
X134120000Y-13921000D01*
X134120000Y-14401000D02*
X134120000Y-14425000D01*
X134120000Y-14905000D02*
X134120000Y-14929000D01*
X134120000Y-15409000D02*
X134120000Y-15433000D01*
X134120000Y-15913000D02*
X134120000Y-15937000D01*
X134120000Y-16417000D02*
X134120000Y-16441000D01*
X134120000Y-16921000D02*
X134120000Y-16945000D01*
X134120000Y-17425000D02*
X134120000Y-17449000D01*
X134120000Y-17929000D02*
X134120000Y-17953000D01*
X134120000Y-18433000D02*
X134120000Y-18457000D01*
X134120000Y-18937000D02*
X134120000Y-18961000D01*
X134120000Y-19441000D02*
X134120000Y-19465000D01*
X134120000Y-19945000D02*
X134120000Y-19969000D01*
X134120000Y-20449000D02*
X134120000Y-20473000D01*
X134120000Y-20953000D02*
X134120000Y-20977000D01*
X134120000Y-21457000D02*
X134120000Y-21481000D01*
X134120000Y-21961000D02*
X134120000Y-21985000D01*
X134120000Y-22465000D02*
X134120000Y-22489000D01*
X134120000Y-22969000D02*
X134120000Y-22993000D01*
X134120000Y-23473000D02*
X134120000Y-23497000D01*
X134120000Y-23977000D02*
X134120000Y-24001000D01*
X134120000Y-24481000D02*
X134120000Y-24505000D01*
X134120000Y-24985000D02*
X134120000Y-25009000D01*
X134120000Y-25489000D02*
X134120000Y-25513000D01*
X134120000Y-25993000D02*
X134120000Y-26017000D01*
X134120000Y-26497000D02*
X134120000Y-26521000D01*
X134120000Y-27001000D02*
X134120000Y-27025000D01*
X134120000Y-27505000D02*
X134120000Y-27529000D01*
X134120000Y-28009000D02*
X134120000Y-28033000D01*
X134120000Y-28513000D02*
X134120000Y-28537000D01*
X134120000Y-29017000D02*
X134120000Y-29041000D01*
X134120000Y-29521000D02*
X134120000Y-29545000D01*
X134120000Y-30025000D02*
X134120000Y-30049000D01*
X134120000Y-30529000D02*
X134120000Y-30553000D01*
X134120000Y-31033000D02*
X134120000Y-31057000D01*
X134120000Y-31537000D02*
X134120000Y-31561000D01*
X134120000Y-31885000D02*
X134096000Y-31885000D01*
X133616000Y-31885000D02*
X133592000Y-31885000D01*
X133112000Y-31885000D02*
X133088000Y-31885000D01*
X132608000Y-31885000D02*
X132584000Y-31885000D01*
X132104000Y-31885000D02*
X132080000Y-31885000D01*
X131600000Y-31885000D02*
X131576000Y-31885000D01*
X131096000Y-31885000D02*
X131072000Y-31885000D01*
X130592000Y-31885000D02*
X130568000Y-31885000D01*
X130088000Y-31885000D02*
X130064000Y-31885000D01*
X129584000Y-31885000D02*
X129560000Y-31885000D01*
X129080000Y-31885000D02*
X129056000Y-31885000D01*
X128576000Y-31885000D02*
X128552000Y-31885000D01*
X128072000Y-31885000D02*
X128048000Y-31885000D01*
X127568000Y-31885000D02*
X127544000Y-31885000D01*
X127120000Y-31885000D02*
X127120000Y-31861000D01*
X127120000Y-31381000D02*
X127120000Y-31357000D01*
X127120000Y-30877000D02*
X127120000Y-30853000D01*
X127120000Y-30373000D02*
X127120000Y-30349000D01*
X127120000Y-29869000D02*
X127120000Y-29845000D01*
X127120000Y-29365000D02*
X127120000Y-29341000D01*
X127120000Y-28861000D02*
X127120000Y-28837000D01*
X127120000Y-28357000D02*
X127120000Y-28333000D01*
X127120000Y-27853000D02*
X127120000Y-27829000D01*
X127120000Y-27349000D02*
X127120000Y-27325000D01*
X127120000Y-26845000D02*
X127120000Y-26821000D01*
X127120000Y-26341000D02*
X127120000Y-26317000D01*
X127120000Y-25837000D02*
X127120000Y-25813000D01*
X127120000Y-25333000D02*
X127120000Y-25309000D01*
X127120000Y-24829000D02*
X127120000Y-24805000D01*
X127120000Y-24325000D02*
X127120000Y-24301000D01*
X127120000Y-23821000D02*
X127120000Y-23797000D01*
X127120000Y-23317000D02*
X127120000Y-23293000D01*
X127120000Y-22813000D02*
X127120000Y-22789000D01*
X127120000Y-22309000D02*
X127120000Y-22285000D01*
X127120000Y-21805000D02*
X127120000Y-21781000D01*
X127120000Y-21301000D02*
X127120000Y-21277000D01*
X127120000Y-20797000D02*
X127120000Y-20773000D01*
X127120000Y-20293000D02*
X127120000Y-20269000D01*
X127120000Y-19789000D02*
X127120000Y-19765000D01*
X127120000Y-19285000D02*
X127120000Y-19261000D01*
X127120000Y-18781000D02*
X127120000Y-18757000D01*
X127120000Y-18277000D02*
X127120000Y-18253000D01*
X127120000Y-17773000D02*
X127120000Y-17749000D01*
X127120000Y-17269000D02*
X127120000Y-17245000D01*
X127120000Y-16765000D02*
X127120000Y-16741000D01*
X127120000Y-16261000D02*
X127120000Y-16237000D01*
X127120000Y-15757000D02*
X127120000Y-15733000D01*
X127120000Y-15253000D02*
X127120000Y-15229000D01*
X127120000Y-14749000D02*
X127120000Y-14725000D01*
X127120000Y-14245000D02*
X127120000Y-14221000D01*
X127120000Y-13741000D02*
X127120000Y-13717000D01*
X127120000Y-13237000D02*
X127120000Y-13213000D01*
X127120000Y-12733000D02*
X127120000Y-12709000D01*
%TO.C,F2*%
X142360000Y-3115000D02*
X143680000Y-3115000D01*
X144160000Y-3115000D02*
X145480000Y-3115000D01*
X145960000Y-3115000D02*
X147280000Y-3115000D01*
X147760000Y-3115000D02*
X149080000Y-3115000D01*
X149360000Y-3115000D02*
X149360000Y-4435000D01*
X149360000Y-4915000D02*
X149360000Y-6235000D01*
X149360000Y-6715000D02*
X149360000Y-8035000D01*
X149360000Y-8515000D02*
X149360000Y-9835000D01*
X149360000Y-10315000D02*
X149360000Y-11635000D01*
X149360000Y-12115000D02*
X149360000Y-13435000D01*
X149360000Y-13915000D02*
X149360000Y-15235000D01*
X149360000Y-15715000D02*
X149360000Y-17035000D01*
X149360000Y-17515000D02*
X149360000Y-18835000D01*
X149360000Y-19315000D02*
X149360000Y-20635000D01*
X149360000Y-21115000D02*
X149360000Y-22435000D01*
X149360000Y-22615000D02*
X148040000Y-22615000D01*
X147560000Y-22615000D02*
X146240000Y-22615000D01*
X145760000Y-22615000D02*
X144440000Y-22615000D01*
X143960000Y-22615000D02*
X142640000Y-22615000D01*
X142360000Y-22615000D02*
X142360000Y-21295000D01*
X142360000Y-20815000D02*
X142360000Y-19495000D01*
X142360000Y-19015000D02*
X142360000Y-17695000D01*
X142360000Y-17215000D02*
X142360000Y-15895000D01*
X142360000Y-15415000D02*
X142360000Y-14095000D01*
X142360000Y-13615000D02*
X142360000Y-12295000D01*
X142360000Y-11815000D02*
X142360000Y-10495000D01*
X142360000Y-10015000D02*
X142360000Y-8695000D01*
X142360000Y-8215000D02*
X142360000Y-6895000D01*
X142360000Y-6415000D02*
X142360000Y-5095000D01*
X142360000Y-4615000D02*
X142360000Y-3295000D01*
X142360000Y-12385000D02*
X142384000Y-12385000D01*
X142864000Y-12385000D02*
X142888000Y-12385000D01*
X143368000Y-12385000D02*
X143392000Y-12385000D01*
X143872000Y-12385000D02*
X143896000Y-12385000D01*
X144376000Y-12385000D02*
X144400000Y-12385000D01*
X144880000Y-12385000D02*
X144904000Y-12385000D01*
X145384000Y-12385000D02*
X145408000Y-12385000D01*
X145888000Y-12385000D02*
X145912000Y-12385000D01*
X146392000Y-12385000D02*
X146416000Y-12385000D01*
X146896000Y-12385000D02*
X146920000Y-12385000D01*
X147400000Y-12385000D02*
X147424000Y-12385000D01*
X147904000Y-12385000D02*
X147928000Y-12385000D01*
X148408000Y-12385000D02*
X148432000Y-12385000D01*
X148912000Y-12385000D02*
X148936000Y-12385000D01*
X149360000Y-12385000D02*
X149360000Y-12409000D01*
X149360000Y-12889000D02*
X149360000Y-12913000D01*
X149360000Y-13393000D02*
X149360000Y-13417000D01*
X149360000Y-13897000D02*
X149360000Y-13921000D01*
X149360000Y-14401000D02*
X149360000Y-14425000D01*
X149360000Y-14905000D02*
X149360000Y-14929000D01*
X149360000Y-15409000D02*
X149360000Y-15433000D01*
X149360000Y-15913000D02*
X149360000Y-15937000D01*
X149360000Y-16417000D02*
X149360000Y-16441000D01*
X149360000Y-16921000D02*
X149360000Y-16945000D01*
X149360000Y-17425000D02*
X149360000Y-17449000D01*
X149360000Y-17929000D02*
X149360000Y-17953000D01*
X149360000Y-18433000D02*
X149360000Y-18457000D01*
X149360000Y-18937000D02*
X149360000Y-18961000D01*
X149360000Y-19441000D02*
X149360000Y-19465000D01*
X149360000Y-19945000D02*
X149360000Y-19969000D01*
X149360000Y-20449000D02*
X149360000Y-20473000D01*
X149360000Y-20953000D02*
X149360000Y-20977000D01*
X149360000Y-21457000D02*
X149360000Y-21481000D01*
X149360000Y-21961000D02*
X149360000Y-21985000D01*
X149360000Y-22465000D02*
X149360000Y-22489000D01*
X149360000Y-22969000D02*
X149360000Y-22993000D01*
X149360000Y-23473000D02*
X149360000Y-23497000D01*
X149360000Y-23977000D02*
X149360000Y-24001000D01*
X149360000Y-24481000D02*
X149360000Y-24505000D01*
X149360000Y-24985000D02*
X149360000Y-25009000D01*
X149360000Y-25489000D02*
X149360000Y-25513000D01*
X149360000Y-25993000D02*
X149360000Y-26017000D01*
X149360000Y-26497000D02*
X149360000Y-26521000D01*
X149360000Y-27001000D02*
X149360000Y-27025000D01*
X149360000Y-27505000D02*
X149360000Y-27529000D01*
X149360000Y-28009000D02*
X149360000Y-28033000D01*
X149360000Y-28513000D02*
X149360000Y-28537000D01*
X149360000Y-29017000D02*
X149360000Y-29041000D01*
X149360000Y-29521000D02*
X149360000Y-29545000D01*
X149360000Y-30025000D02*
X149360000Y-30049000D01*
X149360000Y-30529000D02*
X149360000Y-30553000D01*
X149360000Y-31033000D02*
X149360000Y-31057000D01*
X149360000Y-31537000D02*
X149360000Y-31561000D01*
X149360000Y-31885000D02*
X149336000Y-31885000D01*
X148856000Y-31885000D02*
X148832000Y-31885000D01*
X148352000Y-31885000D02*
X148328000Y-31885000D01*
X147848000Y-31885000D02*
X147824000Y-31885000D01*
X147344000Y-31885000D02*
X147320000Y-31885000D01*
X146840000Y-31885000D02*
X146816000Y-31885000D01*
X146336000Y-31885000D02*
X146312000Y-31885000D01*
X145832000Y-31885000D02*
X145808000Y-31885000D01*
X145328000Y-31885000D02*
X145304000Y-31885000D01*
X144824000Y-31885000D02*
X144800000Y-31885000D01*
X144320000Y-31885000D02*
X144296000Y-31885000D01*
X143816000Y-31885000D02*
X143792000Y-31885000D01*
X143312000Y-31885000D02*
X143288000Y-31885000D01*
X142808000Y-31885000D02*
X142784000Y-31885000D01*
X142360000Y-31885000D02*
X142360000Y-31861000D01*
X142360000Y-31381000D02*
X142360000Y-31357000D01*
X142360000Y-30877000D02*
X142360000Y-30853000D01*
X142360000Y-30373000D02*
X142360000Y-30349000D01*
X142360000Y-29869000D02*
X142360000Y-29845000D01*
X142360000Y-29365000D02*
X142360000Y-29341000D01*
X142360000Y-28861000D02*
X142360000Y-28837000D01*
X142360000Y-28357000D02*
X142360000Y-28333000D01*
X142360000Y-27853000D02*
X142360000Y-27829000D01*
X142360000Y-27349000D02*
X142360000Y-27325000D01*
X142360000Y-26845000D02*
X142360000Y-26821000D01*
X142360000Y-26341000D02*
X142360000Y-26317000D01*
X142360000Y-25837000D02*
X142360000Y-25813000D01*
X142360000Y-25333000D02*
X142360000Y-25309000D01*
X142360000Y-24829000D02*
X142360000Y-24805000D01*
X142360000Y-24325000D02*
X142360000Y-24301000D01*
X142360000Y-23821000D02*
X142360000Y-23797000D01*
X142360000Y-23317000D02*
X142360000Y-23293000D01*
X142360000Y-22813000D02*
X142360000Y-22789000D01*
X142360000Y-22309000D02*
X142360000Y-22285000D01*
X142360000Y-21805000D02*
X142360000Y-21781000D01*
X142360000Y-21301000D02*
X142360000Y-21277000D01*
X142360000Y-20797000D02*
X142360000Y-20773000D01*
X142360000Y-20293000D02*
X142360000Y-20269000D01*
X142360000Y-19789000D02*
X142360000Y-19765000D01*
X142360000Y-19285000D02*
X142360000Y-19261000D01*
X142360000Y-18781000D02*
X142360000Y-18757000D01*
X142360000Y-18277000D02*
X142360000Y-18253000D01*
X142360000Y-17773000D02*
X142360000Y-17749000D01*
X142360000Y-17269000D02*
X142360000Y-17245000D01*
X142360000Y-16765000D02*
X142360000Y-16741000D01*
X142360000Y-16261000D02*
X142360000Y-16237000D01*
X142360000Y-15757000D02*
X142360000Y-15733000D01*
X142360000Y-15253000D02*
X142360000Y-15229000D01*
X142360000Y-14749000D02*
X142360000Y-14725000D01*
X142360000Y-14245000D02*
X142360000Y-14221000D01*
X142360000Y-13741000D02*
X142360000Y-13717000D01*
X142360000Y-13237000D02*
X142360000Y-13213000D01*
X142360000Y-12733000D02*
X142360000Y-12709000D01*
%TO.C,J10*%
X199350000Y-65000000D02*
X199350000Y-64500000D01*
X199350000Y-65000000D02*
X214290000Y-65000000D01*
%TO.C,F6*%
X203320000Y-3115000D02*
X204640000Y-3115000D01*
X205120000Y-3115000D02*
X206440000Y-3115000D01*
X206920000Y-3115000D02*
X208240000Y-3115000D01*
X208720000Y-3115000D02*
X210040000Y-3115000D01*
X210320000Y-3115000D02*
X210320000Y-4435000D01*
X210320000Y-4915000D02*
X210320000Y-6235000D01*
X210320000Y-6715000D02*
X210320000Y-8035000D01*
X210320000Y-8515000D02*
X210320000Y-9835000D01*
X210320000Y-10315000D02*
X210320000Y-11635000D01*
X210320000Y-12115000D02*
X210320000Y-13435000D01*
X210320000Y-13915000D02*
X210320000Y-15235000D01*
X210320000Y-15715000D02*
X210320000Y-17035000D01*
X210320000Y-17515000D02*
X210320000Y-18835000D01*
X210320000Y-19315000D02*
X210320000Y-20635000D01*
X210320000Y-21115000D02*
X210320000Y-22435000D01*
X210320000Y-22615000D02*
X209000000Y-22615000D01*
X208520000Y-22615000D02*
X207200000Y-22615000D01*
X206720000Y-22615000D02*
X205400000Y-22615000D01*
X204920000Y-22615000D02*
X203600000Y-22615000D01*
X203320000Y-22615000D02*
X203320000Y-21295000D01*
X203320000Y-20815000D02*
X203320000Y-19495000D01*
X203320000Y-19015000D02*
X203320000Y-17695000D01*
X203320000Y-17215000D02*
X203320000Y-15895000D01*
X203320000Y-15415000D02*
X203320000Y-14095000D01*
X203320000Y-13615000D02*
X203320000Y-12295000D01*
X203320000Y-11815000D02*
X203320000Y-10495000D01*
X203320000Y-10015000D02*
X203320000Y-8695000D01*
X203320000Y-8215000D02*
X203320000Y-6895000D01*
X203320000Y-6415000D02*
X203320000Y-5095000D01*
X203320000Y-4615000D02*
X203320000Y-3295000D01*
X203320000Y-12385000D02*
X203344000Y-12385000D01*
X203824000Y-12385000D02*
X203848000Y-12385000D01*
X204328000Y-12385000D02*
X204352000Y-12385000D01*
X204832000Y-12385000D02*
X204856000Y-12385000D01*
X205336000Y-12385000D02*
X205360000Y-12385000D01*
X205840000Y-12385000D02*
X205864000Y-12385000D01*
X206344000Y-12385000D02*
X206368000Y-12385000D01*
X206848000Y-12385000D02*
X206872000Y-12385000D01*
X207352000Y-12385000D02*
X207376000Y-12385000D01*
X207856000Y-12385000D02*
X207880000Y-12385000D01*
X208360000Y-12385000D02*
X208384000Y-12385000D01*
X208864000Y-12385000D02*
X208888000Y-12385000D01*
X209368000Y-12385000D02*
X209392000Y-12385000D01*
X209872000Y-12385000D02*
X209896000Y-12385000D01*
X210320000Y-12385000D02*
X210320000Y-12409000D01*
X210320000Y-12889000D02*
X210320000Y-12913000D01*
X210320000Y-13393000D02*
X210320000Y-13417000D01*
X210320000Y-13897000D02*
X210320000Y-13921000D01*
X210320000Y-14401000D02*
X210320000Y-14425000D01*
X210320000Y-14905000D02*
X210320000Y-14929000D01*
X210320000Y-15409000D02*
X210320000Y-15433000D01*
X210320000Y-15913000D02*
X210320000Y-15937000D01*
X210320000Y-16417000D02*
X210320000Y-16441000D01*
X210320000Y-16921000D02*
X210320000Y-16945000D01*
X210320000Y-17425000D02*
X210320000Y-17449000D01*
X210320000Y-17929000D02*
X210320000Y-17953000D01*
X210320000Y-18433000D02*
X210320000Y-18457000D01*
X210320000Y-18937000D02*
X210320000Y-18961000D01*
X210320000Y-19441000D02*
X210320000Y-19465000D01*
X210320000Y-19945000D02*
X210320000Y-19969000D01*
X210320000Y-20449000D02*
X210320000Y-20473000D01*
X210320000Y-20953000D02*
X210320000Y-20977000D01*
X210320000Y-21457000D02*
X210320000Y-21481000D01*
X210320000Y-21961000D02*
X210320000Y-21985000D01*
X210320000Y-22465000D02*
X210320000Y-22489000D01*
X210320000Y-22969000D02*
X210320000Y-22993000D01*
X210320000Y-23473000D02*
X210320000Y-23497000D01*
X210320000Y-23977000D02*
X210320000Y-24001000D01*
X210320000Y-24481000D02*
X210320000Y-24505000D01*
X210320000Y-24985000D02*
X210320000Y-25009000D01*
X210320000Y-25489000D02*
X210320000Y-25513000D01*
X210320000Y-25993000D02*
X210320000Y-26017000D01*
X210320000Y-26497000D02*
X210320000Y-26521000D01*
X210320000Y-27001000D02*
X210320000Y-27025000D01*
X210320000Y-27505000D02*
X210320000Y-27529000D01*
X210320000Y-28009000D02*
X210320000Y-28033000D01*
X210320000Y-28513000D02*
X210320000Y-28537000D01*
X210320000Y-29017000D02*
X210320000Y-29041000D01*
X210320000Y-29521000D02*
X210320000Y-29545000D01*
X210320000Y-30025000D02*
X210320000Y-30049000D01*
X210320000Y-30529000D02*
X210320000Y-30553000D01*
X210320000Y-31033000D02*
X210320000Y-31057000D01*
X210320000Y-31537000D02*
X210320000Y-31561000D01*
X210320000Y-31885000D02*
X210296000Y-31885000D01*
X209816000Y-31885000D02*
X209792000Y-31885000D01*
X209312000Y-31885000D02*
X209288000Y-31885000D01*
X208808000Y-31885000D02*
X208784000Y-31885000D01*
X208304000Y-31885000D02*
X208280000Y-31885000D01*
X207800000Y-31885000D02*
X207776000Y-31885000D01*
X207296000Y-31885000D02*
X207272000Y-31885000D01*
X206792000Y-31885000D02*
X206768000Y-31885000D01*
X206288000Y-31885000D02*
X206264000Y-31885000D01*
X205784000Y-31885000D02*
X205760000Y-31885000D01*
X205280000Y-31885000D02*
X205256000Y-31885000D01*
X204776000Y-31885000D02*
X204752000Y-31885000D01*
X204272000Y-31885000D02*
X204248000Y-31885000D01*
X203768000Y-31885000D02*
X203744000Y-31885000D01*
X203320000Y-31885000D02*
X203320000Y-31861000D01*
X203320000Y-31381000D02*
X203320000Y-31357000D01*
X203320000Y-30877000D02*
X203320000Y-30853000D01*
X203320000Y-30373000D02*
X203320000Y-30349000D01*
X203320000Y-29869000D02*
X203320000Y-29845000D01*
X203320000Y-29365000D02*
X203320000Y-29341000D01*
X203320000Y-28861000D02*
X203320000Y-28837000D01*
X203320000Y-28357000D02*
X203320000Y-28333000D01*
X203320000Y-27853000D02*
X203320000Y-27829000D01*
X203320000Y-27349000D02*
X203320000Y-27325000D01*
X203320000Y-26845000D02*
X203320000Y-26821000D01*
X203320000Y-26341000D02*
X203320000Y-26317000D01*
X203320000Y-25837000D02*
X203320000Y-25813000D01*
X203320000Y-25333000D02*
X203320000Y-25309000D01*
X203320000Y-24829000D02*
X203320000Y-24805000D01*
X203320000Y-24325000D02*
X203320000Y-24301000D01*
X203320000Y-23821000D02*
X203320000Y-23797000D01*
X203320000Y-23317000D02*
X203320000Y-23293000D01*
X203320000Y-22813000D02*
X203320000Y-22789000D01*
X203320000Y-22309000D02*
X203320000Y-22285000D01*
X203320000Y-21805000D02*
X203320000Y-21781000D01*
X203320000Y-21301000D02*
X203320000Y-21277000D01*
X203320000Y-20797000D02*
X203320000Y-20773000D01*
X203320000Y-20293000D02*
X203320000Y-20269000D01*
X203320000Y-19789000D02*
X203320000Y-19765000D01*
X203320000Y-19285000D02*
X203320000Y-19261000D01*
X203320000Y-18781000D02*
X203320000Y-18757000D01*
X203320000Y-18277000D02*
X203320000Y-18253000D01*
X203320000Y-17773000D02*
X203320000Y-17749000D01*
X203320000Y-17269000D02*
X203320000Y-17245000D01*
X203320000Y-16765000D02*
X203320000Y-16741000D01*
X203320000Y-16261000D02*
X203320000Y-16237000D01*
X203320000Y-15757000D02*
X203320000Y-15733000D01*
X203320000Y-15253000D02*
X203320000Y-15229000D01*
X203320000Y-14749000D02*
X203320000Y-14725000D01*
X203320000Y-14245000D02*
X203320000Y-14221000D01*
X203320000Y-13741000D02*
X203320000Y-13717000D01*
X203320000Y-13237000D02*
X203320000Y-13213000D01*
X203320000Y-12733000D02*
X203320000Y-12709000D01*
%TO.C,J7*%
X153630000Y-65000000D02*
X153630000Y-64500000D01*
X153630000Y-65000000D02*
X168570000Y-65000000D01*
%TO.C,J5*%
X32120000Y-62620000D02*
X33500000Y-62620000D01*
X32120000Y-64000000D02*
X32120000Y-62620000D01*
X32120000Y-65270000D02*
X32120000Y-73000000D01*
X32120000Y-65270000D02*
X34880000Y-65270000D01*
X32120000Y-73000000D02*
X34880000Y-73000000D01*
X34880000Y-65270000D02*
X34880000Y-73000000D01*
%TO.C,SW1*%
X9270000Y-26770000D02*
X15730000Y-26770000D01*
X9270000Y-26800000D02*
X9270000Y-26770000D01*
X9270000Y-28700000D02*
X9270000Y-31300000D01*
X9270000Y-33230000D02*
X9270000Y-33200000D01*
X9270000Y-33230000D02*
X15730000Y-33230000D01*
X15730000Y-26770000D02*
X15730000Y-26800000D01*
X15730000Y-28700000D02*
X15730000Y-31300000D01*
X15730000Y-33230000D02*
X15730000Y-33200000D01*
%TO.C,J6*%
X138390000Y-65000000D02*
X138390000Y-64500000D01*
X138390000Y-65000000D02*
X153330000Y-65000000D01*
%TO.C,F8*%
X233800000Y-3115000D02*
X235120000Y-3115000D01*
X235600000Y-3115000D02*
X236920000Y-3115000D01*
X237400000Y-3115000D02*
X238720000Y-3115000D01*
X239200000Y-3115000D02*
X240520000Y-3115000D01*
X240800000Y-3115000D02*
X240800000Y-4435000D01*
X240800000Y-4915000D02*
X240800000Y-6235000D01*
X240800000Y-6715000D02*
X240800000Y-8035000D01*
X240800000Y-8515000D02*
X240800000Y-9835000D01*
X240800000Y-10315000D02*
X240800000Y-11635000D01*
X240800000Y-12115000D02*
X240800000Y-13435000D01*
X240800000Y-13915000D02*
X240800000Y-15235000D01*
X240800000Y-15715000D02*
X240800000Y-17035000D01*
X240800000Y-17515000D02*
X240800000Y-18835000D01*
X240800000Y-19315000D02*
X240800000Y-20635000D01*
X240800000Y-21115000D02*
X240800000Y-22435000D01*
X240800000Y-22615000D02*
X239480000Y-22615000D01*
X239000000Y-22615000D02*
X237680000Y-22615000D01*
X237200000Y-22615000D02*
X235880000Y-22615000D01*
X235400000Y-22615000D02*
X234080000Y-22615000D01*
X233800000Y-22615000D02*
X233800000Y-21295000D01*
X233800000Y-20815000D02*
X233800000Y-19495000D01*
X233800000Y-19015000D02*
X233800000Y-17695000D01*
X233800000Y-17215000D02*
X233800000Y-15895000D01*
X233800000Y-15415000D02*
X233800000Y-14095000D01*
X233800000Y-13615000D02*
X233800000Y-12295000D01*
X233800000Y-11815000D02*
X233800000Y-10495000D01*
X233800000Y-10015000D02*
X233800000Y-8695000D01*
X233800000Y-8215000D02*
X233800000Y-6895000D01*
X233800000Y-6415000D02*
X233800000Y-5095000D01*
X233800000Y-4615000D02*
X233800000Y-3295000D01*
X233800000Y-12385000D02*
X233824000Y-12385000D01*
X234304000Y-12385000D02*
X234328000Y-12385000D01*
X234808000Y-12385000D02*
X234832000Y-12385000D01*
X235312000Y-12385000D02*
X235336000Y-12385000D01*
X235816000Y-12385000D02*
X235840000Y-12385000D01*
X236320000Y-12385000D02*
X236344000Y-12385000D01*
X236824000Y-12385000D02*
X236848000Y-12385000D01*
X237328000Y-12385000D02*
X237352000Y-12385000D01*
X237832000Y-12385000D02*
X237856000Y-12385000D01*
X238336000Y-12385000D02*
X238360000Y-12385000D01*
X238840000Y-12385000D02*
X238864000Y-12385000D01*
X239344000Y-12385000D02*
X239368000Y-12385000D01*
X239848000Y-12385000D02*
X239872000Y-12385000D01*
X240352000Y-12385000D02*
X240376000Y-12385000D01*
X240800000Y-12385000D02*
X240800000Y-12409000D01*
X240800000Y-12889000D02*
X240800000Y-12913000D01*
X240800000Y-13393000D02*
X240800000Y-13417000D01*
X240800000Y-13897000D02*
X240800000Y-13921000D01*
X240800000Y-14401000D02*
X240800000Y-14425000D01*
X240800000Y-14905000D02*
X240800000Y-14929000D01*
X240800000Y-15409000D02*
X240800000Y-15433000D01*
X240800000Y-15913000D02*
X240800000Y-15937000D01*
X240800000Y-16417000D02*
X240800000Y-16441000D01*
X240800000Y-16921000D02*
X240800000Y-16945000D01*
X240800000Y-17425000D02*
X240800000Y-17449000D01*
X240800000Y-17929000D02*
X240800000Y-17953000D01*
X240800000Y-18433000D02*
X240800000Y-18457000D01*
X240800000Y-18937000D02*
X240800000Y-18961000D01*
X240800000Y-19441000D02*
X240800000Y-19465000D01*
X240800000Y-19945000D02*
X240800000Y-19969000D01*
X240800000Y-20449000D02*
X240800000Y-20473000D01*
X240800000Y-20953000D02*
X240800000Y-20977000D01*
X240800000Y-21457000D02*
X240800000Y-21481000D01*
X240800000Y-21961000D02*
X240800000Y-21985000D01*
X240800000Y-22465000D02*
X240800000Y-22489000D01*
X240800000Y-22969000D02*
X240800000Y-22993000D01*
X240800000Y-23473000D02*
X240800000Y-23497000D01*
X240800000Y-23977000D02*
X240800000Y-24001000D01*
X240800000Y-24481000D02*
X240800000Y-24505000D01*
X240800000Y-24985000D02*
X240800000Y-25009000D01*
X240800000Y-25489000D02*
X240800000Y-25513000D01*
X240800000Y-25993000D02*
X240800000Y-26017000D01*
X240800000Y-26497000D02*
X240800000Y-26521000D01*
X240800000Y-27001000D02*
X240800000Y-27025000D01*
X240800000Y-27505000D02*
X240800000Y-27529000D01*
X240800000Y-28009000D02*
X240800000Y-28033000D01*
X240800000Y-28513000D02*
X240800000Y-28537000D01*
X240800000Y-29017000D02*
X240800000Y-29041000D01*
X240800000Y-29521000D02*
X240800000Y-29545000D01*
X240800000Y-30025000D02*
X240800000Y-30049000D01*
X240800000Y-30529000D02*
X240800000Y-30553000D01*
X240800000Y-31033000D02*
X240800000Y-31057000D01*
X240800000Y-31537000D02*
X240800000Y-31561000D01*
X240800000Y-31885000D02*
X240776000Y-31885000D01*
X240296000Y-31885000D02*
X240272000Y-31885000D01*
X239792000Y-31885000D02*
X239768000Y-31885000D01*
X239288000Y-31885000D02*
X239264000Y-31885000D01*
X238784000Y-31885000D02*
X238760000Y-31885000D01*
X238280000Y-31885000D02*
X238256000Y-31885000D01*
X237776000Y-31885000D02*
X237752000Y-31885000D01*
X237272000Y-31885000D02*
X237248000Y-31885000D01*
X236768000Y-31885000D02*
X236744000Y-31885000D01*
X236264000Y-31885000D02*
X236240000Y-31885000D01*
X235760000Y-31885000D02*
X235736000Y-31885000D01*
X235256000Y-31885000D02*
X235232000Y-31885000D01*
X234752000Y-31885000D02*
X234728000Y-31885000D01*
X234248000Y-31885000D02*
X234224000Y-31885000D01*
X233800000Y-31885000D02*
X233800000Y-31861000D01*
X233800000Y-31381000D02*
X233800000Y-31357000D01*
X233800000Y-30877000D02*
X233800000Y-30853000D01*
X233800000Y-30373000D02*
X233800000Y-30349000D01*
X233800000Y-29869000D02*
X233800000Y-29845000D01*
X233800000Y-29365000D02*
X233800000Y-29341000D01*
X233800000Y-28861000D02*
X233800000Y-28837000D01*
X233800000Y-28357000D02*
X233800000Y-28333000D01*
X233800000Y-27853000D02*
X233800000Y-27829000D01*
X233800000Y-27349000D02*
X233800000Y-27325000D01*
X233800000Y-26845000D02*
X233800000Y-26821000D01*
X233800000Y-26341000D02*
X233800000Y-26317000D01*
X233800000Y-25837000D02*
X233800000Y-25813000D01*
X233800000Y-25333000D02*
X233800000Y-25309000D01*
X233800000Y-24829000D02*
X233800000Y-24805000D01*
X233800000Y-24325000D02*
X233800000Y-24301000D01*
X233800000Y-23821000D02*
X233800000Y-23797000D01*
X233800000Y-23317000D02*
X233800000Y-23293000D01*
X233800000Y-22813000D02*
X233800000Y-22789000D01*
X233800000Y-22309000D02*
X233800000Y-22285000D01*
X233800000Y-21805000D02*
X233800000Y-21781000D01*
X233800000Y-21301000D02*
X233800000Y-21277000D01*
X233800000Y-20797000D02*
X233800000Y-20773000D01*
X233800000Y-20293000D02*
X233800000Y-20269000D01*
X233800000Y-19789000D02*
X233800000Y-19765000D01*
X233800000Y-19285000D02*
X233800000Y-19261000D01*
X233800000Y-18781000D02*
X233800000Y-18757000D01*
X233800000Y-18277000D02*
X233800000Y-18253000D01*
X233800000Y-17773000D02*
X233800000Y-17749000D01*
X233800000Y-17269000D02*
X233800000Y-17245000D01*
X233800000Y-16765000D02*
X233800000Y-16741000D01*
X233800000Y-16261000D02*
X233800000Y-16237000D01*
X233800000Y-15757000D02*
X233800000Y-15733000D01*
X233800000Y-15253000D02*
X233800000Y-15229000D01*
X233800000Y-14749000D02*
X233800000Y-14725000D01*
X233800000Y-14245000D02*
X233800000Y-14221000D01*
X233800000Y-13741000D02*
X233800000Y-13717000D01*
X233800000Y-13237000D02*
X233800000Y-13213000D01*
X233800000Y-12733000D02*
X233800000Y-12709000D01*
%TD*%
M02*
