#VRML V2.0 utf8
# eswitch generated model Fuseholder_ATO_3pos_Keystone_3557
Shape { appearance Appearance { material Material { diffuseColor 0.80 0.80 0.78 specularColor 0.3 0.3 0.3 shininess 0.3 } } geometry IndexedFaceSet { solid FALSE coord Coordinate { point [ -0.7480 2.9409 0.0000, 0.7480 2.9409 0.0000, 0.7480 4.7913 0.0000, -0.7480 4.7913 0.0000, -0.7480 2.9409 4.0157, 0.7480 2.9409 4.0157, 0.7480 4.7913 4.0157, -0.7480 4.7913 4.0157, ] } coordIndex [ 0 3 2 1 -1, 4 5 6 7 -1, 0 1 5 4 -1, 1 2 6 5 -1, 2 3 7 6 -1, 3 0 4 7 -1, ] } }
Shape { appearance Appearance { material Material { diffuseColor 0.80 0.80 0.78 specularColor 0.3 0.3 0.3 shininess 0.3 } } geometry IndexedFaceSet { solid FALSE coord Coordinate { point [ -0.7480 2.9409 4.0157, -0.5906 2.9409 4.0157, -0.5906 4.7913 4.0157, -0.7480 4.7913 4.0157, -0.7480 2.9409 4.1732, -0.5906 2.9409 4.1732, -0.5906 4.7913 4.1732, -0.7480 4.7913 4.1732, ] } coordIndex [ 0 3 2 1 -1, 4 5 6 7 -1, 0 1 5 4 -1, 1 2 6 5 -1, 2 3 7 6 -1, 3 0 4 7 -1, ] } }
Shape { appearance Appearance { material Material { diffuseColor 0.80 0.80 0.78 specularColor 0.3 0.3 0.3 shininess 0.3 } } geometry IndexedFaceSet { solid FALSE coord Coordinate { point [ 0.5906 2.9409 4.0157, 0.7480 2.9409 4.0157, 0.7480 4.7913 4.0157, 0.5906 4.7913 4.0157, 0.5906 2.9409 4.1732, 0.7480 2.9409 4.1732, 0.7480 4.7913 4.1732, 0.5906 4.7913 4.1732, ] } coordIndex [ 0 3 2 1 -1, 4 5 6 7 -1, 0 1 5 4 -1, 1 2 6 5 -1, 2 3 7 6 -1, 3 0 4 7 -1, ] } }
Shape { appearance Appearance { material Material { diffuseColor 0.80 0.80 0.78 specularColor 0.3 0.3 0.3 shininess 0.3 } } geometry IndexedFaceSet { solid FALSE coord Coordinate { point [ -0.7480 -1.1417 0.0000, 0.7480 -1.1417 0.0000, 0.7480 0.7087 0.0000, -0.7480 0.7087 0.0000, -0.7480 -1.1417 4.0157, 0.7480 -1.1417 4.0157, 0.7480 0.7087 4.0157, -0.7480 0.7087 4.0157, ] } coordIndex [ 0 3 2 1 -1, 4 5 6 7 -1, 0 1 5 4 -1, 1 2 6 5 -1, 2 3 7 6 -1, 3 0 4 7 -1, ] } }
Shape { appearance Appearance { material Material { diffuseColor 0.80 0.80 0.78 specularColor 0.3 0.3 0.3 shininess 0.3 } } geometry IndexedFaceSet { solid FALSE coord Coordinate { point [ -0.7480 -1.1417 4.0157, -0.5906 -1.1417 4.0157, -0.5906 0.7087 4.0157, -0.7480 0.7087 4.0157, -0.7480 -1.1417 4.1732, -0.5906 -1.1417 4.1732, -0.5906 0.7087 4.1732, -0.7480 0.7087 4.1732, ] } coordIndex [ 0 3 2 1 -1, 4 5 6 7 -1, 0 1 5 4 -1, 1 2 6 5 -1, 2 3 7 6 -1, 3 0 4 7 -1, ] } }
Shape { appearance Appearance { material Material { diffuseColor 0.80 0.80 0.78 specularColor 0.3 0.3 0.3 shininess 0.3 } } geometry IndexedFaceSet { solid FALSE coord Coordinate { point [ 0.5906 -1.1417 4.0157, 0.7480 -1.1417 4.0157, 0.7480 0.7087 4.0157, 0.5906 0.7087 4.0157, 0.5906 -1.1417 4.1732, 0.7480 -1.1417 4.1732, 0.7480 0.7087 4.1732, 0.5906 0.7087 4.1732, ] } coordIndex [ 0 3 2 1 -1, 4 5 6 7 -1, 0 1 5 4 -1, 1 2 6 5 -1, 2 3 7 6 -1, 3 0 4 7 -1, ] } }
Shape { appearance Appearance { material Material { diffuseColor 0.80 0.80 0.78 specularColor 0.3 0.3 0.3 shininess 0.3 } } geometry IndexedFaceSet { solid FALSE coord Coordinate { point [ -0.7480 -4.7913 0.0000, 0.7480 -4.7913 0.0000, 0.7480 -2.9409 0.0000, -0.7480 -2.9409 0.0000, -0.7480 -4.7913 4.0157, 0.7480 -4.7913 4.0157, 0.7480 -2.9409 4.0157, -0.7480 -2.9409 4.0157, ] } coordIndex [ 0 3 2 1 -1, 4 5 6 7 -1, 0 1 5 4 -1, 1 2 6 5 -1, 2 3 7 6 -1, 3 0 4 7 -1, ] } }
Shape { appearance Appearance { material Material { diffuseColor 0.80 0.80 0.78 specularColor 0.3 0.3 0.3 shininess 0.3 } } geometry IndexedFaceSet { solid FALSE coord Coordinate { point [ -0.7480 -4.7913 4.0157, -0.5906 -4.7913 4.0157, -0.5906 -2.9409 4.0157, -0.7480 -2.9409 4.0157, -0.7480 -4.7913 4.1732, -0.5906 -4.7913 4.1732, -0.5906 -2.9409 4.1732, -0.7480 -2.9409 4.1732, ] } coordIndex [ 0 3 2 1 -1, 4 5 6 7 -1, 0 1 5 4 -1, 1 2 6 5 -1, 2 3 7 6 -1, 3 0 4 7 -1, ] } }
Shape { appearance Appearance { material Material { diffuseColor 0.80 0.80 0.78 specularColor 0.3 0.3 0.3 shininess 0.3 } } geometry IndexedFaceSet { solid FALSE coord Coordinate { point [ 0.5906 -4.7913 4.0157, 0.7480 -4.7913 4.0157, 0.7480 -2.9409 4.0157, 0.5906 -2.9409 4.0157, 0.5906 -4.7913 4.1732, 0.7480 -4.7913 4.1732, 0.7480 -2.9409 4.1732, 0.5906 -2.9409 4.1732, ] } coordIndex [ 0 3 2 1 -1, 4 5 6 7 -1, 0 1 5 4 -1, 1 2 6 5 -1, 2 3 7 6 -1, 3 0 4 7 -1, ] } }
Shape { appearance Appearance { material Material { diffuseColor 0.20 0.45 0.90 specularColor 0.3 0.3 0.3 shininess 0.3 } } geometry IndexedFaceSet { solid FALSE coord Coordinate { point [ -1.0039 -1.9350 3.1496, 1.0039 -1.9350 3.1496, 1.0039 5.5846 3.1496, -1.0039 5.5846 3.1496, -1.0039 -1.9350 10.5512, 1.0039 -1.9350 10.5512, 1.0039 5.5846 10.5512, -1.0039 5.5846 10.5512, ] } coordIndex [ 0 3 2 1 -1, 4 5 6 7 -1, 0 1 5 4 -1, 1 2 6 5 -1, 2 3 7 6 -1, 3 0 4 7 -1, ] } }
Shape { appearance Appearance { material Material { diffuseColor 0.80 0.80 0.78 specularColor 0.3 0.3 0.3 shininess 0.3 } } geometry IndexedFaceSet { solid FALSE coord Coordinate { point [ -0.1575 2.6260 0.7874, 0.1575 2.6260 0.7874, 0.1575 4.6732 0.7874, -0.1575 4.6732 0.7874, -0.1575 2.6260 3.1496, 0.1575 2.6260 3.1496, 0.1575 4.6732 3.1496, -0.1575 4.6732 3.1496, ] } coordIndex [ 0 3 2 1 -1, 4 5 6 7 -1, 0 1 5 4 -1, 1 2 6 5 -1, 2 3 7 6 -1, 3 0 4 7 -1, ] } }
Shape { appearance Appearance { material Material { diffuseColor 0.80 0.80 0.78 specularColor 0.3 0.3 0.3 shininess 0.3 } } geometry IndexedFaceSet { solid FALSE coord Coordinate { point [ -0.1575 -1.0236 0.7874, 0.1575 -1.0236 0.7874, 0.1575 1.0236 0.7874, -0.1575 1.0236 0.7874, -0.1575 -1.0236 3.1496, 0.1575 -1.0236 3.1496, 0.1575 1.0236 3.1496, -0.1575 1.0236 3.1496, ] } coordIndex [ 0 3 2 1 -1, 4 5 6 7 -1, 0 1 5 4 -1, 1 2 6 5 -1, 2 3 7 6 -1, 3 0 4 7 -1, ] } }
