#VRML V2.0 utf8
# eswitch generated model ScrewTerminal_Wuerth_74650195_M5
Shape { appearance Appearance { material Material { diffuseColor 0.80 0.80 0.78 specularColor 0.3 0.3 0.3 shininess 0.3 } } geometry IndexedFaceSet { solid FALSE coord Coordinate { point [ -1.9685 -1.9685 0.1969, 1.9685 -1.9685 0.1969, 1.9685 1.9685 0.1969, -1.9685 1.9685 0.1969, -1.9685 -1.9685 2.5591, 1.9685 -1.9685 2.5591, 1.9685 1.9685 2.5591, -1.9685 1.9685 2.5591, ] } coordIndex [ 0 3 2 1 -1, 4 5 6 7 -1, 0 1 5 4 -1, 1 2 6 5 -1, 2 3 7 6 -1, 3 0 4 7 -1, ] } }
Shape { appearance Appearance { material Material { diffuseColor 0.80 0.80 0.78 specularColor 0.3 0.3 0.3 shininess 0.3 } } geometry IndexedFaceSet { solid FALSE coord Coordinate { point [ -2.0413 1.4508 -1.1811, -1.4508 1.4508 -1.1811, -1.4508 2.0413 -1.1811, -2.0413 2.0413 -1.1811, -2.0413 1.4508 0.1969, -1.4508 1.4508 0.1969, -1.4508 2.0413 0.1969, -2.0413 2.0413 0.1969, ] } coordIndex [ 0 3 2 1 -1, 4 5 6 7 -1, 0 1 5 4 -1, 1 2 6 5 -1, 2 3 7 6 -1, 3 0 4 7 -1, ] } }
Shape { appearance Appearance { material Material { diffuseColor 0.80 0.80 0.78 specularColor 0.3 0.3 0.3 shininess 0.3 } } geometry IndexedFaceSet { solid FALSE coord Coordinate { point [ -2.0413 -0.2953 -1.1811, -1.4508 -0.2953 -1.1811, -1.4508 0.2953 -1.1811, -2.0413 0.2953 -1.1811, -2.0413 -0.2953 0.1969, -1.4508 -0.2953 0.1969, -1.4508 0.2953 0.1969, -2.0413 0.2953 0.1969, ] } coordIndex [ 0 3 2 1 -1, 4 5 6 7 -1, 0 1 5 4 -1, 1 2 6 5 -1, 2 3 7 6 -1, 3 0 4 7 -1, ] } }
Shape { appearance Appearance { material Material { diffuseColor 0.80 0.80 0.78 specularColor 0.3 0.3 0.3 shininess 0.3 } } geometry IndexedFaceSet { solid FALSE coord Coordinate { point [ -2.0413 -2.0413 -1.1811, -1.4508 -2.0413 -1.1811, -1.4508 -1.4508 -1.1811, -2.0413 -1.4508 -1.1811, -2.0413 -2.0413 0.1969, -1.4508 -2.0413 0.1969, -1.4508 -1.4508 0.1969, -2.0413 -1.4508 0.1969, ] } coordIndex [ 0 3 2 1 -1, 4 5 6 7 -1, 0 1 5 4 -1, 1 2 6 5 -1, 2 3 7 6 -1, 3 0 4 7 -1, ] } }
Shape { appearance Appearance { material Material { diffuseColor 0.80 0.80 0.78 specularColor 0.3 0.3 0.3 shininess 0.3 } } geometry IndexedFaceSet { solid FALSE coord Coordinate { point [ -0.2953 1.4508 -1.1811, 0.2953 1.4508 -1.1811, 0.2953 2.0413 -1.1811, -0.2953 2.0413 -1.1811, -0.2953 1.4508 0.1969, 0.2953 1.4508 0.1969, 0.2953 2.0413 0.1969, -0.2953 2.0413 0.1969, ] } coordIndex [ 0 3 2 1 -1, 4 5 6 7 -1, 0 1 5 4 -1, 1 2 6 5 -1, 2 3 7 6 -1, 3 0 4 7 -1, ] } }
Shape { appearance Appearance { material Material { diffuseColor 0.80 0.80 0.78 specularColor 0.3 0.3 0.3 shininess 0.3 } } geometry IndexedFaceSet { solid FALSE coord Coordinate { point [ -0.2953 -0.2953 -1.1811, 0.2953 -0.2953 -1.1811, 0.2953 0.2953 -1.1811, -0.2953 0.2953 -1.1811, -0.2953 -0.2953 0.1969, 0.2953 -0.2953 0.1969, 0.2953 0.2953 0.1969, -0.2953 0.2953 0.1969, ] } coordIndex [ 0 3 2 1 -1, 4 5 6 7 -1, 0 1 5 4 -1, 1 2 6 5 -1, 2 3 7 6 -1, 3 0 4 7 -1, ] } }
Shape { appearance Appearance { material Material { diffuseColor 0.80 0.80 0.78 specularColor 0.3 0.3 0.3 shininess 0.3 } } geometry IndexedFaceSet { solid FALSE coord Coordinate { point [ -0.2953 -2.0413 -1.1811, 0.2953 -2.0413 -1.1811, 0.2953 -1.4508 -1.1811, -0.2953 -1.4508 -1.1811, -0.2953 -2.0413 0.1969, 0.2953 -2.0413 0.1969, 0.2953 -1.4508 0.1969, -0.2953 -1.4508 0.1969, ] } coordIndex [ 0 3 2 1 -1, 4 5 6 7 -1, 0 1 5 4 -1, 1 2 6 5 -1, 2 3 7 6 -1, 3 0 4 7 -1, ] } }
Shape { appearance Appearance { material Material { diffuseColor 0.80 0.80 0.78 specularColor 0.3 0.3 0.3 shininess 0.3 } } geometry IndexedFaceSet { solid FALSE coord Coordinate { point [ 1.4508 1.4508 -1.1811, 2.0413 1.4508 -1.1811, 2.0413 2.0413 -1.1811, 1.4508 2.0413 -1.1811, 1.4508 1.4508 0.1969, 2.0413 1.4508 0.1969, 2.0413 2.0413 0.1969, 1.4508 2.0413 0.1969, ] } coordIndex [ 0 3 2 1 -1, 4 5 6 7 -1, 0 1 5 4 -1, 1 2 6 5 -1, 2 3 7 6 -1, 3 0 4 7 -1, ] } }
Shape { appearance Appearance { material Material { diffuseColor 0.80 0.80 0.78 specularColor 0.3 0.3 0.3 shininess 0.3 } } geometry IndexedFaceSet { solid FALSE coord Coordinate { point [ 1.4508 -0.2953 -1.1811, 2.0413 -0.2953 -1.1811, 2.0413 0.2953 -1.1811, 1.4508 0.2953 -1.1811, 1.4508 -0.2953 0.1969, 2.0413 -0.2953 0.1969, 2.0413 0.2953 0.1969, 1.4508 0.2953 0.1969, ] } coordIndex [ 0 3 2 1 -1, 4 5 6 7 -1, 0 1 5 4 -1, 1 2 6 5 -1, 2 3 7 6 -1, 3 0 4 7 -1, ] } }
Shape { appearance Appearance { material Material { diffuseColor 0.80 0.80 0.78 specularColor 0.3 0.3 0.3 shininess 0.3 } } geometry IndexedFaceSet { solid FALSE coord Coordinate { point [ 1.4508 -2.0413 -1.1811, 2.0413 -2.0413 -1.1811, 2.0413 -1.4508 -1.1811, 1.4508 -1.4508 -1.1811, 1.4508 -2.0413 0.1969, 2.0413 -2.0413 0.1969, 2.0413 -1.4508 0.1969, 1.4508 -1.4508 0.1969, ] } coordIndex [ 0 3 2 1 -1, 4 5 6 7 -1, 0 1 5 4 -1, 1 2 6 5 -1, 2 3 7 6 -1, 3 0 4 7 -1, ] } }
Shape { appearance Appearance { material Material { diffuseColor 0.15 0.15 0.15 specularColor 0.3 0.3 0.3 shininess 0.3 } } geometry IndexedFaceSet { solid FALSE coord Coordinate { point [ 0.9843 0.0000 2.5591, 0.9507 0.2547 2.5591, 0.8524 0.4921 2.5591, 0.6960 0.6960 2.5591, 0.4921 0.8524 2.5591, 0.2547 0.9507 2.5591, 0.0000 0.9843 2.5591, -0.2547 0.9507 2.5591, -0.4921 0.8524 2.5591, -0.6960 0.6960 2.5591, -0.8524 0.4921 2.5591, -0.9507 0.2547 2.5591, -0.9843 0.0000 2.5591, -0.9507 -0.2547 2.5591, -0.8524 -0.4921 2.5591, -0.6960 -0.6960 2.5591, -0.4921 -0.8524 2.5591, -0.2547 -0.9507 2.5591, -0.0000 -0.9843 2.5591, 0.2547 -0.9507 2.5591, 0.4921 -0.8524 2.5591, 0.6960 -0.6960 2.5591, 0.8524 -0.4921 2.5591, 0.9507 -0.2547 2.5591, 0.9843 0.0000 2.5630, 0.9507 0.2547 2.5630, 0.8524 0.4921 2.5630, 0.6960 0.6960 2.5630, 0.4921 0.8524 2.5630, 0.2547 0.9507 2.5630, 0.0000 0.9843 2.5630, -0.2547 0.9507 2.5630, -0.4921 0.8524 2.5630, -0.6960 0.6960 2.5630, -0.8524 0.4921 2.5630, -0.9507 0.2547 2.5630, -0.9843 0.0000 2.5630, -0.9507 -0.2547 2.5630, -0.8524 -0.4921 2.5630, -0.6960 -0.6960 2.5630, -0.4921 -0.8524 2.5630, -0.2547 -0.9507 2.5630, -0.0000 -0.9843 2.5630, 0.2547 -0.9507 2.5630, 0.4921 -0.8524 2.5630, 0.6960 -0.6960 2.5630, 0.8524 -0.4921 2.5630, 0.9507 -0.2547 2.5630, ] } coordIndex [ 23 22 21 20 19 18 17 16 15 14 13 12 11 10 9 8 7 6 5 4 3 2 1 0 -1, 24 25 26 27 28 29 30 31 32 33 34 35 36 37 38 39 40 41 42 43 44 45 46 47 -1, 0 1 25 24 -1, 1 2 26 25 -1, 2 3 27 26 -1, 3 4 28 27 -1, 4 5 29 28 -1, 5 6 30 29 -1, 6 7 31 30 -1, 7 8 32 31 -1, 8 9 33 32 -1, 9 10 34 33 -1, 10 11 35 34 -1, 11 12 36 35 -1, 12 13 37 36 -1, 13 14 38 37 -1, 14 15 39 38 -1, 15 16 40 39 -1, 16 17 41 40 -1, 17 18 42 41 -1, 18 19 43 42 -1, 19 20 44 43 -1, 20 21 45 44 -1, 21 22 46 45 -1, 22 23 47 46 -1, 23 0 24 47 -1, ] } }
