#VRML V2.0 utf8
# eswitch generated model TerminalBlock_1x02_P7.62mm_Wuerth_2184
Shape { appearance Appearance { material Material { diffuseColor 0.12 0.50 0.22 specularColor 0.3 0.3 0.3 shininess 0.3 } } geometry IndexedFaceSet { solid FALSE coord Coordinate { point [ -1.5000 -3.1102 0.0000, 4.5000 -3.1102 0.0000, 4.5000 1.8110 0.0000, -1.5000 1.8110 0.0000, -1.5000 -3.1102 8.3858, 4.5000 -3.1102 8.3858, 4.5000 1.8110 8.3858, -1.5000 1.8110 8.3858, ] } coordIndex [ 0 3 2 1 -1, 4 5 6 7 -1, 0 1 5 4 -1, 1 2 6 5 -1, 2 3 7 6 -1, 3 0 4 7 -1, ] } }
Shape { appearance Appearance { material Material { diffuseColor 0.60 0.60 0.62 specularColor 0.3 0.3 0.3 shininess 0.3 } } geometry IndexedFaceSet { solid FALSE coord Coordinate { point [ 0.9055 0.0000 8.3858, 0.8747 0.2344 8.3858, 0.7842 0.4528 8.3858, 0.6403 0.6403 8.3858, 0.4528 0.7842 8.3858, 0.2344 0.8747 8.3858, 0.0000 0.9055 8.3858, -0.2344 0.8747 8.3858, -0.4528 0.7842 8.3858, -0.6403 0.6403 8.3858, -0.7842 0.4528 8.3858, -0.8747 0.2344 8.3858, -0.9055 0.0000 8.3858, -0.8747 -0.2344 8.3858, -0.7842 -0.4528 8.3858, -0.6403 -0.6403 8.3858, -0.4528 -0.7842 8.3858, -0.2344 -0.8747 8.3858, -0.0000 -0.9055 8.3858, 0.2344 -0.8747 8.3858, 0.4528 -0.7842 8.3858, 0.6403 -0.6403 8.3858, 0.7842 -0.4528 8.3858, 0.8747 -0.2344 8.3858, 0.9055 0.0000 8.4646, 0.8747 0.2344 8.4646, 0.7842 0.4528 8.4646, 0.6403 0.6403 8.4646, 0.4528 0.7842 8.4646, 0.2344 0.8747 8.4646, 0.0000 0.9055 8.4646, -0.2344 0.8747 8.4646, -0.4528 0.7842 8.4646, -0.6403 0.6403 8.4646, -0.7842 0.4528 8.4646, -0.8747 0.2344 8.4646, -0.9055 0.0000 8.4646, -0.8747 -0.2344 8.4646, -0.7842 -0.4528 8.4646, -0.6403 -0.6403 8.4646, -0.4528 -0.7842 8.4646, -0.2344 -0.8747 8.4646, -0.0000 -0.9055 8.4646, 0.2344 -0.8747 8.4646, 0.4528 -0.7842 8.4646, 0.6403 -0.6403 8.4646, 0.7842 -0.4528 8.4646, 0.8747 -0.2344 8.4646, ] } coordIndex [ 23 22 21 20 19 18 17 16 15 14 13 12 11 10 9 8 7 6 5 4 3 2 1 0 -1, 24 25 26 27 28 29 30 31 32 33 34 35 36 37 38 39 40 41 42 43 44 45 46 47 -1, 0 1 25 24 -1, 1 2 26 25 -1, 2 3 27 26 -1, 3 4 28 27 -1, 4 5 29 28 -1, 5 6 30 29 -1, 6 7 31 30 -1, 7 8 32 31 -1, 8 9 33 32 -1, 9 10 34 33 -1, 10 11 35 34 -1, 11 12 36 35 -1, 12 13 37 36 -1, 13 14 38 37 -1, 14 15 39 38 -1, 15 16 40 39 -1, 16 17 41 40 -1, 17 18 42 41 -1, 18 19 43 42 -1, 19 20 44 43 -1, 20 21 45 44 -1, 21 22 46 45 -1, 22 23 47 46 -1, 23 0 24 47 -1, ] } }
Shape { appearance Appearance { material Material { diffuseColor 0.15 0.15 0.15 specularColor 0.3 0.3 0.3 shininess 0.3 } } geometry IndexedFaceSet { solid FALSE coord Coordinate { point [ -0.9843 -3.1496 1.1811, 0.9843 -3.1496 1.1811, 0.9843 -3.1102 1.1811, -0.9843 -3.1102 1.1811, -0.9843 -3.1496 3.9370, 0.9843 -3.1496 3.9370, 0.9843 -3.1102 3.9370, -0.9843 -3.1102 3.9370, ] } coordIndex [ 0 3 2 1 -1, 4 5 6 7 -1, 0 1 5 4 -1, 1 2 6 5 -1, 2 3 7 6 -1, 3 0 4 7 -1, ] } }
Shape { appearance Appearance { material Material { diffuseColor 0.60 0.60 0.62 specularColor 0.3 0.3 0.3 shininess 0.3 } } geometry IndexedFaceSet { solid FALSE coord Coordinate { point [ 3.9055 0.0000 8.3858, 3.8747 0.2344 8.3858, 3.7842 0.4528 8.3858, 3.6403 0.6403 8.3858, 3.4528 0.7842 8.3858, 3.2344 0.8747 8.3858, 3.0000 0.9055 8.3858, 2.7656 0.8747 8.3858, 2.5472 0.7842 8.3858, 2.3597 0.6403 8.3858, 2.2158 0.4528 8.3858, 2.1253 0.2344 8.3858, 2.0945 0.0000 8.3858, 2.1253 -0.2344 8.3858, 2.2158 -0.4528 8.3858, 2.3597 -0.6403 8.3858, 2.5472 -0.7842 8.3858, 2.7656 -0.8747 8.3858, 3.0000 -0.9055 8.3858, 3.2344 -0.8747 8.3858, 3.4528 -0.7842 8.3858, 3.6403 -0.6403 8.3858, 3.7842 -0.4528 8.3858, 3.8747 -0.2344 8.3858, 3.9055 0.0000 8.4646, 3.8747 0.2344 8.4646, 3.7842 0.4528 8.4646, 3.6403 0.6403 8.4646, 3.4528 0.7842 8.4646, 3.2344 0.8747 8.4646, 3.0000 0.9055 8.4646, 2.7656 0.8747 8.4646, 2.5472 0.7842 8.4646, 2.3597 0.6403 8.4646, 2.2158 0.4528 8.4646, 2.1253 0.2344 8.4646, 2.0945 0.0000 8.4646, 2.1253 -0.2344 8.4646, 2.2158 -0.4528 8.4646, 2.3597 -0.6403 8.4646, 2.5472 -0.7842 8.4646, 2.7656 -0.8747 8.4646, 3.0000 -0.9055 8.4646, 3.2344 -0.8747 8.4646, 3.4528 -0.7842 8.4646, 3.6403 -0.6403 8.4646, 3.7842 -0.4528 8.4646, 3.8747 -0.2344 8.4646, ] } coordIndex [ 23 22 21 20 19 18 17 16 15 14 13 12 11 10 9 8 7 6 5 4 3 2 1 0 -1, 24 25 26 27 28 29 30 31 32 33 34 35 36 37 38 39 40 41 42 43 44 45 46 47 -1, 0 1 25 24 -1, 1 2 26 25 -1, 2 3 27 26 -1, 3 4 28 27 -1, 4 5 29 28 -1, 5 6 30 29 -1, 6 7 31 30 -1, 7 8 32 31 -1, 8 9 33 32 -1, 9 10 34 33 -1, 10 11 35 34 -1, 11 12 36 35 -1, 12 13 37 36 -1, 13 14 38 37 -1, 14 15 39 38 -1, 15 16 40 39 -1, 16 17 41 40 -1, 17 18 42 41 -1, 18 19 43 42 -1, 19 20 44 43 -1, 20 21 45 44 -1, 21 22 46 45 -1, 22 23 47 46 -1, 23 0 24 47 -1, ] } }
Shape { appearance Appearance { material Material { diffuseColor 0.15 0.15 0.15 specularColor 0.3 0.3 0.3 shininess 0.3 } } geometry IndexedFaceSet { solid FALSE coord Coordinate { point [ 2.0157 -3.1496 1.1811, 3.9843 -3.1496 1.1811, 3.9843 -3.1102 1.1811, 2.0157 -3.1102 1.1811, 2.0157 -3.1496 3.9370, 3.9843 -3.1496 3.9370, 3.9843 -3.1102 3.9370, 2.0157 -3.1102 3.9370, ] } coordIndex [ 0 3 2 1 -1, 4 5 6 7 -1, 0 1 5 4 -1, 1 2 6 5 -1, 2 3 7 6 -1, 3 0 4 7 -1, ] } }
