#VRML V2.0 utf8
# eswitch generated model TerminalBlock_1x16_P7.62mm_Wuerth_3114
Shape { appearance Appearance { material Material { diffuseColor 0.12 0.50 0.22 specularColor 0.3 0.3 0.3 shininess 0.3 } } geometry IndexedFaceSet { solid FALSE coord Coordinate { point [ -1.4961 -1.8504 0.0000, 46.4961 -1.8504 0.0000, 46.4961 1.4961 0.0000, -1.4961 1.4961 0.0000, -1.4961 -1.8504 4.7244, 46.4961 -1.8504 4.7244, 46.4961 1.4961 4.7244, -1.4961 1.4961 4.7244, ] } coordIndex [ 0 3 2 1 -1, 4 5 6 7 -1, 0 1 5 4 -1, 1 2 6 5 -1, 2 3 7 6 -1, 3 0 4 7 -1, ] } }
Shape { appearance Appearance { material Material { diffuseColor 0.60 0.60 0.62 specularColor 0.3 0.3 0.3 shininess 0.3 } } geometry IndexedFaceSet { solid FALSE coord Coordinate { point [ 0.6693 0.3937 4.7244, 0.6465 0.5669 4.7244, 0.5796 0.7283 4.7244, 0.4733 0.8670 4.7244, 0.3346 0.9733 4.7244, 0.1732 1.0402 4.7244, 0.0000 1.0630 4.7244, -0.1732 1.0402 4.7244, -0.3346 0.9733 4.7244, -0.4733 0.8670 4.7244, -0.5796 0.7283 4.7244, -0.6465 0.5669 4.7244, -0.6693 0.3937 4.7244, -0.6465 0.2205 4.7244, -0.5796 0.0591 4.7244, -0.4733 -0.0796 4.7244, -0.3346 -0.1859 4.7244, -0.1732 -0.2528 4.7244, -0.0000 -0.2756 4.7244, 0.1732 -0.2528 4.7244, 0.3346 -0.1859 4.7244, 0.4733 -0.0796 4.7244, 0.5796 0.0591 4.7244, 0.6465 0.2205 4.7244, 0.6693 0.3937 4.8425, 0.6465 0.5669 4.8425, 0.5796 0.7283 4.8425, 0.4733 0.8670 4.8425, 0.3346 0.9733 4.8425, 0.1732 1.0402 4.8425, 0.0000 1.0630 4.8425, -0.1732 1.0402 4.8425, -0.3346 0.9733 4.8425, -0.4733 0.8670 4.8425, -0.5796 0.7283 4.8425, -0.6465 0.5669 4.8425, -0.6693 0.3937 4.8425, -0.6465 0.2205 4.8425, -0.5796 0.0591 4.8425, -0.4733 -0.0796 4.8425, -0.3346 -0.1859 4.8425, -0.1732 -0.2528 4.8425, -0.0000 -0.2756 4.8425, 0.1732 -0.2528 4.8425, 0.3346 -0.1859 4.8425, 0.4733 -0.0796 4.8425, 0.5796 0.0591 4.8425, 0.6465 0.2205 4.8425, ] } coordIndex [ 23 22 21 20 19 18 17 16 15 14 13 12 11 10 9 8 7 6 5 4 3 2 1 0 -1, 24 25 26 27 28 29 30 31 32 33 34 35 36 37 38 39 40 41 42 43 44 45 46 47 -1, 0 1 25 24 -1, 1 2 26 25 -1, 2 3 27 26 -1, 3 4 28 27 -1, 4 5 29 28 -1, 5 6 30 29 -1, 6 7 31 30 -1, 7 8 32 31 -1, 8 9 33 32 -1, 9 10 34 33 -1, 10 11 35 34 -1, 11 12 36 35 -1, 12 13 37 36 -1, 13 14 38 37 -1, 14 15 39 38 -1, 15 16 40 39 -1, 16 17 41 40 -1, 17 18 42 41 -1, 18 19 43 42 -1, 19 20 44 43 -1, 20 21 45 44 -1, 21 22 46 45 -1, 22 23 47 46 -1, 23 0 24 47 -1, ] } }
Shape { appearance Appearance { material Material { diffuseColor 0.15 0.15 0.15 specularColor 0.3 0.3 0.3 shininess 0.3 } } geometry IndexedFaceSet { solid FALSE coord Coordinate { point [ -0.8661 -1.9685 0.9843, 0.8661 -1.9685 0.9843, 0.8661 -1.8504 0.9843, -0.8661 -1.8504 0.9843, -0.8661 -1.9685 3.1496, 0.8661 -1.9685 3.1496, 0.8661 -1.8504 3.1496, -0.8661 -1.8504 3.1496, ] } coordIndex [ 0 3 2 1 -1, 4 5 6 7 -1, 0 1 5 4 -1, 1 2 6 5 -1, 2 3 7 6 -1, 3 0 4 7 -1, ] } }
Shape { appearance Appearance { material Material { diffuseColor 0.60 0.60 0.62 specularColor 0.3 0.3 0.3 shininess 0.3 } } geometry IndexedFaceSet { solid FALSE coord Coordinate { point [ 3.6693 0.3937 4.7244, 3.6465 0.5669 4.7244, 3.5796 0.7283 4.7244, 3.4733 0.8670 4.7244, 3.3346 0.9733 4.7244, 3.1732 1.0402 4.7244, 3.0000 1.0630 4.7244, 2.8268 1.0402 4.7244, 2.6654 0.9733 4.7244, 2.5267 0.8670 4.7244, 2.4204 0.7283 4.7244, 2.3535 0.5669 4.7244, 2.3307 0.3937 4.7244, 2.3535 0.2205 4.7244, 2.4204 0.0591 4.7244, 2.5267 -0.0796 4.7244, 2.6654 -0.1859 4.7244, 2.8268 -0.2528 4.7244, 3.0000 -0.2756 4.7244, 3.1732 -0.2528 4.7244, 3.3346 -0.1859 4.7244, 3.4733 -0.0796 4.7244, 3.5796 0.0591 4.7244, 3.6465 0.2205 4.7244, 3.6693 0.3937 4.8425, 3.6465 0.5669 4.8425, 3.5796 0.7283 4.8425, 3.4733 0.8670 4.8425, 3.3346 0.9733 4.8425, 3.1732 1.0402 4.8425, 3.0000 1.0630 4.8425, 2.8268 1.0402 4.8425, 2.6654 0.9733 4.8425, 2.5267 0.8670 4.8425, 2.4204 0.7283 4.8425, 2.3535 0.5669 4.8425, 2.3307 0.3937 4.8425, 2.3535 0.2205 4.8425, 2.4204 0.0591 4.8425, 2.5267 -0.0796 4.8425, 2.6654 -0.1859 4.8425, 2.8268 -0.2528 4.8425, 3.0000 -0.2756 4.8425, 3.1732 -0.2528 4.8425, 3.3346 -0.1859 4.8425, 3.4733 -0.0796 4.8425, 3.5796 0.0591 4.8425, 3.6465 0.2205 4.8425, ] } coordIndex [ 23 22 21 20 19 18 17 16 15 14 13 12 11 10 9 8 7 6 5 4 3 2 1 0 -1, 24 25 26 27 28 29 30 31 32 33 34 35 36 37 38 39 40 41 42 43 44 45 46 47 -1, 0 1 25 24 -1, 1 2 26 25 -1, 2 3 27 26 -1, 3 4 28 27 -1, 4 5 29 28 -1, 5 6 30 29 -1, 6 7 31 30 -1, 7 8 32 31 -1, 8 9 33 32 -1, 9 10 34 33 -1, 10 11 35 34 -1, 11 12 36 35 -1, 12 13 37 36 -1, 13 14 38 37 -1, 14 15 39 38 -1, 15 16 40 39 -1, 16 17 41 40 -1, 17 18 42 41 -1, 18 19 43 42 -1, 19 20 44 43 -1, 20 21 45 44 -1, 21 22 46 45 -1, 22 23 47 46 -1, 23 0 24 47 -1, ] } }
Shape { appearance Appearance { material Material { diffuseColor 0.15 0.15 0.15 specularColor 0.3 0.3 0.3 shininess 0.3 } } geometry IndexedFaceSet { solid FALSE coord Coordinate { point [ 2.1339 -1.9685 0.9843, 3.8661 -1.9685 0.9843, 3.8661 -1.8504 0.9843, 2.1339 -1.8504 0.9843, 2.1339 -1.9685 3.1496, 3.8661 -1.9685 3.1496, 3.8661 -1.8504 3.1496, 2.1339 -1.8504 3.1496, ] } coordIndex [ 0 3 2 1 -1, 4 5 6 7 -1, 0 1 5 4 -1, 1 2 6 5 -1, 2 3 7 6 -1, 3 0 4 7 -1, ] } }
Shape { appearance Appearance { material Material { diffuseColor 0.60 0.60 0.62 specularColor 0.3 0.3 0.3 shininess 0.3 } } geometry IndexedFaceSet { solid FALSE coord Coordinate { point [ 6.6693 0.3937 4.7244, 6.6465 0.5669 4.7244, 6.5796 0.7283 4.7244, 6.4733 0.8670 4.7244, 6.3346 0.9733 4.7244, 6.1732 1.0402 4.7244, 6.0000 1.0630 4.7244, 5.8268 1.0402 4.7244, 5.6654 0.9733 4.7244, 5.5267 0.8670 4.7244, 5.4204 0.7283 4.7244, 5.3535 0.5669 4.7244, 5.3307 0.3937 4.7244, 5.3535 0.2205 4.7244, 5.4204 0.0591 4.7244, 5.5267 -0.0796 4.7244, 5.6654 -0.1859 4.7244, 5.8268 -0.2528 4.7244, 6.0000 -0.2756 4.7244, 6.1732 -0.2528 4.7244, 6.3346 -0.1859 4.7244, 6.4733 -0.0796 4.7244, 6.5796 0.0591 4.7244, 6.6465 0.2205 4.7244, 6.6693 0.3937 4.8425, 6.6465 0.5669 4.8425, 6.5796 0.7283 4.8425, 6.4733 0.8670 4.8425, 6.3346 0.9733 4.8425, 6.1732 1.0402 4.8425, 6.0000 1.0630 4.8425, 5.8268 1.0402 4.8425, 5.6654 0.9733 4.8425, 5.5267 0.8670 4.8425, 5.4204 0.7283 4.8425, 5.3535 0.5669 4.8425, 5.3307 0.3937 4.8425, 5.3535 0.2205 4.8425, 5.4204 0.0591 4.8425, 5.5267 -0.0796 4.8425, 5.6654 -0.1859 4.8425, 5.8268 -0.2528 4.8425, 6.0000 -0.2756 4.8425, 6.1732 -0.2528 4.8425, 6.3346 -0.1859 4.8425, 6.4733 -0.0796 4.8425, 6.5796 0.0591 4.8425, 6.6465 0.2205 4.8425, ] } coordIndex [ 23 22 21 20 19 18 17 16 15 14 13 12 11 10 9 8 7 6 5 4 3 2 1 0 -1, 24 25 26 27 28 29 30 31 32 33 34 35 36 37 38 39 40 41 42 43 44 45 46 47 -1, 0 1 25 24 -1, 1 2 26 25 -1, 2 3 27 26 -1, 3 4 28 27 -1, 4 5 29 28 -1, 5 6 30 29 -1, 6 7 31 30 -1, 7 8 32 31 -1, 8 9 33 32 -1, 9 10 34 33 -1, 10 11 35 34 -1, 11 12 36 35 -1, 12 13 37 36 -1, 13 14 38 37 -1, 14 15 39 38 -1, 15 16 40 39 -1, 16 17 41 40 -1, 17 18 42 41 -1, 18 19 43 42 -1, 19 20 44 43 -1, 20 21 45 44 -1, 21 22 46 45 -1, 22 23 47 46 -1, 23 0 24 47 -1, ] } }
Shape { appearance Appearance { material Material { diffuseColor 0.15 0.15 0.15 specularColor 0.3 0.3 0.3 shininess 0.3 } } geometry IndexedFaceSet { solid FALSE coord Coordinate { point [ 5.1339 -1.9685 0.9843, 6.8661 -1.9685 0.9843, 6.8661 -1.8504 0.9843, 5.1339 -1.8504 0.9843, 5.1339 -1.9685 3.1496, 6.8661 -1.9685 3.1496, 6.8661 -1.8504 3.1496, 5.1339 -1.8504 3.1496, ] } coordIndex [ 0 3 2 1 -1, 4 5 6 7 -1, 0 1 5 4 -1, 1 2 6 5 -1, 2 3 7 6 -1, 3 0 4 7 -1, ] } }
Shape { appearance Appearance { material Material { diffuseColor 0.60 0.60 0.62 specularColor 0.3 0.3 0.3 shininess 0.3 } } geometry IndexedFaceSet { solid FALSE coord Coordinate { point [ 9.6693 0.3937 4.7244, 9.6465 0.5669 4.7244, 9.5796 0.7283 4.7244, 9.4733 0.8670 4.7244, 9.3346 0.9733 4.7244, 9.1732 1.0402 4.7244, 9.0000 1.0630 4.7244, 8.8268 1.0402 4.7244, 8.6654 0.9733 4.7244, 8.5267 0.8670 4.7244, 8.4204 0.7283 4.7244, 8.3535 0.5669 4.7244, 8.3307 0.3937 4.7244, 8.3535 0.2205 4.7244, 8.4204 0.0591 4.7244, 8.5267 -0.0796 4.7244, 8.6654 -0.1859 4.7244, 8.8268 -0.2528 4.7244, 9.0000 -0.2756 4.7244, 9.1732 -0.2528 4.7244, 9.3346 -0.1859 4.7244, 9.4733 -0.0796 4.7244, 9.5796 0.0591 4.7244, 9.6465 0.2205 4.7244, 9.6693 0.3937 4.8425, 9.6465 0.5669 4.8425, 9.5796 0.7283 4.8425, 9.4733 0.8670 4.8425, 9.3346 0.9733 4.8425, 9.1732 1.0402 4.8425, 9.0000 1.0630 4.8425, 8.8268 1.0402 4.8425, 8.6654 0.9733 4.8425, 8.5267 0.8670 4.8425, 8.4204 0.7283 4.8425, 8.3535 0.5669 4.8425, 8.3307 0.3937 4.8425, 8.3535 0.2205 4.8425, 8.4204 0.0591 4.8425, 8.5267 -0.0796 4.8425, 8.6654 -0.1859 4.8425, 8.8268 -0.2528 4.8425, 9.0000 -0.2756 4.8425, 9.1732 -0.2528 4.8425, 9.3346 -0.1859 4.8425, 9.4733 -0.0796 4.8425, 9.5796 0.0591 4.8425, 9.6465 0.2205 4.8425, ] } coordIndex [ 23 22 21 20 19 18 17 16 15 14 13 12 11 10 9 8 7 6 5 4 3 2 1 0 -1, 24 25 26 27 28 29 30 31 32 33 34 35 36 37 38 39 40 41 42 43 44 45 46 47 -1, 0 1 25 24 -1, 1 2 26 25 -1, 2 3 27 26 -1, 3 4 28 27 -1, 4 5 29 28 -1, 5 6 30 29 -1, 6 7 31 30 -1, 7 8 32 31 -1, 8 9 33 32 -1, 9 10 34 33 -1, 10 11 35 34 -1, 11 12 36 35 -1, 12 13 37 36 -1, 13 14 38 37 -1, 14 15 39 38 -1, 15 16 40 39 -1, 16 17 41 40 -1, 17 18 42 41 -1, 18 19 43 42 -1, 19 20 44 43 -1, 20 21 45 44 -1, 21 22 46 45 -1, 22 23 47 46 -1, 23 0 24 47 -1, ] } }
Shape { appearance Appearance { material Material { diffuseColor 0.15 0.15 0.15 specularColor 0.3 0.3 0.3 shininess 0.3 } } geometry IndexedFaceSet { solid FALSE coord Coordinate { point [ 8.1339 -1.9685 0.9843, 9.8661 -1.9685 0.9843, 9.8661 -1.8504 0.9843, 8.1339 -1.8504 0.9843, 8.1339 -1.9685 3.1496, 9.8661 -1.9685 3.1496, 9.8661 -1.8504 3.1496, 8.1339 -1.8504 3.1496, ] } coordIndex [ 0 3 2 1 -1, 4 5 6 7 -1, 0 1 5 4 -1, 1 2 6 5 -1, 2 3 7 6 -1, 3 0 4 7 -1, ] } }
Shape { appearance Appearance { material Material { diffuseColor 0.60 0.60 0.62 specularColor 0.3 0.3 0.3 shininess 0.3 } } geometry IndexedFaceSet { solid FALSE coord Coordinate { point [ 12.6693 0.3937 4.7244, 12.6465 0.5669 4.7244, 12.5796 0.7283 4.7244, 12.4733 0.8670 4.7244, 12.3346 0.9733 4.7244, 12.1732 1.0402 4.7244, 12.0000 1.0630 4.7244, 11.8268 1.0402 4.7244, 11.6654 0.9733 4.7244, 11.5267 0.8670 4.7244, 11.4204 0.7283 4.7244, 11.3535 0.5669 4.7244, 11.3307 0.3937 4.7244, 11.3535 0.2205 4.7244, 11.4204 0.0591 4.7244, 11.5267 -0.0796 4.7244, 11.6654 -0.1859 4.7244, 11.8268 -0.2528 4.7244, 12.0000 -0.2756 4.7244, 12.1732 -0.2528 4.7244, 12.3346 -0.1859 4.7244, 12.4733 -0.0796 4.7244, 12.5796 0.0591 4.7244, 12.6465 0.2205 4.7244, 12.6693 0.3937 4.8425, 12.6465 0.5669 4.8425, 12.5796 0.7283 4.8425, 12.4733 0.8670 4.8425, 12.3346 0.9733 4.8425, 12.1732 1.0402 4.8425, 12.0000 1.0630 4.8425, 11.8268 1.0402 4.8425, 11.6654 0.9733 4.8425, 11.5267 0.8670 4.8425, 11.4204 0.7283 4.8425, 11.3535 0.5669 4.8425, 11.3307 0.3937 4.8425, 11.3535 0.2205 4.8425, 11.4204 0.0591 4.8425, 11.5267 -0.0796 4.8425, 11.6654 -0.1859 4.8425, 11.8268 -0.2528 4.8425, 12.0000 -0.2756 4.8425, 12.1732 -0.2528 4.8425, 12.3346 -0.1859 4.8425, 12.4733 -0.0796 4.8425, 12.5796 0.0591 4.8425, 12.6465 0.2205 4.8425, ] } coordIndex [ 23 22 21 20 19 18 17 16 15 14 13 12 11 10 9 8 7 6 5 4 3 2 1 0 -1, 24 25 26 27 28 29 30 31 32 33 34 35 36 37 38 39 40 41 42 43 44 45 46 47 -1, 0 1 25 24 -1, 1 2 26 25 -1, 2 3 27 26 -1, 3 4 28 27 -1, 4 5 29 28 -1, 5 6 30 29 -1, 6 7 31 30 -1, 7 8 32 31 -1, 8 9 33 32 -1, 9 10 34 33 -1, 10 11 35 34 -1, 11 12 36 35 -1, 12 13 37 36 -1, 13 14 38 37 -1, 14 15 39 38 -1, 15 16 40 39 -1, 16 17 41 40 -1, 17 18 42 41 -1, 18 19 43 42 -1, 19 20 44 43 -1, 20 21 45 44 -1, 21 22 46 45 -1, 22 23 47 46 -1, 23 0 24 47 -1, ] } }
Shape { appearance Appearance { material Material { diffuseColor 0.15 0.15 0.15 specularColor 0.3 0.3 0.3 shininess 0.3 } } geometry IndexedFaceSet { solid FALSE coord Coordinate { point [ 11.1339 -1.9685 0.9843, 12.8661 -1.9685 0.9843, 12.8661 -1.8504 0.9843, 11.1339 -1.8504 0.9843, 11.1339 -1.9685 3.1496, 12.8661 -1.9685 3.1496, 12.8661 -1.8504 3.1496, 11.1339 -1.8504 3.1496, ] } coordIndex [ 0 3 2 1 -1, 4 5 6 7 -1, 0 1 5 4 -1, 1 2 6 5 -1, 2 3 7 6 -1, 3 0 4 7 -1, ] } }
Shape { appearance Appearance { material Material { diffuseColor 0.60 0.60 0.62 specularColor 0.3 0.3 0.3 shininess 0.3 } } geometry IndexedFaceSet { solid FALSE coord Coordinate { point [ 15.6693 0.3937 4.7244, 15.6465 0.5669 4.7244, 15.5796 0.7283 4.7244, 15.4733 0.8670 4.7244, 15.3346 0.9733 4.7244, 15.1732 1.0402 4.7244, 15.0000 1.0630 4.7244, 14.8268 1.0402 4.7244, 14.6654 0.9733 4.7244, 14.5267 0.8670 4.7244, 14.4204 0.7283 4.7244, 14.3535 0.5669 4.7244, 14.3307 0.3937 4.7244, 14.3535 0.2205 4.7244, 14.4204 0.0591 4.7244, 14.5267 -0.0796 4.7244, 14.6654 -0.1859 4.7244, 14.8268 -0.2528 4.7244, 15.0000 -0.2756 4.7244, 15.1732 -0.2528 4.7244, 15.3346 -0.1859 4.7244, 15.4733 -0.0796 4.7244, 15.5796 0.0591 4.7244, 15.6465 0.2205 4.7244, 15.6693 0.3937 4.8425, 15.6465 0.5669 4.8425, 15.5796 0.7283 4.8425, 15.4733 0.8670 4.8425, 15.3346 0.9733 4.8425, 15.1732 1.0402 4.8425, 15.0000 1.0630 4.8425, 14.8268 1.0402 4.8425, 14.6654 0.9733 4.8425, 14.5267 0.8670 4.8425, 14.4204 0.7283 4.8425, 14.3535 0.5669 4.8425, 14.3307 0.3937 4.8425, 14.3535 0.2205 4.8425, 14.4204 0.0591 4.8425, 14.5267 -0.0796 4.8425, 14.6654 -0.1859 4.8425, 14.8268 -0.2528 4.8425, 15.0000 -0.2756 4.8425, 15.1732 -0.2528 4.8425, 15.3346 -0.1859 4.8425, 15.4733 -0.0796 4.8425, 15.5796 0.0591 4.8425, 15.6465 0.2205 4.8425, ] } coordIndex [ 23 22 21 20 19 18 17 16 15 14 13 12 11 10 9 8 7 6 5 4 3 2 1 0 -1, 24 25 26 27 28 29 30 31 32 33 34 35 36 37 38 39 40 41 42 43 44 45 46 47 -1, 0 1 25 24 -1, 1 2 26 25 -1, 2 3 27 26 -1, 3 4 28 27 -1, 4 5 29 28 -1, 5 6 30 29 -1, 6 7 31 30 -1, 7 8 32 31 -1, 8 9 33 32 -1, 9 10 34 33 -1, 10 11 35 34 -1, 11 12 36 35 -1, 12 13 37 36 -1, 13 14 38 37 -1, 14 15 39 38 -1, 15 16 40 39 -1, 16 17 41 40 -1, 17 18 42 41 -1, 18 19 43 42 -1, 19 20 44 43 -1, 20 21 45 44 -1, 21 22 46 45 -1, 22 23 47 46 -1, 23 0 24 47 -1, ] } }
Shape { appearance Appearance { material Material { diffuseColor 0.15 0.15 0.15 specularColor 0.3 0.3 0.3 shininess 0.3 } } geometry IndexedFaceSet { solid FALSE coord Coordinate { point [ 14.1339 -1.9685 0.9843, 15.8661 -1.9685 0.9843, 15.8661 -1.8504 0.9843, 14.1339 -1.8504 0.9843, 14.1339 -1.9685 3.1496, 15.8661 -1.9685 3.1496, 15.8661 -1.8504 3.1496, 14.1339 -1.8504 3.1496, ] } coordIndex [ 0 3 2 1 -1, 4 5 6 7 -1, 0 1 5 4 -1, 1 2 6 5 -1, 2 3 7 6 -1, 3 0 4 7 -1, ] } }
Shape { appearance Appearance { material Material { diffuseColor 0.60 0.60 0.62 specularColor 0.3 0.3 0.3 shininess 0.3 } } geometry IndexedFaceSet { solid FALSE coord Coordinate { point [ 18.6693 0.3937 4.7244, 18.6465 0.5669 4.7244, 18.5796 0.7283 4.7244, 18.4733 0.8670 4.7244, 18.3346 0.9733 4.7244, 18.1732 1.0402 4.7244, 18.0000 1.0630 4.7244, 17.8268 1.0402 4.7244, 17.6654 0.9733 4.7244, 17.5267 0.8670 4.7244, 17.4204 0.7283 4.7244, 17.3535 0.5669 4.7244, 17.3307 0.3937 4.7244, 17.3535 0.2205 4.7244, 17.4204 0.0591 4.7244, 17.5267 -0.0796 4.7244, 17.6654 -0.1859 4.7244, 17.8268 -0.2528 4.7244, 18.0000 -0.2756 4.7244, 18.1732 -0.2528 4.7244, 18.3346 -0.1859 4.7244, 18.4733 -0.0796 4.7244, 18.5796 0.0591 4.7244, 18.6465 0.2205 4.7244, 18.6693 0.3937 4.8425, 18.6465 0.5669 4.8425, 18.5796 0.7283 4.8425, 18.4733 0.8670 4.8425, 18.3346 0.9733 4.8425, 18.1732 1.0402 4.8425, 18.0000 1.0630 4.8425, 17.8268 1.0402 4.8425, 17.6654 0.9733 4.8425, 17.5267 0.8670 4.8425, 17.4204 0.7283 4.8425, 17.3535 0.5669 4.8425, 17.3307 0.3937 4.8425, 17.3535 0.2205 4.8425, 17.4204 0.0591 4.8425, 17.5267 -0.0796 4.8425, 17.6654 -0.1859 4.8425, 17.8268 -0.2528 4.8425, 18.0000 -0.2756 4.8425, 18.1732 -0.2528 4.8425, 18.3346 -0.1859 4.8425, 18.4733 -0.0796 4.8425, 18.5796 0.0591 4.8425, 18.6465 0.2205 4.8425, ] } coordIndex [ 23 22 21 20 19 18 17 16 15 14 13 12 11 10 9 8 7 6 5 4 3 2 1 0 -1, 24 25 26 27 28 29 30 31 32 33 34 35 36 37 38 39 40 41 42 43 44 45 46 47 -1, 0 1 25 24 -1, 1 2 26 25 -1, 2 3 27 26 -1, 3 4 28 27 -1, 4 5 29 28 -1, 5 6 30 29 -1, 6 7 31 30 -1, 7 8 32 31 -1, 8 9 33 32 -1, 9 10 34 33 -1, 10 11 35 34 -1, 11 12 36 35 -1, 12 13 37 36 -1, 13 14 38 37 -1, 14 15 39 38 -1, 15 16 40 39 -1, 16 17 41 40 -1, 17 18 42 41 -1, 18 19 43 42 -1, 19 20 44 43 -1, 20 21 45 44 -1, 21 22 46 45 -1, 22 23 47 46 -1, 23 0 24 47 -1, ] } }
Shape { appearance Appearance { material Material { diffuseColor 0.15 0.15 0.15 specularColor 0.3 0.3 0.3 shininess 0.3 } } geometry IndexedFaceSet { solid FALSE coord Coordinate { point [ 17.1339 -1.9685 0.9843, 18.8661 -1.9685 0.9843, 18.8661 -1.8504 0.9843, 17.1339 -1.8504 0.9843, 17.1339 -1.9685 3.1496, 18.8661 -1.9685 3.1496, 18.8661 -1.8504 3.1496, 17.1339 -1.8504 3.1496, ] } coordIndex [ 0 3 2 1 -1, 4 5 6 7 -1, 0 1 5 4 -1, 1 2 6 5 -1, 2 3 7 6 -1, 3 0 4 7 -1, ] } }
Shape { appearance Appearance { material Material { diffuseColor 0.60 0.60 0.62 specularColor 0.3 0.3 0.3 shininess 0.3 } } geometry IndexedFaceSet { solid FALSE coord Coordinate { point [ 21.6693 0.3937 4.7244, 21.6465 0.5669 4.7244, 21.5796 0.7283 4.7244, 21.4733 0.8670 4.7244, 21.3346 0.9733 4.7244, 21.1732 1.0402 4.7244, 21.0000 1.0630 4.7244, 20.8268 1.0402 4.7244, 20.6654 0.9733 4.7244, 20.5267 0.8670 4.7244, 20.4204 0.7283 4.7244, 20.3535 0.5669 4.7244, 20.3307 0.3937 4.7244, 20.3535 0.2205 4.7244, 20.4204 0.0591 4.7244, 20.5267 -0.0796 4.7244, 20.6654 -0.1859 4.7244, 20.8268 -0.2528 4.7244, 21.0000 -0.2756 4.7244, 21.1732 -0.2528 4.7244, 21.3346 -0.1859 4.7244, 21.4733 -0.0796 4.7244, 21.5796 0.0591 4.7244, 21.6465 0.2205 4.7244, 21.6693 0.3937 4.8425, 21.6465 0.5669 4.8425, 21.5796 0.7283 4.8425, 21.4733 0.8670 4.8425, 21.3346 0.9733 4.8425, 21.1732 1.0402 4.8425, 21.0000 1.0630 4.8425, 20.8268 1.0402 4.8425, 20.6654 0.9733 4.8425, 20.5267 0.8670 4.8425, 20.4204 0.7283 4.8425, 20.3535 0.5669 4.8425, 20.3307 0.3937 4.8425, 20.3535 0.2205 4.8425, 20.4204 0.0591 4.8425, 20.5267 -0.0796 4.8425, 20.6654 -0.1859 4.8425, 20.8268 -0.2528 4.8425, 21.0000 -0.2756 4.8425, 21.1732 -0.2528 4.8425, 21.3346 -0.1859 4.8425, 21.4733 -0.0796 4.8425, 21.5796 0.0591 4.8425, 21.6465 0.2205 4.8425, ] } coordIndex [ 23 22 21 20 19 18 17 16 15 14 13 12 11 10 9 8 7 6 5 4 3 2 1 0 -1, 24 25 26 27 28 29 30 31 32 33 34 35 36 37 38 39 40 41 42 43 44 45 46 47 -1, 0 1 25 24 -1, 1 2 26 25 -1, 2 3 27 26 -1, 3 4 28 27 -1, 4 5 29 28 -1, 5 6 30 29 -1, 6 7 31 30 -1, 7 8 32 31 -1, 8 9 33 32 -1, 9 10 34 33 -1, 10 11 35 34 -1, 11 12 36 35 -1, 12 13 37 36 -1, 13 14 38 37 -1, 14 15 39 38 -1, 15 16 40 39 -1, 16 17 41 40 -1, 17 18 42 41 -1, 18 19 43 42 -1, 19 20 44 43 -1, 20 21 45 44 -1, 21 22 46 45 -1, 22 23 47 46 -1, 23 0 24 47 -1, ] } }
Shape { appearance Appearance { material Material { diffuseColor 0.15 0.15 0.15 specularColor 0.3 0.3 0.3 shininess 0.3 } } geometry IndexedFaceSet { solid FALSE coord Coordinate { point [ 20.1339 -1.9685 0.9843, 21.8661 -1.9685 0.9843, 21.8661 -1.8504 0.9843, 20.1339 -1.8504 0.9843, 20.1339 -1.9685 3.1496, 21.8661 -1.9685 3.1496, 21.8661 -1.8504 3.1496, 20.1339 -1.8504 3.1496, ] } coordIndex [ 0 3 2 1 -1, 4 5 6 7 -1, 0 1 5 4 -1, 1 2 6 5 -1, 2 3 7 6 -1, 3 0 4 7 -1, ] } }
Shape { appearance Appearance { material Material { diffuseColor 0.60 0.60 0.62 specularColor 0.3 0.3 0.3 shininess 0.3 } } geometry IndexedFaceSet { solid FALSE coord Coordinate { point [ 24.6693 0.3937 4.7244, 24.6465 0.5669 4.7244, 24.5796 0.7283 4.7244, 24.4733 0.8670 4.7244, 24.3346 0.9733 4.7244, 24.1732 1.0402 4.7244, 24.0000 1.0630 4.7244, 23.8268 1.0402 4.7244, 23.6654 0.9733 4.7244, 23.5267 0.8670 4.7244, 23.4204 0.7283 4.7244, 23.3535 0.5669 4.7244, 23.3307 0.3937 4.7244, 23.3535 0.2205 4.7244, 23.4204 0.0591 4.7244, 23.5267 -0.0796 4.7244, 23.6654 -0.1859 4.7244, 23.8268 -0.2528 4.7244, 24.0000 -0.2756 4.7244, 24.1732 -0.2528 4.7244, 24.3346 -0.1859 4.7244, 24.4733 -0.0796 4.7244, 24.5796 0.0591 4.7244, 24.6465 0.2205 4.7244, 24.6693 0.3937 4.8425, 24.6465 0.5669 4.8425, 24.5796 0.7283 4.8425, 24.4733 0.8670 4.8425, 24.3346 0.9733 4.8425, 24.1732 1.0402 4.8425, 24.0000 1.0630 4.8425, 23.8268 1.0402 4.8425, 23.6654 0.9733 4.8425, 23.5267 0.8670 4.8425, 23.4204 0.7283 4.8425, 23.3535 0.5669 4.8425, 23.3307 0.3937 4.8425, 23.3535 0.2205 4.8425, 23.4204 0.0591 4.8425, 23.5267 -0.0796 4.8425, 23.6654 -0.1859 4.8425, 23.8268 -0.2528 4.8425, 24.0000 -0.2756 4.8425, 24.1732 -0.2528 4.8425, 24.3346 -0.1859 4.8425, 24.4733 -0.0796 4.8425, 24.5796 0.0591 4.8425, 24.6465 0.2205 4.8425, ] } coordIndex [ 23 22 21 20 19 18 17 16 15 14 13 12 11 10 9 8 7 6 5 4 3 2 1 0 -1, 24 25 26 27 28 29 30 31 32 33 34 35 36 37 38 39 40 41 42 43 44 45 46 47 -1, 0 1 25 24 -1, 1 2 26 25 -1, 2 3 27 26 -1, 3 4 28 27 -1, 4 5 29 28 -1, 5 6 30 29 -1, 6 7 31 30 -1, 7 8 32 31 -1, 8 9 33 32 -1, 9 10 34 33 -1, 10 11 35 34 -1, 11 12 36 35 -1, 12 13 37 36 -1, 13 14 38 37 -1, 14 15 39 38 -1, 15 16 40 39 -1, 16 17 41 40 -1, 17 18 42 41 -1, 18 19 43 42 -1, 19 20 44 43 -1, 20 21 45 44 -1, 21 22 46 45 -1, 22 23 47 46 -1, 23 0 24 47 -1, ] } }
Shape { appearance Appearance { material Material { diffuseColor 0.15 0.15 0.15 specularColor 0.3 0.3 0.3 shininess 0.3 } } geometry IndexedFaceSet { solid FALSE coord Coordinate { point [ 23.1339 -1.9685 0.9843, 24.8661 -1.9685 0.9843, 24.8661 -1.8504 0.9843, 23.1339 -1.8504 0.9843, 23.1339 -1.9685 3.1496, 24.8661 -1.9685 3.1496, 24.8661 -1.8504 3.1496, 23.1339 -1.8504 3.1496, ] } coordIndex [ 0 3 2 1 -1, 4 5 6 7 -1, 0 1 5 4 -1, 1 2 6 5 -1, 2 3 7 6 -1, 3 0 4 7 -1, ] } }
Shape { appearance Appearance { material Material { diffuseColor 0.60 0.60 0.62 specularColor 0.3 0.3 0.3 shininess 0.3 } } geometry IndexedFaceSet { solid FALSE coord Coordinate { point [ 27.6693 0.3937 4.7244, 27.6465 0.5669 4.7244, 27.5796 0.7283 4.7244, 27.4733 0.8670 4.7244, 27.3346 0.9733 4.7244, 27.1732 1.0402 4.7244, 27.0000 1.0630 4.7244, 26.8268 1.0402 4.7244, 26.6654 0.9733 4.7244, 26.5267 0.8670 4.7244, 26.4204 0.7283 4.7244, 26.3535 0.5669 4.7244, 26.3307 0.3937 4.7244, 26.3535 0.2205 4.7244, 26.4204 0.0591 4.7244, 26.5267 -0.0796 4.7244, 26.6654 -0.1859 4.7244, 26.8268 -0.2528 4.7244, 27.0000 -0.2756 4.7244, 27.1732 -0.2528 4.7244, 27.3346 -0.1859 4.7244, 27.4733 -0.0796 4.7244, 27.5796 0.0591 4.7244, 27.6465 0.2205 4.7244, 27.6693 0.3937 4.8425, 27.6465 0.5669 4.8425, 27.5796 0.7283 4.8425, 27.4733 0.8670 4.8425, 27.3346 0.9733 4.8425, 27.1732 1.0402 4.8425, 27.0000 1.0630 4.8425, 26.8268 1.0402 4.8425, 26.6654 0.9733 4.8425, 26.5267 0.8670 4.8425, 26.4204 0.7283 4.8425, 26.3535 0.5669 4.8425, 26.3307 0.3937 4.8425, 26.3535 0.2205 4.8425, 26.4204 0.0591 4.8425, 26.5267 -0.0796 4.8425, 26.6654 -0.1859 4.8425, 26.8268 -0.2528 4.8425, 27.0000 -0.2756 4.8425, 27.1732 -0.2528 4.8425, 27.3346 -0.1859 4.8425, 27.4733 -0.0796 4.8425, 27.5796 0.0591 4.8425, 27.6465 0.2205 4.8425, ] } coordIndex [ 23 22 21 20 19 18 17 16 15 14 13 12 11 10 9 8 7 6 5 4 3 2 1 0 -1, 24 25 26 27 28 29 30 31 32 33 34 35 36 37 38 39 40 41 42 43 44 45 46 47 -1, 0 1 25 24 -1, 1 2 26 25 -1, 2 3 27 26 -1, 3 4 28 27 -1, 4 5 29 28 -1, 5 6 30 29 -1, 6 7 31 30 -1, 7 8 32 31 -1, 8 9 33 32 -1, 9 10 34 33 -1, 10 11 35 34 -1, 11 12 36 35 -1, 12 13 37 36 -1, 13 14 38 37 -1, 14 15 39 38 -1, 15 16 40 39 -1, 16 17 41 40 -1, 17 18 42 41 -1, 18 19 43 42 -1, 19 20 44 43 -1, 20 21 45 44 -1, 21 22 46 45 -1, 22 23 47 46 -1, 23 0 24 47 -1, ] } }
Shape { appearance Appearance { material Material { diffuseColor 0.15 0.15 0.15 specularColor 0.3 0.3 0.3 shininess 0.3 } } geometry IndexedFaceSet { solid FALSE coord Coordinate { point [ 26.1339 -1.9685 0.9843, 27.8661 -1.9685 0.9843, 27.8661 -1.8504 0.9843, 26.1339 -1.8504 0.9843, 26.1339 -1.9685 3.1496, 27.8661 -1.9685 3.1496, 27.8661 -1.8504 3.1496, 26.1339 -1.8504 3.1496, ] } coordIndex [ 0 3 2 1 -1, 4 5 6 7 -1, 0 1 5 4 -1, 1 2 6 5 -1, 2 3 7 6 -1, 3 0 4 7 -1, ] } }
Shape { appearance Appearance { material Material { diffuseColor 0.60 0.60 0.62 specularColor 0.3 0.3 0.3 shininess 0.3 } } geometry IndexedFaceSet { solid FALSE coord Coordinate { point [ 30.6693 0.3937 4.7244, 30.6465 0.5669 4.7244, 30.5796 0.7283 4.7244, 30.4733 0.8670 4.7244, 30.3346 0.9733 4.7244, 30.1732 1.0402 4.7244, 30.0000 1.0630 4.7244, 29.8268 1.0402 4.7244, 29.6654 0.9733 4.7244, 29.5267 0.8670 4.7244, 29.4204 0.7283 4.7244, 29.3535 0.5669 4.7244, 29.3307 0.3937 4.7244, 29.3535 0.2205 4.7244, 29.4204 0.0591 4.7244, 29.5267 -0.0796 4.7244, 29.6654 -0.1859 4.7244, 29.8268 -0.2528 4.7244, 30.0000 -0.2756 4.7244, 30.1732 -0.2528 4.7244, 30.3346 -0.1859 4.7244, 30.4733 -0.0796 4.7244, 30.5796 0.0591 4.7244, 30.6465 0.2205 4.7244, 30.6693 0.3937 4.8425, 30.6465 0.5669 4.8425, 30.5796 0.7283 4.8425, 30.4733 0.8670 4.8425, 30.3346 0.9733 4.8425, 30.1732 1.0402 4.8425, 30.0000 1.0630 4.8425, 29.8268 1.0402 4.8425, 29.6654 0.9733 4.8425, 29.5267 0.8670 4.8425, 29.4204 0.7283 4.8425, 29.3535 0.5669 4.8425, 29.3307 0.3937 4.8425, 29.3535 0.2205 4.8425, 29.4204 0.0591 4.8425, 29.5267 -0.0796 4.8425, 29.6654 -0.1859 4.8425, 29.8268 -0.2528 4.8425, 30.0000 -0.2756 4.8425, 30.1732 -0.2528 4.8425, 30.3346 -0.1859 4.8425, 30.4733 -0.0796 4.8425, 30.5796 0.0591 4.8425, 30.6465 0.2205 4.8425, ] } coordIndex [ 23 22 21 20 19 18 17 16 15 14 13 12 11 10 9 8 7 6 5 4 3 2 1 0 -1, 24 25 26 27 28 29 30 31 32 33 34 35 36 37 38 39 40 41 42 43 44 45 46 47 -1, 0 1 25 24 -1, 1 2 26 25 -1, 2 3 27 26 -1, 3 4 28 27 -1, 4 5 29 28 -1, 5 6 30 29 -1, 6 7 31 30 -1, 7 8 32 31 -1, 8 9 33 32 -1, 9 10 34 33 -1, 10 11 35 34 -1, 11 12 36 35 -1, 12 13 37 36 -1, 13 14 38 37 -1, 14 15 39 38 -1, 15 16 40 39 -1, 16 17 41 40 -1, 17 18 42 41 -1, 18 19 43 42 -1, 19 20 44 43 -1, 20 21 45 44 -1, 21 22 46 45 -1, 22 23 47 46 -1, 23 0 24 47 -1, ] } }
Shape { appearance Appearance { material Material { diffuseColor 0.15 0.15 0.15 specularColor 0.3 0.3 0.3 shininess 0.3 } } geometry IndexedFaceSet { solid FALSE coord Coordinate { point [ 29.1339 -1.9685 0.9843, 30.8661 -1.9685 0.9843, 30.8661 -1.8504 0.9843, 29.1339 -1.8504 0.9843, 29.1339 -1.9685 3.1496, 30.8661 -1.9685 3.1496, 30.8661 -1.8504 3.1496, 29.1339 -1.8504 3.1496, ] } coordIndex [ 0 3 2 1 -1, 4 5 6 7 -1, 0 1 5 4 -1, 1 2 6 5 -1, 2 3 7 6 -1, 3 0 4 7 -1, ] } }
Shape { appearance Appearance { material Material { diffuseColor 0.60 0.60 0.62 specularColor 0.3 0.3 0.3 shininess 0.3 } } geometry IndexedFaceSet { solid FALSE coord Coordinate { point [ 33.6693 0.3937 4.7244, 33.6465 0.5669 4.7244, 33.5796 0.7283 4.7244, 33.4733 0.8670 4.7244, 33.3346 0.9733 4.7244, 33.1732 1.0402 4.7244, 33.0000 1.0630 4.7244, 32.8268 1.0402 4.7244, 32.6654 0.9733 4.7244, 32.5267 0.8670 4.7244, 32.4204 0.7283 4.7244, 32.3535 0.5669 4.7244, 32.3307 0.3937 4.7244, 32.3535 0.2205 4.7244, 32.4204 0.0591 4.7244, 32.5267 -0.0796 4.7244, 32.6654 -0.1859 4.7244, 32.8268 -0.2528 4.7244, 33.0000 -0.2756 4.7244, 33.1732 -0.2528 4.7244, 33.3346 -0.1859 4.7244, 33.4733 -0.0796 4.7244, 33.5796 0.0591 4.7244, 33.6465 0.2205 4.7244, 33.6693 0.3937 4.8425, 33.6465 0.5669 4.8425, 33.5796 0.7283 4.8425, 33.4733 0.8670 4.8425, 33.3346 0.9733 4.8425, 33.1732 1.0402 4.8425, 33.0000 1.0630 4.8425, 32.8268 1.0402 4.8425, 32.6654 0.9733 4.8425, 32.5267 0.8670 4.8425, 32.4204 0.7283 4.8425, 32.3535 0.5669 4.8425, 32.3307 0.3937 4.8425, 32.3535 0.2205 4.8425, 32.4204 0.0591 4.8425, 32.5267 -0.0796 4.8425, 32.6654 -0.1859 4.8425, 32.8268 -0.2528 4.8425, 33.0000 -0.2756 4.8425, 33.1732 -0.2528 4.8425, 33.3346 -0.1859 4.8425, 33.4733 -0.0796 4.8425, 33.5796 0.0591 4.8425, 33.6465 0.2205 4.8425, ] } coordIndex [ 23 22 21 20 19 18 17 16 15 14 13 12 11 10 9 8 7 6 5 4 3 2 1 0 -1, 24 25 26 27 28 29 30 31 32 33 34 35 36 37 38 39 40 41 42 43 44 45 46 47 -1, 0 1 25 24 -1, 1 2 26 25 -1, 2 3 27 26 -1, 3 4 28 27 -1, 4 5 29 28 -1, 5 6 30 29 -1, 6 7 31 30 -1, 7 8 32 31 -1, 8 9 33 32 -1, 9 10 34 33 -1, 10 11 35 34 -1, 11 12 36 35 -1, 12 13 37 36 -1, 13 14 38 37 -1, 14 15 39 38 -1, 15 16 40 39 -1, 16 17 41 40 -1, 17 18 42 41 -1, 18 19 43 42 -1, 19 20 44 43 -1, 20 21 45 44 -1, 21 22 46 45 -1, 22 23 47 46 -1, 23 0 24 47 -1, ] } }
Shape { appearance Appearance { material Material { diffuseColor 0.15 0.15 0.15 specularColor 0.3 0.3 0.3 shininess 0.3 } } geometry IndexedFaceSet { solid FALSE coord Coordinate { point [ 32.1339 -1.9685 0.9843, 33.8661 -1.9685 0.9843, 33.8661 -1.8504 0.9843, 32.1339 -1.8504 0.9843, 32.1339 -1.9685 3.1496, 33.8661 -1.9685 3.1496, 33.8661 -1.8504 3.1496, 32.1339 -1.8504 3.1496, ] } coordIndex [ 0 3 2 1 -1, 4 5 6 7 -1, 0 1 5 4 -1, 1 2 6 5 -1, 2 3 7 6 -1, 3 0 4 7 -1, ] } }
Shape { appearance Appearance { material Material { diffuseColor 0.60 0.60 0.62 specularColor 0.3 0.3 0.3 shininess 0.3 } } geometry IndexedFaceSet { solid FALSE coord Coordinate { point [ 36.6693 0.3937 4.7244, 36.6465 0.5669 4.7244, 36.5796 0.7283 4.7244, 36.4733 0.8670 4.7244, 36.3346 0.9733 4.7244, 36.1732 1.0402 4.7244, 36.0000 1.0630 4.7244, 35.8268 1.0402 4.7244, 35.6654 0.9733 4.7244, 35.5267 0.8670 4.7244, 35.4204 0.7283 4.7244, 35.3535 0.5669 4.7244, 35.3307 0.3937 4.7244, 35.3535 0.2205 4.7244, 35.4204 0.0591 4.7244, 35.5267 -0.0796 4.7244, 35.6654 -0.1859 4.7244, 35.8268 -0.2528 4.7244, 36.0000 -0.2756 4.7244, 36.1732 -0.2528 4.7244, 36.3346 -0.1859 4.7244, 36.4733 -0.0796 4.7244, 36.5796 0.0591 4.7244, 36.6465 0.2205 4.7244, 36.6693 0.3937 4.8425, 36.6465 0.5669 4.8425, 36.5796 0.7283 4.8425, 36.4733 0.8670 4.8425, 36.3346 0.9733 4.8425, 36.1732 1.0402 4.8425, 36.0000 1.0630 4.8425, 35.8268 1.0402 4.8425, 35.6654 0.9733 4.8425, 35.5267 0.8670 4.8425, 35.4204 0.7283 4.8425, 35.3535 0.5669 4.8425, 35.3307 0.3937 4.8425, 35.3535 0.2205 4.8425, 35.4204 0.0591 4.8425, 35.5267 -0.0796 4.8425, 35.6654 -0.1859 4.8425, 35.8268 -0.2528 4.8425, 36.0000 -0.2756 4.8425, 36.1732 -0.2528 4.8425, 36.3346 -0.1859 4.8425, 36.4733 -0.0796 4.8425, 36.5796 0.0591 4.8425, 36.6465 0.2205 4.8425, ] } coordIndex [ 23 22 21 20 19 18 17 16 15 14 13 12 11 10 9 8 7 6 5 4 3 2 1 0 -1, 24 25 26 27 28 29 30 31 32 33 34 35 36 37 38 39 40 41 42 43 44 45 46 47 -1, 0 1 25 24 -1, 1 2 26 25 -1, 2 3 27 26 -1, 3 4 28 27 -1, 4 5 29 28 -1, 5 6 30 29 -1, 6 7 31 30 -1, 7 8 32 31 -1, 8 9 33 32 -1, 9 10 34 33 -1, 10 11 35 34 -1, 11 12 36 35 -1, 12 13 37 36 -1, 13 14 38 37 -1, 14 15 39 38 -1, 15 16 40 39 -1, 16 17 41 40 -1, 17 18 42 41 -1, 18 19 43 42 -1, 19 20 44 43 -1, 20 21 45 44 -1, 21 22 46 45 -1, 22 23 47 46 -1, 23 0 24 47 -1, ] } }
Shape { appearance Appearance { material Material { diffuseColor 0.15 0.15 0.15 specularColor 0.3 0.3 0.3 shininess 0.3 } } geometry IndexedFaceSet { solid FALSE coord Coordinate { point [ 35.1339 -1.9685 0.9843, 36.8661 -1.9685 0.9843, 36.8661 -1.8504 0.9843, 35.1339 -1.8504 0.9843, 35.1339 -1.9685 3.1496, 36.8661 -1.9685 3.1496, 36.8661 -1.8504 3.1496, 35.1339 -1.8504 3.1496, ] } coordIndex [ 0 3 2 1 -1, 4 5 6 7 -1, 0 1 5 4 -1, 1 2 6 5 -1, 2 3 7 6 -1, 3 0 4 7 -1, ] } }
Shape { appearance Appearance { material Material { diffuseColor 0.60 0.60 0.62 specularColor 0.3 0.3 0.3 shininess 0.3 } } geometry IndexedFaceSet { solid FALSE coord Coordinate { point [ 39.6693 0.3937 4.7244, 39.6465 0.5669 4.7244, 39.5796 0.7283 4.7244, 39.4733 0.8670 4.7244, 39.3346 0.9733 4.7244, 39.1732 1.0402 4.7244, 39.0000 1.0630 4.7244, 38.8268 1.0402 4.7244, 38.6654 0.9733 4.7244, 38.5267 0.8670 4.7244, 38.4204 0.7283 4.7244, 38.3535 0.5669 4.7244, 38.3307 0.3937 4.7244, 38.3535 0.2205 4.7244, 38.4204 0.0591 4.7244, 38.5267 -0.0796 4.7244, 38.6654 -0.1859 4.7244, 38.8268 -0.2528 4.7244, 39.0000 -0.2756 4.7244, 39.1732 -0.2528 4.7244, 39.3346 -0.1859 4.7244, 39.4733 -0.0796 4.7244, 39.5796 0.0591 4.7244, 39.6465 0.2205 4.7244, 39.6693 0.3937 4.8425, 39.6465 0.5669 4.8425, 39.5796 0.7283 4.8425, 39.4733 0.8670 4.8425, 39.3346 0.9733 4.8425, 39.1732 1.0402 4.8425, 39.0000 1.0630 4.8425, 38.8268 1.0402 4.8425, 38.6654 0.9733 4.8425, 38.5267 0.8670 4.8425, 38.4204 0.7283 4.8425, 38.3535 0.5669 4.8425, 38.3307 0.3937 4.8425, 38.3535 0.2205 4.8425, 38.4204 0.0591 4.8425, 38.5267 -0.0796 4.8425, 38.6654 -0.1859 4.8425, 38.8268 -0.2528 4.8425, 39.0000 -0.2756 4.8425, 39.1732 -0.2528 4.8425, 39.3346 -0.1859 4.8425, 39.4733 -0.0796 4.8425, 39.5796 0.0591 4.8425, 39.6465 0.2205 4.8425, ] } coordIndex [ 23 22 21 20 19 18 17 16 15 14 13 12 11 10 9 8 7 6 5 4 3 2 1 0 -1, 24 25 26 27 28 29 30 31 32 33 34 35 36 37 38 39 40 41 42 43 44 45 46 47 -1, 0 1 25 24 -1, 1 2 26 25 -1, 2 3 27 26 -1, 3 4 28 27 -1, 4 5 29 28 -1, 5 6 30 29 -1, 6 7 31 30 -1, 7 8 32 31 -1, 8 9 33 32 -1, 9 10 34 33 -1, 10 11 35 34 -1, 11 12 36 35 -1, 12 13 37 36 -1, 13 14 38 37 -1, 14 15 39 38 -1, 15 16 40 39 -1, 16 17 41 40 -1, 17 18 42 41 -1, 18 19 43 42 -1, 19 20 44 43 -1, 20 21 45 44 -1, 21 22 46 45 -1, 22 23 47 46 -1, 23 0 24 47 -1, ] } }
Shape { appearance Appearance { material Material { diffuseColor 0.15 0.15 0.15 specularColor 0.3 0.3 0.3 shininess 0.3 } } geometry IndexedFaceSet { solid FALSE coord Coordinate { point [ 38.1339 -1.9685 0.9843, 39.8661 -1.9685 0.9843, 39.8661 -1.8504 0.9843, 38.1339 -1.8504 0.9843, 38.1339 -1.9685 3.1496, 39.8661 -1.9685 3.1496, 39.8661 -1.8504 3.1496, 38.1339 -1.8504 3.1496, ] } coordIndex [ 0 3 2 1 -1, 4 5 6 7 -1, 0 1 5 4 -1, 1 2 6 5 -1, 2 3 7 6 -1, 3 0 4 7 -1, ] } }
Shape { appearance Appearance { material Material { diffuseColor 0.60 0.60 0.62 specularColor 0.3 0.3 0.3 shininess 0.3 } } geometry IndexedFaceSet { solid FALSE coord Coordinate { point [ 42.6693 0.3937 4.7244, 42.6465 0.5669 4.7244, 42.5796 0.7283 4.7244, 42.4733 0.8670 4.7244, 42.3346 0.9733 4.7244, 42.1732 1.0402 4.7244, 42.0000 1.0630 4.7244, 41.8268 1.0402 4.7244, 41.6654 0.9733 4.7244, 41.5267 0.8670 4.7244, 41.4204 0.7283 4.7244, 41.3535 0.5669 4.7244, 41.3307 0.3937 4.7244, 41.3535 0.2205 4.7244, 41.4204 0.0591 4.7244, 41.5267 -0.0796 4.7244, 41.6654 -0.1859 4.7244, 41.8268 -0.2528 4.7244, 42.0000 -0.2756 4.7244, 42.1732 -0.2528 4.7244, 42.3346 -0.1859 4.7244, 42.4733 -0.0796 4.7244, 42.5796 0.0591 4.7244, 42.6465 0.2205 4.7244, 42.6693 0.3937 4.8425, 42.6465 0.5669 4.8425, 42.5796 0.7283 4.8425, 42.4733 0.8670 4.8425, 42.3346 0.9733 4.8425, 42.1732 1.0402 4.8425, 42.0000 1.0630 4.8425, 41.8268 1.0402 4.8425, 41.6654 0.9733 4.8425, 41.5267 0.8670 4.8425, 41.4204 0.7283 4.8425, 41.3535 0.5669 4.8425, 41.3307 0.3937 4.8425, 41.3535 0.2205 4.8425, 41.4204 0.0591 4.8425, 41.5267 -0.0796 4.8425, 41.6654 -0.1859 4.8425, 41.8268 -0.2528 4.8425, 42.0000 -0.2756 4.8425, 42.1732 -0.2528 4.8425, 42.3346 -0.1859 4.8425, 42.4733 -0.0796 4.8425, 42.5796 0.0591 4.8425, 42.6465 0.2205 4.8425, ] } coordIndex [ 23 22 21 20 19 18 17 16 15 14 13 12 11 10 9 8 7 6 5 4 3 2 1 0 -1, 24 25 26 27 28 29 30 31 32 33 34 35 36 37 38 39 40 41 42 43 44 45 46 47 -1, 0 1 25 24 -1, 1 2 26 25 -1, 2 3 27 26 -1, 3 4 28 27 -1, 4 5 29 28 -1, 5 6 30 29 -1, 6 7 31 30 -1, 7 8 32 31 -1, 8 9 33 32 -1, 9 10 34 33 -1, 10 11 35 34 -1, 11 12 36 35 -1, 12 13 37 36 -1, 13 14 38 37 -1, 14 15 39 38 -1, 15 16 40 39 -1, 16 17 41 40 -1, 17 18 42 41 -1, 18 19 43 42 -1, 19 20 44 43 -1, 20 21 45 44 -1, 21 22 46 45 -1, 22 23 47 46 -1, 23 0 24 47 -1, ] } }
Shape { appearance Appearance { material Material { diffuseColor 0.15 0.15 0.15 specularColor 0.3 0.3 0.3 shininess 0.3 } } geometry IndexedFaceSet { solid FALSE coord Coordinate { point [ 41.1339 -1.9685 0.9843, 42.8661 -1.9685 0.9843, 42.8661 -1.8504 0.9843, 41.1339 -1.8504 0.9843, 41.1339 -1.9685 3.1496, 42.8661 -1.9685 3.1496, 42.8661 -1.8504 3.1496, 41.1339 -1.8504 3.1496, ] } coordIndex [ 0 3 2 1 -1, 4 5 6 7 -1, 0 1 5 4 -1, 1 2 6 5 -1, 2 3 7 6 -1, 3 0 4 7 -1, ] } }
Shape { appearance Appearance { material Material { diffuseColor 0.60 0.60 0.62 specularColor 0.3 0.3 0.3 shininess 0.3 } } geometry IndexedFaceSet { solid FALSE coord Coordinate { point [ 45.6693 0.3937 4.7244, 45.6465 0.5669 4.7244, 45.5796 0.7283 4.7244, 45.4733 0.8670 4.7244, 45.3346 0.9733 4.7244, 45.1732 1.0402 4.7244, 45.0000 1.0630 4.7244, 44.8268 1.0402 4.7244, 44.6654 0.9733 4.7244, 44.5267 0.8670 4.7244, 44.4204 0.7283 4.7244, 44.3535 0.5669 4.7244, 44.3307 0.3937 4.7244, 44.3535 0.2205 4.7244, 44.4204 0.0591 4.7244, 44.5267 -0.0796 4.7244, 44.6654 -0.1859 4.7244, 44.8268 -0.2528 4.7244, 45.0000 -0.2756 4.7244, 45.1732 -0.2528 4.7244, 45.3346 -0.1859 4.7244, 45.4733 -0.0796 4.7244, 45.5796 0.0591 4.7244, 45.6465 0.2205 4.7244, 45.6693 0.3937 4.8425, 45.6465 0.5669 4.8425, 45.5796 0.7283 4.8425, 45.4733 0.8670 4.8425, 45.3346 0.9733 4.8425, 45.1732 1.0402 4.8425, 45.0000 1.0630 4.8425, 44.8268 1.0402 4.8425, 44.6654 0.9733 4.8425, 44.5267 0.8670 4.8425, 44.4204 0.7283 4.8425, 44.3535 0.5669 4.8425, 44.3307 0.3937 4.8425, 44.3535 0.2205 4.8425, 44.4204 0.0591 4.8425, 44.5267 -0.0796 4.8425, 44.6654 -0.1859 4.8425, 44.8268 -0.2528 4.8425, 45.0000 -0.2756 4.8425, 45.1732 -0.2528 4.8425, 45.3346 -0.1859 4.8425, 45.4733 -0.0796 4.8425, 45.5796 0.0591 4.8425, 45.6465 0.2205 4.8425, ] } coordIndex [ 23 22 21 20 19 18 17 16 15 14 13 12 11 10 9 8 7 6 5 4 3 2 1 0 -1, 24 25 26 27 28 29 30 31 32 33 34 35 36 37 38 39 40 41 42 43 44 45 46 47 -1, 0 1 25 24 -1, 1 2 26 25 -1, 2 3 27 26 -1, 3 4 28 27 -1, 4 5 29 28 -1, 5 6 30 29 -1, 6 7 31 30 -1, 7 8 32 31 -1, 8 9 33 32 -1, 9 10 34 33 -1, 10 11 35 34 -1, 11 12 36 35 -1, 12 13 37 36 -1, 13 14 38 37 -1, 14 15 39 38 -1, 15 16 40 39 -1, 16 17 41 40 -1, 17 18 42 41 -1, 18 19 43 42 -1, 19 20 44 43 -1, 20 21 45 44 -1, 21 22 46 45 -1, 22 23 47 46 -1, 23 0 24 47 -1, ] } }
Shape { appearance Appearance { material Material { diffuseColor 0.15 0.15 0.15 specularColor 0.3 0.3 0.3 shininess 0.3 } } geometry IndexedFaceSet { solid FALSE coord Coordinate { point [ 44.1339 -1.9685 0.9843, 45.8661 -1.9685 0.9843, 45.8661 -1.8504 0.9843, 44.1339 -1.8504 0.9843, 44.1339 -1.9685 3.1496, 45.8661 -1.9685 3.1496, 45.8661 -1.8504 3.1496, 44.1339 -1.8504 3.1496, ] } coordIndex [ 0 3 2 1 -1, 4 5 6 7 -1, 0 1 5 4 -1, 1 2 6 5 -1, 2 3 7 6 -1, 3 0 4 7 -1, ] } }
