%TF.GenerationSoftware,KiCad,Pcbnew,10.0.6*%
%TF.CreationDate,2026-09-19T23:31:24+00:00*%
%TF.ProjectId,eswitch,65737769-7463-4682-9e6b-696361645f70,rev?*%
%TF.SameCoordinates,Original*%
%TF.FileFunction,Paste,Bot*%
%TF.FilePolarity,Positive*%
%FSLAX46Y46*%
G04 Gerber Fmt 4.6, Leading zero omitted, Abs format (unit mm)*
G04 Created by KiCad (PCBNEW 10.0.6) date 2026-09-19 23:31:24*
%MOMM*%
%LPD*%
G01*
G04 APERTURE LIST*
G04 Aperture macros list*
%AMRoundRect*
0 Rectangle with rounded corners*
0 $1 Rounding radius*
0 $2 $3 $4 $5 $6 $7 $8 $9 X,Y pos of 4 corners*
0 Add a 4 corners polygon primitive as box body*
4,1,4,$2,$3,$4,$5,$6,$7,$8,$9,$2,$3,0*
0 Add four circle primitives for the rounded corners*
1,1,$1+$1,$2,$3*
1,1,$1+$1,$4,$5*
1,1,$1+$1,$6,$7*
1,1,$1+$1,$8,$9*
0 Add four rect primitives between the rounded corners*
20,1,$1+$1,$2,$3,$4,$5,0*
20,1,$1+$1,$4,$5,$6,$7,0*
20,1,$1+$1,$6,$7,$8,$9,0*
20,1,$1+$1,$8,$9,$2,$3,0*%
G04 Aperture macros list end*
%ADD10RoundRect,0.250000X-1.100000X0.325000X-1.100000X-0.325000X1.100000X-0.325000X1.100000X0.325000X0*%
%ADD11RoundRect,0.150000X0.512500X0.150000X-0.512500X0.150000X-0.512500X-0.150000X0.512500X-0.150000X0*%
%ADD12RoundRect,0.250000X1.000000X-1.400000X1.000000X1.400000X-1.000000X1.400000X-1.000000X-1.400000X0*%
%ADD13RoundRect,0.200000X0.200000X0.275000X-0.200000X0.275000X-0.200000X-0.275000X0.200000X-0.275000X0*%
%ADD14RoundRect,0.250000X-0.475000X0.250000X-0.475000X-0.250000X0.475000X-0.250000X0.475000X0.250000X0*%
%ADD15R,3.680000X3.050000*%
%ADD16RoundRect,0.100000X0.100000X-0.637500X0.100000X0.637500X-0.100000X0.637500X-0.100000X-0.637500X0*%
%ADD17R,2.650000X1.850000*%
%ADD18R,1.310000X0.450000*%
%ADD19RoundRect,0.200000X-0.275000X0.200000X-0.275000X-0.200000X0.275000X-0.200000X0.275000X0.200000X0*%
%ADD20RoundRect,0.150000X0.587500X0.150000X-0.587500X0.150000X-0.587500X-0.150000X0.587500X-0.150000X0*%
%ADD21RoundRect,0.250000X-2.375000X2.025000X-2.375000X-2.025000X2.375000X-2.025000X2.375000X2.025000X0*%
%ADD22RoundRect,0.250000X-0.300000X2.050000X-0.300000X-2.050000X0.300000X-2.050000X0.300000X2.050000X0*%
%ADD23RoundRect,0.100000X0.637500X0.100000X-0.637500X0.100000X-0.637500X-0.100000X0.637500X-0.100000X0*%
%ADD24RoundRect,0.250000X0.325000X0.650000X-0.325000X0.650000X-0.325000X-0.650000X0.325000X-0.650000X0*%
%ADD25RoundRect,0.300000X0.300000X-0.400000X0.300000X0.400000X-0.300000X0.400000X-0.300000X-0.400000X0*%
%ADD26RoundRect,0.287500X0.737500X-0.287500X0.737500X0.287500X-0.737500X0.287500X-0.737500X-0.287500X0*%
%ADD27RoundRect,0.300000X0.300000X-0.325000X0.300000X0.325000X-0.300000X0.325000X-0.300000X-0.325000X0*%
%ADD28RoundRect,0.175000X0.175000X-0.450000X0.175000X0.450000X-0.175000X0.450000X-0.175000X-0.450000X0*%
%ADD29RoundRect,0.175000X0.875000X-0.175000X0.875000X0.175000X-0.875000X0.175000X-0.875000X-0.175000X0*%
%ADD30RoundRect,0.250000X0.250000X0.475000X-0.250000X0.475000X-0.250000X-0.475000X0.250000X-0.475000X0*%
%ADD31RoundRect,0.225000X-0.250000X0.225000X-0.250000X-0.225000X0.250000X-0.225000X0.250000X0.225000X0*%
%ADD32RoundRect,0.250000X-0.450000X0.262500X-0.450000X-0.262500X0.450000X-0.262500X0.450000X0.262500X0*%
%ADD33RoundRect,0.218750X0.256250X-0.218750X0.256250X0.218750X-0.256250X0.218750X-0.256250X-0.218750X0*%
%ADD34RoundRect,0.250000X0.375000X0.625000X-0.375000X0.625000X-0.375000X-0.625000X0.375000X-0.625000X0*%
%ADD35R,3.680000X1.650000*%
%ADD36RoundRect,0.150000X-0.150000X-0.355000X0.150000X-0.355000X0.150000X0.355000X-0.150000X0.355000X0*%
%ADD37RoundRect,0.062500X-0.375000X-0.062500X0.375000X-0.062500X0.375000X0.062500X-0.375000X0.062500X0*%
%ADD38RoundRect,0.225000X0.225000X0.250000X-0.225000X0.250000X-0.225000X-0.250000X0.225000X-0.250000X0*%
%ADD39R,0.900000X0.900000*%
%ADD40RoundRect,0.162500X-0.437500X-0.162500X0.437500X-0.162500X0.437500X0.162500X-0.437500X0.162500X0*%
%ADD41RoundRect,0.175000X-0.325000X-0.175000X0.325000X-0.175000X0.325000X0.175000X-0.325000X0.175000X0*%
%ADD42RoundRect,0.250000X0.325000X1.100000X-0.325000X1.100000X-0.325000X-1.100000X0.325000X-1.100000X0*%
%ADD43R,2.550000X5.600000*%
%ADD44R,2.550000X0.900000*%
%ADD45R,1.500000X0.900000*%
%ADD46R,0.900000X1.500000*%
%ADD47RoundRect,0.300000X0.400000X0.300000X-0.400000X0.300000X-0.400000X-0.300000X0.400000X-0.300000X0*%
%ADD48RoundRect,0.287500X0.287500X0.737500X-0.287500X0.737500X-0.287500X-0.737500X0.287500X-0.737500X0*%
%ADD49RoundRect,0.300000X0.325000X0.300000X-0.325000X0.300000X-0.325000X-0.300000X0.325000X-0.300000X0*%
%ADD50RoundRect,0.175000X0.450000X0.175000X-0.450000X0.175000X-0.450000X-0.175000X0.450000X-0.175000X0*%
%ADD51RoundRect,0.175000X0.175000X0.875000X-0.175000X0.875000X-0.175000X-0.875000X0.175000X-0.875000X0*%
%ADD52RoundRect,0.200000X-0.200000X-0.275000X0.200000X-0.275000X0.200000X0.275000X-0.200000X0.275000X0*%
%ADD53RoundRect,0.150000X0.405000X-0.150000X0.405000X0.150000X-0.405000X0.150000X-0.405000X-0.150000X0*%
%ADD54RoundRect,0.150000X0.425000X-0.150000X0.425000X0.150000X-0.425000X0.150000X-0.425000X-0.150000X0*%
%ADD55RoundRect,0.075000X0.500000X-0.075000X0.500000X0.075000X-0.500000X0.075000X-0.500000X-0.075000X0*%
%ADD56O,1.920000X1.120000*%
%ADD57O,2.220000X1.120000*%
%ADD58RoundRect,0.218750X0.218750X0.256250X-0.218750X0.256250X-0.218750X-0.256250X0.218750X-0.256250X0*%
%ADD59RoundRect,0.250000X2.375000X-2.025000X2.375000X2.025000X-2.375000X2.025000X-2.375000X-2.025000X0*%
%ADD60RoundRect,0.250000X0.300000X-2.050000X0.300000X2.050000X-0.300000X2.050000X-0.300000X-2.050000X0*%
%ADD61RoundRect,0.250000X1.000000X0.650000X-1.000000X0.650000X-1.000000X-0.650000X1.000000X-0.650000X0*%
%ADD62RoundRect,0.150000X0.150000X0.355000X-0.150000X0.355000X-0.150000X-0.355000X0.150000X-0.355000X0*%
%ADD63RoundRect,0.062500X0.375000X0.062500X-0.375000X0.062500X-0.375000X-0.062500X0.375000X-0.062500X0*%
%ADD64RoundRect,0.225000X-0.225000X-0.250000X0.225000X-0.250000X0.225000X0.250000X-0.225000X0.250000X0*%
%ADD65RoundRect,0.025000X0.387500X0.100000X-0.387500X0.100000X-0.387500X-0.100000X0.387500X-0.100000X0*%
%ADD66RoundRect,0.050000X0.200000X0.262500X-0.200000X0.262500X-0.200000X-0.262500X0.200000X-0.262500X0*%
%ADD67RoundRect,0.025000X0.100000X0.450000X-0.100000X0.450000X-0.100000X-0.450000X0.100000X-0.450000X0*%
%ADD68RoundRect,0.025000X0.400000X0.100000X-0.400000X0.100000X-0.400000X-0.100000X0.400000X-0.100000X0*%
%ADD69RoundRect,0.025000X0.100000X0.325000X-0.100000X0.325000X-0.100000X-0.325000X0.100000X-0.325000X0*%
%ADD70RoundRect,0.074000X0.551000X0.296000X-0.551000X0.296000X-0.551000X-0.296000X0.551000X-0.296000X0*%
%ADD71RoundRect,0.100000X0.700000X0.400000X-0.700000X0.400000X-0.700000X-0.400000X0.700000X-0.400000X0*%
G04 APERTURE END LIST*
D10*
%TO.C,C7*%
X27000000Y-47325000D03*
X27000000Y-50275000D03*
%TD*%
D11*
%TO.C,U11*%
X14137500Y-50550000D03*
X14137500Y-51500000D03*
X14137500Y-52450000D03*
X11862500Y-52450000D03*
X11862500Y-51500000D03*
X11862500Y-50550000D03*
%TD*%
D12*
%TO.C,D6*%
X114400000Y-28500000D03*
X107600000Y-28500000D03*
%TD*%
D13*
%TO.C,R212*%
X153325000Y-36000000D03*
X151675000Y-36000000D03*
%TD*%
D14*
%TO.C,C20*%
X17000000Y-57050000D03*
X17000000Y-58950000D03*
%TD*%
D15*
%TO.C,R820*%
X318000000Y-59340000D03*
X318000000Y-63660000D03*
%TD*%
D16*
%TO.C,U14*%
X86450000Y-37362500D03*
X85800000Y-37362500D03*
X85150000Y-37362500D03*
X84500000Y-37362500D03*
X83850000Y-37362500D03*
X83200000Y-37362500D03*
X82550000Y-37362500D03*
X82550000Y-31637500D03*
X83200000Y-31637500D03*
X83850000Y-31637500D03*
X84500000Y-31637500D03*
X85150000Y-31637500D03*
X85800000Y-31637500D03*
X86450000Y-31637500D03*
%TD*%
D17*
%TO.C,U1*%
X136000000Y-124425000D03*
X136000000Y-126575000D03*
D18*
X133150000Y-127450000D03*
X133150000Y-126800000D03*
X133150000Y-126150000D03*
X133155000Y-125500000D03*
X133150000Y-124850000D03*
X133150000Y-124200000D03*
X133150000Y-123550000D03*
X138850000Y-123550000D03*
X138850000Y-124200000D03*
X138850000Y-124850000D03*
X138850000Y-125500000D03*
X138850000Y-126150000D03*
X138850000Y-126800000D03*
X138850000Y-127450000D03*
%TD*%
D19*
%TO.C,R602*%
X264200000Y-135875000D03*
X264200000Y-137525000D03*
%TD*%
D20*
%TO.C,Q33*%
X193937500Y-69050000D03*
X193937500Y-70950000D03*
X192062500Y-70000000D03*
%TD*%
D21*
%TO.C,D711*%
X286275000Y-85075000D03*
X280725000Y-85075000D03*
X286275000Y-89925000D03*
X280725000Y-89925000D03*
D22*
X280960000Y-78350000D03*
X286040000Y-78350000D03*
%TD*%
D23*
%TO.C,U24*%
X203362500Y-60550000D03*
X203362500Y-61200000D03*
X203362500Y-61850000D03*
X203362500Y-62500000D03*
X203362500Y-63150000D03*
X203362500Y-63800000D03*
X203362500Y-64450000D03*
X197637500Y-64450000D03*
X197637500Y-63800000D03*
X197637500Y-63150000D03*
X197637500Y-62500000D03*
X197637500Y-61850000D03*
X197637500Y-61200000D03*
X197637500Y-60550000D03*
%TD*%
%TO.C,U22*%
X155362500Y-60550000D03*
X155362500Y-61200000D03*
X155362500Y-61850000D03*
X155362500Y-62500000D03*
X155362500Y-63150000D03*
X155362500Y-63800000D03*
X155362500Y-64450000D03*
X149637500Y-64450000D03*
X149637500Y-63800000D03*
X149637500Y-63150000D03*
X149637500Y-62500000D03*
X149637500Y-61850000D03*
X149637500Y-61200000D03*
X149637500Y-60550000D03*
%TD*%
D13*
%TO.C,R9*%
X9325000Y-25000000D03*
X7675000Y-25000000D03*
%TD*%
D14*
%TO.C,C202*%
X160200000Y-132050000D03*
X160200000Y-133950000D03*
%TD*%
D13*
%TO.C,R116*%
X145825000Y-74500000D03*
X144175000Y-74500000D03*
%TD*%
%TO.C,R611*%
X277825000Y-65500000D03*
X276175000Y-65500000D03*
%TD*%
D19*
%TO.C,R501*%
X240200000Y-132675000D03*
X240200000Y-134325000D03*
%TD*%
D20*
%TO.C,D401*%
X206337500Y-141050000D03*
X206337500Y-142950000D03*
X204462500Y-142000000D03*
%TD*%
%TO.C,Q32*%
X169937500Y-69050000D03*
X169937500Y-70950000D03*
X168062500Y-70000000D03*
%TD*%
D24*
%TO.C,C611*%
X261975000Y-47000000D03*
X259025000Y-47000000D03*
%TD*%
D20*
%TO.C,D312*%
X177437500Y-71050000D03*
X177437500Y-72950000D03*
X175562500Y-72000000D03*
%TD*%
D10*
%TO.C,C2*%
X36500000Y-40925000D03*
X36500000Y-43875000D03*
%TD*%
D25*
%TO.C,Q11*%
X141000000Y-80320000D03*
X139000000Y-80320000D03*
X137000000Y-80320000D03*
X135000000Y-80320000D03*
D26*
X135750000Y-77050000D03*
X138000000Y-77050000D03*
X140250000Y-77050000D03*
X135750000Y-75700000D03*
X138000000Y-75700000D03*
X140250000Y-75700000D03*
X135750000Y-74350000D03*
X138000000Y-74350000D03*
X140250000Y-74350000D03*
D27*
X134450000Y-72950000D03*
D28*
X138000000Y-72950000D03*
D27*
X141550000Y-72950000D03*
D29*
X136300000Y-72675000D03*
X139700000Y-72675000D03*
%TD*%
D30*
%TO.C,C713*%
X285450000Y-55000000D03*
X283550000Y-55000000D03*
%TD*%
D31*
%TO.C,C103*%
X129800000Y-138925000D03*
X129800000Y-140475000D03*
%TD*%
D13*
%TO.C,R816*%
X325825000Y-74500000D03*
X324175000Y-74500000D03*
%TD*%
D30*
%TO.C,C23*%
X39950000Y-76000000D03*
X38050000Y-76000000D03*
%TD*%
%TO.C,C24*%
X48950000Y-76000000D03*
X47050000Y-76000000D03*
%TD*%
D17*
%TO.C,U7*%
X292000000Y-124425000D03*
X292000000Y-126575000D03*
D18*
X289150000Y-127450000D03*
X289150000Y-126800000D03*
X289150000Y-126150000D03*
X289155000Y-125500000D03*
X289150000Y-124850000D03*
X289150000Y-124200000D03*
X289150000Y-123550000D03*
X294850000Y-123550000D03*
X294850000Y-124200000D03*
X294850000Y-124850000D03*
X294850000Y-125500000D03*
X294850000Y-126150000D03*
X294850000Y-126800000D03*
X294850000Y-127450000D03*
%TD*%
D13*
%TO.C,R26*%
X57825000Y-72000000D03*
X56175000Y-72000000D03*
%TD*%
%TO.C,R22*%
X93825000Y-61000000D03*
X92175000Y-61000000D03*
%TD*%
%TO.C,R312*%
X177325000Y-36000000D03*
X175675000Y-36000000D03*
%TD*%
D30*
%TO.C,C804*%
X314650000Y-129500000D03*
X312750000Y-129500000D03*
%TD*%
%TO.C,C113*%
X129450000Y-55000000D03*
X127550000Y-55000000D03*
%TD*%
D13*
%TO.C,R115*%
X129325000Y-32000000D03*
X127675000Y-32000000D03*
%TD*%
D30*
%TO.C,C404*%
X206650000Y-129500000D03*
X204750000Y-129500000D03*
%TD*%
D19*
%TO.C,R205*%
X153800000Y-135675000D03*
X153800000Y-137325000D03*
%TD*%
D32*
%TO.C,R603*%
X261800000Y-129187500D03*
X261800000Y-131012500D03*
%TD*%
D13*
%TO.C,R216*%
X169825000Y-74500000D03*
X168175000Y-74500000D03*
%TD*%
D23*
%TO.C,U27*%
X287362500Y-60550000D03*
X287362500Y-61200000D03*
X287362500Y-61850000D03*
X287362500Y-62500000D03*
X287362500Y-63150000D03*
X287362500Y-63800000D03*
X287362500Y-64450000D03*
X281637500Y-64450000D03*
X281637500Y-63800000D03*
X281637500Y-63150000D03*
X281637500Y-62500000D03*
X281637500Y-61850000D03*
X281637500Y-61200000D03*
X281637500Y-60550000D03*
%TD*%
D30*
%TO.C,C813*%
X309450000Y-55000000D03*
X307550000Y-55000000D03*
%TD*%
D20*
%TO.C,D812*%
X309437500Y-71050000D03*
X309437500Y-72950000D03*
X307562500Y-72000000D03*
%TD*%
D33*
%TO.C,D302*%
X189300000Y-114687500D03*
X189300000Y-113112500D03*
%TD*%
D13*
%TO.C,R111*%
X145825000Y-65500000D03*
X144175000Y-65500000D03*
%TD*%
%TO.C,R21*%
X89825000Y-65000000D03*
X88175000Y-65000000D03*
%TD*%
D19*
%TO.C,R802*%
X312200000Y-135875000D03*
X312200000Y-137525000D03*
%TD*%
D21*
%TO.C,D611*%
X262275000Y-85075000D03*
X256725000Y-85075000D03*
X262275000Y-89925000D03*
X256725000Y-89925000D03*
D22*
X256960000Y-78350000D03*
X262040000Y-78350000D03*
%TD*%
D13*
%TO.C,R114*%
X129325000Y-42000000D03*
X127675000Y-42000000D03*
%TD*%
D14*
%TO.C,C701*%
X286000000Y-124150000D03*
X286000000Y-126050000D03*
%TD*%
%TO.C,C802*%
X316200000Y-132050000D03*
X316200000Y-133950000D03*
%TD*%
D30*
%TO.C,C104*%
X134650000Y-129500000D03*
X132750000Y-129500000D03*
%TD*%
D13*
%TO.C,R612*%
X261325000Y-36000000D03*
X259675000Y-36000000D03*
%TD*%
D14*
%TO.C,C401*%
X202000000Y-124150000D03*
X202000000Y-126050000D03*
%TD*%
D13*
%TO.C,R415*%
X201325000Y-32000000D03*
X199675000Y-32000000D03*
%TD*%
D34*
%TO.C,F9*%
X101400000Y-47000000D03*
X98600000Y-47000000D03*
%TD*%
D10*
%TO.C,C13*%
X42000000Y-47325000D03*
X42000000Y-50275000D03*
%TD*%
D13*
%TO.C,R28*%
X53825000Y-76000000D03*
X52175000Y-76000000D03*
%TD*%
D10*
%TO.C,C1*%
X27500000Y-40925000D03*
X27500000Y-43875000D03*
%TD*%
D13*
%TO.C,R514*%
X237325000Y-42000000D03*
X235675000Y-42000000D03*
%TD*%
D20*
%TO.C,Q37*%
X301937500Y-69050000D03*
X301937500Y-70950000D03*
X300062500Y-70000000D03*
%TD*%
D13*
%TO.C,R108*%
X134225000Y-145500000D03*
X132575000Y-145500000D03*
%TD*%
D10*
%TO.C,C12*%
X37000000Y-47325000D03*
X37000000Y-50275000D03*
%TD*%
D13*
%TO.C,R811*%
X325825000Y-65500000D03*
X324175000Y-65500000D03*
%TD*%
D17*
%TO.C,U8*%
X316000000Y-124425000D03*
X316000000Y-126575000D03*
D18*
X313150000Y-127450000D03*
X313150000Y-126800000D03*
X313150000Y-126150000D03*
X313155000Y-125500000D03*
X313150000Y-124850000D03*
X313150000Y-124200000D03*
X313150000Y-123550000D03*
X318850000Y-123550000D03*
X318850000Y-124200000D03*
X318850000Y-124850000D03*
X318850000Y-125500000D03*
X318850000Y-126150000D03*
X318850000Y-126800000D03*
X318850000Y-127450000D03*
%TD*%
D15*
%TO.C,R120*%
X138000000Y-59340000D03*
X138000000Y-63660000D03*
%TD*%
D17*
%TO.C,U4*%
X208000000Y-124425000D03*
X208000000Y-126575000D03*
D18*
X205150000Y-127450000D03*
X205150000Y-126800000D03*
X205150000Y-126150000D03*
X205155000Y-125500000D03*
X205150000Y-124850000D03*
X205150000Y-124200000D03*
X205150000Y-123550000D03*
X210850000Y-123550000D03*
X210850000Y-124200000D03*
X210850000Y-124850000D03*
X210850000Y-125500000D03*
X210850000Y-126150000D03*
X210850000Y-126800000D03*
X210850000Y-127450000D03*
%TD*%
D19*
%TO.C,R401*%
X204200000Y-132675000D03*
X204200000Y-134325000D03*
%TD*%
D31*
%TO.C,C603*%
X261800000Y-138925000D03*
X261800000Y-140475000D03*
%TD*%
D19*
%TO.C,R706*%
X292200000Y-135675000D03*
X292200000Y-137325000D03*
%TD*%
D20*
%TO.C,Q31*%
X145937500Y-69050000D03*
X145937500Y-70950000D03*
X144062500Y-70000000D03*
%TD*%
D13*
%TO.C,R213*%
X153325000Y-39000000D03*
X151675000Y-39000000D03*
%TD*%
D24*
%TO.C,C612*%
X261975000Y-51000000D03*
X259025000Y-51000000D03*
%TD*%
D20*
%TO.C,D212*%
X153437500Y-71050000D03*
X153437500Y-72950000D03*
X151562500Y-72000000D03*
%TD*%
%TO.C,D703*%
X301437500Y-112950000D03*
X301437500Y-114850000D03*
X299562500Y-113900000D03*
%TD*%
D13*
%TO.C,R14*%
X93825000Y-38500000D03*
X92175000Y-38500000D03*
%TD*%
D19*
%TO.C,R18*%
X89000000Y-44375000D03*
X89000000Y-46025000D03*
%TD*%
D35*
%TO.C,R720*%
X294000000Y-58645000D03*
X294000000Y-64355000D03*
%TD*%
D30*
%TO.C,C504*%
X242650000Y-129500000D03*
X240750000Y-129500000D03*
%TD*%
%TO.C,C213*%
X153450000Y-55000000D03*
X151550000Y-55000000D03*
%TD*%
D13*
%TO.C,R117*%
X129325000Y-68500000D03*
X127675000Y-68500000D03*
%TD*%
D36*
%TO.C,U12*%
X63125000Y-31175000D03*
X63125000Y-32425000D03*
X63875000Y-31175000D03*
X63875000Y-32425000D03*
D37*
X62062500Y-33050000D03*
X62062500Y-32550000D03*
X62062500Y-32050000D03*
X62062500Y-31550000D03*
X62062500Y-31050000D03*
X62062500Y-30550000D03*
X64937500Y-30550000D03*
X64937500Y-31050000D03*
X64937500Y-31550000D03*
X64937500Y-32050000D03*
X64937500Y-32550000D03*
X64937500Y-33050000D03*
%TD*%
D13*
%TO.C,R313*%
X177325000Y-39000000D03*
X175675000Y-39000000D03*
%TD*%
D30*
%TO.C,C313*%
X177450000Y-55000000D03*
X175550000Y-55000000D03*
%TD*%
D38*
%TO.C,C14*%
X30575000Y-37300000D03*
X29025000Y-37300000D03*
%TD*%
D30*
%TO.C,C613*%
X261450000Y-55000000D03*
X259550000Y-55000000D03*
%TD*%
D24*
%TO.C,C412*%
X201975000Y-51000000D03*
X199025000Y-51000000D03*
%TD*%
D20*
%TO.C,D303*%
X193437500Y-112950000D03*
X193437500Y-114850000D03*
X191562500Y-113900000D03*
%TD*%
D38*
%TO.C,C11*%
X12775000Y-30000000D03*
X11225000Y-30000000D03*
%TD*%
D19*
%TO.C,R702*%
X288200000Y-135875000D03*
X288200000Y-137525000D03*
%TD*%
%TO.C,R502*%
X240200000Y-135875000D03*
X240200000Y-137525000D03*
%TD*%
D13*
%TO.C,R614*%
X261325000Y-42000000D03*
X259675000Y-42000000D03*
%TD*%
D14*
%TO.C,C501*%
X238000000Y-124150000D03*
X238000000Y-126050000D03*
%TD*%
%TO.C,C16*%
X67700000Y-33550000D03*
X67700000Y-35450000D03*
%TD*%
D13*
%TO.C,R215*%
X153325000Y-32000000D03*
X151675000Y-32000000D03*
%TD*%
D39*
%TO.C,Q2*%
X57000000Y-21275000D03*
X57000000Y-22425000D03*
X57000000Y-23575000D03*
X57000000Y-24725000D03*
X58225000Y-21275000D03*
X58225000Y-22425000D03*
X58225000Y-23575000D03*
X58225000Y-24725000D03*
X59425000Y-21275000D03*
X59425000Y-22425000D03*
X59425000Y-23575000D03*
X59425000Y-24725000D03*
D40*
X54975000Y-24905000D03*
X54975000Y-23635000D03*
X54975000Y-22365000D03*
X54975000Y-21095000D03*
D41*
X60725000Y-21005000D03*
X60725000Y-22335000D03*
X60725000Y-23665000D03*
X60725000Y-24995000D03*
%TD*%
D19*
%TO.C,R707*%
X297300000Y-108675000D03*
X297300000Y-110325000D03*
%TD*%
D14*
%TO.C,C101*%
X130000000Y-124150000D03*
X130000000Y-126050000D03*
%TD*%
D17*
%TO.C,U6*%
X268000000Y-124425000D03*
X268000000Y-126575000D03*
D18*
X265150000Y-127450000D03*
X265150000Y-126800000D03*
X265150000Y-126150000D03*
X265155000Y-125500000D03*
X265150000Y-124850000D03*
X265150000Y-124200000D03*
X265150000Y-123550000D03*
X270850000Y-123550000D03*
X270850000Y-124200000D03*
X270850000Y-124850000D03*
X270850000Y-125500000D03*
X270850000Y-126150000D03*
X270850000Y-126800000D03*
X270850000Y-127450000D03*
%TD*%
D25*
%TO.C,Q14*%
X213000000Y-80320000D03*
X211000000Y-80320000D03*
X209000000Y-80320000D03*
X207000000Y-80320000D03*
D26*
X207750000Y-77050000D03*
X210000000Y-77050000D03*
X212250000Y-77050000D03*
X207750000Y-75700000D03*
X210000000Y-75700000D03*
X212250000Y-75700000D03*
X207750000Y-74350000D03*
X210000000Y-74350000D03*
X212250000Y-74350000D03*
D27*
X206450000Y-72950000D03*
D28*
X210000000Y-72950000D03*
D27*
X213550000Y-72950000D03*
D29*
X208300000Y-72675000D03*
X211700000Y-72675000D03*
%TD*%
D13*
%TO.C,R508*%
X242225000Y-145500000D03*
X240575000Y-145500000D03*
%TD*%
D19*
%TO.C,R206*%
X160200000Y-135675000D03*
X160200000Y-137325000D03*
%TD*%
D20*
%TO.C,D803*%
X325437500Y-112950000D03*
X325437500Y-114850000D03*
X323562500Y-113900000D03*
%TD*%
%TO.C,D701*%
X290337500Y-141050000D03*
X290337500Y-142950000D03*
X288462500Y-142000000D03*
%TD*%
D13*
%TO.C,R817*%
X309325000Y-68500000D03*
X307675000Y-68500000D03*
%TD*%
%TO.C,R517*%
X237325000Y-68500000D03*
X235675000Y-68500000D03*
%TD*%
D14*
%TO.C,C502*%
X244200000Y-132050000D03*
X244200000Y-133950000D03*
%TD*%
D13*
%TO.C,R217*%
X153325000Y-68500000D03*
X151675000Y-68500000D03*
%TD*%
D19*
%TO.C,R307*%
X189300000Y-108675000D03*
X189300000Y-110325000D03*
%TD*%
%TO.C,R304*%
X177800000Y-132475000D03*
X177800000Y-134125000D03*
%TD*%
D13*
%TO.C,R314*%
X177325000Y-42000000D03*
X175675000Y-42000000D03*
%TD*%
D25*
%TO.C,Q16*%
X273000000Y-80320000D03*
X271000000Y-80320000D03*
X269000000Y-80320000D03*
X267000000Y-80320000D03*
D26*
X267750000Y-77050000D03*
X270000000Y-77050000D03*
X272250000Y-77050000D03*
X267750000Y-75700000D03*
X270000000Y-75700000D03*
X272250000Y-75700000D03*
X267750000Y-74350000D03*
X270000000Y-74350000D03*
X272250000Y-74350000D03*
D27*
X266450000Y-72950000D03*
D28*
X270000000Y-72950000D03*
D27*
X273550000Y-72950000D03*
D29*
X268300000Y-72675000D03*
X271700000Y-72675000D03*
%TD*%
D20*
%TO.C,Q34*%
X217937500Y-69050000D03*
X217937500Y-70950000D03*
X216062500Y-70000000D03*
%TD*%
D13*
%TO.C,R716*%
X301825000Y-74500000D03*
X300175000Y-74500000D03*
%TD*%
D30*
%TO.C,C704*%
X290650000Y-129500000D03*
X288750000Y-129500000D03*
%TD*%
D17*
%TO.C,U5*%
X244000000Y-124425000D03*
X244000000Y-126575000D03*
D18*
X241150000Y-127450000D03*
X241150000Y-126800000D03*
X241150000Y-126150000D03*
X241155000Y-125500000D03*
X241150000Y-124850000D03*
X241150000Y-124200000D03*
X241150000Y-123550000D03*
X246850000Y-123550000D03*
X246850000Y-124200000D03*
X246850000Y-124850000D03*
X246850000Y-125500000D03*
X246850000Y-126150000D03*
X246850000Y-126800000D03*
X246850000Y-127450000D03*
%TD*%
D31*
%TO.C,C803*%
X309800000Y-138925000D03*
X309800000Y-140475000D03*
%TD*%
D20*
%TO.C,D201*%
X158337500Y-141050000D03*
X158337500Y-142950000D03*
X156462500Y-142000000D03*
%TD*%
D19*
%TO.C,R807*%
X321300000Y-108675000D03*
X321300000Y-110325000D03*
%TD*%
D23*
%TO.C,U21*%
X131362500Y-60550000D03*
X131362500Y-61200000D03*
X131362500Y-61850000D03*
X131362500Y-62500000D03*
X131362500Y-63150000D03*
X131362500Y-63800000D03*
X131362500Y-64450000D03*
X125637500Y-64450000D03*
X125637500Y-63800000D03*
X125637500Y-63150000D03*
X125637500Y-62500000D03*
X125637500Y-61850000D03*
X125637500Y-61200000D03*
X125637500Y-60550000D03*
%TD*%
D42*
%TO.C,C17*%
X64975000Y-37000000D03*
X62025000Y-37000000D03*
%TD*%
D19*
%TO.C,R505*%
X237800000Y-135675000D03*
X237800000Y-137325000D03*
%TD*%
%TO.C,R13*%
X84000000Y-45675000D03*
X84000000Y-47325000D03*
%TD*%
D32*
%TO.C,R403*%
X201800000Y-129187500D03*
X201800000Y-131012500D03*
%TD*%
D13*
%TO.C,R317*%
X177325000Y-68500000D03*
X175675000Y-68500000D03*
%TD*%
D30*
%TO.C,C513*%
X237450000Y-55000000D03*
X235550000Y-55000000D03*
%TD*%
D17*
%TO.C,U3*%
X184000000Y-124425000D03*
X184000000Y-126575000D03*
D18*
X181150000Y-127450000D03*
X181150000Y-126800000D03*
X181150000Y-126150000D03*
X181155000Y-125500000D03*
X181150000Y-124850000D03*
X181150000Y-124200000D03*
X181150000Y-123550000D03*
X186850000Y-123550000D03*
X186850000Y-124200000D03*
X186850000Y-124850000D03*
X186850000Y-125500000D03*
X186850000Y-126150000D03*
X186850000Y-126800000D03*
X186850000Y-127450000D03*
%TD*%
D19*
%TO.C,R302*%
X180200000Y-135875000D03*
X180200000Y-137525000D03*
%TD*%
D23*
%TO.C,U26*%
X263362500Y-60550000D03*
X263362500Y-61200000D03*
X263362500Y-61850000D03*
X263362500Y-62500000D03*
X263362500Y-63150000D03*
X263362500Y-63800000D03*
X263362500Y-64450000D03*
X257637500Y-64450000D03*
X257637500Y-63800000D03*
X257637500Y-63150000D03*
X257637500Y-62500000D03*
X257637500Y-61850000D03*
X257637500Y-61200000D03*
X257637500Y-60550000D03*
%TD*%
D13*
%TO.C,R711*%
X301825000Y-65500000D03*
X300175000Y-65500000D03*
%TD*%
D19*
%TO.C,R506*%
X244200000Y-135675000D03*
X244200000Y-137325000D03*
%TD*%
D20*
%TO.C,D412*%
X201437500Y-71050000D03*
X201437500Y-72950000D03*
X199562500Y-72000000D03*
%TD*%
D19*
%TO.C,R801*%
X312200000Y-132675000D03*
X312200000Y-134325000D03*
%TD*%
%TO.C,R605*%
X261800000Y-135675000D03*
X261800000Y-137325000D03*
%TD*%
D13*
%TO.C,R411*%
X217825000Y-65500000D03*
X216175000Y-65500000D03*
%TD*%
D20*
%TO.C,D101*%
X134337500Y-141050000D03*
X134337500Y-142950000D03*
X132462500Y-142000000D03*
%TD*%
%TO.C,D501*%
X242337500Y-141050000D03*
X242337500Y-142950000D03*
X240462500Y-142000000D03*
%TD*%
%TO.C,Q35*%
X253937500Y-69050000D03*
X253937500Y-70950000D03*
X252062500Y-70000000D03*
%TD*%
D13*
%TO.C,R211*%
X169825000Y-65500000D03*
X168175000Y-65500000D03*
%TD*%
%TO.C,R713*%
X285325000Y-39000000D03*
X283675000Y-39000000D03*
%TD*%
D20*
%TO.C,D103*%
X145437500Y-112950000D03*
X145437500Y-114850000D03*
X143562500Y-113900000D03*
%TD*%
D19*
%TO.C,R12*%
X84000000Y-42175000D03*
X84000000Y-43825000D03*
%TD*%
D13*
%TO.C,R708*%
X290225000Y-145500000D03*
X288575000Y-145500000D03*
%TD*%
%TO.C,R11*%
X24625000Y-18450000D03*
X22975000Y-18450000D03*
%TD*%
%TO.C,R113*%
X129325000Y-39000000D03*
X127675000Y-39000000D03*
%TD*%
D33*
%TO.C,D702*%
X297300000Y-114687500D03*
X297300000Y-113112500D03*
%TD*%
D14*
%TO.C,C302*%
X184200000Y-132050000D03*
X184200000Y-133950000D03*
%TD*%
D13*
%TO.C,R615*%
X261325000Y-32000000D03*
X259675000Y-32000000D03*
%TD*%
D19*
%TO.C,R101*%
X132200000Y-132675000D03*
X132200000Y-134325000D03*
%TD*%
D43*
%TO.C,R20*%
X69975000Y-16450000D03*
X78025000Y-16450000D03*
D44*
X69975000Y-20500000D03*
X78025000Y-20500000D03*
%TD*%
D35*
%TO.C,R420*%
X210000000Y-58645000D03*
X210000000Y-64355000D03*
%TD*%
D15*
%TO.C,R220*%
X162000000Y-59340000D03*
X162000000Y-63660000D03*
%TD*%
D39*
%TO.C,Q1*%
X57000000Y-8275000D03*
X57000000Y-9425000D03*
X57000000Y-10575000D03*
X57000000Y-11725000D03*
X58225000Y-8275000D03*
X58225000Y-9425000D03*
X58225000Y-10575000D03*
X58225000Y-11725000D03*
X59425000Y-8275000D03*
X59425000Y-9425000D03*
X59425000Y-10575000D03*
X59425000Y-11725000D03*
D40*
X54975000Y-11905000D03*
X54975000Y-10635000D03*
X54975000Y-9365000D03*
X54975000Y-8095000D03*
D41*
X60725000Y-8005000D03*
X60725000Y-9335000D03*
X60725000Y-10665000D03*
X60725000Y-11995000D03*
%TD*%
D13*
%TO.C,R214*%
X153325000Y-42000000D03*
X151675000Y-42000000D03*
%TD*%
D24*
%TO.C,C511*%
X237975000Y-47000000D03*
X235025000Y-47000000D03*
%TD*%
D21*
%TO.C,D411*%
X202275000Y-85075000D03*
X196725000Y-85075000D03*
X202275000Y-89925000D03*
X196725000Y-89925000D03*
D22*
X196960000Y-78350000D03*
X202040000Y-78350000D03*
%TD*%
D32*
%TO.C,R203*%
X153800000Y-129187500D03*
X153800000Y-131012500D03*
%TD*%
D21*
%TO.C,D811*%
X310275000Y-85075000D03*
X304725000Y-85075000D03*
X310275000Y-89925000D03*
X304725000Y-89925000D03*
D22*
X304960000Y-78350000D03*
X310040000Y-78350000D03*
%TD*%
D19*
%TO.C,R806*%
X316200000Y-135675000D03*
X316200000Y-137325000D03*
%TD*%
D39*
%TO.C,U10*%
X14900000Y-12460000D03*
X14900000Y-11060000D03*
X14900000Y-9660000D03*
X13500000Y-12460000D03*
X13500000Y-11060000D03*
X13500000Y-9660000D03*
X12100000Y-12460000D03*
X12100000Y-11060000D03*
X12100000Y-9660000D03*
D45*
X20750000Y-3340000D03*
X20750000Y-4610000D03*
X20750000Y-5880000D03*
X20750000Y-7150000D03*
X20750000Y-8420000D03*
X20750000Y-9690000D03*
X20750000Y-10960000D03*
X20750000Y-12230000D03*
X20750000Y-13500000D03*
X20750000Y-14770000D03*
X20750000Y-16040000D03*
X20750000Y-17310000D03*
X20750000Y-18580000D03*
X20750000Y-19850000D03*
D46*
X18985000Y-21100000D03*
X17715000Y-21100000D03*
X16445000Y-21100000D03*
X15175000Y-21100000D03*
X13905000Y-21100000D03*
X12635000Y-21100000D03*
X11365000Y-21100000D03*
X10095000Y-21100000D03*
X8825000Y-21100000D03*
X7555000Y-21100000D03*
X6285000Y-21100000D03*
X5015000Y-21100000D03*
D45*
X3250000Y-19850000D03*
X3250000Y-18580000D03*
X3250000Y-17310000D03*
X3250000Y-16040000D03*
X3250000Y-14770000D03*
X3250000Y-13500000D03*
X3250000Y-12230000D03*
X3250000Y-10960000D03*
X3250000Y-9690000D03*
X3250000Y-8420000D03*
X3250000Y-7150000D03*
X3250000Y-5880000D03*
X3250000Y-4610000D03*
X3250000Y-3340000D03*
%TD*%
D19*
%TO.C,R204*%
X153800000Y-132475000D03*
X153800000Y-134125000D03*
%TD*%
D13*
%TO.C,R613*%
X261325000Y-39000000D03*
X259675000Y-39000000D03*
%TD*%
D31*
%TO.C,C703*%
X285800000Y-138925000D03*
X285800000Y-140475000D03*
%TD*%
D13*
%TO.C,R617*%
X261325000Y-68500000D03*
X259675000Y-68500000D03*
%TD*%
D31*
%TO.C,C203*%
X153800000Y-138925000D03*
X153800000Y-140475000D03*
%TD*%
D13*
%TO.C,R813*%
X309325000Y-39000000D03*
X307675000Y-39000000D03*
%TD*%
D47*
%TO.C,Q3*%
X97820000Y-7000000D03*
X97820000Y-9000000D03*
X97820000Y-11000000D03*
X97820000Y-13000000D03*
D48*
X94550000Y-12250000D03*
X94550000Y-10000000D03*
X94550000Y-7750000D03*
X93200000Y-12250000D03*
X93200000Y-10000000D03*
X93200000Y-7750000D03*
X91850000Y-12250000D03*
X91850000Y-10000000D03*
X91850000Y-7750000D03*
D49*
X90450000Y-13550000D03*
D50*
X90450000Y-10000000D03*
D49*
X90450000Y-6450000D03*
D51*
X90175000Y-11700000D03*
X90175000Y-8300000D03*
%TD*%
D19*
%TO.C,R106*%
X136200000Y-135675000D03*
X136200000Y-137325000D03*
%TD*%
D31*
%TO.C,C403*%
X201800000Y-138925000D03*
X201800000Y-140475000D03*
%TD*%
D13*
%TO.C,R316*%
X193825000Y-74500000D03*
X192175000Y-74500000D03*
%TD*%
D19*
%TO.C,R606*%
X268200000Y-135675000D03*
X268200000Y-137325000D03*
%TD*%
D13*
%TO.C,R715*%
X285325000Y-32000000D03*
X283675000Y-32000000D03*
%TD*%
%TO.C,R515*%
X237325000Y-32000000D03*
X235675000Y-32000000D03*
%TD*%
D19*
%TO.C,R406*%
X208200000Y-135675000D03*
X208200000Y-137325000D03*
%TD*%
D24*
%TO.C,C212*%
X153975000Y-51000000D03*
X151025000Y-51000000D03*
%TD*%
D13*
%TO.C,R16*%
X101325000Y-7000000D03*
X99675000Y-7000000D03*
%TD*%
D33*
%TO.C,D602*%
X273300000Y-114687500D03*
X273300000Y-113112500D03*
%TD*%
D52*
%TO.C,R8*%
X11075000Y-48250000D03*
X12725000Y-48250000D03*
%TD*%
D13*
%TO.C,R512*%
X237325000Y-36000000D03*
X235675000Y-36000000D03*
%TD*%
D24*
%TO.C,C811*%
X309975000Y-47000000D03*
X307025000Y-47000000D03*
%TD*%
D53*
%TO.C,J4*%
X7355000Y-54700000D03*
D54*
X7355000Y-53900000D03*
D55*
X7355000Y-52750000D03*
X7355000Y-51750000D03*
X7355000Y-51250000D03*
X7355000Y-50250000D03*
D54*
X7355000Y-49100000D03*
D53*
X7355000Y-48300000D03*
X7355000Y-48300000D03*
D54*
X7355000Y-49100000D03*
D55*
X7355000Y-49750000D03*
X7355000Y-50750000D03*
X7355000Y-52250000D03*
X7355000Y-53250000D03*
D54*
X7355000Y-53900000D03*
D53*
X7355000Y-54700000D03*
D56*
X2600000Y-55820000D03*
D57*
X6780000Y-55820000D03*
D56*
X2600000Y-47180000D03*
D57*
X6780000Y-47180000D03*
%TD*%
D13*
%TO.C,R417*%
X201325000Y-68500000D03*
X199675000Y-68500000D03*
%TD*%
D14*
%TO.C,C21*%
X30000000Y-54050000D03*
X30000000Y-55950000D03*
%TD*%
D20*
%TO.C,D203*%
X169437500Y-112950000D03*
X169437500Y-114850000D03*
X167562500Y-113900000D03*
%TD*%
D13*
%TO.C,R412*%
X201325000Y-36000000D03*
X199675000Y-36000000D03*
%TD*%
D31*
%TO.C,C3*%
X39000000Y-38225000D03*
X39000000Y-39775000D03*
%TD*%
D35*
%TO.C,R320*%
X186000000Y-58645000D03*
X186000000Y-64355000D03*
%TD*%
D30*
%TO.C,C25*%
X78950000Y-46000000D03*
X77050000Y-46000000D03*
%TD*%
D52*
%TO.C,R1*%
X34975000Y-38000000D03*
X36625000Y-38000000D03*
%TD*%
D20*
%TO.C,D9*%
X48937500Y-80050000D03*
X48937500Y-81950000D03*
X47062500Y-81000000D03*
%TD*%
D19*
%TO.C,R405*%
X201800000Y-135675000D03*
X201800000Y-137325000D03*
%TD*%
D31*
%TO.C,C503*%
X237800000Y-138925000D03*
X237800000Y-140475000D03*
%TD*%
D13*
%TO.C,R208*%
X158225000Y-145500000D03*
X156575000Y-145500000D03*
%TD*%
D14*
%TO.C,C102*%
X136200000Y-132050000D03*
X136200000Y-133950000D03*
%TD*%
D24*
%TO.C,C712*%
X285975000Y-51000000D03*
X283025000Y-51000000D03*
%TD*%
%TO.C,C211*%
X153975000Y-47000000D03*
X151025000Y-47000000D03*
%TD*%
D13*
%TO.C,R5*%
X9825000Y-30000000D03*
X8175000Y-30000000D03*
%TD*%
D19*
%TO.C,R17*%
X89000000Y-41175000D03*
X89000000Y-42825000D03*
%TD*%
D14*
%TO.C,C402*%
X208200000Y-132050000D03*
X208200000Y-133950000D03*
%TD*%
D30*
%TO.C,C304*%
X182650000Y-129500000D03*
X180750000Y-129500000D03*
%TD*%
D10*
%TO.C,C8*%
X32000000Y-47325000D03*
X32000000Y-50275000D03*
%TD*%
D13*
%TO.C,R808*%
X314225000Y-145500000D03*
X312575000Y-145500000D03*
%TD*%
D14*
%TO.C,C301*%
X178000000Y-124150000D03*
X178000000Y-126050000D03*
%TD*%
D13*
%TO.C,R717*%
X285325000Y-68500000D03*
X283675000Y-68500000D03*
%TD*%
D24*
%TO.C,C512*%
X237975000Y-51000000D03*
X235025000Y-51000000D03*
%TD*%
D10*
%TO.C,C22*%
X20000000Y-53525000D03*
X20000000Y-56475000D03*
%TD*%
D35*
%TO.C,R620*%
X270000000Y-58645000D03*
X270000000Y-64355000D03*
%TD*%
D13*
%TO.C,R6*%
X15825000Y-30000000D03*
X14175000Y-30000000D03*
%TD*%
D20*
%TO.C,D603*%
X277437500Y-112950000D03*
X277437500Y-114850000D03*
X275562500Y-113900000D03*
%TD*%
D58*
%TO.C,D5*%
X5787500Y-25000000D03*
X4212500Y-25000000D03*
%TD*%
D13*
%TO.C,R511*%
X253825000Y-65500000D03*
X252175000Y-65500000D03*
%TD*%
D12*
%TO.C,D3*%
X46400000Y-31000000D03*
X39600000Y-31000000D03*
%TD*%
D24*
%TO.C,C812*%
X309975000Y-51000000D03*
X307025000Y-51000000D03*
%TD*%
D14*
%TO.C,C602*%
X268200000Y-132050000D03*
X268200000Y-133950000D03*
%TD*%
D23*
%TO.C,U25*%
X239362500Y-60550000D03*
X239362500Y-61200000D03*
X239362500Y-61850000D03*
X239362500Y-62500000D03*
X239362500Y-63150000D03*
X239362500Y-63800000D03*
X239362500Y-64450000D03*
X233637500Y-64450000D03*
X233637500Y-63800000D03*
X233637500Y-63150000D03*
X233637500Y-62500000D03*
X233637500Y-61850000D03*
X233637500Y-61200000D03*
X233637500Y-60550000D03*
%TD*%
D19*
%TO.C,R607*%
X273300000Y-108675000D03*
X273300000Y-110325000D03*
%TD*%
D30*
%TO.C,C204*%
X158650000Y-129500000D03*
X156750000Y-129500000D03*
%TD*%
D19*
%TO.C,R704*%
X285800000Y-132475000D03*
X285800000Y-134125000D03*
%TD*%
D24*
%TO.C,C311*%
X177975000Y-47000000D03*
X175025000Y-47000000D03*
%TD*%
D19*
%TO.C,R102*%
X132200000Y-135875000D03*
X132200000Y-137525000D03*
%TD*%
D13*
%TO.C,R714*%
X285325000Y-42000000D03*
X283675000Y-42000000D03*
%TD*%
D52*
%TO.C,R15*%
X92175000Y-41500000D03*
X93825000Y-41500000D03*
%TD*%
D19*
%TO.C,R107*%
X141300000Y-108675000D03*
X141300000Y-110325000D03*
%TD*%
D32*
%TO.C,R103*%
X129800000Y-129187500D03*
X129800000Y-131012500D03*
%TD*%
D19*
%TO.C,R402*%
X204200000Y-135875000D03*
X204200000Y-137525000D03*
%TD*%
D33*
%TO.C,D802*%
X321300000Y-114687500D03*
X321300000Y-113112500D03*
%TD*%
D19*
%TO.C,R305*%
X177800000Y-135675000D03*
X177800000Y-137325000D03*
%TD*%
D13*
%TO.C,R25*%
X39825000Y-72000000D03*
X38175000Y-72000000D03*
%TD*%
D19*
%TO.C,R504*%
X237800000Y-132475000D03*
X237800000Y-134125000D03*
%TD*%
D20*
%TO.C,D8*%
X39937500Y-80050000D03*
X39937500Y-81950000D03*
X38062500Y-81000000D03*
%TD*%
D13*
%TO.C,R311*%
X193825000Y-65500000D03*
X192175000Y-65500000D03*
%TD*%
D19*
%TO.C,R701*%
X288200000Y-132675000D03*
X288200000Y-134325000D03*
%TD*%
%TO.C,R104*%
X129800000Y-132475000D03*
X129800000Y-134125000D03*
%TD*%
D25*
%TO.C,Q17*%
X297000000Y-80320000D03*
X295000000Y-80320000D03*
X293000000Y-80320000D03*
X291000000Y-80320000D03*
D26*
X291750000Y-77050000D03*
X294000000Y-77050000D03*
X296250000Y-77050000D03*
X291750000Y-75700000D03*
X294000000Y-75700000D03*
X296250000Y-75700000D03*
X291750000Y-74350000D03*
X294000000Y-74350000D03*
X296250000Y-74350000D03*
D27*
X290450000Y-72950000D03*
D28*
X294000000Y-72950000D03*
D27*
X297550000Y-72950000D03*
D29*
X292300000Y-72675000D03*
X295700000Y-72675000D03*
%TD*%
D24*
%TO.C,C711*%
X285975000Y-47000000D03*
X283025000Y-47000000D03*
%TD*%
D19*
%TO.C,R105*%
X129800000Y-135675000D03*
X129800000Y-137325000D03*
%TD*%
D59*
%TO.C,D7*%
X110225000Y-40925000D03*
X115775000Y-40925000D03*
X110225000Y-36075000D03*
X115775000Y-36075000D03*
D60*
X115540000Y-47650000D03*
X110460000Y-47650000D03*
%TD*%
D21*
%TO.C,D211*%
X154275000Y-85075000D03*
X148725000Y-85075000D03*
X154275000Y-89925000D03*
X148725000Y-89925000D03*
D22*
X148960000Y-78350000D03*
X154040000Y-78350000D03*
%TD*%
D21*
%TO.C,D111*%
X130275000Y-85075000D03*
X124725000Y-85075000D03*
X130275000Y-89925000D03*
X124725000Y-89925000D03*
D22*
X124960000Y-78350000D03*
X130040000Y-78350000D03*
%TD*%
D14*
%TO.C,C201*%
X154000000Y-124150000D03*
X154000000Y-126050000D03*
%TD*%
D20*
%TO.C,Q36*%
X277937500Y-69050000D03*
X277937500Y-70950000D03*
X276062500Y-70000000D03*
%TD*%
D13*
%TO.C,R315*%
X177325000Y-32000000D03*
X175675000Y-32000000D03*
%TD*%
D25*
%TO.C,Q18*%
X321000000Y-80320000D03*
X319000000Y-80320000D03*
X317000000Y-80320000D03*
X315000000Y-80320000D03*
D26*
X315750000Y-77050000D03*
X318000000Y-77050000D03*
X320250000Y-77050000D03*
X315750000Y-75700000D03*
X318000000Y-75700000D03*
X320250000Y-75700000D03*
X315750000Y-74350000D03*
X318000000Y-74350000D03*
X320250000Y-74350000D03*
D27*
X314450000Y-72950000D03*
D28*
X318000000Y-72950000D03*
D27*
X321550000Y-72950000D03*
D29*
X316300000Y-72675000D03*
X319700000Y-72675000D03*
%TD*%
D20*
%TO.C,D301*%
X182337500Y-141050000D03*
X182337500Y-142950000D03*
X180462500Y-142000000D03*
%TD*%
D19*
%TO.C,R202*%
X156200000Y-135875000D03*
X156200000Y-137525000D03*
%TD*%
D13*
%TO.C,R814*%
X309325000Y-42000000D03*
X307675000Y-42000000D03*
%TD*%
D32*
%TO.C,R803*%
X309800000Y-129187500D03*
X309800000Y-131012500D03*
%TD*%
D14*
%TO.C,C702*%
X292200000Y-132050000D03*
X292200000Y-133950000D03*
%TD*%
D13*
%TO.C,R112*%
X129325000Y-36000000D03*
X127675000Y-36000000D03*
%TD*%
D19*
%TO.C,R705*%
X285800000Y-135675000D03*
X285800000Y-137325000D03*
%TD*%
%TO.C,R404*%
X201800000Y-132475000D03*
X201800000Y-134125000D03*
%TD*%
D30*
%TO.C,C18*%
X82950000Y-40000000D03*
X81050000Y-40000000D03*
%TD*%
%TO.C,C604*%
X266650000Y-129500000D03*
X264750000Y-129500000D03*
%TD*%
D24*
%TO.C,C111*%
X129975000Y-47000000D03*
X127025000Y-47000000D03*
%TD*%
D14*
%TO.C,C15*%
X50700000Y-29050000D03*
X50700000Y-30950000D03*
%TD*%
D32*
%TO.C,R303*%
X177800000Y-129187500D03*
X177800000Y-131012500D03*
%TD*%
D13*
%TO.C,R408*%
X206225000Y-145500000D03*
X204575000Y-145500000D03*
%TD*%
D61*
%TO.C,D1*%
X77000000Y-42500000D03*
X73000000Y-42500000D03*
%TD*%
D19*
%TO.C,R604*%
X261800000Y-132475000D03*
X261800000Y-134125000D03*
%TD*%
D39*
%TO.C,Q5*%
X24200000Y-59275000D03*
X24200000Y-60425000D03*
X24200000Y-61575000D03*
X24200000Y-62725000D03*
X25425000Y-59275000D03*
X25425000Y-60425000D03*
X25425000Y-61575000D03*
X25425000Y-62725000D03*
X26625000Y-59275000D03*
X26625000Y-60425000D03*
X26625000Y-61575000D03*
X26625000Y-62725000D03*
D40*
X22175000Y-62905000D03*
X22175000Y-61635000D03*
X22175000Y-60365000D03*
X22175000Y-59095000D03*
D41*
X27925000Y-59005000D03*
X27925000Y-60335000D03*
X27925000Y-61665000D03*
X27925000Y-62995000D03*
%TD*%
D24*
%TO.C,C112*%
X129975000Y-51000000D03*
X127025000Y-51000000D03*
%TD*%
D13*
%TO.C,R516*%
X253825000Y-74500000D03*
X252175000Y-74500000D03*
%TD*%
D20*
%TO.C,Q38*%
X325937500Y-69050000D03*
X325937500Y-70950000D03*
X324062500Y-70000000D03*
%TD*%
D24*
%TO.C,C411*%
X201975000Y-47000000D03*
X199025000Y-47000000D03*
%TD*%
D13*
%TO.C,R812*%
X309325000Y-36000000D03*
X307675000Y-36000000D03*
%TD*%
%TO.C,R23*%
X99825000Y-69000000D03*
X98175000Y-69000000D03*
%TD*%
D23*
%TO.C,U28*%
X311362500Y-60550000D03*
X311362500Y-61200000D03*
X311362500Y-61850000D03*
X311362500Y-62500000D03*
X311362500Y-63150000D03*
X311362500Y-63800000D03*
X311362500Y-64450000D03*
X305637500Y-64450000D03*
X305637500Y-63800000D03*
X305637500Y-63150000D03*
X305637500Y-62500000D03*
X305637500Y-61850000D03*
X305637500Y-61200000D03*
X305637500Y-60550000D03*
%TD*%
D35*
%TO.C,R520*%
X246000000Y-58645000D03*
X246000000Y-64355000D03*
%TD*%
D19*
%TO.C,R201*%
X156200000Y-132675000D03*
X156200000Y-134325000D03*
%TD*%
%TO.C,R804*%
X309800000Y-132475000D03*
X309800000Y-134125000D03*
%TD*%
D13*
%TO.C,R616*%
X277825000Y-74500000D03*
X276175000Y-74500000D03*
%TD*%
D32*
%TO.C,R503*%
X237800000Y-129187500D03*
X237800000Y-131012500D03*
%TD*%
D31*
%TO.C,C303*%
X177800000Y-138925000D03*
X177800000Y-140475000D03*
%TD*%
D19*
%TO.C,R601*%
X264200000Y-132675000D03*
X264200000Y-134325000D03*
%TD*%
D13*
%TO.C,R27*%
X61825000Y-72000000D03*
X60175000Y-72000000D03*
%TD*%
D19*
%TO.C,R207*%
X165300000Y-108675000D03*
X165300000Y-110325000D03*
%TD*%
D20*
%TO.C,D503*%
X253437500Y-112950000D03*
X253437500Y-114850000D03*
X251562500Y-113900000D03*
%TD*%
D13*
%TO.C,R712*%
X285325000Y-36000000D03*
X283675000Y-36000000D03*
%TD*%
D14*
%TO.C,C19*%
X103000000Y-28550000D03*
X103000000Y-30450000D03*
%TD*%
D13*
%TO.C,R10*%
X24625000Y-20050000D03*
X22975000Y-20050000D03*
%TD*%
D21*
%TO.C,D511*%
X238275000Y-85075000D03*
X232725000Y-85075000D03*
X238275000Y-89925000D03*
X232725000Y-89925000D03*
D22*
X232960000Y-78350000D03*
X238040000Y-78350000D03*
%TD*%
D33*
%TO.C,D102*%
X141300000Y-114687500D03*
X141300000Y-113112500D03*
%TD*%
D13*
%TO.C,R308*%
X182225000Y-145500000D03*
X180575000Y-145500000D03*
%TD*%
D62*
%TO.C,U13*%
X25375000Y-55625000D03*
X25375000Y-54375000D03*
X24625000Y-55625000D03*
X24625000Y-54375000D03*
D63*
X26437500Y-53750000D03*
X26437500Y-54250000D03*
X26437500Y-54750000D03*
X26437500Y-55250000D03*
X26437500Y-55750000D03*
X26437500Y-56250000D03*
X23562500Y-56250000D03*
X23562500Y-55750000D03*
X23562500Y-55250000D03*
X23562500Y-54750000D03*
X23562500Y-54250000D03*
X23562500Y-53750000D03*
%TD*%
D25*
%TO.C,Q12*%
X165000000Y-80320000D03*
X163000000Y-80320000D03*
X161000000Y-80320000D03*
X159000000Y-80320000D03*
D26*
X159750000Y-77050000D03*
X162000000Y-77050000D03*
X164250000Y-77050000D03*
X159750000Y-75700000D03*
X162000000Y-75700000D03*
X164250000Y-75700000D03*
X159750000Y-74350000D03*
X162000000Y-74350000D03*
X164250000Y-74350000D03*
D27*
X158450000Y-72950000D03*
D28*
X162000000Y-72950000D03*
D27*
X165550000Y-72950000D03*
D29*
X160300000Y-72675000D03*
X163700000Y-72675000D03*
%TD*%
D47*
%TO.C,Q4*%
X97820000Y-20000000D03*
X97820000Y-22000000D03*
X97820000Y-24000000D03*
X97820000Y-26000000D03*
D48*
X94550000Y-25250000D03*
X94550000Y-23000000D03*
X94550000Y-20750000D03*
X93200000Y-25250000D03*
X93200000Y-23000000D03*
X93200000Y-20750000D03*
X91850000Y-25250000D03*
X91850000Y-23000000D03*
X91850000Y-20750000D03*
D49*
X90450000Y-26550000D03*
D50*
X90450000Y-23000000D03*
D49*
X90450000Y-19450000D03*
D51*
X90175000Y-24700000D03*
X90175000Y-21300000D03*
%TD*%
D33*
%TO.C,D502*%
X249300000Y-114687500D03*
X249300000Y-113112500D03*
%TD*%
D20*
%TO.C,D512*%
X237437500Y-71050000D03*
X237437500Y-72950000D03*
X235562500Y-72000000D03*
%TD*%
D30*
%TO.C,C28*%
X78950000Y-50000000D03*
X77050000Y-50000000D03*
%TD*%
D21*
%TO.C,D311*%
X178275000Y-85075000D03*
X172725000Y-85075000D03*
X178275000Y-89925000D03*
X172725000Y-89925000D03*
D22*
X172960000Y-78350000D03*
X178040000Y-78350000D03*
%TD*%
D13*
%TO.C,R413*%
X201325000Y-39000000D03*
X199675000Y-39000000D03*
%TD*%
D23*
%TO.C,U23*%
X179362500Y-60550000D03*
X179362500Y-61200000D03*
X179362500Y-61850000D03*
X179362500Y-62500000D03*
X179362500Y-63150000D03*
X179362500Y-63800000D03*
X179362500Y-64450000D03*
X173637500Y-64450000D03*
X173637500Y-63800000D03*
X173637500Y-63150000D03*
X173637500Y-62500000D03*
X173637500Y-61850000D03*
X173637500Y-61200000D03*
X173637500Y-60550000D03*
%TD*%
D19*
%TO.C,R805*%
X309800000Y-135675000D03*
X309800000Y-137325000D03*
%TD*%
D25*
%TO.C,Q13*%
X189000000Y-80320000D03*
X187000000Y-80320000D03*
X185000000Y-80320000D03*
X183000000Y-80320000D03*
D26*
X183750000Y-77050000D03*
X186000000Y-77050000D03*
X188250000Y-77050000D03*
X183750000Y-75700000D03*
X186000000Y-75700000D03*
X188250000Y-75700000D03*
X183750000Y-74350000D03*
X186000000Y-74350000D03*
X188250000Y-74350000D03*
D27*
X182450000Y-72950000D03*
D28*
X186000000Y-72950000D03*
D27*
X189550000Y-72950000D03*
D29*
X184300000Y-72675000D03*
X187700000Y-72675000D03*
%TD*%
D32*
%TO.C,R703*%
X285800000Y-129187500D03*
X285800000Y-131012500D03*
%TD*%
D33*
%TO.C,D202*%
X165300000Y-114687500D03*
X165300000Y-113112500D03*
%TD*%
D14*
%TO.C,C801*%
X310000000Y-124150000D03*
X310000000Y-126050000D03*
%TD*%
D24*
%TO.C,C312*%
X177975000Y-51000000D03*
X175025000Y-51000000D03*
%TD*%
D33*
%TO.C,D402*%
X213300000Y-114687500D03*
X213300000Y-113112500D03*
%TD*%
D13*
%TO.C,R513*%
X237325000Y-39000000D03*
X235675000Y-39000000D03*
%TD*%
%TO.C,R414*%
X201325000Y-42000000D03*
X199675000Y-42000000D03*
%TD*%
D19*
%TO.C,R507*%
X249300000Y-108675000D03*
X249300000Y-110325000D03*
%TD*%
%TO.C,R301*%
X180200000Y-132675000D03*
X180200000Y-134325000D03*
%TD*%
D30*
%TO.C,C413*%
X201450000Y-55000000D03*
X199550000Y-55000000D03*
%TD*%
D14*
%TO.C,C601*%
X262000000Y-124150000D03*
X262000000Y-126050000D03*
%TD*%
D20*
%TO.C,D712*%
X285437500Y-71050000D03*
X285437500Y-72950000D03*
X283562500Y-72000000D03*
%TD*%
%TO.C,D403*%
X217437500Y-112950000D03*
X217437500Y-114850000D03*
X215562500Y-113900000D03*
%TD*%
D64*
%TO.C,C10*%
X22625000Y-4600000D03*
X24175000Y-4600000D03*
%TD*%
D14*
%TO.C,C9*%
X24000000Y-11750000D03*
X24000000Y-13650000D03*
%TD*%
D13*
%TO.C,R19*%
X101325000Y-20000000D03*
X99675000Y-20000000D03*
%TD*%
D20*
%TO.C,D601*%
X266337500Y-141050000D03*
X266337500Y-142950000D03*
X264462500Y-142000000D03*
%TD*%
D17*
%TO.C,U2*%
X160000000Y-124425000D03*
X160000000Y-126575000D03*
D18*
X157150000Y-127450000D03*
X157150000Y-126800000D03*
X157150000Y-126150000D03*
X157155000Y-125500000D03*
X157150000Y-124850000D03*
X157150000Y-124200000D03*
X157150000Y-123550000D03*
X162850000Y-123550000D03*
X162850000Y-124200000D03*
X162850000Y-124850000D03*
X162850000Y-125500000D03*
X162850000Y-126150000D03*
X162850000Y-126800000D03*
X162850000Y-127450000D03*
%TD*%
D19*
%TO.C,R407*%
X213300000Y-108675000D03*
X213300000Y-110325000D03*
%TD*%
%TO.C,R306*%
X184200000Y-135675000D03*
X184200000Y-137325000D03*
%TD*%
D13*
%TO.C,R24*%
X104825000Y-65000000D03*
X103175000Y-65000000D03*
%TD*%
D52*
%TO.C,R7*%
X11075000Y-54750000D03*
X12725000Y-54750000D03*
%TD*%
D25*
%TO.C,Q15*%
X249000000Y-80320000D03*
X247000000Y-80320000D03*
X245000000Y-80320000D03*
X243000000Y-80320000D03*
D26*
X243750000Y-77050000D03*
X246000000Y-77050000D03*
X248250000Y-77050000D03*
X243750000Y-75700000D03*
X246000000Y-75700000D03*
X248250000Y-75700000D03*
X243750000Y-74350000D03*
X246000000Y-74350000D03*
X248250000Y-74350000D03*
D27*
X242450000Y-72950000D03*
D28*
X246000000Y-72950000D03*
D27*
X249550000Y-72950000D03*
D29*
X244300000Y-72675000D03*
X247700000Y-72675000D03*
%TD*%
D20*
%TO.C,D801*%
X314337500Y-141050000D03*
X314337500Y-142950000D03*
X312462500Y-142000000D03*
%TD*%
D13*
%TO.C,R608*%
X266225000Y-145500000D03*
X264575000Y-145500000D03*
%TD*%
D20*
%TO.C,D112*%
X129437500Y-71050000D03*
X129437500Y-72950000D03*
X127562500Y-72000000D03*
%TD*%
D13*
%TO.C,R416*%
X217825000Y-74500000D03*
X216175000Y-74500000D03*
%TD*%
D20*
%TO.C,D612*%
X261437500Y-71050000D03*
X261437500Y-72950000D03*
X259562500Y-72000000D03*
%TD*%
D13*
%TO.C,R815*%
X309325000Y-32000000D03*
X307675000Y-32000000D03*
%TD*%
D20*
%TO.C,Q6*%
X96937500Y-64050000D03*
X96937500Y-65950000D03*
X95062500Y-65000000D03*
%TD*%
D65*
%TO.C,U9*%
X33787500Y-40575000D03*
D66*
X33625000Y-40437500D03*
D67*
X33500000Y-40275000D03*
D68*
X33775000Y-41225000D03*
X33775000Y-42025000D03*
X33775000Y-42675000D03*
X33775000Y-43475000D03*
X33775000Y-44125000D03*
X33775000Y-44775000D03*
D65*
X33787500Y-45425000D03*
D66*
X33625000Y-45562500D03*
D67*
X33500000Y-45725000D03*
D69*
X33000000Y-45850000D03*
X32500000Y-45850000D03*
X32000000Y-45850000D03*
X31500000Y-45850000D03*
X31000000Y-45850000D03*
D67*
X30500000Y-45725000D03*
D66*
X30375000Y-45562500D03*
D65*
X30212500Y-45425000D03*
D68*
X30225000Y-44775000D03*
X30225000Y-44125000D03*
X30225000Y-43475000D03*
X30225000Y-42675000D03*
X30225000Y-42025000D03*
X30225000Y-41225000D03*
D67*
X30500000Y-40275000D03*
D66*
X30375000Y-40437500D03*
D65*
X30212500Y-40575000D03*
D69*
X31000000Y-40150000D03*
X31500000Y-40150000D03*
X32000000Y-40150000D03*
X32500000Y-40150000D03*
X33000000Y-40150000D03*
D70*
X32000000Y-41075000D03*
D71*
X32000000Y-42400000D03*
X32000000Y-43600000D03*
D70*
X32000000Y-44925000D03*
%TD*%
M02*
