%TF.GenerationSoftware,KiCad,Pcbnew,10.0.6*%
%TF.CreationDate,2026-09-19T23:31:24+00:00*%
%TF.ProjectId,eswitch,65737769-7463-4682-9e6b-696361645f70,rev?*%
%TF.SameCoordinates,Original*%
%TF.FileFunction,Soldermask,Top*%
%TF.FilePolarity,Negative*%
%FSLAX46Y46*%
G04 Gerber Fmt 4.6, Leading zero omitted, Abs format (unit mm)*
G04 Created by KiCad (PCBNEW 10.0.6) date 2026-09-19 23:31:24*
%MOMM*%
%LPD*%
G01*
G04 APERTURE LIST*
G04 Aperture macros list*
%AMRoundRect*
0 Rectangle with rounded corners*
0 $1 Rounding radius*
0 $2 $3 $4 $5 $6 $7 $8 $9 X,Y pos of 4 corners*
0 Add a 4 corners polygon primitive as box body*
4,1,4,$2,$3,$4,$5,$6,$7,$8,$9,$2,$3,0*
0 Add four circle primitives for the rounded corners*
1,1,$1+$1,$2,$3*
1,1,$1+$1,$4,$5*
1,1,$1+$1,$6,$7*
1,1,$1+$1,$8,$9*
0 Add four rect primitives between the rounded corners*
20,1,$1+$1,$2,$3,$4,$5,0*
20,1,$1+$1,$4,$5,$6,$7,0*
20,1,$1+$1,$6,$7,$8,$9,0*
20,1,$1+$1,$8,$9,$2,$3,0*%
G04 Aperture macros list end*
%ADD10C,3.200000*%
%ADD11RoundRect,0.250000X-0.525000X-0.400000X0.525000X-0.400000X0.525000X0.400000X-0.525000X0.400000X0*%
%ADD12RoundRect,0.250000X0.700000X-1.950000X0.700000X1.950000X-0.700000X1.950000X-0.700000X-1.950000X0*%
%ADD13C,1.500000*%
%ADD14C,2.800000*%
%ADD15C,2.600000*%
%ADD16R,1.700000X1.700000*%
%ADD17C,1.700000*%
%ADD18C,0.650000*%
%ADD19O,1.920000X1.120000*%
%ADD20O,2.220000X1.120000*%
G04 APERTURE END LIST*
D10*
%TO.C,H7*%
X226000000Y-166000000D03*
%TD*%
D11*
%TO.C,SW8*%
X265020000Y-84250000D03*
X272980000Y-84250000D03*
X265020000Y-88750000D03*
X272980000Y-88750000D03*
%TD*%
D12*
%TO.C,C314*%
X178000000Y-20350000D03*
X178000000Y-11650000D03*
%TD*%
%TO.C,C214*%
X154000000Y-20350000D03*
X154000000Y-11650000D03*
%TD*%
D13*
%TO.C,TP2*%
X38000000Y-100000000D03*
%TD*%
D10*
%TO.C,H6*%
X226000000Y-90000000D03*
%TD*%
D13*
%TO.C,TP13*%
X68000000Y-112000000D03*
%TD*%
D11*
%TO.C,SW3*%
X133020000Y-84250000D03*
X140980000Y-84250000D03*
X133020000Y-88750000D03*
X140980000Y-88750000D03*
%TD*%
D10*
%TO.C,H11*%
X118000000Y-6000000D03*
%TD*%
D13*
%TO.C,TP10*%
X38000000Y-112000000D03*
%TD*%
D10*
%TO.C,H4*%
X328000000Y-166000000D03*
%TD*%
D12*
%TO.C,C815*%
X322000000Y-20350000D03*
X322000000Y-11650000D03*
%TD*%
D14*
%TO.C,F6*%
X266300000Y-96630000D03*
X269700000Y-96630000D03*
X266300000Y-110100000D03*
X269700000Y-110100000D03*
X266300000Y-119370000D03*
X269700000Y-119370000D03*
%TD*%
D13*
%TO.C,TP8*%
X98000000Y-100000000D03*
%TD*%
D11*
%TO.C,SW5*%
X181020000Y-84250000D03*
X188980000Y-84250000D03*
X181020000Y-88750000D03*
X188980000Y-88750000D03*
%TD*%
D12*
%TO.C,C514*%
X238000000Y-20350000D03*
X238000000Y-11650000D03*
%TD*%
D10*
%TO.C,H2*%
X5000000Y-75000000D03*
%TD*%
D15*
%TO.C,J1*%
X132190000Y-160300000D03*
X139810000Y-160300000D03*
%TD*%
D10*
%TO.C,H10*%
X5000000Y-90000000D03*
%TD*%
D11*
%TO.C,SW9*%
X289020000Y-84250000D03*
X296980000Y-84250000D03*
X289020000Y-88750000D03*
X296980000Y-88750000D03*
%TD*%
D12*
%TO.C,C516*%
X244000000Y-33350000D03*
X244000000Y-24650000D03*
%TD*%
%TO.C,C715*%
X298000000Y-20350000D03*
X298000000Y-11650000D03*
%TD*%
%TO.C,C115*%
X142000000Y-20350000D03*
X142000000Y-11650000D03*
%TD*%
D10*
%TO.C,H5*%
X118000000Y-90000000D03*
%TD*%
D14*
%TO.C,F1*%
X134300000Y-96630000D03*
X137700000Y-96630000D03*
X134300000Y-110100000D03*
X137700000Y-110100000D03*
X134300000Y-119370000D03*
X137700000Y-119370000D03*
%TD*%
D13*
%TO.C,TP14*%
X78000000Y-112000000D03*
%TD*%
D12*
%TO.C,C116*%
X136000000Y-33350000D03*
X136000000Y-24650000D03*
%TD*%
%TO.C,C615*%
X274000000Y-20350000D03*
X274000000Y-11650000D03*
%TD*%
%TO.C,C814*%
X310000000Y-20350000D03*
X310000000Y-11650000D03*
%TD*%
D14*
%TO.C,F7*%
X290300000Y-96630000D03*
X293700000Y-96630000D03*
X290300000Y-110100000D03*
X293700000Y-110100000D03*
X290300000Y-119370000D03*
X293700000Y-119370000D03*
%TD*%
D12*
%TO.C,C515*%
X250000000Y-20350000D03*
X250000000Y-11650000D03*
%TD*%
%TO.C,C614*%
X262000000Y-20350000D03*
X262000000Y-11650000D03*
%TD*%
D10*
%TO.C,H9*%
X5000000Y-166000000D03*
%TD*%
D11*
%TO.C,SW1*%
X8520000Y-27750000D03*
X16480000Y-27750000D03*
X8520000Y-32250000D03*
X16480000Y-32250000D03*
%TD*%
D13*
%TO.C,TP6*%
X82700000Y-44700000D03*
%TD*%
D12*
%TO.C,C114*%
X130000000Y-20350000D03*
X130000000Y-11650000D03*
%TD*%
D14*
%TO.C,F8*%
X314300000Y-96630000D03*
X317700000Y-96630000D03*
X314300000Y-110100000D03*
X317700000Y-110100000D03*
X314300000Y-119370000D03*
X317700000Y-119370000D03*
%TD*%
D13*
%TO.C,TP16*%
X98000000Y-112000000D03*
%TD*%
D15*
%TO.C,J11*%
X288190000Y-160300000D03*
X295810000Y-160300000D03*
%TD*%
D13*
%TO.C,TP4*%
X75500000Y-27500000D03*
%TD*%
D12*
%TO.C,C816*%
X316000000Y-33350000D03*
X316000000Y-24650000D03*
%TD*%
D13*
%TO.C,TP3*%
X48000000Y-100000000D03*
%TD*%
D11*
%TO.C,SW10*%
X313020000Y-84250000D03*
X320980000Y-84250000D03*
X313020000Y-88750000D03*
X320980000Y-88750000D03*
%TD*%
D15*
%TO.C,J12*%
X312190000Y-160300000D03*
X319810000Y-160300000D03*
%TD*%
D12*
%TO.C,C415*%
X214000000Y-20350000D03*
X214000000Y-11650000D03*
%TD*%
%TO.C,C616*%
X268000000Y-33350000D03*
X268000000Y-24650000D03*
%TD*%
D15*
%TO.C,J10*%
X264190000Y-160300000D03*
X271810000Y-160300000D03*
%TD*%
D14*
%TO.C,F5*%
X242300000Y-96630000D03*
X245700000Y-96630000D03*
X242300000Y-110100000D03*
X245700000Y-110100000D03*
X242300000Y-119370000D03*
X245700000Y-119370000D03*
%TD*%
D13*
%TO.C,TP12*%
X58000000Y-112000000D03*
%TD*%
D16*
%TO.C,J5*%
X33500000Y-64000000D03*
D17*
X33500000Y-66540000D03*
X33500000Y-69080000D03*
X33500000Y-71620000D03*
%TD*%
D12*
%TO.C,C714*%
X286000000Y-20350000D03*
X286000000Y-11650000D03*
%TD*%
%TO.C,C316*%
X184000000Y-33350000D03*
X184000000Y-24650000D03*
%TD*%
D13*
%TO.C,TP5*%
X79000000Y-27500000D03*
%TD*%
%TO.C,TP9*%
X28000000Y-112000000D03*
%TD*%
D14*
%TO.C,F4*%
X206300000Y-96630000D03*
X209700000Y-96630000D03*
X206300000Y-110100000D03*
X209700000Y-110100000D03*
X206300000Y-119370000D03*
X209700000Y-119370000D03*
%TD*%
D15*
%TO.C,J9*%
X240190000Y-160300000D03*
X247810000Y-160300000D03*
%TD*%
%TO.C,J6*%
X156190000Y-160300000D03*
X163810000Y-160300000D03*
%TD*%
D10*
%TO.C,H3*%
X328000000Y-6000000D03*
%TD*%
D14*
%TO.C,F3*%
X182300000Y-96630000D03*
X185700000Y-96630000D03*
X182300000Y-110100000D03*
X185700000Y-110100000D03*
X182300000Y-119370000D03*
X185700000Y-119370000D03*
%TD*%
D10*
%TO.C,J2*%
X38565000Y-12865000D03*
X38565000Y-17300000D03*
X38565000Y-21735000D03*
X43000000Y-12865000D03*
X43000000Y-17300000D03*
X43000000Y-21735000D03*
X47435000Y-12865000D03*
X47435000Y-17300000D03*
X47435000Y-21735000D03*
%TD*%
D11*
%TO.C,SW2*%
X8520000Y-36250000D03*
X16480000Y-36250000D03*
X8520000Y-40750000D03*
X16480000Y-40750000D03*
%TD*%
D13*
%TO.C,TP11*%
X48000000Y-112000000D03*
%TD*%
D14*
%TO.C,F2*%
X158300000Y-96630000D03*
X161700000Y-96630000D03*
X158300000Y-110100000D03*
X161700000Y-110100000D03*
X158300000Y-119370000D03*
X161700000Y-119370000D03*
%TD*%
D13*
%TO.C,TP15*%
X88000000Y-112000000D03*
%TD*%
D11*
%TO.C,SW4*%
X157020000Y-84250000D03*
X164980000Y-84250000D03*
X157020000Y-88750000D03*
X164980000Y-88750000D03*
%TD*%
D12*
%TO.C,C216*%
X160000000Y-33350000D03*
X160000000Y-24650000D03*
%TD*%
D15*
%TO.C,J8*%
X204190000Y-160300000D03*
X211810000Y-160300000D03*
%TD*%
D12*
%TO.C,C416*%
X208000000Y-33350000D03*
X208000000Y-24650000D03*
%TD*%
D11*
%TO.C,SW6*%
X205020000Y-84250000D03*
X212980000Y-84250000D03*
X205020000Y-88750000D03*
X212980000Y-88750000D03*
%TD*%
D12*
%TO.C,C315*%
X190000000Y-20350000D03*
X190000000Y-11650000D03*
%TD*%
D10*
%TO.C,H12*%
X226000000Y-6000000D03*
%TD*%
%TO.C,J3*%
X46565000Y-47565000D03*
X46565000Y-52000000D03*
X46565000Y-56435000D03*
X51000000Y-47565000D03*
X51000000Y-52000000D03*
X51000000Y-56435000D03*
X55435000Y-47565000D03*
X55435000Y-52000000D03*
X55435000Y-56435000D03*
%TD*%
D12*
%TO.C,C414*%
X202000000Y-20350000D03*
X202000000Y-11650000D03*
%TD*%
D10*
%TO.C,H8*%
X118000000Y-166000000D03*
%TD*%
D11*
%TO.C,SW7*%
X241020000Y-84250000D03*
X248980000Y-84250000D03*
X241020000Y-88750000D03*
X248980000Y-88750000D03*
%TD*%
D13*
%TO.C,TP1*%
X28000000Y-100000000D03*
%TD*%
D10*
%TO.C,H1*%
X85000000Y-82000000D03*
%TD*%
D12*
%TO.C,C215*%
X166000000Y-20350000D03*
X166000000Y-11650000D03*
%TD*%
D15*
%TO.C,J7*%
X180190000Y-160300000D03*
X187810000Y-160300000D03*
%TD*%
D13*
%TO.C,TP7*%
X104000000Y-28000000D03*
%TD*%
D12*
%TO.C,C716*%
X292000000Y-33350000D03*
X292000000Y-24650000D03*
%TD*%
D18*
%TO.C,J4*%
X6280000Y-54390000D03*
X6280000Y-48610000D03*
D19*
X2600000Y-55820000D03*
D20*
X6780000Y-55820000D03*
D19*
X2600000Y-47180000D03*
D20*
X6780000Y-47180000D03*
%TD*%
M02*
