M48
; DRILL file KiCad 10.0.6 date 2026-09-19T23:31:25
; FORMAT={-:-/ absolute / metric / decimal}
; #@! TF.CreationDate,2026-09-19T23:31:25+00:00
; #@! TF.GenerationSoftware,Kicad,Pcbnew,10.0.6
; #@! TF.FileFunction,Plated,1,4,PTH
FMAT,2
METRIC
; #@! TA.AperFunction,Plated,PTH,ViaDrill
T1C0.300
; #@! TA.AperFunction,Plated,PTH,ComponentDrill
T2C0.300
; #@! TA.AperFunction,Plated,PTH,ViaDrill
T3C0.350
; #@! TA.AperFunction,Plated,PTH,ViaDrill
T4C0.400
; #@! TA.AperFunction,Plated,PTH,ViaDrill
T5C0.450
; #@! TA.AperFunction,Plated,PTH,ComponentDrill
T6C0.600
; #@! TA.AperFunction,Plated,PTH,ComponentDrill
T7C1.000
; #@! TA.AperFunction,Plated,PTH,ComponentDrill
T8C1.600
; #@! TA.AperFunction,Plated,PTH,ComponentDrill
T9C1.700
; #@! TA.AperFunction,Plated,PTH,ComponentDrill
T10C1.850
%
G90
G05
T1
X3.2Y-4.6
X3.2Y-12.2
X5.2Y-17.9
X5.9Y-19.8
X7.3Y-9.0
X7.9Y-20.85
X8.0Y-16.0
X9.9Y-19.8
X10.0Y-54.1
X10.6Y-22.3
X11.0Y-9.7
X12.6Y-21.5
X12.95Y-51.5
X13.8Y-41.4
X13.8Y-53.9
X15.1Y-51.25
X16.4Y-26.6
X16.7Y-21.1
X17.0Y-60.3
X19.4Y-16.8
X19.5Y-15.4
X20.4Y-12.0
X20.5Y-59.095
X20.8Y-9.7
X20.8Y-17.1
X21.3Y-31.5
X21.8Y-56.475
X22.2Y-14.0
X22.3Y-39.9
X22.8Y-56.9
X22.9Y-53.15
X22.9Y-55.0
X23.0Y-40.4
X23.1Y-32.1
X23.9Y-7.6
X24.2Y-48.1
X24.3Y-27.6
X25.3Y-12.2
X26.5Y-52.9
X26.95Y-56.5
X27.0Y-50.8
X27.5Y-40.1
X27.5Y-43.375
X27.5Y-44.375
X27.5Y-54.1
X27.7Y-56.2
X28.0Y-112.0
X28.5Y-9.7
X28.6Y-17.8
X28.7Y-37.3
X29.5Y-39.2
X30.0Y-53.1
X30.9Y-43.25
X31.3Y-55.95
X31.4Y-25.5
X31.4Y-28.3
X31.7Y-61.1
X32.0Y-38.5
X32.0Y-46.85
X32.0Y-50.8
X33.0Y-12.9
X33.0Y-39.2
X33.1Y-37.5
X33.1Y-43.25
X33.2Y-16.1
X34.4Y-14.8
X34.5Y-37.0
X36.5Y-40.1
X36.5Y-42.1
X36.5Y-43.375
X36.5Y-44.375
X36.6Y-1.6
X37.0Y-45.9
X37.0Y-50.8
X37.1Y-29.6
X37.5Y-38.0
X37.8Y-30.5
X38.6Y-36.3
X39.3Y-37.2
X39.3Y-68.6
X42.0Y-46.85
X42.0Y-50.8
X48.0Y-74.3
X48.6Y-48.9
X48.7Y-65.6
X49.5Y-31.2
X51.8Y-28.0
X52.6Y-29.5
X53.8Y-28.7
X54.325Y-8.095
X54.325Y-21.095
X55.6Y-75.2
X57.8Y-44.4
X57.8Y-61.9
X59.6Y-31.05
X60.5Y-29.95
X60.6Y-31.8
X60.8Y-32.55
X61.2Y-37.0
X65.05Y-34.1
X65.1Y-29.7
X66.1Y-31.8
X67.7Y-32.8
X68.0Y-26.0
X69.0Y-35.45
X69.3Y-34.7
X69.975Y-22.5
X72.0Y-41.0
X74.8Y-42.3
X76.2Y-30.6
X78.025Y-22.5
X78.5Y-44.4
X79.9Y-113.1
X80.5Y-46.0
X80.5Y-50.0
X81.05Y-41.3
X81.2Y-47.1
X81.5Y-37.362
X82.3Y-46.0
X82.95Y-42.0
X83.0Y-47.0
X83.8Y-29.4
X84.0Y-41.0
X85.0Y-42.7
X85.15Y-30.2
X85.3Y-47.325
X85.7Y-65.2
X85.8Y-29.4
X86.4Y-47.2
X87.1Y-29.4
X89.0Y-47.3
X93.25Y-81.75
X93.8Y-65.2
X95.0Y-38.5
X95.0Y-41.5
X96.6Y-102.4
X96.8Y-67.3
X97.0Y-47.0
X98.0Y-112.0
X98.175Y-69.0
X100.0Y-31.0
X101.7Y-65.2
X103.0Y-31.8
X103.2Y-43.3
X103.5Y-20.0
X103.5Y-53.9
X104.3Y-32.7
X112.9Y-71.6
X112.9Y-75.2
X118.5Y-64.75
X120.0Y-77.0
X122.9Y-54.6
X123.4Y-60.4
X124.1Y-61.2
X124.6Y-35.4
X126.0Y-113.2
X126.0Y-114.1
X126.5Y-52.25
X127.8Y-95.5
X128.38Y-141.5
X128.4Y-138.1
X128.48Y-126.9
X128.5Y-112.5
X128.9Y-138.8
X129.4Y-55.0
X129.7Y-71.9
X130.1Y-64.3
X130.88Y-137.5
X131.0Y-73.6
X131.13Y-132.0
X131.362Y-63.15
X131.362Y-64.45
X133.1Y-66.5
X133.1Y-74.3
X133.1Y-75.2
X133.5Y-89.3
X134.3Y-135.9
X134.5Y-58.7
X134.8Y-40.5
X135.0Y-59.4
X135.13Y-139.5
X135.35Y-122.35
X135.35Y-128.7
X135.35Y-124.15
X135.35Y-125.05
X135.35Y-125.95
X135.35Y-126.85
X135.58Y-130.4
X136.65Y-122.35
X136.65Y-128.7
X136.65Y-124.15
X136.65Y-125.05
X136.65Y-125.95
X136.65Y-126.85
X138.0Y-59.34
X138.0Y-63.66
X140.4Y-60.0
X140.98Y-84.25
X141.0Y-88.8
X141.7Y-110.3
X142.9Y-64.3
X143.62Y-127.998
X144.0Y-66.5
X145.5Y-59.0
X145.75Y-40.5
X146.7Y-113.2
X147.4Y-60.4
X147.4Y-115.1
X148.1Y-61.2
X152.0Y-92.8
X152.38Y-127.998
X152.5Y-135.7
X152.9Y-61.9
X153.4Y-55.0
X153.4Y-62.6
X153.75Y-63.75
X153.84Y-129.2
X153.84Y-132.5
X155.4Y-66.4
X155.9Y-65.7
X155.9Y-67.1
X156.1Y-126.8
X156.14Y-128.9
X156.5Y-134.3
X156.84Y-131.8
X157.4Y-135.9
X157.5Y-89.3
X157.89Y-132.5
X158.5Y-140.0
X158.74Y-136.5
X159.0Y-58.0
X159.35Y-122.35
X159.35Y-128.7
X159.35Y-124.15
X159.35Y-125.05
X159.35Y-125.95
X159.35Y-126.85
X160.65Y-122.35
X160.65Y-128.7
X160.65Y-124.15
X160.65Y-125.05
X160.65Y-125.95
X160.65Y-126.85
X161.54Y-136.5
X162.0Y-59.34
X162.0Y-63.66
X164.5Y-56.6
X164.98Y-84.25
X165.0Y-88.8
X165.7Y-113.1
X166.3Y-115.1
X169.0Y-67.1
X169.39Y-127.0
X171.4Y-60.4
X172.1Y-61.2
X174.25Y-106.75
X175.8Y-118.1
X176.5Y-125.0
X176.5Y-143.9
X177.2Y-60.4
X177.8Y-129.2
X178.15Y-127.0
X178.5Y-145.9
X179.5Y-132.4
X179.5Y-135.7
X179.9Y-129.2
X180.0Y-126.9
X180.7Y-129.5
X181.1Y-67.1
X181.2Y-132.6
X181.5Y-89.3
X182.3Y-135.7
X182.3Y-146.7
X183.0Y-139.5
X183.35Y-122.35
X183.35Y-128.7
X183.35Y-124.15
X183.35Y-125.05
X183.35Y-125.95
X183.35Y-126.85
X184.65Y-122.35
X184.65Y-124.15
X184.65Y-125.05
X184.65Y-125.95
X184.65Y-126.85
X184.65Y-128.7
X186.0Y-58.645
X186.0Y-64.355
X188.98Y-84.25
X189.0Y-88.8
X189.7Y-113.1
X190.9Y-67.2
X193.4Y-114.8
X193.5Y-38.75
X194.8Y-57.5
X195.4Y-60.4
X196.1Y-61.2
X197.2Y-135.7
X197.4Y-138.0
X198.5Y-137.0
X199.2Y-135.0
X199.9Y-134.3
X200.1Y-59.6
X201.2Y-59.8
X201.4Y-61.9
X201.76Y-129.2
X201.9Y-37.3
X202.6Y-39.0
X202.7Y-138.0
X203.362Y-61.85
X203.76Y-128.9
X203.8Y-95.8
X203.8Y-99.8
X203.8Y-111.9
X203.9Y-126.8
X203.91Y-140.0
X204.2Y-131.9
X205.2Y-114.2
X205.5Y-89.3
X205.56Y-138.7
X206.16Y-138.1
X206.26Y-145.5
X207.16Y-145.0
X207.26Y-140.3
X207.35Y-122.35
X207.35Y-128.7
X207.35Y-124.15
X207.35Y-125.05
X207.35Y-125.95
X207.35Y-126.85
X207.66Y-142.6
X207.96Y-143.4
X208.16Y-141.0
X208.65Y-122.35
X208.65Y-128.7
X208.65Y-124.15
X208.65Y-125.05
X208.65Y-125.95
X208.65Y-126.85
X209.3Y-62.0
X210.0Y-58.645
X210.0Y-64.355
X212.98Y-84.25
X213.0Y-88.8
X213.7Y-113.1
X218.6Y-113.5
X225.5Y-37.0
X229.25Y-104.0
X231.4Y-60.4
X232.1Y-61.2
X236.0Y-92.8
X236.52Y-126.3
X236.52Y-131.8
X237.2Y-58.9
X237.8Y-62.5
X237.9Y-141.5
X239.3Y-114.9
X239.3Y-115.7
X239.3Y-128.5
X239.3Y-136.5
X240.0Y-120.3
X240.2Y-132.7
X240.2Y-135.9
X240.22Y-133.7
X240.6Y-115.7
X240.62Y-145.2
X240.72Y-129.5
X241.3Y-58.0
X241.5Y-89.3
X242.02Y-131.8
X242.32Y-134.5
X242.62Y-132.4
X242.92Y-137.3
X243.35Y-122.35
X243.35Y-128.7
X243.35Y-124.15
X243.35Y-125.95
X243.35Y-126.85
X243.62Y-130.3
X244.65Y-122.35
X244.65Y-128.7
X244.65Y-124.15
X244.65Y-125.95
X244.65Y-126.85
X245.12Y-137.9
X245.12Y-142.6
X246.0Y-58.645
X246.0Y-64.355
X248.98Y-84.25
X249.0Y-88.8
X249.7Y-113.1
X251.62Y-124.057
X253.17Y-140.25
X253.5Y-39.0
X254.6Y-113.5
X255.4Y-60.4
X256.1Y-61.2
X260.3Y-115.7
X260.38Y-124.057
X260.48Y-126.4
X260.48Y-134.0
X261.4Y-55.0
X261.93Y-140.25
X262.8Y-135.9
X262.88Y-140.6
X263.08Y-128.9
X263.18Y-132.2
X263.4Y-59.7
X263.4Y-133.0
X263.58Y-126.1
X263.78Y-130.4
X264.08Y-125.4
X264.08Y-126.8
X264.18Y-136.8
X264.48Y-141.2
X264.58Y-144.8
X265.1Y-54.3
X265.5Y-89.3
X267.35Y-122.35
X267.35Y-124.15
X267.35Y-125.05
X267.35Y-125.95
X267.35Y-126.85
X267.35Y-128.7
X267.38Y-133.0
X267.58Y-142.6
X267.68Y-140.9
X268.65Y-122.35
X268.65Y-124.15
X268.65Y-125.05
X268.65Y-125.95
X268.65Y-126.85
X268.65Y-128.7
X270.0Y-58.645
X270.0Y-64.355
X272.98Y-84.25
X273.0Y-88.8
X273.7Y-113.1
X275.62Y-123.38
X277.0Y-39.5
X278.6Y-113.5
X278.9Y-151.0
X279.4Y-60.4
X280.1Y-61.2
X284.38Y-123.38
X284.5Y-63.75
X285.84Y-132.5
X287.64Y-124.8
X288.1Y-131.1
X288.14Y-125.5
X288.2Y-135.9
X289.04Y-135.0
X289.5Y-89.3
X290.24Y-139.9
X290.24Y-145.5
X291.35Y-122.35
X291.35Y-124.15
X291.35Y-125.05
X291.35Y-125.95
X291.35Y-126.85
X291.35Y-128.7
X291.64Y-141.2
X292.44Y-142.6
X292.65Y-122.35
X292.65Y-124.15
X292.65Y-125.05
X292.65Y-125.95
X292.65Y-126.85
X292.65Y-128.7
X294.0Y-58.645
X294.0Y-64.355
X296.98Y-84.25
X297.0Y-88.8
X297.7Y-113.1
X299.62Y-123.317
X301.4Y-114.8
X303.4Y-60.4
X304.1Y-61.2
X308.38Y-123.317
X308.8Y-67.5
X309.0Y-56.4
X309.8Y-129.2
X309.8Y-137.3
X312.1Y-128.9
X312.6Y-142.9
X313.3Y-128.2
X313.3Y-135.0
X313.5Y-89.3
X314.0Y-132.7
X314.2Y-138.1
X314.2Y-145.5
X315.35Y-122.35
X315.35Y-128.7
X315.35Y-124.15
X315.35Y-125.05
X315.35Y-125.95
X315.35Y-126.85
X316.65Y-122.35
X316.65Y-128.7
X316.65Y-124.15
X316.65Y-125.05
X316.65Y-125.95
X316.65Y-126.85
X318.0Y-59.34
X318.0Y-63.66
X320.98Y-84.25
X321.0Y-88.8
X321.7Y-113.1
X325.4Y-114.8
T2
X12.1Y-10.36
X12.1Y-11.76
X12.8Y-9.66
X12.8Y-11.06
X12.8Y-12.46
X13.5Y-10.36
X13.5Y-11.76
X14.2Y-9.66
X14.2Y-11.06
X14.2Y-12.46
X14.9Y-10.36
X14.9Y-11.76
T3
X1.246Y-8.42
X1.932Y-7.15
X6.55Y-10.965
X7.474Y-31.204
X10.285Y-24.57
X12.759Y-28.601
X13.571Y-39.923
X15.449Y-19.599
X18.517Y-26.19
X19.433Y-5.965
X22.053Y-8.83
X22.774Y-29.882
X28.686Y-30.221
X37.423Y-45.119
X40.619Y-72.794
X46.733Y-79.951
X48.535Y-113.337
X77.748Y-109.984
X81.763Y-30.851
X81.773Y-32.202
X86.666Y-111.748
X88.436Y-109.644
X90.598Y-64.227
X97.15Y-36.24
X102.4Y-65.775
X124.333Y-62.5
X126.475Y-37.526
X126.71Y-68.528
X126.895Y-41.22
X127.643Y-131.983
X127.766Y-82.213
X127.777Y-125.005
X128.332Y-128.087
X128.85Y-93.197
X129.334Y-63.852
X129.725Y-61.951
X130.305Y-68.528
X130.338Y-36.433
X130.407Y-59.675
X132.263Y-39.03
X132.676Y-62.298
X133.551Y-61.858
X144.642Y-71.024
X144.874Y-66.374
X147.646Y-63.8
X148.331Y-62.5
X150.498Y-35.605
X150.705Y-68.528
X150.826Y-82.217
X151.317Y-43.048
X152.436Y-150.089
X154.267Y-58.17
X154.302Y-68.528
X155.677Y-38.325
X156.365Y-42.0
X156.575Y-149.07
X156.678Y-61.85
X157.053Y-50.471
X157.564Y-59.744
X168.019Y-64.459
X168.175Y-75.545
X169.729Y-71.808
X172.332Y-63.8
X173.24Y-35.605
X173.24Y-47.838
X173.839Y-49.163
X174.707Y-68.528
X174.928Y-61.85
X175.519Y-62.587
X176.729Y-93.009
X177.597Y-44.44
X177.785Y-149.198
X177.956Y-36.981
X178.043Y-62.921
X178.097Y-59.715
X178.286Y-68.528
X178.825Y-92.753
X178.993Y-43.571
X179.362Y-59.743
X191.198Y-74.434
X192.175Y-64.439
X192.936Y-68.287
X195.246Y-70.95
X195.62Y-63.8
X196.344Y-62.5
X198.284Y-35.605
X198.685Y-68.528
X198.895Y-41.22
X199.969Y-136.427
X200.065Y-82.227
X200.928Y-93.272
X202.064Y-62.502
X202.33Y-68.528
X215.214Y-74.922
X216.175Y-64.447
X216.624Y-70.95
X233.103Y-35.605
X234.691Y-68.528
X234.936Y-62.5
X235.429Y-63.8
X235.593Y-82.237
X236.373Y-42.874
X237.534Y-40.05
X238.22Y-36.673
X238.311Y-68.528
X238.818Y-59.729
X239.845Y-59.174
X240.581Y-59.747
X251.184Y-74.78
X252.114Y-64.449
X255.232Y-70.95
X255.62Y-63.8
X256.321Y-62.5
X258.039Y-35.605
X258.692Y-68.528
X258.941Y-61.85
X259.468Y-43.055
X260.5Y-69.338
X260.534Y-59.731
X260.917Y-93.224
X262.284Y-36.216
X262.298Y-59.384
X262.315Y-68.528
X262.993Y-43.571
X263.406Y-82.229
X275.188Y-74.721
X276.175Y-64.45
X276.708Y-68.528
X279.252Y-70.95
X280.486Y-35.605
X282.951Y-62.5
X283.501Y-43.05
X283.628Y-59.71
X283.675Y-67.447
X284.95Y-93.251
X285.612Y-59.666
X285.805Y-82.196
X286.043Y-62.9
X286.068Y-61.85
X286.298Y-39.0
X286.311Y-36.0
X286.333Y-68.528
X288.201Y-59.701
X300.175Y-64.438
X300.175Y-75.554
X303.234Y-70.996
X304.318Y-63.8
X305.427Y-35.605
X306.704Y-68.528
X306.932Y-62.867
X306.959Y-61.85
X307.223Y-81.044
X307.675Y-43.034
X308.317Y-136.451
X308.771Y-93.064
X309.656Y-58.843
X310.278Y-36.216
X310.31Y-68.528
X312.206Y-59.57
X323.198Y-74.434
X324.711Y-68.528
X324.961Y-66.286
X327.234Y-70.95
T4
X19.5Y-61.0
X30.0Y-59.0
X39.0Y-28.7
X39.0Y-33.3
X40.2Y-28.7
X40.2Y-33.3
X48.6Y-8.8
X48.6Y-10.0
X48.6Y-11.2
X48.6Y-23.0
X48.6Y-24.2
X48.6Y-25.4
X49.8Y-8.8
X49.8Y-10.0
X49.8Y-11.2
X49.8Y-12.4
X49.8Y-21.8
X49.8Y-23.0
X49.8Y-24.2
X49.8Y-25.4
X51.0Y-8.8
X51.0Y-10.0
X51.0Y-11.2
X51.0Y-12.4
X51.0Y-21.8
X51.0Y-23.0
X51.0Y-24.2
X51.0Y-25.4
X53.2Y-9.7
X53.2Y-10.9
X53.2Y-12.1
X53.2Y-22.7
X53.2Y-23.9
X53.2Y-25.1
X54.2Y-9.7
X54.2Y-10.9
X54.2Y-12.1
X54.2Y-22.7
X54.2Y-23.9
X54.2Y-25.1
X60.0Y-6.8
X60.0Y-13.2
X60.0Y-19.8
X60.0Y-26.2
X61.2Y-6.8
X61.2Y-13.2
X61.2Y-19.8
X61.2Y-26.2
X62.4Y-6.8
X62.4Y-13.2
X62.4Y-19.8
X62.4Y-26.2
X66.8Y-13.9
X66.8Y-15.1
X66.8Y-16.3
X66.8Y-17.5
X66.8Y-18.7
X68.0Y-13.9
X68.0Y-15.1
X68.0Y-16.3
X68.0Y-17.5
X68.0Y-18.7
X80.0Y-13.9
X80.0Y-15.1
X80.0Y-16.3
X80.0Y-17.5
X80.0Y-18.7
X81.2Y-13.9
X81.2Y-15.1
X81.2Y-16.3
X81.2Y-17.5
X81.2Y-18.7
X89.0Y-4.9
X89.0Y-15.1
X89.0Y-17.9
X89.0Y-28.1
X90.2Y-4.9
X90.2Y-15.1
X90.2Y-17.9
X90.2Y-28.1
X91.4Y-4.9
X91.4Y-15.1
X91.4Y-17.9
X91.4Y-28.1
X92.6Y-4.9
X92.6Y-15.1
X92.6Y-17.9
X92.6Y-28.1
X93.8Y-4.9
X93.8Y-15.1
X93.8Y-17.9
X93.8Y-28.1
X99.5Y-9.5
X99.5Y-11.0
X99.5Y-12.5
X99.5Y-14.0
X99.5Y-22.5
X99.5Y-24.0
X99.5Y-25.5
X99.5Y-27.0
X100.7Y-9.5
X100.7Y-11.0
X100.7Y-12.5
X100.7Y-14.0
X100.7Y-22.5
X100.7Y-24.0
X100.7Y-25.5
X100.7Y-27.0
X101.9Y-9.5
X101.9Y-11.0
X101.9Y-12.5
X101.9Y-14.0
X101.9Y-22.5
X101.9Y-24.0
X101.9Y-25.5
X101.9Y-27.0
X104.0Y-52.4
X107.0Y-26.2
X107.0Y-30.8
X108.2Y-26.2
X108.2Y-30.8
X109.16Y-46.45
X109.16Y-47.65
X109.16Y-48.85
X111.76Y-46.45
X111.76Y-47.65
X111.76Y-48.85
X114.24Y-46.45
X114.24Y-47.65
X114.24Y-48.85
X116.84Y-46.45
X116.84Y-47.65
X116.84Y-48.85
X126.5Y-82.1
X129.35Y-11.0
X129.35Y-12.3
X129.35Y-19.7
X129.35Y-21.0
X130.65Y-11.0
X130.65Y-12.3
X130.65Y-19.7
X130.65Y-21.0
X130.8Y-120.5
X134.3Y-68.0
X134.3Y-69.5
X134.3Y-71.0
X134.3Y-72.5
X135.2Y-82.0
X135.2Y-83.4
X135.2Y-84.8
X135.35Y-24.0
X135.35Y-25.3
X135.35Y-32.7
X135.35Y-34.0
X135.5Y-68.0
X135.5Y-69.5
X135.5Y-71.0
X135.5Y-72.5
X136.6Y-47.34
X136.6Y-48.64
X136.6Y-55.34
X136.6Y-56.54
X136.6Y-82.0
X136.6Y-83.4
X136.6Y-84.8
X136.65Y-24.0
X136.65Y-25.3
X136.65Y-32.7
X136.65Y-34.0
X138.0Y-47.34
X138.0Y-48.64
X138.0Y-55.34
X138.0Y-56.54
X138.0Y-82.0
X138.0Y-83.4
X138.0Y-84.8
X139.4Y-47.34
X139.4Y-48.64
X139.4Y-55.34
X139.4Y-56.54
X139.4Y-82.0
X139.4Y-83.4
X139.4Y-84.8
X140.5Y-68.0
X140.5Y-69.5
X140.5Y-71.0
X140.5Y-72.5
X141.35Y-11.0
X141.35Y-12.3
X141.35Y-19.7
X141.35Y-21.0
X141.7Y-68.0
X141.7Y-69.5
X141.7Y-71.0
X141.7Y-72.5
X141.9Y-124.5
X141.9Y-128.5
X141.9Y-132.5
X141.9Y-136.5
X141.9Y-140.5
X141.9Y-144.5
X141.9Y-148.5
X141.9Y-152.5
X141.9Y-156.5
X142.0Y-87.0
X142.0Y-91.0
X142.0Y-95.0
X142.0Y-99.0
X142.0Y-103.0
X142.65Y-11.0
X142.65Y-12.3
X142.65Y-19.7
X142.65Y-21.0
X153.35Y-11.0
X153.35Y-12.3
X153.35Y-19.7
X153.35Y-21.0
X154.65Y-11.0
X154.65Y-12.3
X154.65Y-19.7
X154.65Y-21.0
X154.8Y-120.5
X158.3Y-68.0
X158.3Y-69.5
X158.3Y-71.0
X158.3Y-72.5
X159.2Y-82.0
X159.2Y-83.4
X159.2Y-84.8
X159.35Y-24.0
X159.35Y-25.3
X159.35Y-32.7
X159.35Y-34.0
X159.5Y-68.0
X159.5Y-69.5
X159.5Y-71.0
X159.5Y-72.5
X160.6Y-47.34
X160.6Y-48.64
X160.6Y-55.34
X160.6Y-56.54
X160.6Y-82.0
X160.6Y-83.4
X160.6Y-84.8
X160.65Y-24.0
X160.65Y-25.3
X160.65Y-32.7
X160.65Y-34.0
X162.0Y-47.34
X162.0Y-48.64
X162.0Y-55.34
X162.0Y-56.54
X162.0Y-82.0
X162.0Y-83.4
X162.0Y-84.8
X163.4Y-47.34
X163.4Y-48.64
X163.4Y-55.34
X163.4Y-56.54
X163.4Y-82.0
X163.4Y-83.4
X163.4Y-84.8
X164.5Y-68.0
X164.5Y-69.5
X164.5Y-71.0
X164.5Y-72.5
X165.35Y-11.0
X165.35Y-12.3
X165.35Y-19.7
X165.35Y-21.0
X165.7Y-68.0
X165.7Y-69.5
X165.7Y-71.0
X165.7Y-72.5
X165.9Y-124.5
X165.9Y-128.5
X165.9Y-132.5
X165.9Y-136.5
X165.9Y-140.5
X165.9Y-144.5
X165.9Y-148.5
X165.9Y-152.5
X165.9Y-156.5
X166.0Y-87.0
X166.0Y-91.0
X166.0Y-95.0
X166.0Y-99.0
X166.0Y-103.0
X166.65Y-11.0
X166.65Y-12.3
X166.65Y-19.7
X166.65Y-21.0
X177.35Y-11.0
X177.35Y-12.3
X177.35Y-19.7
X177.35Y-21.0
X178.65Y-11.0
X178.65Y-12.3
X178.65Y-19.7
X178.65Y-21.0
X178.8Y-120.5
X182.3Y-68.0
X182.3Y-69.5
X182.3Y-71.0
X182.3Y-72.5
X183.2Y-82.0
X183.2Y-83.4
X183.2Y-84.8
X183.35Y-24.0
X183.35Y-25.3
X183.35Y-32.7
X183.35Y-34.0
X183.5Y-68.0
X183.5Y-69.5
X183.5Y-71.0
X183.5Y-72.5
X184.6Y-30.34
X184.6Y-31.64
X184.6Y-54.645
X184.6Y-55.845
X184.6Y-82.0
X184.6Y-83.4
X184.6Y-84.8
X184.65Y-24.0
X184.65Y-25.3
X184.65Y-32.7
X184.65Y-34.0
X186.0Y-30.34
X186.0Y-31.64
X186.0Y-54.645
X186.0Y-55.845
X186.0Y-82.0
X186.0Y-83.4
X186.0Y-84.8
X187.4Y-30.34
X187.4Y-31.64
X187.4Y-54.645
X187.4Y-55.845
X187.4Y-82.0
X187.4Y-83.4
X187.4Y-84.8
X188.5Y-68.0
X188.5Y-69.5
X188.5Y-71.0
X188.5Y-72.5
X189.35Y-11.0
X189.35Y-12.3
X189.35Y-19.7
X189.35Y-21.0
X189.7Y-68.0
X189.7Y-69.5
X189.7Y-71.0
X189.7Y-72.5
X189.9Y-124.5
X189.9Y-128.5
X189.9Y-132.5
X189.9Y-136.5
X189.9Y-140.5
X189.9Y-144.5
X189.9Y-148.5
X189.9Y-152.5
X189.9Y-156.5
X190.0Y-87.0
X190.0Y-91.0
X190.0Y-95.0
X190.0Y-99.0
X190.0Y-103.0
X190.65Y-11.0
X190.65Y-12.3
X190.65Y-19.7
X190.65Y-21.0
X201.35Y-11.0
X201.35Y-12.3
X201.35Y-19.7
X201.35Y-21.0
X202.65Y-11.0
X202.65Y-12.3
X202.65Y-19.7
X202.65Y-21.0
X202.8Y-120.5
X206.3Y-68.0
X206.3Y-69.5
X206.3Y-71.0
X206.3Y-72.5
X207.2Y-82.0
X207.2Y-83.4
X207.2Y-84.8
X207.35Y-24.0
X207.35Y-25.3
X207.35Y-32.7
X207.35Y-34.0
X207.5Y-68.0
X207.5Y-69.5
X207.5Y-71.0
X207.5Y-72.5
X208.6Y-30.34
X208.6Y-31.64
X208.6Y-54.645
X208.6Y-55.845
X208.6Y-82.0
X208.6Y-83.4
X208.6Y-84.8
X208.65Y-24.0
X208.65Y-25.3
X208.65Y-32.7
X208.65Y-34.0
X210.0Y-30.34
X210.0Y-31.64
X210.0Y-54.645
X210.0Y-55.845
X210.0Y-82.0
X210.0Y-83.4
X210.0Y-84.8
X211.4Y-30.34
X211.4Y-31.64
X211.4Y-54.645
X211.4Y-55.845
X211.4Y-82.0
X211.4Y-83.4
X211.4Y-84.8
X212.5Y-68.0
X212.5Y-69.5
X212.5Y-71.0
X212.5Y-72.5
X213.35Y-11.0
X213.35Y-12.3
X213.35Y-19.7
X213.35Y-21.0
X213.7Y-68.0
X213.7Y-69.5
X213.7Y-71.0
X213.7Y-72.5
X213.9Y-124.5
X213.9Y-128.5
X213.9Y-132.5
X213.9Y-136.5
X213.9Y-140.5
X213.9Y-144.5
X213.9Y-148.5
X213.9Y-152.5
X213.9Y-156.5
X214.0Y-87.0
X214.0Y-91.0
X214.0Y-95.0
X214.0Y-99.0
X214.0Y-103.0
X214.65Y-11.0
X214.65Y-12.3
X214.65Y-19.7
X214.65Y-21.0
X237.35Y-11.0
X237.35Y-12.3
X237.35Y-19.7
X237.35Y-21.0
X238.65Y-11.0
X238.65Y-12.3
X238.65Y-19.7
X238.65Y-21.0
X238.8Y-120.5
X242.3Y-68.0
X242.3Y-69.5
X242.3Y-71.0
X242.3Y-72.5
X243.2Y-82.0
X243.2Y-83.4
X243.2Y-84.8
X243.35Y-24.0
X243.35Y-25.3
X243.35Y-32.7
X243.35Y-34.0
X243.5Y-68.0
X243.5Y-69.5
X243.5Y-71.0
X243.5Y-72.5
X244.6Y-30.34
X244.6Y-31.64
X244.6Y-54.645
X244.6Y-55.845
X244.6Y-82.0
X244.6Y-83.4
X244.6Y-84.8
X244.65Y-24.0
X244.65Y-25.3
X244.65Y-32.7
X244.65Y-34.0
X246.0Y-30.34
X246.0Y-31.64
X246.0Y-54.645
X246.0Y-55.845
X246.0Y-82.0
X246.0Y-83.4
X246.0Y-84.8
X247.4Y-30.34
X247.4Y-31.64
X247.4Y-54.645
X247.4Y-55.845
X247.4Y-82.0
X247.4Y-83.4
X247.4Y-84.8
X248.5Y-68.0
X248.5Y-69.5
X248.5Y-71.0
X248.5Y-72.5
X249.35Y-11.0
X249.35Y-12.3
X249.35Y-19.7
X249.35Y-21.0
X249.7Y-68.0
X249.7Y-69.5
X249.7Y-71.0
X249.7Y-72.5
X249.9Y-124.5
X249.9Y-128.5
X249.9Y-132.5
X249.9Y-136.5
X249.9Y-140.5
X249.9Y-144.5
X249.9Y-148.5
X249.9Y-152.5
X249.9Y-156.5
X250.0Y-87.0
X250.0Y-91.0
X250.0Y-95.0
X250.0Y-99.0
X250.0Y-103.0
X250.65Y-11.0
X250.65Y-12.3
X250.65Y-19.7
X250.65Y-21.0
X261.35Y-11.0
X261.35Y-12.3
X261.35Y-19.7
X261.35Y-21.0
X262.65Y-11.0
X262.65Y-12.3
X262.65Y-19.7
X262.65Y-21.0
X262.8Y-120.5
X266.3Y-68.0
X266.3Y-69.5
X266.3Y-71.0
X266.3Y-72.5
X267.2Y-82.0
X267.2Y-83.4
X267.2Y-84.8
X267.35Y-24.0
X267.35Y-25.3
X267.35Y-32.7
X267.35Y-34.0
X267.5Y-68.0
X267.5Y-69.5
X267.5Y-71.0
X267.5Y-72.5
X268.6Y-30.34
X268.6Y-31.64
X268.6Y-54.645
X268.6Y-55.845
X268.6Y-82.0
X268.6Y-83.4
X268.6Y-84.8
X268.65Y-24.0
X268.65Y-25.3
X268.65Y-32.7
X268.65Y-34.0
X270.0Y-30.34
X270.0Y-31.64
X270.0Y-54.645
X270.0Y-55.845
X270.0Y-82.0
X270.0Y-83.4
X270.0Y-84.8
X271.4Y-30.34
X271.4Y-31.64
X271.4Y-54.645
X271.4Y-55.845
X271.4Y-82.0
X271.4Y-83.4
X271.4Y-84.8
X272.5Y-68.0
X272.5Y-69.5
X272.5Y-71.0
X272.5Y-72.5
X273.35Y-11.0
X273.35Y-12.3
X273.35Y-19.7
X273.35Y-21.0
X273.7Y-68.0
X273.7Y-69.5
X273.7Y-71.0
X273.7Y-72.5
X273.9Y-124.5
X273.9Y-128.5
X273.9Y-132.5
X273.9Y-136.5
X273.9Y-140.5
X273.9Y-144.5
X273.9Y-148.5
X273.9Y-152.5
X273.9Y-156.5
X274.0Y-87.0
X274.0Y-91.0
X274.0Y-95.0
X274.0Y-99.0
X274.0Y-103.0
X274.65Y-11.0
X274.65Y-12.3
X274.65Y-19.7
X274.65Y-21.0
X285.35Y-11.0
X285.35Y-12.3
X285.35Y-19.7
X285.35Y-21.0
X286.65Y-11.0
X286.65Y-12.3
X286.65Y-19.7
X286.65Y-21.0
X286.8Y-120.5
X290.3Y-68.0
X290.3Y-69.5
X290.3Y-71.0
X290.3Y-72.5
X291.2Y-82.0
X291.2Y-83.4
X291.2Y-84.8
X291.35Y-24.0
X291.35Y-25.3
X291.35Y-32.7
X291.35Y-34.0
X291.5Y-68.0
X291.5Y-69.5
X291.5Y-71.0
X291.5Y-72.5
X292.6Y-30.34
X292.6Y-31.64
X292.6Y-54.645
X292.6Y-55.845
X292.6Y-82.0
X292.6Y-83.4
X292.6Y-84.8
X292.65Y-24.0
X292.65Y-25.3
X292.65Y-32.7
X292.65Y-34.0
X294.0Y-30.34
X294.0Y-31.64
X294.0Y-54.645
X294.0Y-55.845
X294.0Y-82.0
X294.0Y-83.4
X294.0Y-84.8
X295.4Y-30.34
X295.4Y-31.64
X295.4Y-54.645
X295.4Y-55.845
X295.4Y-82.0
X295.4Y-83.4
X295.4Y-84.8
X296.5Y-68.0
X296.5Y-69.5
X296.5Y-71.0
X296.5Y-72.5
X297.35Y-11.0
X297.35Y-12.3
X297.35Y-19.7
X297.35Y-21.0
X297.7Y-68.0
X297.7Y-69.5
X297.7Y-71.0
X297.7Y-72.5
X297.9Y-124.5
X297.9Y-128.5
X297.9Y-132.5
X297.9Y-136.5
X297.9Y-140.5
X297.9Y-144.5
X297.9Y-148.5
X297.9Y-152.5
X297.9Y-156.5
X298.0Y-87.0
X298.0Y-91.0
X298.0Y-95.0
X298.0Y-99.0
X298.0Y-103.0
X298.65Y-11.0
X298.65Y-12.3
X298.65Y-19.7
X298.65Y-21.0
X309.35Y-11.0
X309.35Y-12.3
X309.35Y-19.7
X309.35Y-21.0
X309.6Y-100.5
X309.6Y-104.5
X309.6Y-108.5
X309.6Y-112.5
X309.6Y-116.5
X309.6Y-120.5
X310.65Y-11.0
X310.65Y-12.3
X310.65Y-19.7
X310.65Y-21.0
X310.8Y-100.5
X310.8Y-104.5
X310.8Y-108.5
X310.8Y-112.5
X310.8Y-116.5
X310.8Y-120.5
X314.3Y-68.0
X314.3Y-69.5
X314.3Y-71.0
X314.3Y-72.5
X315.2Y-82.0
X315.2Y-83.4
X315.2Y-84.8
X315.35Y-24.0
X315.35Y-25.3
X315.35Y-32.7
X315.35Y-34.0
X315.5Y-68.0
X315.5Y-69.5
X315.5Y-71.0
X315.5Y-72.5
X316.6Y-55.84
X316.6Y-57.14
X316.6Y-82.0
X316.6Y-83.4
X316.6Y-84.8
X316.65Y-24.0
X316.65Y-25.3
X316.65Y-32.7
X316.65Y-34.0
X318.0Y-55.84
X318.0Y-57.14
X318.0Y-82.0
X318.0Y-83.4
X318.0Y-84.8
X319.4Y-55.84
X319.4Y-57.14
X319.4Y-82.0
X319.4Y-83.4
X319.4Y-84.8
X320.5Y-68.0
X320.5Y-69.5
X320.5Y-71.0
X320.5Y-72.5
X321.35Y-11.0
X321.35Y-12.3
X321.35Y-19.7
X321.35Y-21.0
X321.7Y-68.0
X321.7Y-69.5
X321.7Y-71.0
X321.7Y-72.5
X321.9Y-124.5
X321.9Y-128.5
X321.9Y-132.5
X321.9Y-136.5
X321.9Y-140.5
X321.9Y-144.5
X321.9Y-148.5
X321.9Y-152.5
X321.9Y-156.5
X322.0Y-87.0
X322.0Y-91.0
X322.0Y-95.0
X322.0Y-99.0
X322.0Y-103.0
X322.65Y-11.0
X322.65Y-12.3
X322.65Y-19.7
X322.65Y-21.0
T5
X10.508Y-28.703
X13.57Y-27.795
X16.883Y-30.0
X22.884Y-38.243
X24.807Y-8.839
X28.48Y-13.236
X35.328Y-68.706
X35.328Y-69.945
X36.955Y-110.955
X38.4Y-82.303
X79.5Y-42.5
X83.752Y-55.378
X85.815Y-55.186
X87.971Y-52.306
X122.105Y-52.144
X125.617Y-35.708
X128.235Y-142.95
X152.223Y-142.95
X185.182Y-149.186
X204.821Y-149.175
X242.947Y-149.196
X244.209Y-149.389
X268.016Y-149.224
X291.158Y-149.187
X314.603Y-149.193
X324.8Y-124.5
X324.8Y-128.5
X324.8Y-132.5
X324.8Y-136.5
X324.8Y-140.5
X324.8Y-144.5
X324.8Y-148.5
X324.8Y-152.5
X324.8Y-156.5
T7
X33.5Y-64.0
X33.5Y-66.54
X33.5Y-69.08
X33.5Y-71.62
T8
X132.19Y-160.3
X139.81Y-160.3
X156.19Y-160.3
X163.81Y-160.3
X180.19Y-160.3
X187.81Y-160.3
X204.19Y-160.3
X211.81Y-160.3
X240.19Y-160.3
X247.81Y-160.3
X264.19Y-160.3
X271.81Y-160.3
X288.19Y-160.3
X295.81Y-160.3
X312.19Y-160.3
X319.81Y-160.3
T9
X134.3Y-96.63
X134.3Y-110.1
X134.3Y-119.37
X137.7Y-96.63
X137.7Y-110.1
X137.7Y-119.37
X158.3Y-96.63
X158.3Y-110.1
X158.3Y-119.37
X161.7Y-96.63
X161.7Y-110.1
X161.7Y-119.37
X182.3Y-96.63
X182.3Y-110.1
X182.3Y-119.37
X185.7Y-96.63
X185.7Y-110.1
X185.7Y-119.37
X206.3Y-96.63
X206.3Y-110.1
X206.3Y-119.37
X209.7Y-96.63
X209.7Y-110.1
X209.7Y-119.37
X242.3Y-96.63
X242.3Y-110.1
X242.3Y-119.37
X245.7Y-96.63
X245.7Y-110.1
X245.7Y-119.37
X266.3Y-96.63
X266.3Y-110.1
X266.3Y-119.37
X269.7Y-96.63
X269.7Y-110.1
X269.7Y-119.37
X290.3Y-96.63
X290.3Y-110.1
X290.3Y-119.37
X293.7Y-96.63
X293.7Y-110.1
X293.7Y-119.37
X314.3Y-96.63
X314.3Y-110.1
X314.3Y-119.37
X317.7Y-96.63
X317.7Y-110.1
X317.7Y-119.37
T10
X38.565Y-12.865
X38.565Y-17.3
X38.565Y-21.735
X43.0Y-12.865
X43.0Y-17.3
X43.0Y-21.735
X46.565Y-47.565
X46.565Y-52.0
X46.565Y-56.435
X47.435Y-12.865
X47.435Y-17.3
X47.435Y-21.735
X51.0Y-47.565
X51.0Y-52.0
X51.0Y-56.435
X55.435Y-47.565
X55.435Y-52.0
X55.435Y-56.435
T6
X2.2Y-47.18G85X3.0Y-47.18
G05
X2.2Y-55.82G85X3.0Y-55.82
G05
X6.23Y-47.18G85X7.33Y-47.18
G05
X6.23Y-55.82G85X7.33Y-55.82
G05
M30
